<?xml version="1.0" encoding="UTF-8"?>
<svg width="300px" height="44px" viewBox="0 0 300 44" version="1.1" xmlns="http://www.w3.org/2000/svg" xmlns:xlink="http://www.w3.org/1999/xlink">
    <!-- Generator: Sketch 54.1 (76490) - https://sketchapp.com -->
    <title>logo</title>
    <desc>Created with Sketch.</desc>
    <g id="Page-1" stroke="none" stroke-width="1" fill="none" fill-rule="evenodd">
        <g id="logo" transform="translate(-6.000000, -5.000000)" fill-rule="nonzero">
            <g id="Group-4">
                <g id="logo" transform="translate(49.741181, 11.965926)">
                    <path d="M10.0941407,26.4101562 C6.15662106,26.4101562 3.78685309,24.8971505 2.98476575,21.8710938 C2.72044151,20.8867138 2.58828137,19.7428451 2.58828137,18.4394531 C2.58828137,17.5371049 2.63385383,16.6074267 2.72500012,15.6503906 C2.98932436,12.8248557 3.38580477,10.4277442 3.91445325,8.45898438 C4.06940194,7.89387738 4.26536352,7.38346582 4.50234387,6.92773438 C4.73932422,6.47200293 5.07656043,6.10970187 5.51406262,5.84082031 C5.95156481,5.57193876 6.56223578,5.4375 7.34609387,5.4375 C7.99323252,5.4375 8.50820133,5.57877463 8.89101575,5.86132812 C9.52903977,6.34440346 9.848047,7.0507766 9.848047,7.98046875 C9.848047,8.45442945 9.72044411,9.74868734 9.4652345,11.8632812 C9.19179563,14.0599068 9.03229202,15.618485 8.98671887,16.5390625 C8.95026036,17.1953158 8.93203137,17.828773 8.93203137,18.4394531 C8.93203137,19.6425841 9.02317629,20.6907507 9.20546887,21.5839844 C9.45156385,22.7780008 9.89361672,23.375 10.5316407,23.375 C12.491286,23.375 13.7354141,18.9362423 14.2640626,10.0585938 L14.332422,8.97851562 C14.405339,7.83918701 14.5511709,7.01432547 14.769922,6.50390625 C15.0798194,5.76562131 15.6722614,5.39648438 16.5472657,5.39648438 C17.2673214,5.39648438 17.8050765,5.69726262 18.160547,6.29882812 C18.479559,6.86393512 18.6390626,7.98501766 18.6390626,9.66210938 C18.6390626,13.2988463 18.3109409,16.4661323 17.6546876,19.1640625 C16.4971297,23.9948158 13.9769727,26.4101562 10.0941407,26.4101562 Z M24.0203126,26.65625 C22.7442646,26.65625 21.8237008,25.804045 21.2585939,24.0996094 C20.811977,22.7597589 20.588672,20.9915474 20.588672,18.7949219 L20.588672,17.5917969 C20.6069012,16.0969977 20.7664049,14.2102979 21.0671876,11.9316406 C21.4317728,9.19725195 21.8419249,7.31966656 22.2976564,6.29882812 C22.6987,5.38736523 23.5007753,4.93164062 24.7039064,4.93164062 C25.8341203,4.93164062 26.531379,5.38280799 26.7957032,6.28515625 C27.0326836,7.10547285 27.151172,8.40428799 27.151172,10.1816406 C27.151172,11.8405031 27.0691416,13.6406153 26.9050782,15.5820312 C26.6134101,18.8632977 26.1895862,21.4290272 25.6335939,23.2792969 C26.4721397,22.5592412 27.3744744,21.43588 28.3406251,19.9091797 C29.3067758,18.3824793 30.0040344,17.1041718 30.432422,16.0742188 C30.6238292,15.600258 30.7856114,15.2539073 30.9177735,15.0351562 C31.0499357,14.8164052 31.1638668,14.6774092 31.2595704,14.6181641 C31.355274,14.558919 31.4486976,14.5292969 31.5398439,14.5292969 C31.7221364,14.5292969 31.8132814,14.661457 31.8132814,14.9257812 C31.8132814,15.2356786 31.7175792,15.686846 31.526172,16.2792969 C30.3503849,19.9433777 29.0059973,22.7096261 27.4929689,24.578125 C26.3718695,25.9635486 25.214329,26.65625 24.0203126,26.65625 Z M33.7218751,26.65625 C31.3794155,26.65625 30.2082032,24.2500241 30.2082032,19.4375 C30.2082032,17.6236888 30.3950503,15.1718904 30.7687501,12.0820312 L30.2492188,12.0546875 C29.410673,11.9999997 28.9914063,11.690107 28.9914063,11.125 C28.9914063,10.486976 29.6841078,10.0950528 31.0695313,9.94921875 C31.4432311,8.23566852 31.8738909,7.13281496 32.3615235,6.640625 C32.8491562,6.14843504 33.5304645,5.90234375 34.4054688,5.90234375 C35.2713586,5.90234375 35.8957013,6.23502271 36.2785157,6.90039062 C36.6613301,7.56575854 36.8527345,8.59113891 36.8527345,9.9765625 C38.5662847,10.1406258 39.423047,10.5234345 39.423047,11.125 C39.423047,11.690107 38.9126354,11.9954425 37.891797,12.0410156 L36.8253907,12.0820312 C36.6522128,16.8489822 36.1600302,20.5813667 35.3488282,23.2792969 C36.6431055,22.5592412 37.7710239,21.43588 38.7326173,19.9091797 C39.6942106,18.3824793 40.3891907,17.1041718 40.8175782,16.0742188 C41.0089854,15.600258 41.1707677,15.2539073 41.3029298,15.0351562 C41.4350919,14.8164052 41.5490231,14.6774092 41.6447267,14.6181641 C41.7404303,14.558919 41.8338538,14.5292969 41.9250001,14.5292969 C42.1072927,14.5292969 42.1984376,14.661457 42.1984376,14.9257812 C42.1984376,15.2356786 42.1027354,15.686846 41.9113282,16.2792969 C40.8266874,19.6699388 39.4230556,22.3040271 37.7003907,24.1816406 C36.1873623,25.8313885 34.8612037,26.65625 33.7218751,26.65625 Z M43.4507813,26.65625 C42.2020772,26.65625 41.3179714,25.9453196 40.7984376,24.5234375 C40.3973939,23.4479113 40.1968751,22.035165 40.1968751,20.2851562 C40.1968751,19.3372348 40.2652338,18.320969 40.4019532,17.2363281 C40.7665384,14.3196469 41.2997362,12.3737028 42.0015626,11.3984375 C42.3570331,10.9153622 43.0087193,10.6738281 43.9566407,10.6738281 C44.8498743,10.6738281 45.4377591,10.9062477 45.7203126,11.3710938 C46.1487001,12.0911494 46.3628907,13.4264225 46.3628907,15.3769531 C46.3628907,17.9381638 45.9345096,20.5722521 45.0777345,23.2792969 C45.9162803,22.5592412 46.8163364,21.43588 47.7779298,19.9091797 C48.7395231,18.3824793 49.4345031,17.1041718 49.8628907,16.0742188 C50.0542979,15.600258 50.2160801,15.2539073 50.3482423,15.0351562 C50.4804044,14.8164052 50.5943355,14.6774092 50.6900391,14.6181641 C50.7857427,14.558919 50.8791663,14.5292969 50.9703126,14.5292969 C51.1526052,14.5292969 51.2437501,14.661457 51.2437501,14.9257812 C51.2437501,15.2356786 51.1480479,15.686846 50.9566407,16.2792969 C49.7808536,19.9433777 48.436466,22.7096261 46.9234376,24.578125 C45.8023382,25.9635486 44.6447977,26.65625 43.4507813,26.65625 Z M44.0796876,9.62109375 C43.7333317,9.62109375 43.386981,9.54817781 43.0406251,9.40234375 C42.2932255,9.101561 41.9195313,8.55924871 41.9195313,7.77539062 C41.9195313,6.97330328 42.2203096,6.34440332 42.8218751,5.88867188 C43.3414089,5.50585746 43.9065074,5.31445312 44.5171876,5.31445312 C44.8453142,5.31445312 45.1871077,5.38281182 45.5425782,5.51953125 C46.2990924,5.820314 46.6773438,6.39908426 46.6773438,7.25585938 C46.6773438,7.81185174 46.5223975,8.28580533 46.2125001,8.67773438 C45.7203101,9.30664377 45.0093797,9.62109375 44.0796876,9.62109375 Z M68.6835938,26.65625 C66.6054584,26.65625 65.5664063,24.9199392 65.5664063,21.4472656 C65.5664063,20.0071543 65.7441389,18.4349044 66.0996094,16.7304688 C66.4459653,15.0716063 66.8059878,13.8320354 67.1796876,13.0117188 C66.678383,13.0117188 66.2181011,13.2486955 65.7988282,13.7226562 C65.0514286,14.5794314 64.3906279,15.9693914 63.8164063,17.8925781 C63.4153626,19.2506578 63.0917982,20.5996027 62.8457032,21.9394531 C62.5996082,23.2793036 62.2350285,24.3639281 61.7519532,25.1933594 C61.1777316,26.1686247 60.4485722,26.65625 59.5644532,26.65625 C58.2519466,26.65625 57.5957032,25.2070457 57.5957032,22.3085938 C57.5957032,21.1419212 57.6914054,19.8841213 57.8828126,18.5351562 C58.1471368,16.6210842 58.4707013,14.9895901 58.8535157,13.640625 C58.4160135,13.640625 58.0013041,13.8912735 57.6093751,14.3925781 C56.8893194,15.3222703 56.2330759,16.7851463 55.6406251,18.78125 C55.1393205,20.4583417 54.8066415,21.8300728 54.6425782,22.8964844 C54.451171,24.0905008 54.15495,24.947263 53.7539063,25.4667969 C53.2799456,26.0865916 52.5690152,26.3964844 51.6210938,26.3964844 C50.9466113,26.3964844 50.4179707,26.1914083 50.0351563,25.78125 C49.5065078,25.2343723 49.2421876,23.9173281 49.2421876,21.8300781 C49.2421876,20.6907495 49.2832028,19.5195373 49.3652344,18.3164062 C49.3925783,17.9700504 49.4882805,17.1816468 49.6523438,15.9511719 C49.9531266,13.6725146 50.4134084,12.1640662 51.0332032,11.4257812 C51.4707054,10.9062474 52.1634068,10.6464844 53.1113282,10.6464844 C53.8313839,10.6464844 54.3873679,10.8333315 54.7792969,11.2070312 C55.171226,11.580731 55.4036455,12.0956998 55.4765626,12.7519531 C55.5130211,13.1074237 55.5312501,13.4674461 55.5312501,13.8320312 C55.5312501,14.1419286 55.5175783,14.4518214 55.4902344,14.7617188 C56.1191438,13.4947853 56.8688108,12.4921912 57.7392579,11.7539062 C58.6097049,11.0156213 59.4869748,10.6464844 60.3710938,10.6464844 C61.054691,10.6464844 61.6038391,10.8105452 62.0185548,11.1386719 C62.4332704,11.4667985 62.7477204,11.892901 62.9619141,12.4169922 C63.1761079,12.9410833 63.3151039,13.5084605 63.3789063,14.1191406 C64.0442742,12.8704365 64.8349564,11.8815141 65.7509766,11.1523438 C66.6669968,10.4231734 67.5533812,10.0585938 68.4101563,10.0585938 C70.4518332,10.0585938 71.4726563,11.7311031 71.4726563,15.0761719 C71.4726563,15.8418007 71.4407556,16.5800746 71.3769532,17.2910156 C71.1399728,19.7337362 70.7845076,21.72981 70.3105469,23.2792969 C71.1490928,22.5592412 72.0491489,21.43588 73.0107423,19.9091797 C73.9723356,18.3824793 74.6673156,17.1041718 75.0957032,16.0742188 C75.296225,15.600258 75.4625645,15.2539073 75.5947266,15.0351562 C75.7268887,14.8164052 75.8408199,14.6774092 75.9365235,14.6181641 C76.0322271,14.558919 76.1256507,14.5292969 76.2167969,14.5292969 C76.3990895,14.5292969 76.4902344,14.661457 76.4902344,14.9257812 C76.4902344,15.2447933 76.3990895,15.6959606 76.2167969,16.2792969 C75.8430972,17.4641986 75.3418001,18.7766855 74.7128907,20.2167969 C73.9472619,21.9759203 73.0996141,23.4296818 72.1699219,24.578125 C71.0488226,25.9635486 69.8867248,26.65625 68.6835938,26.65625 Z M86.2738282,26.65625 C85.6266895,26.65625 85.0866559,26.4762388 84.653711,26.1162109 C84.2207661,25.7561831 83.876694,25.2685578 83.6214844,24.6533203 C83.3662748,24.0380829 83.183985,23.3431028 83.0746094,22.5683594 C82.0628856,24.9199336 80.5726661,26.0957031 78.6039063,26.0957031 C76.9085853,26.0957031 75.7145869,25.4257879 75.0218751,24.0859375 C74.4841119,23.0286405 74.2152344,21.7207109 74.2152344,20.1621094 C74.2152344,19.7428364 74.2334634,19.3190126 74.2699219,18.890625 C74.4704438,16.6028531 75.0947865,14.6842525 76.1429688,13.1347656 C77.3187559,11.4121008 78.8818913,10.5507812 80.8324219,10.5507812 C81.3975289,10.5507812 81.8919901,10.6328117 82.3158204,10.796875 C82.7396506,10.9609383 83.0996731,11.168293 83.3958985,11.4189453 C83.6921239,11.6695976 83.9222649,11.9316393 84.0863282,12.2050781 C84.2686208,11.7493467 84.5352197,11.3802097 84.8861329,11.0976562 C85.2370461,10.8151028 85.7588508,10.6738281 86.4515626,10.6738281 C87.3630254,10.6738281 87.9600247,10.9108049 88.2425782,11.3847656 C88.6983096,12.186853 88.9261719,13.7135304 88.9261719,15.9648438 C88.9261719,18.5533984 88.5843785,20.991525 87.9007813,23.2792969 C88.7393272,22.5592412 89.6393833,21.43588 90.6009766,19.9091797 C91.56257,18.3824793 92.25755,17.1041718 92.6859376,16.0742188 C92.8773448,15.600258 93.039127,15.2539073 93.1712891,15.0351562 C93.3034512,14.8164052 93.4173824,14.6774092 93.513086,14.6181641 C93.6087896,14.558919 93.7022131,14.5292969 93.7933594,14.5292969 C93.975652,14.5292969 94.0667969,14.661457 94.0667969,14.9257812 C94.0667969,15.2356786 93.975652,15.686846 93.7933594,16.2792969 C93.4196596,17.4915425 92.9229198,18.8040294 92.3031251,20.2167969 C91.519267,21.9941495 90.6670619,23.447911 89.7464844,24.578125 C88.6253851,25.9635486 87.4678446,26.65625 86.2738282,26.65625 Z M79.9027344,23.2382812 C80.5681023,23.2382812 81.2790327,22.2539161 82.0355469,20.2851562 C82.7920611,18.3163964 83.288801,16.2610784 83.5257813,14.1191406 C83.1247376,13.5996068 82.6416695,13.3398438 82.0765626,13.3398438 C81.155985,13.3398438 80.4131539,13.8958278 79.8480469,15.0078125 C79.3376277,15.9921924 78.9821625,17.1861909 78.7816407,18.5898438 C78.6904944,19.2552117 78.6449219,19.8658826 78.6449219,20.421875 C78.6449219,22.2994886 79.0641886,23.2382812 79.9027344,23.2382812 Z M95.9753907,26.65625 C93.632931,26.65625 92.4617188,24.2500241 92.4617188,19.4375 C92.4617188,17.6236888 92.6485659,15.1718904 93.0222657,12.0820312 L92.5027344,12.0546875 C91.6641886,11.9999997 91.2449219,11.690107 91.2449219,11.125 C91.2449219,10.486976 91.9376233,10.0950528 93.3230469,9.94921875 C93.6967467,8.23566852 94.1274065,7.13281496 94.6150391,6.640625 C95.1026717,6.14843504 95.78398,5.90234375 96.6589844,5.90234375 C97.5248742,5.90234375 98.1492169,6.23502271 98.5320313,6.90039062 C98.9148457,7.56575854 99.10625,8.59113891 99.10625,9.9765625 C100.8198,10.1406258 101.676563,10.5234345 101.676563,11.125 C101.676563,11.690107 101.166151,11.9954425 100.145313,12.0410156 L99.0789063,12.0820312 C98.9057283,16.8489822 98.4135458,20.5813667 97.6023438,23.2792969 C98.8966211,22.5592412 100.02454,21.43588 100.986133,19.9091797 C101.947726,18.3824793 102.642706,17.1041718 103.071094,16.0742188 C103.262501,15.600258 103.424283,15.2539073 103.556445,15.0351562 C103.688607,14.8164052 103.802539,14.6774092 103.898242,14.6181641 C103.993946,14.558919 104.087369,14.5292969 104.178516,14.5292969 C104.360808,14.5292969 104.451953,14.661457 104.451953,14.9257812 C104.451953,15.2356786 104.356251,15.686846 104.164844,16.2792969 C103.080203,19.6699388 101.676571,22.3040271 99.9539063,24.1816406 C98.4408779,25.8313885 97.1147193,26.65625 95.9753907,26.65625 Z M109.655469,17.46875 C110.339066,17.46875 110.920115,17.0950558 111.398633,16.3476562 C111.877151,15.6002567 112.116406,14.8027386 112.116406,13.9550781 C112.116406,13.1256469 111.8612,12.7109375 111.350781,12.7109375 C110.785674,12.7109375 110.304885,12.8886701 109.908398,13.2441406 C109.511912,13.5996112 109.186069,14.0690075 108.930859,14.6523438 C108.67565,15.23568 108.479688,15.8691372 108.342969,16.5527344 C108.616408,17.1634145 109.053903,17.46875 109.655469,17.46875 Z M108.370313,26.6289062 C106.173687,26.6289062 104.592323,25.9931704 103.626172,24.7216797 C102.660021,23.450189 102.176953,21.8346452 102.176953,19.875 C102.176953,16.9583188 102.92662,14.5885508 104.425977,12.765625 C105.925333,10.9426992 107.864441,10.03125 110.243359,10.03125 C111.792846,10.03125 112.929879,10.41178 113.654492,11.1728516 C114.379105,11.9339231 114.741406,12.8613227 114.741406,13.9550781 C114.741406,15.5501382 114.212766,16.8375602 113.155469,17.8173828 C112.098172,18.7972054 111.018104,19.2871094 109.915234,19.2871094 C109.131376,19.2871094 108.520705,18.9908884 108.083203,18.3984375 C108.055859,18.6992203 108.042188,19.0136702 108.042188,19.3417969 C108.042188,20.1529988 108.133332,20.9049445 108.315625,21.5976562 C108.652866,22.9010482 109.34101,23.5527344 110.380078,23.5527344 C110.926956,23.5527344 111.478383,23.3750018 112.034375,23.0195312 C112.590367,22.6640607 113.128122,22.2015002 113.647656,21.6318359 C114.16719,21.0621716 114.652537,20.4446648 115.103711,19.7792969 C115.554885,19.113929 115.951366,18.4576855 116.293164,17.8105469 C116.634963,17.1634082 116.910676,16.584638 117.120313,16.0742188 C117.31172,15.600258 117.473502,15.2539073 117.605664,15.0351562 C117.737826,14.8164052 117.851757,14.6774092 117.947461,14.6181641 C118.043165,14.558919 118.136588,14.5292969 118.227734,14.5292969 C118.410027,14.5292969 118.501172,14.661457 118.501172,14.9257812 C118.501172,15.2356786 118.40547,15.686846 118.214063,16.2792969 C116.67369,21.0918209 114.700403,24.1953055 112.294141,25.5898438 C111.100124,26.2825555 109.792195,26.6289062 108.370313,26.6289062 Z M125.832031,26.4648438 C125.631509,26.4648438 125.346682,26.4283858 124.977539,26.3554688 C124.608397,26.2825517 124.268882,26.0364604 123.958984,25.6171875 C123.466794,24.9609342 123.220703,23.457043 123.220703,21.1054688 C123.220703,18.3163923 123.40755,15.4908997 123.78125,12.6289062 C124.182294,9.50258854 124.688148,7.47005678 125.298828,6.53125 C125.800133,5.74739191 126.561193,5.35546875 127.582031,5.35546875 C128.201826,5.35546875 128.735024,5.56054482 129.181641,5.97070312 C129.518882,6.27148588 129.755859,6.74088223 129.892578,7.37890625 C130.056641,8.19010822 130.138672,9.25194656 130.138672,10.5644531 C130.138672,13.0254029 130.011069,15.4817586 129.755859,17.9335938 C129.354816,21.6159038 128.826175,24.0403587 128.169922,25.2070312 C127.878254,25.7265651 127.45443,26.0820303 126.898438,26.2734375 C126.542967,26.4010423 126.187502,26.4648438 125.832031,26.4648438 Z M138.596094,26.6289062 C136.280978,26.6289062 134.510488,25.9020255 133.28457,24.4482422 C132.058653,22.9944589 131.445703,21.2877702 131.445703,19.328125 C131.445703,16.429673 132.222714,14.1533286 133.776758,12.4990234 C135.330802,10.8447183 137.288139,10.0175781 139.648828,10.0175781 C141.344149,10.0175781 142.579163,10.4869745 143.353906,11.4257812 C143.900784,12.1002638 144.174219,12.8385377 144.174219,13.640625 C144.174219,14.1601588 144.05573,14.6386697 143.81875,15.0761719 C143.645572,15.4042985 143.440496,15.5683594 143.203516,15.5683594 C142.85716,15.5683594 142.620183,15.3450543 142.492578,14.8984375 C142.392317,14.5611962 142.27155,14.2376318 142.130273,13.9277344 C141.988997,13.617837 141.790756,13.3626312 141.535547,13.1621094 C141.280337,12.9615875 140.929429,12.8613281 140.482812,12.8613281 C139.616923,12.8613281 138.874092,13.4811136 138.254297,14.7207031 C137.634502,15.9602927 137.324609,17.4641839 137.324609,19.2324219 C137.324609,22.0214983 138.281631,23.4160156 140.195703,23.4160156 C141.517324,23.4160156 142.925513,22.2129027 144.420312,19.8066406 C145.295317,18.3938731 145.95156,17.149745 146.389062,16.0742188 C146.58047,15.600258 146.744531,15.2539073 146.88125,15.0351562 C147.081772,14.697915 147.286848,14.5292969 147.496484,14.5292969 C147.678777,14.5292969 147.769922,14.661457 147.769922,14.9257812 C147.769922,15.2356786 147.67422,15.686846 147.482812,16.2792969 C146.963279,17.9017008 146.393623,19.3326761 145.773828,20.5722656 C143.741266,24.6100462 141.348712,26.6289062 138.596094,26.6289062 Z M152.973437,17.46875 C153.657035,17.46875 154.238084,17.0950558 154.716602,16.3476562 C155.19512,15.6002567 155.434375,14.8027386 155.434375,13.9550781 C155.434375,13.1256469 155.179169,12.7109375 154.66875,12.7109375 C154.103643,12.7109375 153.622854,12.8886701 153.226367,13.2441406 C152.829881,13.5996112 152.504038,14.0690075 152.248828,14.6523438 C151.993618,15.23568 151.797657,15.8691372 151.660937,16.5527344 C151.934376,17.1634145 152.371872,17.46875 152.973437,17.46875 Z M151.688281,26.6289062 C149.491656,26.6289062 147.910291,25.9931704 146.944141,24.7216797 C145.97799,23.450189 145.494922,21.8346452 145.494922,19.875 C145.494922,16.9583188 146.244589,14.5885508 147.743945,12.765625 C149.243302,10.9426992 151.18241,10.03125 153.561328,10.03125 C155.110815,10.03125 156.247848,10.41178 156.972461,11.1728516 C157.697074,11.9339231 158.059375,12.8613227 158.059375,13.9550781 C158.059375,15.5501382 157.530734,16.8375602 156.473437,17.8173828 C155.416141,18.7972054 154.336073,19.2871094 153.233203,19.2871094 C152.449345,19.2871094 151.838674,18.9908884 151.401172,18.3984375 C151.373828,18.6992203 151.360156,19.0136702 151.360156,19.3417969 C151.360156,20.1529988 151.451301,20.9049445 151.633594,21.5976562 C151.970835,22.9010482 152.658979,23.5527344 153.698047,23.5527344 C154.244925,23.5527344 154.796351,23.3750018 155.352344,23.0195312 C155.908336,22.6640607 156.446091,22.2015002 156.965625,21.6318359 C157.485159,21.0621716 157.970506,20.4446648 158.42168,19.7792969 C158.872854,19.113929 159.269334,18.4576855 159.611133,17.8105469 C159.952931,17.1634082 160.228645,16.584638 160.438281,16.0742188 C160.629688,15.600258 160.791471,15.2539073 160.923633,15.0351562 C161.055795,14.8164052 161.169726,14.6774092 161.26543,14.6181641 C161.361133,14.558919 161.454557,14.5292969 161.545703,14.5292969 C161.727996,14.5292969 161.819141,14.661457 161.819141,14.9257812 C161.819141,15.2356786 161.723438,15.686846 161.532031,16.2792969 C159.991659,21.0918209 158.018371,24.1953055 155.612109,25.5898438 C154.418093,26.2825555 153.110163,26.6289062 151.688281,26.6289062 Z M173.812109,26.4785156 C172.472259,26.4785156 171.337505,26.2779968 170.407812,25.8769531 C167.545819,24.6373636 166.114844,21.7252833 166.114844,17.140625 C166.114844,15.5182211 166.301691,13.9869864 166.675391,12.546875 C167.249612,10.3411348 168.238535,8.55925158 169.642187,7.20117188 C171.219018,5.66991422 173.237878,4.90429688 175.698828,4.90429688 C176.646749,4.90429688 177.467054,5.03645701 178.159766,5.30078125 C179.435814,5.79297121 180.374606,6.62694725 180.976172,7.80273438 C181.413674,8.65039486 181.632422,9.53450061 181.632422,10.4550781 C181.632422,11.2480508 181.48659,11.9225233 181.194922,12.4785156 C180.967056,12.8977886 180.698179,13.1074219 180.388281,13.1074219 C179.923435,13.1074219 179.627214,12.8248726 179.499609,12.2597656 C179.171483,10.8652274 178.749937,9.8466829 178.234961,9.20410156 C177.719984,8.56152022 177.079691,8.24023438 176.314062,8.24023438 C175.657809,8.24023438 175.065367,8.56607747 174.536719,9.21777344 C174.00807,9.8694694 173.563739,10.7740828 173.203711,11.9316406 C172.843683,13.0891985 172.595313,14.4427006 172.458594,15.9921875 C172.43125,16.3567727 172.417578,16.7714821 172.417578,17.2363281 C172.417578,18.1022179 172.454036,18.8131483 172.526953,19.3691406 C172.845965,21.8847782 173.670827,23.1425781 175.001562,23.1425781 C175.776306,23.1425781 176.475843,22.8212923 177.100195,22.1787109 C177.724547,21.5361296 178.319268,20.5221423 178.884375,19.1367188 C179.121355,18.5624971 179.472263,18.2753906 179.937109,18.2753906 C180.247007,18.2753906 180.474869,18.4850239 180.620703,18.9042969 C180.730079,19.2233089 180.784766,19.6015603 180.784766,20.0390625 C180.784766,20.7955767 180.61159,21.579423 180.265234,22.390625 C179.973566,23.0742222 179.549742,23.7259084 178.99375,24.3457031 C177.699473,25.7675852 175.972276,26.4785156 173.812109,26.4785156 Z M184.662109,26.3964844 C183.695959,26.3964844 183.067059,26.0546909 182.775391,25.3710938 C182.483722,24.6874966 182.337891,23.4296967 182.337891,21.5976562 C182.337891,20.5677032 182.392578,19.3007888 182.501953,17.796875 C182.775392,14.1236796 183.331376,11.7630261 184.169922,10.7148438 C184.607424,10.167966 185.295568,9.89453125 186.234375,9.89453125 C186.963545,9.89453125 187.524087,10.0859356 187.916016,10.46875 C188.244142,10.7786474 188.453776,11.1933568 188.544922,11.7128906 C188.617839,12.1503928 188.654297,12.7063768 188.654297,13.3808594 C189.219404,12.3509063 189.864254,11.5397165 190.588867,10.9472656 C191.31348,10.3548147 192.05859,10.0585938 192.824219,10.0585938 C193.498701,10.0585938 194.01367,10.2317691 194.369141,10.578125 C194.952477,11.1614612 195.244141,12.0592387 195.244141,13.2714844 C195.244141,13.9459669 195.157553,14.688798 194.984375,15.5 C194.729165,16.7304749 194.492189,17.4869778 194.273437,17.7695312 C194.628908,17.7695312 195.036781,17.6328139 195.49707,17.359375 C195.957359,17.0859361 196.353839,16.7578144 196.686523,16.375 C197.019207,15.9921856 197.281249,15.6139342 197.472656,15.2402344 C197.582032,15.0305979 197.680013,14.8733729 197.766601,14.7685547 C197.85319,14.6637365 197.930664,14.5976564 197.999023,14.5703125 C198.067383,14.5429686 198.13802,14.5292969 198.210937,14.5292969 C198.375001,14.5292969 198.457031,14.6386708 198.457031,14.8574219 C198.457031,15.6048214 198.169925,16.3795533 197.595703,17.1816406 C197.085284,17.8925817 196.424483,18.4986954 195.613281,19 C194.802079,19.5013046 194.018233,19.7519531 193.261719,19.7519531 C192.742185,19.7519531 192.322918,19.601564 192.003906,19.3007812 C191.384111,18.7356743 191.074219,17.7513091 191.074219,16.3476562 C191.074219,15.199213 191.279295,14.1191457 191.689453,13.1074219 C191.288409,13.1074219 190.910158,13.3443987 190.554687,13.8183594 C189.907549,14.6751345 189.305992,16.0696518 188.75,18.0019531 C188.339842,19.4329499 188.034506,20.8092382 187.833984,22.1308594 C187.587889,23.8079511 187.259768,24.9108046 186.849609,25.4394531 C186.348305,26.0774771 185.619145,26.3964844 184.662109,26.3964844 Z M203.933984,17.46875 C204.617581,17.46875 205.19863,17.0950558 205.677148,16.3476562 C206.155666,15.6002567 206.394922,14.8027386 206.394922,13.9550781 C206.394922,13.1256469 206.139716,12.7109375 205.629297,12.7109375 C205.06419,12.7109375 204.5834,12.8886701 204.186914,13.2441406 C203.790428,13.5996112 203.464585,14.0690075 203.209375,14.6523438 C202.954165,15.23568 202.758204,15.8691372 202.621484,16.5527344 C202.894923,17.1634145 203.332419,17.46875 203.933984,17.46875 Z M202.648828,26.6289062 C200.452202,26.6289062 198.870838,25.9931704 197.904687,24.7216797 C196.938537,23.450189 196.455469,21.8346452 196.455469,19.875 C196.455469,16.9583188 197.205136,14.5885508 198.704492,12.765625 C200.203849,10.9426992 202.142957,10.03125 204.521875,10.03125 C206.071362,10.03125 207.208395,10.41178 207.933008,11.1728516 C208.657621,11.9339231 209.019922,12.8613227 209.019922,13.9550781 C209.019922,15.5501382 208.491281,16.8375602 207.433984,17.8173828 C206.376687,18.7972054 205.29662,19.2871094 204.19375,19.2871094 C203.409892,19.2871094 202.799221,18.9908884 202.361719,18.3984375 C202.334375,18.6992203 202.320703,19.0136702 202.320703,19.3417969 C202.320703,20.1529988 202.411848,20.9049445 202.594141,21.5976562 C202.931382,22.9010482 203.619526,23.5527344 204.658594,23.5527344 C205.205471,23.5527344 205.756898,23.3750018 206.312891,23.0195312 C206.868883,22.6640607 207.406638,22.2015002 207.926172,21.6318359 C208.445706,21.0621716 208.931052,20.4446648 209.382226,19.7792969 C209.833401,19.113929 210.229881,18.4576855 210.57168,17.8105469 C210.913478,17.1634082 211.189192,16.584638 211.398828,16.0742188 C211.590235,15.600258 211.752017,15.2539073 211.88418,15.0351562 C212.016342,14.8164052 212.130273,14.6774092 212.225976,14.6181641 C212.32168,14.558919 212.415104,14.5292969 212.50625,14.5292969 C212.688542,14.5292969 212.779687,14.661457 212.779687,14.9257812 C212.779687,15.2356786 212.683985,15.686846 212.492578,16.2792969 C210.952206,21.0918209 208.978918,24.1953055 206.572656,25.5898438 C205.37864,26.2825555 204.07071,26.6289062 202.648828,26.6289062 Z M222.563281,26.65625 C221.916143,26.65625 221.376109,26.4762388 220.943164,26.1162109 C220.510219,25.7561831 220.166147,25.2685578 219.910937,24.6533203 C219.655728,24.0380829 219.473438,23.3431028 219.364062,22.5683594 C218.352339,24.9199336 216.862119,26.0957031 214.893359,26.0957031 C213.198038,26.0957031 212.00404,25.4257879 211.311328,24.0859375 C210.773565,23.0286405 210.504687,21.7207109 210.504687,20.1621094 C210.504687,19.7428364 210.522916,19.3190126 210.559375,18.890625 C210.759897,16.6028531 211.384239,14.6842525 212.432422,13.1347656 C213.608209,11.4121008 215.171344,10.5507812 217.121875,10.5507812 C217.686982,10.5507812 218.181443,10.6328117 218.605273,10.796875 C219.029104,10.9609383 219.389126,11.168293 219.685351,11.4189453 C219.981577,11.6695976 220.211718,11.9316393 220.375781,12.2050781 C220.558074,11.7493467 220.824673,11.3802097 221.175586,11.0976562 C221.526499,10.8151028 222.048304,10.6738281 222.741016,10.6738281 C223.652478,10.6738281 224.249478,10.9108049 224.532031,11.3847656 C224.987763,12.186853 225.215625,13.7135304 225.215625,15.9648438 C225.215625,18.5533984 224.873831,20.991525 224.190234,23.2792969 C225.02878,22.5592412 225.928836,21.43588 226.89043,19.9091797 C227.852023,18.3824793 228.547003,17.1041718 228.975391,16.0742188 C229.166798,15.600258 229.32858,15.2539073 229.460742,15.0351562 C229.592904,14.8164052 229.706835,14.6774092 229.802539,14.6181641 C229.898243,14.558919 229.991666,14.5292969 230.082812,14.5292969 C230.265105,14.5292969 230.35625,14.661457 230.35625,14.9257812 C230.35625,15.2356786 230.265105,15.686846 230.082812,16.2792969 C229.709113,17.4915425 229.212373,18.8040294 228.592578,20.2167969 C227.80872,21.9941495 226.956515,23.447911 226.035937,24.578125 C224.914838,25.9635486 223.757298,26.65625 222.563281,26.65625 Z M216.192187,23.2382812 C216.857555,23.2382812 217.568486,22.2539161 218.325,20.2851562 C219.081514,18.3163964 219.578254,16.2610784 219.815234,14.1191406 C219.414191,13.5996068 218.931123,13.3398438 218.366016,13.3398438 C217.445438,13.3398438 216.702607,13.8958278 216.1375,15.0078125 C215.627081,15.9921924 215.271615,17.1861909 215.071094,18.5898438 C214.979947,19.2552117 214.934375,19.8658826 214.934375,20.421875 C214.934375,22.2994886 215.353642,23.2382812 216.192187,23.2382812 Z M247.796094,26.65625 C245.717958,26.65625 244.678906,24.9199392 244.678906,21.4472656 C244.678906,20.0071543 244.856639,18.4349044 245.212109,16.7304688 C245.558465,15.0716063 245.918488,13.8320354 246.292187,13.0117188 C245.790883,13.0117188 245.330601,13.2486955 244.911328,13.7226562 C244.163928,14.5794314 243.503128,15.9693914 242.928906,17.8925781 C242.527862,19.2506578 242.204298,20.5996027 241.958203,21.9394531 C241.712108,23.2793036 241.347528,24.3639281 240.864453,25.1933594 C240.290231,26.1686247 239.561072,26.65625 238.676953,26.65625 C237.364446,26.65625 236.708203,25.2070457 236.708203,22.3085938 C236.708203,21.1419212 236.803905,19.8841213 236.995312,18.5351562 C237.259637,16.6210842 237.583201,14.9895901 237.966016,13.640625 C237.528513,13.640625 237.113804,13.8912735 236.721875,14.3925781 C236.001819,15.3222703 235.345576,16.7851463 234.753125,18.78125 C234.25182,20.4583417 233.919141,21.8300728 233.755078,22.8964844 C233.563671,24.0905008 233.26745,24.947263 232.866406,25.4667969 C232.392445,26.0865916 231.681515,26.3964844 230.733594,26.3964844 C230.059111,26.3964844 229.530471,26.1914083 229.147656,25.78125 C228.619008,25.2343723 228.354687,23.9173281 228.354687,21.8300781 C228.354687,20.6907495 228.395703,19.5195373 228.477734,18.3164062 C228.505078,17.9700504 228.60078,17.1816468 228.764844,15.9511719 C229.065626,13.6725146 229.525908,12.1640662 230.145703,11.4257812 C230.583205,10.9062474 231.275907,10.6464844 232.223828,10.6464844 C232.943884,10.6464844 233.499868,10.8333315 233.891797,11.2070312 C234.283726,11.580731 234.516145,12.0956998 234.589062,12.7519531 C234.625521,13.1074237 234.64375,13.4674461 234.64375,13.8320312 C234.64375,14.1419286 234.630078,14.4518214 234.602734,14.7617188 C235.231644,13.4947853 235.981311,12.4921912 236.851758,11.7539062 C237.722205,11.0156213 238.599475,10.6464844 239.483594,10.6464844 C240.167191,10.6464844 240.716339,10.8105452 241.131055,11.1386719 C241.54577,11.4667985 241.86022,11.892901 242.074414,12.4169922 C242.288608,12.9410833 242.427604,13.5084605 242.491406,14.1191406 C243.156774,12.8704365 243.947456,11.8815141 244.863476,11.1523438 C245.779497,10.4231734 246.665881,10.0585938 247.522656,10.0585938 C249.564333,10.0585938 250.585156,11.7311031 250.585156,15.0761719 C250.585156,15.8418007 250.553255,16.5800746 250.489453,17.2910156 C250.252473,19.7337362 249.897007,21.72981 249.423047,23.2792969 C250.261593,22.5592412 251.161649,21.43588 252.123242,19.9091797 C253.084835,18.3824793 253.779815,17.1041718 254.208203,16.0742188 C254.408725,15.600258 254.575064,15.2539073 254.707226,15.0351562 C254.839389,14.8164052 254.95332,14.6774092 255.049023,14.6181641 C255.144727,14.558919 255.23815,14.5292969 255.329297,14.5292969 C255.511589,14.5292969 255.602734,14.661457 255.602734,14.9257812 C255.602734,15.2447933 255.511589,15.6959606 255.329297,16.2792969 C254.955597,17.4641986 254.4543,18.7766855 253.825391,20.2167969 C253.059762,21.9759203 252.212114,23.4296818 251.282422,24.578125 C250.161322,25.9635486 248.999225,26.65625 247.796094,26.65625 Z" id="UltimateIceCream" fill="#5C4268"></path>
                    <path d="M8.09414075,24.4101562 C4.15662106,24.4101562 1.78685309,22.8971505 0.984765746,19.8710938 C0.720441507,18.8867138 0.588281371,17.7428451 0.588281371,16.4394531 C0.588281371,15.5371049 0.633853832,14.6074267 0.725000121,13.6503906 C0.989324359,10.8248557 1.38580477,8.42774422 1.91445325,6.45898438 C2.06940194,5.89387738 2.26536352,5.38346582 2.50234387,4.92773438 C2.73932422,4.47200293 3.07656043,4.10970187 3.51406262,3.84082031 C3.95156481,3.57193876 4.56223578,3.4375 5.34609387,3.4375 C5.99323252,3.4375 6.50820133,3.57877463 6.89101575,3.86132812 C7.52903977,4.34440346 7.848047,5.0507766 7.848047,5.98046875 C7.848047,6.45442945 7.72044411,7.74868734 7.4652345,9.86328125 C7.19179563,12.0599068 7.03229202,13.618485 6.98671887,14.5390625 C6.95026036,15.1953158 6.93203137,15.828773 6.93203137,16.4394531 C6.93203137,17.6425841 7.02317629,18.6907507 7.20546887,19.5839844 C7.45156385,20.7780008 7.89361672,21.375 8.53164075,21.375 C10.491286,21.375 11.7354141,16.9362423 12.2640626,8.05859375 L12.332422,6.97851562 C12.405339,5.83918701 12.5511709,5.01432547 12.769922,4.50390625 C13.0798194,3.76562131 13.6722614,3.39648438 14.5472657,3.39648438 C15.2673214,3.39648438 15.8050765,3.69726262 16.160547,4.29882812 C16.479559,4.86393512 16.6390626,5.98501766 16.6390626,7.66210938 C16.6390626,11.2988463 16.3109409,14.4661323 15.6546876,17.1640625 C14.4971297,21.9948158 11.9769727,24.4101562 8.09414075,24.4101562 Z M22.0203126,24.65625 C20.7442646,24.65625 19.8237008,23.804045 19.2585939,22.0996094 C18.811977,20.7597589 18.588672,18.9915474 18.588672,16.7949219 L18.588672,15.5917969 C18.6069012,14.0969977 18.7664049,12.2102979 19.0671876,9.93164062 C19.4317728,7.19725195 19.8419249,5.31966656 20.2976564,4.29882812 C20.6987,3.38736523 21.5007753,2.93164062 22.7039064,2.93164062 C23.8341203,2.93164062 24.531379,3.38280799 24.7957032,4.28515625 C25.0326836,5.10547285 25.151172,6.40428799 25.151172,8.18164062 C25.151172,9.84050309 25.0691416,11.6406153 24.9050782,13.5820312 C24.6134101,16.8632977 24.1895862,19.4290272 23.6335939,21.2792969 C24.4721397,20.5592412 25.3744744,19.43588 26.3406251,17.9091797 C27.3067758,16.3824793 28.0040344,15.1041718 28.432422,14.0742188 C28.6238292,13.600258 28.7856114,13.2539073 28.9177735,13.0351562 C29.0499357,12.8164052 29.1638668,12.6774092 29.2595704,12.6181641 C29.355274,12.558919 29.4486976,12.5292969 29.5398439,12.5292969 C29.7221364,12.5292969 29.8132814,12.661457 29.8132814,12.9257812 C29.8132814,13.2356786 29.7175792,13.686846 29.526172,14.2792969 C28.3503849,17.9433777 27.0059973,20.7096261 25.4929689,22.578125 C24.3718695,23.9635486 23.214329,24.65625 22.0203126,24.65625 Z M31.7218751,24.65625 C29.3794155,24.65625 28.2082032,22.2500241 28.2082032,17.4375 C28.2082032,15.6236888 28.3950503,13.1718904 28.7687501,10.0820312 L28.2492188,10.0546875 C27.410673,9.99999973 26.9914063,9.69010699 26.9914063,9.125 C26.9914063,8.48697598 27.6841078,8.09505281 29.0695313,7.94921875 C29.4432311,6.23566852 29.8738909,5.13281496 30.3615235,4.640625 C30.8491562,4.14843504 31.5304645,3.90234375 32.4054688,3.90234375 C33.2713586,3.90234375 33.8957013,4.23502271 34.2785157,4.90039062 C34.6613301,5.56575854 34.8527345,6.59113891 34.8527345,7.9765625 C36.5662847,8.14062582 37.423047,8.52343449 37.423047,9.125 C37.423047,9.69010699 36.9126354,9.99544248 35.891797,10.0410156 L34.8253907,10.0820312 C34.6522128,14.8489822 34.1600302,18.5813667 33.3488282,21.2792969 C34.6431055,20.5592412 35.7710239,19.43588 36.7326173,17.9091797 C37.6942106,16.3824793 38.3891907,15.1041718 38.8175782,14.0742188 C39.0089854,13.600258 39.1707677,13.2539073 39.3029298,13.0351562 C39.4350919,12.8164052 39.5490231,12.6774092 39.6447267,12.6181641 C39.7404303,12.558919 39.8338538,12.5292969 39.9250001,12.5292969 C40.1072927,12.5292969 40.1984376,12.661457 40.1984376,12.9257812 C40.1984376,13.2356786 40.1027354,13.686846 39.9113282,14.2792969 C38.8266874,17.6699388 37.4230556,20.3040271 35.7003907,22.1816406 C34.1873623,23.8313885 32.8612037,24.65625 31.7218751,24.65625 Z M41.4507813,24.65625 C40.2020772,24.65625 39.3179714,23.9453196 38.7984376,22.5234375 C38.3973939,21.4479113 38.1968751,20.035165 38.1968751,18.2851562 C38.1968751,17.3372348 38.2652338,16.320969 38.4019532,15.2363281 C38.7665384,12.3196469 39.2997362,10.3737028 40.0015626,9.3984375 C40.3570331,8.91536217 41.0087193,8.67382812 41.9566407,8.67382812 C42.8498743,8.67382812 43.4377591,8.90624768 43.7203126,9.37109375 C44.1487001,10.0911494 44.3628907,11.4264225 44.3628907,13.3769531 C44.3628907,15.9381638 43.9345096,18.5722521 43.0777345,21.2792969 C43.9162803,20.5592412 44.8163364,19.43588 45.7779298,17.9091797 C46.7395231,16.3824793 47.4345031,15.1041718 47.8628907,14.0742188 C48.0542979,13.600258 48.2160801,13.2539073 48.3482423,13.0351562 C48.4804044,12.8164052 48.5943355,12.6774092 48.6900391,12.6181641 C48.7857427,12.558919 48.8791663,12.5292969 48.9703126,12.5292969 C49.1526052,12.5292969 49.2437501,12.661457 49.2437501,12.9257812 C49.2437501,13.2356786 49.1480479,13.686846 48.9566407,14.2792969 C47.7808536,17.9433777 46.436466,20.7096261 44.9234376,22.578125 C43.8023382,23.9635486 42.6447977,24.65625 41.4507813,24.65625 Z M42.0796876,7.62109375 C41.7333317,7.62109375 41.386981,7.54817781 41.0406251,7.40234375 C40.2932255,7.101561 39.9195313,6.55924871 39.9195313,5.77539062 C39.9195313,4.97330328 40.2203096,4.34440332 40.8218751,3.88867188 C41.3414089,3.50585746 41.9065074,3.31445312 42.5171876,3.31445312 C42.8453142,3.31445312 43.1871077,3.38281182 43.5425782,3.51953125 C44.2990924,3.820314 44.6773438,4.39908426 44.6773438,5.25585938 C44.6773438,5.81185174 44.5223975,6.28580533 44.2125001,6.67773438 C43.7203101,7.30664377 43.0093797,7.62109375 42.0796876,7.62109375 Z M66.6835938,24.65625 C64.6054584,24.65625 63.5664063,22.9199392 63.5664063,19.4472656 C63.5664063,18.0071543 63.7441389,16.4349044 64.0996094,14.7304688 C64.4459653,13.0716063 64.8059878,11.8320354 65.1796876,11.0117188 C64.678383,11.0117188 64.2181011,11.2486955 63.7988282,11.7226562 C63.0514286,12.5794314 62.3906279,13.9693914 61.8164063,15.8925781 C61.4153626,17.2506578 61.0917982,18.5996027 60.8457032,19.9394531 C60.5996082,21.2793036 60.2350285,22.3639281 59.7519532,23.1933594 C59.1777316,24.1686247 58.4485722,24.65625 57.5644532,24.65625 C56.2519466,24.65625 55.5957032,23.2070457 55.5957032,20.3085938 C55.5957032,19.1419212 55.6914054,17.8841213 55.8828126,16.5351562 C56.1471368,14.6210842 56.4707013,12.9895901 56.8535157,11.640625 C56.4160135,11.640625 56.0013041,11.8912735 55.6093751,12.3925781 C54.8893194,13.3222703 54.2330759,14.7851463 53.6406251,16.78125 C53.1393205,18.4583417 52.8066415,19.8300728 52.6425782,20.8964844 C52.451171,22.0905008 52.15495,22.947263 51.7539063,23.4667969 C51.2799456,24.0865916 50.5690152,24.3964844 49.6210938,24.3964844 C48.9466113,24.3964844 48.4179707,24.1914083 48.0351563,23.78125 C47.5065078,23.2343723 47.2421876,21.9173281 47.2421876,19.8300781 C47.2421876,18.6907495 47.2832028,17.5195373 47.3652344,16.3164062 C47.3925783,15.9700504 47.4882805,15.1816468 47.6523438,13.9511719 C47.9531266,11.6725146 48.4134084,10.1640662 49.0332032,9.42578125 C49.4707054,8.9062474 50.1634068,8.64648438 51.1113282,8.64648438 C51.8313839,8.64648438 52.3873679,8.83333146 52.7792969,9.20703125 C53.171226,9.58073104 53.4036455,10.0956998 53.4765626,10.7519531 C53.5130211,11.1074237 53.5312501,11.4674461 53.5312501,11.8320312 C53.5312501,12.1419286 53.5175783,12.4518214 53.4902344,12.7617188 C54.1191438,11.4947853 54.8688108,10.4921912 55.7392579,9.75390625 C56.6097049,9.01562131 57.4869748,8.64648438 58.3710938,8.64648438 C59.054691,8.64648438 59.6038391,8.81054523 60.0185548,9.13867188 C60.4332704,9.46679852 60.7477204,9.89290103 60.9619141,10.4169922 C61.1761079,10.9410833 61.3151039,11.5084605 61.3789063,12.1191406 C62.0442742,10.8704365 62.8349564,9.88151406 63.7509766,9.15234375 C64.6669968,8.42317344 65.5533812,8.05859375 66.4101563,8.05859375 C68.4518332,8.05859375 69.4726563,9.73110307 69.4726563,13.0761719 C69.4726563,13.8418007 69.4407556,14.5800746 69.3769532,15.2910156 C69.1399728,17.7337362 68.7845076,19.72981 68.3105469,21.2792969 C69.1490928,20.5592412 70.0491489,19.43588 71.0107423,17.9091797 C71.9723356,16.3824793 72.6673156,15.1041718 73.0957032,14.0742188 C73.296225,13.600258 73.4625645,13.2539073 73.5947266,13.0351562 C73.7268887,12.8164052 73.8408199,12.6774092 73.9365235,12.6181641 C74.0322271,12.558919 74.1256507,12.5292969 74.2167969,12.5292969 C74.3990895,12.5292969 74.4902344,12.661457 74.4902344,12.9257812 C74.4902344,13.2447933 74.3990895,13.6959606 74.2167969,14.2792969 C73.8430972,15.4641986 73.3418001,16.7766855 72.7128907,18.2167969 C71.9472619,19.9759203 71.0996141,21.4296818 70.1699219,22.578125 C69.0488226,23.9635486 67.8867248,24.65625 66.6835938,24.65625 Z M84.2738282,24.65625 C83.6266895,24.65625 83.0866559,24.4762388 82.653711,24.1162109 C82.2207661,23.7561831 81.876694,23.2685578 81.6214844,22.6533203 C81.3662748,22.0380829 81.183985,21.3431028 81.0746094,20.5683594 C80.0628856,22.9199336 78.5726661,24.0957031 76.6039063,24.0957031 C74.9085853,24.0957031 73.7145869,23.4257879 73.0218751,22.0859375 C72.4841119,21.0286405 72.2152344,19.7207109 72.2152344,18.1621094 C72.2152344,17.7428364 72.2334634,17.3190126 72.2699219,16.890625 C72.4704438,14.6028531 73.0947865,12.6842525 74.1429688,11.1347656 C75.3187559,9.41210076 76.8818913,8.55078125 78.8324219,8.55078125 C79.3975289,8.55078125 79.8919901,8.63281168 80.3158204,8.796875 C80.7396506,8.96093832 81.0996731,9.16829302 81.3958985,9.41894531 C81.6921239,9.66959761 81.9222649,9.93163926 82.0863282,10.2050781 C82.2686208,9.74934668 82.5352197,9.38020975 82.8861329,9.09765625 C83.2370461,8.81510275 83.7588508,8.67382812 84.4515626,8.67382812 C85.3630254,8.67382812 85.9600247,8.91080492 86.2425782,9.38476562 C86.6983096,10.186853 86.9261719,11.7135304 86.9261719,13.9648438 C86.9261719,16.5533984 86.5843785,18.991525 85.9007813,21.2792969 C86.7393272,20.5592412 87.6393833,19.43588 88.6009766,17.9091797 C89.56257,16.3824793 90.25755,15.1041718 90.6859376,14.0742188 C90.8773448,13.600258 91.039127,13.2539073 91.1712891,13.0351562 C91.3034512,12.8164052 91.4173824,12.6774092 91.513086,12.6181641 C91.6087896,12.558919 91.7022131,12.5292969 91.7933594,12.5292969 C91.975652,12.5292969 92.0667969,12.661457 92.0667969,12.9257812 C92.0667969,13.2356786 91.975652,13.686846 91.7933594,14.2792969 C91.4196596,15.4915425 90.9229198,16.8040294 90.3031251,18.2167969 C89.519267,19.9941495 88.6670619,21.447911 87.7464844,22.578125 C86.6253851,23.9635486 85.4678446,24.65625 84.2738282,24.65625 Z M77.9027344,21.2382812 C78.5681023,21.2382812 79.2790327,20.2539161 80.0355469,18.2851562 C80.7920611,16.3163964 81.288801,14.2610784 81.5257813,12.1191406 C81.1247376,11.5996068 80.6416695,11.3398438 80.0765626,11.3398438 C79.155985,11.3398438 78.4131539,11.8958278 77.8480469,13.0078125 C77.3376277,13.9921924 76.9821625,15.1861909 76.7816407,16.5898438 C76.6904944,17.2552117 76.6449219,17.8658826 76.6449219,18.421875 C76.6449219,20.2994886 77.0641886,21.2382812 77.9027344,21.2382812 Z M93.9753907,24.65625 C91.632931,24.65625 90.4617188,22.2500241 90.4617188,17.4375 C90.4617188,15.6236888 90.6485659,13.1718904 91.0222657,10.0820312 L90.5027344,10.0546875 C89.6641886,9.99999973 89.2449219,9.69010699 89.2449219,9.125 C89.2449219,8.48697598 89.9376233,8.09505281 91.3230469,7.94921875 C91.6967467,6.23566852 92.1274065,5.13281496 92.6150391,4.640625 C93.1026717,4.14843504 93.78398,3.90234375 94.6589844,3.90234375 C95.5248742,3.90234375 96.1492169,4.23502271 96.5320313,4.90039062 C96.9148457,5.56575854 97.10625,6.59113891 97.10625,7.9765625 C98.8198003,8.14062582 99.6765625,8.52343449 99.6765625,9.125 C99.6765625,9.69010699 99.166151,9.99544248 98.1453125,10.0410156 L97.0789063,10.0820312 C96.9057283,14.8489822 96.4135458,18.5813667 95.6023438,21.2792969 C96.8966211,20.5592412 98.0245395,19.43588 98.9861329,17.9091797 C99.9477262,16.3824793 100.642706,15.1041718 101.071094,14.0742188 C101.262501,13.600258 101.424283,13.2539073 101.556445,13.0351562 C101.688607,12.8164052 101.802539,12.6774092 101.898242,12.6181641 C101.993946,12.558919 102.087369,12.5292969 102.178516,12.5292969 C102.360808,12.5292969 102.451953,12.661457 102.451953,12.9257812 C102.451953,13.2356786 102.356251,13.686846 102.164844,14.2792969 C101.080203,17.6699388 99.6765712,20.3040271 97.9539063,22.1816406 C96.4408779,23.8313885 95.1147193,24.65625 93.9753907,24.65625 Z M107.655469,15.46875 C108.339066,15.46875 108.920115,15.0950558 109.398633,14.3476562 C109.877151,13.6002567 110.116406,12.8027386 110.116406,11.9550781 C110.116406,11.1256469 109.8612,10.7109375 109.350781,10.7109375 C108.785674,10.7109375 108.304885,10.8886701 107.908398,11.2441406 C107.511912,11.5996112 107.186069,12.0690075 106.930859,12.6523438 C106.67565,13.23568 106.479688,13.8691372 106.342969,14.5527344 C106.616408,15.1634145 107.053903,15.46875 107.655469,15.46875 Z M106.370313,24.6289062 C104.173687,24.6289062 102.592323,23.9931704 101.626172,22.7216797 C100.660021,21.450189 100.176953,19.8346452 100.176953,17.875 C100.176953,14.9583188 100.92662,12.5885508 102.425977,10.765625 C103.925333,8.94269922 105.864441,8.03125 108.243359,8.03125 C109.792846,8.03125 110.929879,8.41178005 111.654492,9.17285156 C112.379105,9.93392308 112.741406,10.8613227 112.741406,11.9550781 C112.741406,13.5501382 112.212766,14.8375602 111.155469,15.8173828 C110.098172,16.7972054 109.018104,17.2871094 107.915234,17.2871094 C107.131376,17.2871094 106.520705,16.9908884 106.083203,16.3984375 C106.055859,16.6992203 106.042188,17.0136702 106.042188,17.3417969 C106.042188,18.1529988 106.133332,18.9049445 106.315625,19.5976562 C106.652866,20.9010482 107.34101,21.5527344 108.380078,21.5527344 C108.926956,21.5527344 109.478383,21.3750018 110.034375,21.0195312 C110.590367,20.6640607 111.128122,20.2015002 111.647656,19.6318359 C112.16719,19.0621716 112.652537,18.4446648 113.103711,17.7792969 C113.554885,17.113929 113.951366,16.4576855 114.293164,15.8105469 C114.634963,15.1634082 114.910676,14.584638 115.120313,14.0742188 C115.31172,13.600258 115.473502,13.2539073 115.605664,13.0351562 C115.737826,12.8164052 115.851757,12.6774092 115.947461,12.6181641 C116.043165,12.558919 116.136588,12.5292969 116.227734,12.5292969 C116.410027,12.5292969 116.501172,12.661457 116.501172,12.9257812 C116.501172,13.2356786 116.40547,13.686846 116.214063,14.2792969 C114.67369,19.0918209 112.700403,22.1953055 110.294141,23.5898438 C109.100124,24.2825555 107.792195,24.6289062 106.370313,24.6289062 Z M123.832031,24.4648438 C123.631509,24.4648438 123.346682,24.4283858 122.977539,24.3554688 C122.608397,24.2825517 122.268882,24.0364604 121.958984,23.6171875 C121.466794,22.9609342 121.220703,21.457043 121.220703,19.1054688 C121.220703,16.3163923 121.40755,13.4908997 121.78125,10.6289062 C122.182294,7.50258854 122.688148,5.47005678 123.298828,4.53125 C123.800133,3.74739191 124.561193,3.35546875 125.582031,3.35546875 C126.201826,3.35546875 126.735024,3.56054482 127.181641,3.97070312 C127.518882,4.27148588 127.755859,4.74088223 127.892578,5.37890625 C128.056641,6.19010822 128.138672,7.25194656 128.138672,8.56445312 C128.138672,11.0254029 128.011069,13.4817586 127.755859,15.9335938 C127.354816,19.6159038 126.826175,22.0403587 126.169922,23.2070312 C125.878254,23.7265651 125.45443,24.0820303 124.898438,24.2734375 C124.542967,24.4010423 124.187502,24.4648438 123.832031,24.4648438 Z M136.596094,24.6289062 C134.280978,24.6289062 132.510488,23.9020255 131.28457,22.4482422 C130.058653,20.9944589 129.445703,19.2877702 129.445703,17.328125 C129.445703,14.429673 130.222714,12.1533286 131.776758,10.4990234 C133.330802,8.84471829 135.288139,8.01757812 137.648828,8.01757812 C139.344149,8.01757812 140.579163,8.48697447 141.353906,9.42578125 C141.900784,10.1002638 142.174219,10.8385377 142.174219,11.640625 C142.174219,12.1601588 142.05573,12.6386697 141.81875,13.0761719 C141.645572,13.4042985 141.440496,13.5683594 141.203516,13.5683594 C140.85716,13.5683594 140.620183,13.3450543 140.492578,12.8984375 C140.392317,12.5611962 140.27155,12.2376318 140.130273,11.9277344 C139.988997,11.617837 139.790756,11.3626312 139.535547,11.1621094 C139.280337,10.9615875 138.929429,10.8613281 138.482812,10.8613281 C137.616923,10.8613281 136.874092,11.4811136 136.254297,12.7207031 C135.634502,13.9602927 135.324609,15.4641839 135.324609,17.2324219 C135.324609,20.0214983 136.281631,21.4160156 138.195703,21.4160156 C139.517324,21.4160156 140.925513,20.2129027 142.420312,17.8066406 C143.295317,16.3938731 143.95156,15.149745 144.389062,14.0742188 C144.58047,13.600258 144.744531,13.2539073 144.88125,13.0351562 C145.081772,12.697915 145.286848,12.5292969 145.496484,12.5292969 C145.678777,12.5292969 145.769922,12.661457 145.769922,12.9257812 C145.769922,13.2356786 145.67422,13.686846 145.482812,14.2792969 C144.963279,15.9017008 144.393623,17.3326761 143.773828,18.5722656 C141.741266,22.6100462 139.348712,24.6289062 136.596094,24.6289062 Z M150.973437,15.46875 C151.657035,15.46875 152.238084,15.0950558 152.716602,14.3476562 C153.19512,13.6002567 153.434375,12.8027386 153.434375,11.9550781 C153.434375,11.1256469 153.179169,10.7109375 152.66875,10.7109375 C152.103643,10.7109375 151.622854,10.8886701 151.226367,11.2441406 C150.829881,11.5996112 150.504038,12.0690075 150.248828,12.6523438 C149.993618,13.23568 149.797657,13.8691372 149.660937,14.5527344 C149.934376,15.1634145 150.371872,15.46875 150.973437,15.46875 Z M149.688281,24.6289062 C147.491656,24.6289062 145.910291,23.9931704 144.944141,22.7216797 C143.97799,21.450189 143.494922,19.8346452 143.494922,17.875 C143.494922,14.9583188 144.244589,12.5885508 145.743945,10.765625 C147.243302,8.94269922 149.18241,8.03125 151.561328,8.03125 C153.110815,8.03125 154.247848,8.41178005 154.972461,9.17285156 C155.697074,9.93392308 156.059375,10.8613227 156.059375,11.9550781 C156.059375,13.5501382 155.530734,14.8375602 154.473437,15.8173828 C153.416141,16.7972054 152.336073,17.2871094 151.233203,17.2871094 C150.449345,17.2871094 149.838674,16.9908884 149.401172,16.3984375 C149.373828,16.6992203 149.360156,17.0136702 149.360156,17.3417969 C149.360156,18.1529988 149.451301,18.9049445 149.633594,19.5976562 C149.970835,20.9010482 150.658979,21.5527344 151.698047,21.5527344 C152.244925,21.5527344 152.796351,21.3750018 153.352344,21.0195312 C153.908336,20.6640607 154.446091,20.2015002 154.965625,19.6318359 C155.485159,19.0621716 155.970506,18.4446648 156.42168,17.7792969 C156.872854,17.113929 157.269334,16.4576855 157.611133,15.8105469 C157.952931,15.1634082 158.228645,14.584638 158.438281,14.0742188 C158.629688,13.600258 158.791471,13.2539073 158.923633,13.0351562 C159.055795,12.8164052 159.169726,12.6774092 159.26543,12.6181641 C159.361133,12.558919 159.454557,12.5292969 159.545703,12.5292969 C159.727996,12.5292969 159.819141,12.661457 159.819141,12.9257812 C159.819141,13.2356786 159.723438,13.686846 159.532031,14.2792969 C157.991659,19.0918209 156.018371,22.1953055 153.612109,23.5898438 C152.418093,24.2825555 151.110163,24.6289062 149.688281,24.6289062 Z M171.812109,24.4785156 C170.472259,24.4785156 169.337505,24.2779968 168.407812,23.8769531 C165.545819,22.6373636 164.114844,19.7252833 164.114844,15.140625 C164.114844,13.5182211 164.301691,11.9869864 164.675391,10.546875 C165.249612,8.3411348 166.238535,6.55925158 167.642187,5.20117188 C169.219018,3.66991422 171.237878,2.90429688 173.698828,2.90429688 C174.646749,2.90429688 175.467054,3.03645701 176.159766,3.30078125 C177.435814,3.79297121 178.374606,4.62694725 178.976172,5.80273438 C179.413674,6.65039486 179.632422,7.53450061 179.632422,8.45507812 C179.632422,9.24805084 179.48659,9.92252326 179.194922,10.4785156 C178.967056,10.8977886 178.698179,11.1074219 178.388281,11.1074219 C177.923435,11.1074219 177.627214,10.8248726 177.499609,10.2597656 C177.171483,8.8652274 176.749937,7.8466829 176.234961,7.20410156 C175.719984,6.56152022 175.079691,6.24023438 174.314062,6.24023438 C173.657809,6.24023438 173.065367,6.56607747 172.536719,7.21777344 C172.00807,7.8694694 171.563739,8.77408275 171.203711,9.93164062 C170.843683,11.0891985 170.595313,12.4427006 170.458594,13.9921875 C170.43125,14.3567727 170.417578,14.7714821 170.417578,15.2363281 C170.417578,16.1022179 170.454036,16.8131483 170.526953,17.3691406 C170.845965,19.8847782 171.670827,21.1425781 173.001562,21.1425781 C173.776306,21.1425781 174.475843,20.8212923 175.100195,20.1787109 C175.724547,19.5361296 176.319268,18.5221423 176.884375,17.1367188 C177.121355,16.5624971 177.472263,16.2753906 177.937109,16.2753906 C178.247007,16.2753906 178.474869,16.4850239 178.620703,16.9042969 C178.730079,17.2233089 178.784766,17.6015603 178.784766,18.0390625 C178.784766,18.7955767 178.61159,19.579423 178.265234,20.390625 C177.973566,21.0742222 177.549742,21.7259084 176.99375,22.3457031 C175.699473,23.7675852 173.972276,24.4785156 171.812109,24.4785156 Z M182.662109,24.3964844 C181.695959,24.3964844 181.067059,24.0546909 180.775391,23.3710938 C180.483722,22.6874966 180.337891,21.4296967 180.337891,19.5976562 C180.337891,18.5677032 180.392578,17.3007888 180.501953,15.796875 C180.775392,12.1236796 181.331376,9.76302607 182.169922,8.71484375 C182.607424,8.16796602 183.295568,7.89453125 184.234375,7.89453125 C184.963545,7.89453125 185.524087,8.08593559 185.916016,8.46875 C186.244142,8.77864738 186.453776,9.19335678 186.544922,9.71289062 C186.617839,10.1503928 186.654297,10.7063768 186.654297,11.3808594 C187.219404,10.3509063 187.864254,9.5397165 188.588867,8.94726562 C189.31348,8.35481475 190.05859,8.05859375 190.824219,8.05859375 C191.498701,8.05859375 192.01367,8.2317691 192.369141,8.578125 C192.952477,9.16146125 193.244141,10.0592387 193.244141,11.2714844 C193.244141,11.9459669 193.157553,12.688798 192.984375,13.5 C192.729165,14.7304749 192.492189,15.4869778 192.273437,15.7695312 C192.628908,15.7695312 193.036781,15.6328139 193.49707,15.359375 C193.957359,15.0859361 194.353839,14.7578144 194.686523,14.375 C195.019207,13.9921856 195.281249,13.6139342 195.472656,13.2402344 C195.582032,13.0305979 195.680013,12.8733729 195.766601,12.7685547 C195.85319,12.6637365 195.930664,12.5976564 195.999023,12.5703125 C196.067383,12.5429686 196.13802,12.5292969 196.210937,12.5292969 C196.375001,12.5292969 196.457031,12.6386708 196.457031,12.8574219 C196.457031,13.6048214 196.169925,14.3795533 195.595703,15.1816406 C195.085284,15.8925817 194.424483,16.4986954 193.613281,17 C192.802079,17.5013046 192.018233,17.7519531 191.261719,17.7519531 C190.742185,17.7519531 190.322918,17.601564 190.003906,17.3007812 C189.384111,16.7356743 189.074219,15.7513091 189.074219,14.3476562 C189.074219,13.199213 189.279295,12.1191457 189.689453,11.1074219 C189.288409,11.1074219 188.910158,11.3443987 188.554687,11.8183594 C187.907549,12.6751345 187.305992,14.0696518 186.75,16.0019531 C186.339842,17.4329499 186.034506,18.8092382 185.833984,20.1308594 C185.587889,21.8079511 185.259768,22.9108046 184.849609,23.4394531 C184.348305,24.0774771 183.619145,24.3964844 182.662109,24.3964844 Z M201.933984,15.46875 C202.617581,15.46875 203.19863,15.0950558 203.677148,14.3476562 C204.155666,13.6002567 204.394922,12.8027386 204.394922,11.9550781 C204.394922,11.1256469 204.139716,10.7109375 203.629297,10.7109375 C203.06419,10.7109375 202.5834,10.8886701 202.186914,11.2441406 C201.790428,11.5996112 201.464585,12.0690075 201.209375,12.6523438 C200.954165,13.23568 200.758204,13.8691372 200.621484,14.5527344 C200.894923,15.1634145 201.332419,15.46875 201.933984,15.46875 Z M200.648828,24.6289062 C198.452202,24.6289062 196.870838,23.9931704 195.904687,22.7216797 C194.938537,21.450189 194.455469,19.8346452 194.455469,17.875 C194.455469,14.9583188 195.205136,12.5885508 196.704492,10.765625 C198.203849,8.94269922 200.142957,8.03125 202.521875,8.03125 C204.071362,8.03125 205.208395,8.41178005 205.933008,9.17285156 C206.657621,9.93392308 207.019922,10.8613227 207.019922,11.9550781 C207.019922,13.5501382 206.491281,14.8375602 205.433984,15.8173828 C204.376687,16.7972054 203.29662,17.2871094 202.19375,17.2871094 C201.409892,17.2871094 200.799221,16.9908884 200.361719,16.3984375 C200.334375,16.6992203 200.320703,17.0136702 200.320703,17.3417969 C200.320703,18.1529988 200.411848,18.9049445 200.594141,19.5976562 C200.931382,20.9010482 201.619526,21.5527344 202.658594,21.5527344 C203.205471,21.5527344 203.756898,21.3750018 204.312891,21.0195312 C204.868883,20.6640607 205.406638,20.2015002 205.926172,19.6318359 C206.445706,19.0621716 206.931052,18.4446648 207.382226,17.7792969 C207.833401,17.113929 208.229881,16.4576855 208.57168,15.8105469 C208.913478,15.1634082 209.189192,14.584638 209.398828,14.0742188 C209.590235,13.600258 209.752017,13.2539073 209.88418,13.0351562 C210.016342,12.8164052 210.130273,12.6774092 210.225976,12.6181641 C210.32168,12.558919 210.415104,12.5292969 210.50625,12.5292969 C210.688542,12.5292969 210.779687,12.661457 210.779687,12.9257812 C210.779687,13.2356786 210.683985,13.686846 210.492578,14.2792969 C208.952206,19.0918209 206.978918,22.1953055 204.572656,23.5898438 C203.37864,24.2825555 202.07071,24.6289062 200.648828,24.6289062 Z M220.563281,24.65625 C219.916143,24.65625 219.376109,24.4762388 218.943164,24.1162109 C218.510219,23.7561831 218.166147,23.2685578 217.910937,22.6533203 C217.655728,22.0380829 217.473438,21.3431028 217.364062,20.5683594 C216.352339,22.9199336 214.862119,24.0957031 212.893359,24.0957031 C211.198038,24.0957031 210.00404,23.4257879 209.311328,22.0859375 C208.773565,21.0286405 208.504687,19.7207109 208.504687,18.1621094 C208.504687,17.7428364 208.522916,17.3190126 208.559375,16.890625 C208.759897,14.6028531 209.384239,12.6842525 210.432422,11.1347656 C211.608209,9.41210076 213.171344,8.55078125 215.121875,8.55078125 C215.686982,8.55078125 216.181443,8.63281168 216.605273,8.796875 C217.029104,8.96093832 217.389126,9.16829302 217.685351,9.41894531 C217.981577,9.66959761 218.211718,9.93163926 218.375781,10.2050781 C218.558074,9.74934668 218.824673,9.38020975 219.175586,9.09765625 C219.526499,8.81510275 220.048304,8.67382812 220.741016,8.67382812 C221.652478,8.67382812 222.249478,8.91080492 222.532031,9.38476562 C222.987763,10.186853 223.215625,11.7135304 223.215625,13.9648438 C223.215625,16.5533984 222.873831,18.991525 222.190234,21.2792969 C223.02878,20.5592412 223.928836,19.43588 224.89043,17.9091797 C225.852023,16.3824793 226.547003,15.1041718 226.975391,14.0742188 C227.166798,13.600258 227.32858,13.2539073 227.460742,13.0351562 C227.592904,12.8164052 227.706835,12.6774092 227.802539,12.6181641 C227.898243,12.558919 227.991666,12.5292969 228.082812,12.5292969 C228.265105,12.5292969 228.35625,12.661457 228.35625,12.9257812 C228.35625,13.2356786 228.265105,13.686846 228.082812,14.2792969 C227.709113,15.4915425 227.212373,16.8040294 226.592578,18.2167969 C225.80872,19.9941495 224.956515,21.447911 224.035937,22.578125 C222.914838,23.9635486 221.757298,24.65625 220.563281,24.65625 Z M214.192187,21.2382812 C214.857555,21.2382812 215.568486,20.2539161 216.325,18.2851562 C217.081514,16.3163964 217.578254,14.2610784 217.815234,12.1191406 C217.414191,11.5996068 216.931123,11.3398438 216.366016,11.3398438 C215.445438,11.3398438 214.702607,11.8958278 214.1375,13.0078125 C213.627081,13.9921924 213.271615,15.1861909 213.071094,16.5898438 C212.979947,17.2552117 212.934375,17.8658826 212.934375,18.421875 C212.934375,20.2994886 213.353642,21.2382812 214.192187,21.2382812 Z M245.796094,24.65625 C243.717958,24.65625 242.678906,22.9199392 242.678906,19.4472656 C242.678906,18.0071543 242.856639,16.4349044 243.212109,14.7304688 C243.558465,13.0716063 243.918488,11.8320354 244.292187,11.0117188 C243.790883,11.0117188 243.330601,11.2486955 242.911328,11.7226562 C242.163928,12.5794314 241.503128,13.9693914 240.928906,15.8925781 C240.527862,17.2506578 240.204298,18.5996027 239.958203,19.9394531 C239.712108,21.2793036 239.347528,22.3639281 238.864453,23.1933594 C238.290231,24.1686247 237.561072,24.65625 236.676953,24.65625 C235.364446,24.65625 234.708203,23.2070457 234.708203,20.3085938 C234.708203,19.1419212 234.803905,17.8841213 234.995312,16.5351562 C235.259637,14.6210842 235.583201,12.9895901 235.966016,11.640625 C235.528513,11.640625 235.113804,11.8912735 234.721875,12.3925781 C234.001819,13.3222703 233.345576,14.7851463 232.753125,16.78125 C232.25182,18.4583417 231.919141,19.8300728 231.755078,20.8964844 C231.563671,22.0905008 231.26745,22.947263 230.866406,23.4667969 C230.392445,24.0865916 229.681515,24.3964844 228.733594,24.3964844 C228.059111,24.3964844 227.530471,24.1914083 227.147656,23.78125 C226.619008,23.2343723 226.354687,21.9173281 226.354687,19.8300781 C226.354687,18.6907495 226.395703,17.5195373 226.477734,16.3164062 C226.505078,15.9700504 226.60078,15.1816468 226.764844,13.9511719 C227.065626,11.6725146 227.525908,10.1640662 228.145703,9.42578125 C228.583205,8.9062474 229.275907,8.64648438 230.223828,8.64648438 C230.943884,8.64648438 231.499868,8.83333146 231.891797,9.20703125 C232.283726,9.58073104 232.516145,10.0956998 232.589062,10.7519531 C232.625521,11.1074237 232.64375,11.4674461 232.64375,11.8320312 C232.64375,12.1419286 232.630078,12.4518214 232.602734,12.7617188 C233.231644,11.4947853 233.981311,10.4921912 234.851758,9.75390625 C235.722205,9.01562131 236.599475,8.64648438 237.483594,8.64648438 C238.167191,8.64648438 238.716339,8.81054523 239.131055,9.13867188 C239.54577,9.46679852 239.86022,9.89290103 240.074414,10.4169922 C240.288608,10.9410833 240.427604,11.5084605 240.491406,12.1191406 C241.156774,10.8704365 241.947456,9.88151406 242.863476,9.15234375 C243.779497,8.42317344 244.665881,8.05859375 245.522656,8.05859375 C247.564333,8.05859375 248.585156,9.73110307 248.585156,13.0761719 C248.585156,13.8418007 248.553255,14.5800746 248.489453,15.2910156 C248.252473,17.7337362 247.897007,19.72981 247.423047,21.2792969 C248.261593,20.5592412 249.161649,19.43588 250.123242,17.9091797 C251.084835,16.3824793 251.779815,15.1041718 252.208203,14.0742188 C252.408725,13.600258 252.575064,13.2539073 252.707226,13.0351562 C252.839389,12.8164052 252.95332,12.6774092 253.049023,12.6181641 C253.144727,12.558919 253.23815,12.5292969 253.329297,12.5292969 C253.511589,12.5292969 253.602734,12.661457 253.602734,12.9257812 C253.602734,13.2447933 253.511589,13.6959606 253.329297,14.2792969 C252.955597,15.4641986 252.4543,16.7766855 251.825391,18.2167969 C251.059762,19.9759203 250.212114,21.4296818 249.282422,22.578125 C248.161322,23.9635486 246.999225,24.65625 245.796094,24.65625 Z" id="UltimateIceCream" fill="#FFFFFF"></path>
                </g>
                <g id="ice-cream" transform="translate(22.500000, 27.500000) rotate(-26.000000) translate(-22.500000, -27.500000) translate(9.000000, 4.000000)">
                    <path d="M12.2250638,7.44417578 C12.1106489,7.35797852 11.9880957,7.27178125 11.8654468,7.19338672 C11.9717234,7.16988672 12.069766,7.15418945 12.1760426,7.13849219 C12.6091915,7.07579492 13.0505745,7.03659766 13.5000957,7.03659766 C13.6553936,7.03659766 13.8106915,7.04440039 13.9577553,7.04440039 C13.8678511,6.98170312 13.7779468,6.91900586 13.6880426,6.85630859 C13.6226489,6.87980859 13.5654894,6.90330859 13.5000957,6.92680859 C13.2630319,6.84061133 13.0260638,6.75441406 12.7808617,6.68391406 C12.6583085,6.6447168 12.5356596,6.61341406 12.4131064,6.58201953 C12.2905532,6.550625 12.159766,6.51932227 12.037117,6.49582227 C11.8981915,6.46451953 11.7510319,6.433125 11.6121064,6.409625 C11.0400319,6.30773047 10.4597234,6.25292773 9.8631383,6.25292773 C9.29920213,6.25292773 8.74340426,6.29992773 8.21221277,6.39401953 C8.03240426,6.41751953 7.85259574,6.4567168 7.68092553,6.49591406 C7.31317021,6.57430859 6.96169149,6.67611133 6.61844681,6.79370313 C6.52854255,6.81720313 6.4467766,6.84859766 6.36510638,6.87990039 C6.29157447,6.91120313 6.21804255,6.93479492 6.15264894,6.96609766 C6.08725532,6.98959766 6.0218617,7.01309766 5.95646809,7.04449219 C6.0218617,7.03668945 6.07902128,7.03668945 6.14441489,7.03668945 L6.31608511,7.03668945 C6.44687234,7.03668945 6.57765957,7.04449219 6.70021277,7.05238672 C6.81462766,7.06018945 6.92904255,7.06808398 7.04345745,7.08368945 C7.15787234,7.09149219 7.28042553,7.10718945 7.39493617,7.12288672 C8.17956383,7.24038672 8.92330851,7.45987305 9.60979787,7.78107031 C9.63430851,7.79676758 9.66705319,7.80457031 9.69156383,7.82026758 C9.69970213,7.82026758 9.69970213,7.82026758 9.69970213,7.82026758 L9.8631383,7.82026758 C10.0348085,7.82026758 10.1982447,7.82807031 10.3698191,7.83596484 C10.4107021,7.83596484 10.4515851,7.84376758 10.484234,7.84376758 C10.6231596,7.85157031 10.7620851,7.86726758 10.8928723,7.88296484 C10.9664043,7.89076758 11.0317979,7.89866211 11.1053298,7.91426758 C11.3995532,7.95346484 11.6937766,8.01616211 11.9798617,8.09446484 C12.1270213,8.13366211 12.2659468,8.16496484 12.4048723,8.21196484 C12.7644894,8.32166211 13.1158723,8.46275391 13.4509787,8.61945117 L13.4509787,8.62725391 C13.4836277,8.63505664 13.508234,8.65075391 13.540883,8.66645117 C13.5653936,8.67425391 13.5899043,8.68214844 13.6144149,8.69775391 C13.1894043,8.24345117 12.7317447,7.82026758 12.2250638,7.44417578 Z M23.2258404,8.29825391 C22.6619043,3.69858789 18.5999362,0.125394531 13.7615745,0.00780273437 C13.6716702,0 13.5899043,0 13.5,0 C12.0942766,0 10.7620851,0.282091797 9.55244681,0.791472656 C9.21734043,0.932564453 8.89046809,1.08926172 8.57987234,1.26945898 C8.09770213,1.52805078 7.64818085,1.83364258 7.22317021,2.17062891 C7.20679787,2.18632617 7.19052128,2.19412891 7.17414894,2.20982617 C6.0381383,3.11879883 5.1227234,4.27856055 4.5342766,5.60282227 L4.5342766,5.610625 C4.48525532,5.71251953 4.43623404,5.8222168 4.39535106,5.92401953 C4.38721277,5.9397168 4.38721277,5.94751953 4.37897872,5.9632168 C4.19103191,6.40990039 4.04387234,6.87999219 3.93759574,7.35797852 C3.85582979,7.67137305 3.80680851,7.98485938 3.76592553,8.30614844 C3.71690426,8.3453457 3.65964894,8.38454297 3.61062766,8.43154297 C3.59425532,8.44724023 3.57797872,8.45504297 3.56160638,8.47074023 C2.31931915,9.46591016 1.33037234,10.7666719 0.733787234,12.2398281 L0.725648936,12.2476309 C0.2925,13.2976035 0.0554361702,14.4495625 0.0554361702,15.6562324 C0.0554361702,17.3174805 0.521329787,18.9395313 1.37948936,20.357793 C1.71459574,20.9219766 2.11509574,21.4469629 2.57275532,21.9249492 C2.70354255,22.0738438 2.85060638,22.2148438 2.99776596,22.3559355 L3.15306383,22.7085273 L3.83955319,24.2756836 L7.32935106,32.2683457 L8.2692766,34.4075801 L11.3096489,41.3737695 L12.0942766,43.1603203 L12.2250638,43.4659121 L12.2495745,43.5208066 L13.1649894,45.613041 L13.5654894,46.5220137 C13.6880426,46.8119082 13.9905,47 14.3173723,47 L14.341883,47 C14.6769894,46.9921973 14.9712128,46.7806055 15.0856277,46.4750137 L24.0186064,22.3403301 C25.8738511,20.585082 26.9445638,18.1637559 26.9445638,15.6562324 C26.9444681,12.6785254 25.4897234,10.0221992 23.2258404,8.29825391 Z M6.17706383,5.916125 C6.24245745,5.78292773 6.30785106,5.64973047 6.38952128,5.52433594 C6.41403191,5.47733594 6.43854255,5.43033594 6.47128723,5.38324414 C6.54481915,5.25784961 6.62658511,5.14034961 6.71648936,5.02275781 C6.79825532,4.88956055 6.89629787,4.75636328 7.01071277,4.63096875 C7.08424468,4.52127148 7.17414894,4.41157422 7.27228723,4.30967969 C7.51748936,4.03539062 7.77896809,3.77679883 8.05691489,3.54179883 C8.17946809,3.4399043 8.30211702,3.33810156 8.42467021,3.2519043 C8.51457447,3.1814043 8.60447872,3.1108125 8.70252128,3.04820703 C8.73517021,3.02470703 8.76791489,3.00120703 8.80056383,2.98550977 C8.89860638,2.91500977 8.99674468,2.84441797 9.10292553,2.78961523 C9.33175532,2.6407207 9.57695745,2.51532617 9.82215957,2.39782617 C9.98559574,2.31943164 10.157266,2.24112891 10.3288404,2.17062891 C10.3452128,2.16282617 10.3614894,2.15493164 10.3860957,2.14712891 C10.5740426,2.07662891 10.7538511,2.01393164 10.9500319,1.95903711 C11.1217021,1.89633984 11.3015106,1.84933984 11.4894574,1.81014258 C11.7019149,1.75524805 11.9226064,1.70824805 12.1432979,1.67694531 L12.1514362,1.67694531 C12.3721277,1.64564258 12.5928191,1.61424805 12.8216489,1.59855078 C13.0423404,1.57505078 13.2711702,1.56724805 13.5,1.56724805 C13.6798085,1.56724805 13.859617,1.57505078 14.0311915,1.58294531 C14.129234,1.59074805 14.2273723,1.59864258 14.3172766,1.60644531 C14.4970851,1.62214258 14.6768936,1.64564258 14.8485638,1.67694531 C14.9956277,1.70044531 15.1427872,1.72394531 15.2817128,1.76314258 C15.330734,1.77094531 15.3879894,1.77883984 15.4370106,1.79444531 C15.5350532,1.81794531 15.6249574,1.84144531 15.7230957,1.86494531 C15.8211383,1.89624805 15.9110426,1.91983984 16.0091809,1.95114258 C16.0909468,1.97464258 16.1644787,1.99814258 16.2380106,2.02953711 C16.614,2.15493164 16.9817553,2.31162891 17.3331383,2.49182617 C17.5048085,2.57802344 17.6682447,2.67202344 17.8235426,2.77391797 C17.8561915,2.78961523 17.8889362,2.8052207 17.9215851,2.8288125 C18.0850213,2.93070703 18.2403191,3.03250977 18.3874787,3.14220703 C19.2211277,3.74558789 19.9321277,4.48996875 20.4797872,5.35194141 C20.5533191,5.46163867 20.6187128,5.57913867 20.6841064,5.69673047 C20.8148936,5.93182227 20.9374468,6.16691406 21.0437234,6.41761133 C21.0846064,6.50380859 21.1254894,6.59780859 21.1581383,6.69190039 C21.2235319,6.84859766 21.2806915,7.00529492 21.3298085,7.16988672 C20.6759681,6.87209766 19.997617,6.64490039 19.278383,6.48820312 C19.1475957,6.45690039 19.0168085,6.43330859 18.877883,6.40980859 C18.7470957,6.38630859 18.6081702,6.36280859 18.477383,6.34711133 C18.3384574,6.32361133 18.1995319,6.30791406 18.0687447,6.30011133 C17.9298191,6.28441406 17.7908936,6.27661133 17.6519681,6.26880859 C17.4966702,6.26100586 17.3413723,6.25311133 17.1779362,6.25311133 L17.1370532,6.25311133 C16.8918511,6.25311133 16.6385106,6.26091406 16.3933085,6.28441406 C16.3279149,6.28441406 16.2625213,6.2922168 16.1971277,6.30011133 C16.0173191,6.31580859 15.8456489,6.33141406 15.6740745,6.35500586 C15.5432872,6.37850586 15.4125,6.40200586 15.2818085,6.42550586 C15.1673936,6.44900586 15.0529787,6.47250586 14.9385638,6.49600586 C14.5135532,6.59000586 14.0967766,6.70759766 13.6881383,6.85649219 C13.6227447,6.87999219 13.5655851,6.90349219 13.5001915,6.92699219 C13.2631277,6.84079492 13.0261596,6.75459766 12.7809574,6.68409766 C12.6584043,6.64490039 12.5357553,6.61359766 12.4132021,6.58220312 C12.2906489,6.55080859 12.1598617,6.51950586 12.0372128,6.49600586 C11.8982872,6.46470312 11.7511277,6.43330859 11.6122021,6.40980859 C11.0401277,6.30791406 10.4598191,6.25311133 9.86323404,6.25311133 C9.29929787,6.25311133 8.7435,6.30011133 8.21230851,6.39420313 C8.0325,6.41770312 7.85269149,6.45690039 7.68102128,6.49609766 C7.31326596,6.57449219 6.96178723,6.67629492 6.61854255,6.79388672 C6.5286383,6.81738672 6.44687234,6.84878125 6.36520213,6.88008398 C6.29167021,6.91138672 6.2181383,6.93497852 6.15274468,6.96628125 C6.08735106,6.98978125 6.02195745,7.01328125 5.95656383,7.04467578 C5.85852128,7.08387305 5.76038298,7.12307031 5.66234043,7.17007031 C5.79293617,6.73109766 5.96451064,6.31580859 6.17706383,5.916125 Z M3.67611702,20.7573848 C3.56984043,20.6398848 3.46365957,20.5144902 3.36552128,20.3890957 C3.34914894,20.381293 3.34101064,20.3733984 3.33287234,20.357793 C3.22659574,20.2245957 3.12855319,20.0913984 3.03864894,19.9503066 C2.98139362,19.8798066 2.94060638,19.8092148 2.8997234,19.7387148 C2.80168085,19.597623 2.7117766,19.4488203 2.63001064,19.3077285 C2.63001064,19.2999258 2.63001064,19.2999258 2.63001064,19.2999258 C2.52373404,19.111834 2.43382979,18.9316367 2.34392553,18.7435449 C2.34392553,18.7357422 2.34392553,18.7357422 2.34392553,18.7278477 C2.25402128,18.5397559 2.18048936,18.3438613 2.11509574,18.1479668 C2.04156383,17.9520723 1.98430851,17.7561777 1.92714894,17.5524805 C1.87812766,17.3487832 1.82910638,17.1371914 1.7963617,16.9255996 C1.77185106,16.7610078 1.74734043,16.5965078 1.73096809,16.4241133 C1.72282979,16.3457187 1.71459574,16.267416 1.70645745,16.1812188 C1.69831915,16.0088242 1.69008511,15.828627 1.69008511,15.6562324 C1.69008511,15.3898379 1.70645745,15.1233516 1.73096809,14.856957 C1.74734043,14.7237598 1.76361702,14.5983652 1.7882234,14.465168 C1.7963617,14.3867734 1.81273404,14.3084707 1.82910638,14.2379707 C1.84547872,14.1439707 1.86175532,14.0498789 1.8863617,13.9636816 C2.13970213,12.8588145 2.63010638,11.8479473 3.31659574,10.9703691 C3.47189362,10.7666719 3.64346809,10.5707773 3.8151383,10.3904883 C4.01131915,10.1788965 4.2237766,9.98300195 4.44446809,9.79500195 C4.55888298,9.69310742 4.68143617,9.59910742 4.80408511,9.50510742 C5.09017021,9.29351563 5.38439362,9.09762109 5.69489362,8.92522656 C5.77665957,8.87033203 5.86656383,8.82333203 5.94823404,8.78413477 C6.03,8.73713477 6.11990426,8.69013477 6.20980851,8.6509375 C6.78188298,8.37664844 7.38670213,8.16514844 8.02417021,8.02405664 C8.17946809,7.98485938 8.33476596,7.96135938 8.49006383,7.93785938 C8.53094681,7.92216211 8.57996809,7.91435938 8.62085106,7.91435938 C8.79252128,7.88305664 8.97232979,7.86735938 9.14390426,7.85166211 C9.33185106,7.83596484 9.51989362,7.82816211 9.70784043,7.82816211 L9.70784043,7.82035938 L9.8631383,7.82035938 C10.0348085,7.82035938 10.1982447,7.82816211 10.3698191,7.83605664 C10.4107021,7.83605664 10.4515851,7.84385938 10.484234,7.84385938 C10.6231596,7.85166211 10.7620851,7.86735938 10.8928723,7.88305664 C10.9664043,7.89085938 11.0317979,7.89875391 11.1053298,7.91435938 C11.3995532,7.95355664 11.6937766,8.01625391 11.9798617,8.09455664 C12.1270213,8.13375391 12.2659468,8.16505664 12.4048723,8.21205664 C12.7644894,8.32175391 13.1158723,8.4628457 13.4509787,8.61954297 L13.4509787,8.6273457 C13.4836277,8.63514844 13.508234,8.6508457 13.540883,8.66654297 C13.5653936,8.6743457 13.5899043,8.68224023 13.6144149,8.6978457 C13.6634362,8.7213457 13.7043191,8.7448457 13.7533404,8.7683457 C13.9086383,8.84674023 14.0557021,8.9329375 14.2028617,9.01913477 C14.6115,9.26992383 14.9956277,9.55201563 15.3552447,9.85760742 C15.4370106,9.92810742 15.5186809,9.99869922 15.5922128,10.077002 C15.7720213,10.2493965 15.9518298,10.4295938 16.115266,10.6176855 C16.2215426,10.7351855 16.3114468,10.8527773 16.4094894,10.9702773 C16.6056702,11.2210664 16.7854787,11.4874609 16.9489149,11.7538555 C17.0143085,11.8713555 17.0797021,11.9889473 17.1450957,12.1064473 C17.4148085,12.6079336 17.627266,13.1408145 17.7744255,13.6971035 C17.7989362,13.7833008 17.8234468,13.869498 17.8398191,13.963498 C17.9378617,14.3552871 17.995117,14.7627734 18.0196277,15.1780625 C18.027766,15.3347598 18.036,15.4993516 18.036,15.6560488 C18.036,15.8284434 18.0278617,16.0086406 18.0196277,16.1810352 C18.0114894,16.2672324 18.0032553,16.345627 17.995117,16.4239297 C17.9787447,16.5963242 17.954234,16.760916 17.9297234,16.925416 C17.8643298,17.2937051 17.7825638,17.6541914 17.6681489,17.9989805 C17.6436383,18.0851777 17.6108936,18.1635723 17.5782447,18.2497695 C17.5209894,18.4143613 17.4474574,18.5788613 17.3820638,18.7434531 C17.2921596,18.9315449 17.2022553,19.1117422 17.0959787,19.299834 C17.0959787,19.299834 17.0959787,19.299834 17.0959787,19.3076367 C17.0142128,19.4487285 16.9243085,19.5975312 16.826266,19.738623 C16.785383,19.809123 16.7445,19.8797148 16.6873404,19.9502148 C16.6873404,19.9580176 16.6792021,19.9580176 16.6792021,19.9580176 C16.5892979,20.0912148 16.4912553,20.2244121 16.3849787,20.3576094 C16.3195851,20.4516094 16.2460532,20.5457012 16.1642872,20.6318984 C16.0089894,20.8120957 15.8536915,20.9766875 15.682117,21.1412793 L4.04387234,21.1412793 C3.91318085,21.0159766 3.79053191,20.8906738 3.67611702,20.7573848 Z M14.251883,44.0458848 L13.6798085,42.745123 L13.0668511,41.3189668 L13.0423404,41.2719668 L12.9197872,40.9976777 L9.07851064,32.213543 L8.14681915,30.0743086 L5.60498936,24.2756836 L4.9185,22.7085273 L22.1470851,22.7085273 L14.251883,44.0458848 Z M25.2690319,16.4241133 C25.2526596,16.6278105 25.2200106,16.8159023 25.187266,17.0117969 C25.1791277,17.0666914 25.1708936,17.1214941 25.154617,17.1763887 C25.1219681,17.3330859 25.0892234,17.4897832 25.0483404,17.6465723 C25.0402021,17.6700723 25.0319681,17.6935723 25.0238298,17.7170723 C24.9665745,17.9129668 24.9012766,18.1088613 24.8276489,18.3047559 C24.745883,18.5084531 24.6642128,18.7200449 24.5660745,18.9159395 C24.4680319,19.1196367 24.3617553,19.3234258 24.2473404,19.5115176 C24.1574362,19.6604121 24.0675319,19.8093066 23.9612553,19.9503066 C23.9367447,19.9973066 23.912234,20.0365039 23.8713511,20.0757012 C23.7405638,20.263793 23.6016383,20.4439902 23.4463404,20.6163848 C23.2991809,20.796582 23.1276064,20.9689766 22.9559362,21.1413711 L17.815117,21.1413711 C18.0030638,20.890582 18.1828723,20.6319902 18.3381702,20.357793 C19.2044681,18.9395312 19.6703617,17.3174805 19.6703617,15.6562324 C19.6703617,15.4054434 19.6622234,15.1547461 19.6377128,14.9118516 C19.6377128,14.8726543 19.6377128,14.8413516 19.6295745,14.8178516 C19.6132021,14.6611543 19.5969255,14.504457 19.5723191,14.3555625 C19.5559468,14.206668 19.5314362,14.0577734 19.4987872,13.9167734 C19.4987872,13.9089707 19.4987872,13.9089707 19.4987872,13.9010762 C19.4579043,13.7208789 19.4170213,13.5405898 19.368,13.3603926 C19.3598617,13.3211953 19.3516277,13.281998 19.3353511,13.2428926 C19.2863298,13.0626953 19.2373085,12.8824062 19.1719149,12.702209 L19.1719149,12.6944063 C19.1065213,12.5063145 19.0329894,12.3261172 18.9512234,12.1459199 C18.9267128,12.0597227 18.8858298,11.9813281 18.8449468,11.8951309 C18.5588617,11.26825 18.2074787,10.6805664 17.7824681,10.1320801 C17.6599149,9.97538281 17.537266,9.81868555 17.4064787,9.66979102 C17.3492234,9.59139648 17.2839255,9.52089648 17.2102979,9.45039648 C16.8588191,9.06641016 16.4746915,8.71381836 16.0660532,8.3925293 C15.8862447,8.24363477 15.6982979,8.10263477 15.502117,7.97724023 C15.5920213,7.96154297 15.6900638,7.9459375 15.7799681,7.93024023 C16.0006596,7.89104297 16.2213511,7.86754297 16.4419468,7.8518457 C16.646266,7.83614844 16.8424468,7.82054297 17.046766,7.82054297 C17.0549043,7.82054297 17.0549043,7.82054297 17.0549043,7.82054297 L17.1366702,7.82054297 C17.3083404,7.82054297 17.4881489,7.8283457 17.6597234,7.83624023 C17.6678617,7.83624023 17.6678617,7.83624023 17.6678617,7.83624023 C17.8067872,7.84404297 17.9457128,7.85974023 18.0846383,7.8754375 C18.2808191,7.8989375 18.4769043,7.9224375 18.6649468,7.96163477 C18.7875,7.97733203 18.9101489,8.00863477 19.0327021,8.0400293 C19.1389787,8.05572656 19.228883,8.07922656 19.3269255,8.1105293 C19.4249681,8.1340293 19.5231064,8.16542383 19.6292872,8.19672656 C19.8009574,8.24372656 19.9725319,8.30642383 20.1359681,8.37692383 C20.3076383,8.43962109 20.4792128,8.51012109 20.650883,8.58851563 C20.7326489,8.61981836 20.8061809,8.65901563 20.8797128,8.69821289 L20.8797128,8.70601562 C20.928734,8.72171289 20.9777553,8.74521289 21.0268723,8.76871289 C21.4355106,8.98030469 21.8277766,9.23100195 22.1956277,9.50529102 C22.3427872,9.62279102 22.4898511,9.74038281 22.6287766,9.85788281 L22.6532872,9.88138281 C22.7922128,10.0067773 22.9311383,10.1321719 23.0619255,10.2653691 C23.1028085,10.3045664 23.1436915,10.3515664 23.1844787,10.3907637 C23.2825213,10.4926582 23.3887979,10.6101582 23.4787021,10.7198555 C23.8219468,11.1194473 24.1161702,11.5583281 24.3695106,12.0128145 C24.4185319,12.091209 24.4594149,12.1774062 24.5002979,12.2636035 C24.7618723,12.7807871 24.9661915,13.337168 25.105117,13.9091543 C25.137766,14.0345488 25.1623723,14.1599434 25.1786489,14.2931406 C25.1950213,14.3480352 25.2031596,14.4028379 25.2112979,14.4655352 C25.2194362,14.5125352 25.2276702,14.5674297 25.2358085,14.6222324 C25.2521809,14.747627 25.2684574,14.8730215 25.2766915,14.9983242 C25.2848298,15.0218242 25.2848298,15.0453242 25.2848298,15.0767187 C25.3012021,15.2726133 25.3093404,15.4607051 25.3093404,15.6565996 C25.3093404,15.8759941 25.3012021,16.1032832 25.2766915,16.3147832 C25.2771702,16.3536133 25.2771702,16.3928105 25.2690319,16.4241133 Z M13.4346064,21.1413711 C13.3038191,21.2824629 13.1730319,21.4234629 13.0259681,21.5566602 L12.6009574,22.7085273 L12.8625319,22.7085273 C13.1158723,22.4577383 13.3529362,22.1991465 13.5735319,21.9249492 C13.7697128,21.6741602 13.9576596,21.4155684 14.1210957,21.1413711 L13.4346064,21.1413711 Z M15.6822128,21.1413711 L14.1211915,21.1413711 C13.9577553,21.4156602 13.7697128,21.674252 13.5736277,21.9249492 C13.3529362,22.1992383 13.1159681,22.4578301 12.8626277,22.7085273 L14.9957234,22.7085273 C15.1836702,22.4577383 15.3634787,22.1913438 15.5187766,21.9249492 C15.772117,21.5096602 15.9928085,21.0786738 16.1644787,20.6319902 C16.0090851,20.8122793 15.8537872,20.9768711 15.6822128,21.1413711 Z" id="Shape" fill="#5C4268"></path>
                    <path d="M21.3297128,7.16988672 C20.6758723,6.87209766 19.9975213,6.64490039 19.2782872,6.48820312 C17.8316809,3.95717969 15.2081809,2.12353711 12.1515319,1.67694531 C12.5929149,1.60644531 13.0423404,1.56724805 13.5000957,1.56724805 C17.1533298,1.56715625 20.3080213,3.92578516 21.3297128,7.16988672 Z" id="Path" fill="#AD1457"></path>
                    <path d="M19.2782872,6.48820313 C18.5999362,6.33930859 17.9052128,6.25311133 17.1778404,6.25311133 L17.1369574,6.25311133 C15.8782979,6.25311133 14.652383,6.48820313 13.5,6.92699219 C12.3721277,6.49600586 11.1462128,6.25311133 9.86304255,6.25311133 C8.35918085,6.25311133 6.93708511,6.59009766 5.66214894,7.16988672 C6.09529787,5.74373047 6.93708511,4.48996875 8.05681915,3.54179883 C9.18469149,2.57793164 10.5904149,1.91974805 12.1432979,1.67685352 L12.1514362,1.67685352 C15.2081809,2.12353711 17.8316809,3.95717969 19.2782872,6.48820313 Z" id="Path" fill="#D81B60"></path>
                    <path d="M25.3099149,15.6562324 C25.3099149,15.875627 25.3017766,16.102916 25.277266,16.314416 C25.277266,16.3536133 25.277266,16.3928105 25.2691277,16.4241133 C25.2527553,16.6278105 25.2201064,16.8159023 25.1873617,17.0117969 C25.1792234,17.0666914 25.1709894,17.1214941 25.1547128,17.1763887 C25.1220638,17.3330859 25.0893191,17.4897832 25.0484362,17.6465723 C25.0402979,17.6700723 25.0320638,17.6935723 25.0239255,17.7170723 C24.9666702,17.9129668 24.9013723,18.1088613 24.8277447,18.3047559 C24.6724468,18.7200449 24.476266,19.1275312 24.2474362,19.5115176 C24.1575319,19.6604121 24.0676277,19.8093066 23.9613511,19.9503066 C23.9368404,19.9973066 23.9123298,20.0365039 23.8714468,20.0757012 C23.7406596,20.263793 23.601734,20.4439902 23.4464362,20.6163848 C23.2993723,20.796582 23.1277021,20.9689766 22.9560319,21.1413711 L20.7901915,21.1413711 C20.9454894,20.9846738 21.0844149,20.820082 21.2152021,20.655582 C21.8117872,19.9268066 22.2858191,19.1275312 22.6291596,18.2656504 C23.0705426,17.1920859 23.3075106,16.0402187 23.3075106,14.8726543 C23.3075106,12.5140254 22.3920957,10.351291 20.8801915,8.70574023 C20.9292128,8.7214375 20.978234,8.7449375 21.0272553,8.7684375 C21.4358936,8.9800293 21.8281596,9.23072656 22.1960106,9.50501562 C22.3430745,9.62251562 22.490234,9.74010742 22.6291596,9.85760742 L22.6536702,9.88110742 C22.7925957,10.006502 22.9315213,10.1318965 23.0623085,10.2650937 C23.1031915,10.304291 23.1440745,10.351291 23.1848617,10.3904883 C23.2829043,10.4923828 23.3891809,10.6098828 23.4790851,10.7195801 C23.8223298,11.1191719 24.1165532,11.5580527 24.3698936,12.0125391 C24.4189149,12.0909336 24.4597979,12.1771309 24.5006809,12.2633281 C24.7622553,12.7805117 24.9665745,13.3368926 25.1055,13.9088789 C25.1381489,14.0342734 25.1627553,14.159668 25.1790319,14.2928652 C25.1954043,14.3477598 25.2035426,14.4025625 25.2116809,14.4652598 C25.2198191,14.5122598 25.2280532,14.5671543 25.2361915,14.621957 C25.2525638,14.7473516 25.2688404,14.8727461 25.2770745,14.9980488 C25.2852128,15.0215488 25.2852128,15.0450488 25.2852128,15.0764434 C25.3016809,15.2722461 25.3099149,15.4603379 25.3099149,15.6562324 Z" id="Path" fill="#BDBDBD"></path>
                    <g id="Group" transform="translate(15.414894, 7.802734)" fill="#F4F4F4">
                        <path d="M5.46529787,0.903005859 C6.97729787,2.54855664 7.89261702,4.71129102 7.89261702,7.06991992 C7.89261702,8.23748437 7.65564894,9.38935156 7.21426596,10.462916 C6.87102128,11.3248887 6.39698936,12.1241641 5.80030851,12.8528477 C5.66952128,13.0174395 5.53059574,13.1819395 5.37529787,13.3386367 L2.40031915,13.3386367 C2.58826596,13.0878477 2.76807447,12.8292559 2.92337234,12.5550586 C3.78967021,11.1367969 4.25556383,9.51474609 4.25556383,7.85349805 C4.25556383,7.60270898 4.24742553,7.35201172 4.22291489,7.10911719 C4.22291489,7.06991992 4.22291489,7.03861719 4.2147766,7.01511719 C4.19840426,6.85841992 4.18212766,6.70172266 4.15752128,6.55282812 C4.14114894,6.40393359 4.1166383,6.25503906 4.08398936,6.11403906 C4.08398936,6.10623633 4.08398936,6.10623633 4.08398936,6.0983418 C4.04310638,5.91814453 4.0022234,5.73785547 3.95320213,5.5576582 C3.94506383,5.51846094 3.93682979,5.47926367 3.92055319,5.4401582 C3.87153191,5.25996094 3.82251064,5.07967188 3.75711702,4.89947461 L3.75711702,4.89167188 C3.6917234,4.70358008 3.61819149,4.52338281 3.53642553,4.34318555 C3.51191489,4.25698828 3.47103191,4.17859375 3.43014894,4.09239648 C3.14406383,3.46551563 2.79268085,2.87783203 2.36767021,2.3293457 C2.25325532,2.17264844 2.13070213,2.01595117 1.99168085,1.86705664 C1.93442553,1.78866211 1.86912766,1.71816211 1.7955,1.64766211 C1.44402128,1.26367578 1.05989362,0.911083984 0.651255319,0.589794922 C0.471446809,0.440900391 0.2835,0.307703125 0.0873191489,0.174505859 C0.177223404,0.158808594 0.275265957,0.143203125 0.365170213,0.127505859 C0.585861702,0.0883085938 0.806553191,0.0648085938 1.02714894,0.0491113281 C1.23146809,0.0334140625 1.42764894,0.0178085938 1.63196809,0.0178085938 C1.64010638,0.0178085938 1.64010638,0.0178085938 1.64010638,0.0178085938 L1.72187234,0.0178085938 C1.89354255,0.0178085938 2.07335106,0.0256113281 2.24492553,0.0335058594 C2.25306383,0.0335058594 2.25306383,0.0335058594 2.25306383,0.0335058594 C2.39198936,0.0413085938 2.53091489,0.0570058594 2.66984043,0.072703125 C2.86602128,0.096203125 3.06210638,0.119703125 3.25014894,0.158900391 C3.37270213,0.174597656 3.49535106,0.205900391 3.61790426,0.237294922 C3.72418085,0.252992188 3.81408511,0.276492188 3.91212766,0.307794922 C4.01017021,0.331294922 4.10830851,0.362689453 4.21448936,0.393992188 C4.38615957,0.440992188 4.55773404,0.503689453 4.72117021,0.574189453 C4.89284043,0.636886719 5.06441489,0.707386719 5.23608511,0.78578125 C5.31785106,0.817083984 5.39138298,0.85628125 5.46491489,0.895478516 C5.51393617,0.911175781 5.56295745,0.942478516 5.61207447,0.965978516 C5.56334043,0.942203125 5.51431915,0.918703125 5.46529787,0.903005859 Z" id="Path"></path>
                        <path d="M8.83254255,11.7087832 C9.06137234,11.3247969 9.25755319,10.9173105 9.41285106,10.5020215 C9.25755319,10.9173105 9.06951064,11.3247969 8.83254255,11.7087832 Z" id="Path"></path>
                    </g>
                    <path d="M18.036,15.6562324 C18.036,15.828627 18.0278617,16.0088242 18.0196277,16.1812187 C18.0114894,16.267416 18.0032553,16.3458105 17.995117,16.4241133 C17.9787447,16.5965078 17.954234,16.7610996 17.9297234,16.9255996 C17.8643298,17.2938887 17.7826596,17.654375 17.6681489,17.9991641 C17.6436383,18.0853613 17.6108936,18.1637559 17.5782447,18.2499531 C17.5209894,18.4145449 17.4474574,18.5790449 17.3820638,18.7436367 C17.2921596,18.9317285 17.2022553,19.1119258 17.0959787,19.3000176 C17.0959787,19.3000176 17.0959787,19.3000176 17.0959787,19.3078203 C17.0142128,19.4489121 16.9243085,19.5977148 16.826266,19.7388066 C16.785383,19.8093066 16.7445,19.8798984 16.6873404,19.9503984 C16.6873404,19.9582012 16.6792021,19.9582012 16.6792021,19.9582012 C16.5892979,20.0913984 16.4912553,20.2245957 16.3849787,20.357793 C16.3195851,20.451793 16.2460532,20.5458848 16.1642872,20.632082 C16.0089894,20.8122793 15.8536915,20.9768711 15.682117,21.1414629 L13.4345106,21.1414629 C13.5898085,20.9847656 13.728734,20.8201738 13.8595213,20.6556738 C14.4561064,19.9268984 14.9301383,19.127623 15.2734787,18.2657422 C15.7148617,17.1921777 15.9518298,16.0403105 15.9518298,14.8727461 C15.9518298,12.5141172 15.0364149,10.3513828 13.5245106,8.70583203 L13.5245106,8.6980293 C13.5,8.6745293 13.4836277,8.6510293 13.4509787,8.6275293 C13.4836277,8.63533203 13.508234,8.6510293 13.540883,8.66672656 C13.5653936,8.6745293 13.5899043,8.68242383 13.6144149,8.6980293 C13.6634362,8.7215293 13.7043191,8.7450293 13.7533404,8.7685293 C13.9086383,8.84692383 14.0557021,8.93312109 14.2028617,9.01931836 C14.6115,9.27010742 14.9956277,9.55219922 15.3552447,9.85779102 C15.4370106,9.92829102 15.5186809,9.99888281 15.5922128,10.0771855 C15.7720213,10.2495801 15.9518298,10.4297773 16.115266,10.6178691 C16.2215426,10.7353691 16.3114468,10.8529609 16.4094894,10.9704609 C16.6056702,11.22125 16.7854787,11.4876445 16.9489149,11.7540391 C17.0143085,11.8715391 17.0797021,11.9891309 17.1450957,12.1066309 C17.4148085,12.6081172 17.627266,13.140998 17.7744255,13.6972871 C17.7989362,13.7834844 17.8234468,13.8696816 17.8398191,13.9636816 C17.9378617,14.3554707 17.995117,14.762957 18.0196277,15.1782461 C18.027766,15.3349434 18.036,15.4995352 18.036,15.6562324 Z" id="Path" fill="#6D4C41"></path>
                    <path d="M15.9519255,14.8726543 C15.9519255,16.0402188 15.7149574,17.1920859 15.2735745,18.2656504 C14.9303298,19.127623 14.4562979,19.9268984 13.859617,20.655582 C13.7288298,20.8201738 13.5899043,20.9846738 13.4346064,21.1413711 L4.04387234,21.1413711 C3.91308511,21.0159766 3.79053191,20.890582 3.67611702,20.7573848 C3.56984043,20.6398848 3.46365957,20.5144902 3.36552128,20.3890957 C3.34914894,20.381293 3.34101064,20.3733984 3.33287234,20.357793 C3.22659574,20.2245957 3.12855319,20.0913984 3.03864894,19.9503066 C2.98139362,19.8798066 2.94060638,19.8092148 2.8997234,19.7387148 C2.80168085,19.597623 2.7117766,19.4488203 2.63001064,19.3077285 C2.63001064,19.2999258 2.63001064,19.2999258 2.63001064,19.2999258 C2.52373404,19.111834 2.43382979,18.9316367 2.34392553,18.7435449 C2.34392553,18.7357422 2.34392553,18.7357422 2.34392553,18.7278477 C2.25402128,18.5397559 2.18048936,18.3438613 2.11509574,18.1479668 C2.04156383,17.9520723 1.98430851,17.7561777 1.92714894,17.5524805 C1.87812766,17.3487832 1.82910638,17.1371914 1.7963617,16.9255996 C1.77185106,16.7610078 1.74734043,16.5965078 1.73096809,16.4241133 C1.72282979,16.3457187 1.71459574,16.267416 1.70645745,16.1812187 C1.69831915,16.0088242 1.69008511,15.828627 1.69008511,15.6562324 C1.69008511,15.3898379 1.70645745,15.1233516 1.73096809,14.856957 C1.74734043,14.7237598 1.76361702,14.5983652 1.7882234,14.465168 C1.7963617,14.3867734 1.81273404,14.3084707 1.82910638,14.2379707 C1.84547872,14.1439707 1.86175532,14.0498789 1.8863617,13.9636816 C2.13970213,12.8588145 2.63010638,11.8479473 3.31659574,10.9703691 C3.47189362,10.7666719 3.64346809,10.5707773 3.8151383,10.3904883 C4.01131915,10.1788965 4.2237766,9.98300195 4.44446809,9.79500195 C4.55888298,9.69310742 4.68143617,9.59910742 4.80408511,9.50510742 C5.09017021,9.29351563 5.38439362,9.09762109 5.69489362,8.92522656 C5.77665957,8.87033203 5.86656383,8.82333203 5.94823404,8.78413477 C6.03,8.73713477 6.11990426,8.69013477 6.20980851,8.6509375 C6.78188298,8.37664844 7.38670213,8.16514844 8.02417021,8.02405664 C8.17946809,7.98485938 8.33476596,7.96135938 8.49006383,7.93785938 C8.53094681,7.92216211 8.57996809,7.91435938 8.62085106,7.91435938 C8.79252128,7.88305664 8.97232979,7.86735938 9.14390426,7.85166211 C9.32371277,7.83596484 9.50352128,7.82816211 9.69146809,7.82035938 C9.69960638,7.82035938 9.69960638,7.82035938 9.69960638,7.82035938 L9.86304255,7.82035938 C10.0347128,7.82035938 10.1981489,7.82816211 10.3697234,7.83605664 C10.4106064,7.83605664 10.4514894,7.84385938 10.4841383,7.84385938 C10.6230638,7.85166211 10.7619894,7.86735938 10.8927766,7.88305664 C10.9663085,7.89085938 11.0317021,7.89875391 11.105234,7.91435938 C11.3994574,7.95355664 11.6936809,8.01625391 11.979766,8.09455664 C12.1269255,8.13375391 12.2658511,8.16505664 12.4047766,8.21205664 C12.7643936,8.32175391 13.1157766,8.4628457 13.450883,8.61954297 C13.4753936,8.6273457 13.5081383,8.64304297 13.5407872,8.66654297 C13.5081383,8.6508457 13.4835319,8.63524023 13.450883,8.6273457 C13.4835319,8.6508457 13.4999043,8.6743457 13.5244149,8.6978457 L13.5244149,8.70564844 C15.0365106,10.351291 15.9519255,12.5140254 15.9519255,14.8726543 Z" id="Path" fill="#8D6E63"></path>
                    <polygon id="Path" fill="#F9A825" points="22.1469894 22.7085273 14.251883 44.0458848 13.6798085 42.745123 13.0668511 41.3189668 13.0423404 41.2719668 12.9196915 40.9976777 19.9484043 22.7085273"></polygon>
                    <g id="Group" transform="translate(4.882979, 22.673828)" fill="#FFC107">
                        <polygon id="Path" points="8.03671277 18.3238496 8.1593617 18.5981387 8.03671277 18.3316523"></polygon>
                        <polygon id="Path" points="8.18387234 18.6451387 8.79682979 20.0712949 8.1593617 18.5981387"></polygon>
                        <polygon id="Path" points="15.0654255 0.0346992187 8.03671277 18.3238496 4.19543617 9.53971484 0.721914894 1.60194727 0.0354255319 0.0346992187"></polygon>
                    </g>
                    <g id="Group" transform="translate(9.382979, 24.968750)" fill="#F9A825">
                        <path d="M3.52282979,7.14299023 C3.2318617,7.14299023 2.94989362,6.99336133 2.80196809,6.72999609 L0.127819149,1.95710937 C-0.0862659574,1.57624414 0.063287234,1.10064453 0.46043617,0.896121094 C0.860074468,0.690863281 1.35373404,0.834984375 1.56705319,1.21584961 L4.24120213,5.98873633 C4.45528723,6.36960156 4.30573404,6.84520117 3.90858511,7.04972461 C3.78603191,7.11315625 3.65361702,7.14299023 3.52282979,7.14299023 Z" id="Path"></path>
                        <path d="M1.071,5.57574219 C0.802914894,5.57574219 0.540574468,5.44961328 0.383648936,5.21764258 C0.138446809,4.85403516 0.247117021,4.36898047 0.626361702,4.13388867 L6.94244681,0.21590625 C7.32082979,-0.0199199219 7.82674468,0.0850039063 8.07280851,0.447876953 C8.31801064,0.811484375 8.20934043,1.29653906 7.83009574,1.53163086 L1.51401064,5.44961328 C1.37661702,5.53498437 1.22380851,5.57574219 1.071,5.57574219 Z" id="Path"></path>
                    </g>
                </g>
            </g>
        </g>
    </g>
</svg>