<svg height="44" viewBox="0 0 28 44" width="28" xmlns="http://www.w3.org/2000/svg"><g fill="none" transform="matrix(.89879405 -.43837115 .43837115 .89879405 -5.935442 7.29635)"><path d="m12.2250638 7.44417578c-.1144149-.08619726-.2369681-.17239453-.359617-.25078906.1062766-.0235.2043192-.03919727.3105958-.05489453.4331489-.06269727.8745319-.10189453 1.3240531-.10189453.1552979 0 .3105958.00780273.4576596.00780273-.0899042-.06269727-.1798085-.12539453-.2697127-.1880918-.0653937.0235-.1225532.047-.1879469.0705-.2370638-.08619726-.4740319-.17239453-.719234-.24289453-.1225532-.03919726-.2452021-.0705-.3677553-.10189453s-.2533404-.06269726-.3759894-.08619726c-.1389255-.03130274-.2860851-.06269727-.4250106-.08619727-.5720745-.10189453-1.152383-.15669727-1.7489681-.15669727-.56393617 0-1.11973404.047-1.65092553.1410918-.17980851.0235-.35961703.06269727-.53128724.10189453-.36775532.07839453-.71923404.18019727-1.06247872.29778907-.08990426.02349999-.17167021.05489453-.25334043.08619726-.07353191.03130273-.14706383.05489453-.21245744.08619727-.06539362.0235-.13078724.047-.19618085.07839453.06539361-.00780274.12255319-.00780274.1879468-.00780274h.17167022c.13078723 0 .26157446.00780274.38412766.01569727.11441489.00780273.22882978.01569726.34324468.03130273.11441489.00780274.23696808.0235.35147872.03919727.78462766.1175 1.52837234.33698633 2.2148617.65818359.02451064.01569727.05725532.0235.08176596.03919727h.0081383.16343617c.1716702 0 .3351064.00780273.5066808.01569726.040883 0 .081766.00780274.1144149.00780274.1389256.00780273.2778511.0235.4086383.03919726.073532.00780274.1389256.01569727.2124575.03130274.2942234.03919726.5884468.10189453.8745319.18019726.1471596.03919727.2860851.0705.4250106.1175.3596171.10969727.711.25078907 1.0461064.40748633v.00780274c.032649.00780273.0572553.0235.0899043.03919726.0245106.00780274.0490213.01569727.0735319.03130274-.4250106-.45430274-.8826702-.87748633-1.3893511-1.25357813zm11.0007766.85407813c-.5639361-4.59966602-4.6259042-8.17285938-9.4642659-8.29045118-.0899043-.00780273-.1716702-.00780273-.2615745-.00780273-1.4057234 0-2.7379149.2820918-3.94755319.79147266-.33510638.14109179-.66197872.29778906-.97257447.47798632-.48217021.2585918-.93169149.5641836-1.35670213.90116993-.01637234.01569726-.03264893.0235-.04902127.03919726-1.13601064.90897266-2.05142554 2.06873438-2.63987234 3.3929961v.00780273c-.04902128.10189453-.09804256.2115918-.13892554.31339453-.00813829.01569727-.00813829.0235-.01637234.03919727-.18794681.44668359-.33510638.91677539-.44138298 1.39476172-.08176595.31339453-.13078723.62688086-.17167021.94816992-.04902127.03919726-.10627659.07839453-.15529787.12539453-.01637234.01569726-.03264894.0235-.04902128.03919726-1.24228723.99516993-2.23123404 2.29593167-2.82781915 3.76908787l-.00813829.0078028c-.43314894 1.0499726-.67021277 2.2019316-.67021277 3.4086015 0 1.6612481.46589362 3.2832989 1.32405319 4.7015606.33510638.5641836.73560638 1.0891699 1.19326596 1.5671562.13078723.1488946.27785106.2898946.42501064.4309863l.15529787.3525918.68648936 1.5671563 3.48979787 7.9926621.93992554 2.1392344 3.0403723 6.9661894.7846277 1.7865508.1307872.3055918.0245107.0548945.9154149 2.0922344.4005.9089727c.1225532.2898945.4250106.4779863.7518829.4779863h.0245107c.3351064-.0078027.6293298-.2193945.7437447-.5249863l8.9329787-24.1346836c1.8552447-1.7552481 2.9259574-4.1765742 2.9259574-6.6840977-.0000957-2.977707-1.4548404-5.6340332-3.7187234-7.35797849zm-17.04877657-2.38212891c.06539362-.13319727.13078723-.26639453.21245745-.39178906.02451063-.047.04902127-.094.08176595-.1410918.07353192-.12539453.15529788-.24289453.24520213-.36048633.08176596-.13319726.17980851-.26639453.29422341-.39178906.07353191-.10969727.16343617-.21939453.26157446-.32128906.24520213-.27428907.50668086-.53288086.78462766-.76788086.1225532-.10189453.24520213-.20369727.36775532-.28989453.08990426-.0705.17980851-.1410918.27785107-.20369727.03264893-.0235.06539361-.047.09804255-.06269726.09804255-.0705.19618085-.1410918.3023617-.19589454.22882979-.14889453.47403192-.27428906.71923404-.39178906.16343617-.07839453.33510643-.15669726.50668083-.22719726.0163724-.00780274.032649-.01569727.0572553-.0235.1879469-.0705.3677554-.13319727.5639362-.1880918.1716702-.06269727.3514787-.10969727.5394255-.14889453.2124575-.05489453.433149-.10189453.6538405-.13319727h.0081383c.2206915-.03130273.4413829-.06269726.6702127-.07839453.2206915-.0235.4495213-.03130273.6783511-.03130273.1798085 0 .359617.00780273.5311915.01569726.0980425.00780274.1961808.01569727.2860851.0235.1798085.01569727.359617.03919727.5312872.0705.1470639.0235.2942234.047.433149.08619727.0490212.00780273.1062766.01569726.1552978.03130273.0980426.0235.1879468.047.2860851.0705.0980426.03130274.1879469.05489453.2860852.08619727.0817659.0235.1552978.047.2288297.07839453.3759894.12539453.7437447.2820918 1.0951277.46228906.1716702.08619727.3351064.18019727.4904043.2820918.0326489.01569726.0653936.03130273.0980425.05489453.1634362.10189453.318734.20369727.4658936.31339453.833649.60338086 1.544649 1.34776172 2.0923085 2.20973438.0735319.10969726.1389256.22719726.2043192.34478906.1307872.2350918.2533404.47018359.359617.72088086.040883.08619726.081766.18019726.1144149.27428906.0653936.15669727.1225532.31339453.1716702.47798633-.6538404-.29778906-1.3321915-.52498633-2.0514255-.6816836-.1307873-.03130273-.2615745-.05489453-.4005-.07839453-.1307873-.0235-.2697128-.047-.4005-.06269726-.1389256-.0235-.2778511-.03919727-.4086383-.047-.1389256-.01569727-.2778511-.0235-.4167766-.03130274-.1552979-.00780273-.3105958-.01569726-.4740319-.01569726h-.040883c-.2452021 0-.4985426.00780273-.7437447.03130273-.0653936 0-.1307872.00780274-.1961808.01569727-.1798086.01569726-.3514788.03130273-.5230532.05489453-.1307873.0235-.2615745.047-.392266.0705-.1144149.0235-.2288298.047-.3432447.0705-.4250106.094-.8417872.2115918-1.2504255.36048633-.0653936.0235-.1225532.047-.1879468.0705-.2370638-.08619727-.4740319-.17239453-.7192341-.24289453-.1225531-.03919727-.2452021-.0705-.3677553-.10189454-.1225532-.03139453-.2533404-.06269726-.3759893-.08619726-.1389256-.03130274-.2860851-.06269727-.4250107-.08619727-.5720744-.10189453-1.152383-.15669726-1.74896806-.15669726-.56393617 0-1.11973404.047-1.65092553.1410918-.17980851.02349999-.35961702.06269726-.53128723.10189453-.36775532.07839453-.71923405.18019726-1.06247873.29778906-.08990425.0235-.17167021.05489453-.25334042.08619726-.07353192.03130274-.14706383.05489454-.21245745.08619727-.06539362.0235-.13078723.047-.19618085.07839453-.09804255.03919727-.19618085.07839453-.2942234.12539453.13059574-.43897265.30217021-.85426172.5147234-1.25394531zm-2.50094681 14.8412598c-.10627659-.1175-.21245745-.2428946-.31059574-.3682891-.01637234-.0078027-.02451064-.0156973-.03264894-.0313027-.1062766-.1331973-.20431915-.2663946-.2942234-.4074864-.05725532-.0705-.09804256-.1410918-.13892554-.2115918-.09804255-.1410918-.1879468-.2898945-.26971276-.4309863 0-.0078027 0-.0078027 0-.0078027-.1062766-.1880918-.19618085-.3682891-.28608511-.5563809 0-.0078027 0-.0078027 0-.0156972-.08990425-.1880918-.16343617-.3839864-.22882979-.5798809-.07353191-.1958945-.13078723-.3917891-.1879468-.5954863-.04902128-.2036973-.09804256-.4152891-.13078724-.6268809-.02451064-.1645918-.04902127-.3290918-.06539361-.5014863-.0081383-.0783946-.01637235-.1566973-.02451064-.2428946-.0081383-.1723945-.01637234-.3525917-.01637234-.5249863 0-.2663945.01637234-.5328808.04088298-.7992754.01637234-.1331972.03264893-.2585918.05725531-.391789.0081383-.0783946.02451064-.1566973.04088298-.2271973.01637234-.094.03264894-.1880918.05725532-.2742891.25334043-1.1048671.74374468-2.1157343 1.43023404-2.9933125.15529788-.2036972.32687235-.3995918.49854256-.5798808.19618085-.2115918.4086383-.40748635.62932979-.59548635.11441489-.10189453.23696808-.19589453.35961702-.28989453.2860851-.21159179.58030851-.40748633.89080851-.57988086.08176595-.05489453.17167021-.10189453.25334042-.14109179.08176596-.047.17167022-.094.26157447-.13319727.57207447-.27428906 1.17689362-.48578906 1.8143617-.62688086.15529788-.03919726.31059575-.06269726.46589362-.08619726.04088298-.01569727.08990426-.0235.13078723-.0235.17167022-.03130274.35147873-.047.5230532-.06269727.1879468-.01569727.37598936-.0235.56393617-.0235v-.00780273h.15529787c.1716702 0 .3351064.00780273.5066808.01569726.040883 0 .081766.00780274.1144149.00780274.1389256.00780273.2778511.0235.4086383.03919726.073532.00780274.1389256.01569727.2124575.03130274.2942234.03919726.5884468.10189453.8745319.18019726.1471596.03919727.2860851.0705.4250106.1175.3596171.10969727.711.25078906 1.0461064.40748633v.00780273c.032649.00780274.0572553.0235.0899043.03919727.0245106.00780273.0490213.01569726.0735319.03130273.0490213.0235.0899042.047.1389255.0705.1552979.07839453.3023617.1645918.4495213.25078907.4086383.25078906.792766.53288086 1.152383.83847265.0817659.0705.1634362.1410918.2369681.21939458.1798085.1723945.359617.3525918.5230532.5406835.1062766.1175.1961808.2350918.2942234.3525918.1961808.2507891.3759893.5171836.5394255.7835782.0653936.1175.1307872.2350918.1961808.3525918.2697128.5014863.4821703 1.0343672.6293298 1.5906562.0245107.0861973.0490213.1723945.0653936.2663945.0980426.3917891.1552979.7992754.1798086 1.2145645.0081383.1566973.0163723.3212891.0163723.4779863 0 .1723946-.0081383.3525918-.0163723.5249864-.0081383.0861972-.0163724.1645918-.0245107.2428945-.0163723.1723945-.040883.3369863-.0653936.5014863-.0653936.3682891-.1471596.7287754-.2615745 1.0735645-.0245106.0861972-.0572553.1645918-.0899042.250789-.0572553.1645918-.1307873.3290918-.1961809.4936836-.0899042.1880918-.1798085.3682891-.2860851.5563809v.0078027c-.0817659.1410918-.1716702.2898945-.2697127.4309863-.040883.0705-.081766.1410918-.1389256.2115918 0 .0078028-.0081383.0078028-.0081383.0078028-.0899042.1331972-.1879468.2663945-.2942234.3995918-.0653936.094-.1389255.1880918-.2206915.274289-.1552978.1801973-.3105957.3447891-.4821702.5093809h-11.63824466c-.13069149-.1253027-.25334043-.2506055-.36775532-.3838945zm10.57576598 23.2885-.5720745-1.3007618-.6129574-1.4261562-.0245107-.047-.1225532-.2742891-3.84127656-8.7841347-.93169149-2.1392344-2.54182979-5.798625-.68648936-1.5671563h17.2285851zm11.0171489-27.6217715c-.0163723.2036972-.0490213.391789-.0817659.5876836-.0081383.0548945-.0163724.1096972-.032649.1645918-.0326489.1566972-.0653936.3133945-.1062766.4701836-.0081383.0235-.0163723.047-.0245106.0705-.0572553.1958945-.1225532.391789-.1961809.5876836-.0817659.2036972-.1634361.415289-.2615744.6111836-.0980426.2036972-.2043192.4074863-.3187341.5955781-.0899042.1488945-.1798085.297789-.2860851.438789-.0245106.047-.0490213.0861973-.0899042.1253946-.1307873.1880918-.2697128.368289-.4250107.5406836-.1471595.1801972-.318734.3525918-.4904042.5249863h-5.1408192c.1879468-.2507891.3677553-.5093809.5230532-.7835781.8662979-1.4182618 1.3321915-3.0403125 1.3321915-4.7015606 0-.250789-.0081383-.5014863-.0326489-.7443808 0-.0391973 0-.0705-.0081383-.094-.0163724-.1566973-.032649-.3133946-.0572554-.4622891-.0163723-.1488945-.0408829-.2977891-.0735319-.4387891 0-.0078027 0-.0078027 0-.0156972-.0408829-.1801973-.0817659-.3604864-.1307872-.5406836-.0081383-.0391973-.0163723-.0783946-.0326489-.1175-.0490213-.1801973-.0980426-.3604864-.1634362-.5406836v-.0078028c-.0653936-.1880917-.1389255-.368289-.2206915-.5484863-.0245106-.0861972-.0653936-.1645918-.1062766-.250789-.2860851-.6268809-.6374681-1.2145645-1.0624787-1.7630508-.1225532-.15669729-.2452021-.31339455-.3759894-.46228908-.0572553-.07839454-.1225532-.14889454-.1961808-.21939454-.3514788-.38398632-.7356064-.73657812-1.1442447-1.05786718-.1798085-.14889453-.3677553-.28989453-.5639362-.41528907.0899043-.01569726.1879468-.03130273.2778511-.047.2206915-.03919726.441383-.06269726.6619787-.07839453.2043192-.01569726.4005-.03130273.6048192-.03130273h.0081383.0817659c.1716702 0 .3514787.00780273.5230532.01569726h.0081383c.1389255.00780274.2778511.0235.4167766.03919727.1961808.0235.392266.047.5803085.08619727.1225532.01569726.2452021.047.3677553.07839453.1062766.01569726.1961809.03919726.2942234.0705.0980426.0235.1961809.05489453.3023617.08619726.1716702.047.3432447.10969727.5066809.18019727.1716702.06269726.3432447.13319726.5149149.2115918.0817659.03130273.1552979.0705.2288298.10969726v.00780273c.0490212.01569727.0980425.03919727.1471595.06269727.4086383.2115918.8009043.46228906 1.1687554.73657813.1471595.1175.2942234.23509179.4331489.35259179l.0245106.0235c.1389256.12539449.2778511.25078909.4086383.38398629.040883.0391973.081766.0861973.1225532.1253946.0980426.1018945.2043192.2193945.2942234.3290918.3432447.3995918.6374681.8384726.8908085 1.292959.0490213.0783945.0899043.1645917.1307873.250789.2615744.5171836.4658936 1.0735645.6048191 1.6455508.032649.1253945.0572553.2507891.0735319.3839863.0163724.0548946.0245107.1096973.032649.1723946.0081383.047.0163723.1018945.0245106.1566972.0163724.1253946.0326489.2507891.040883.3760918.0081383.0235.0081383.047.0081383.0783945.0163723.1958946.0245106.3839864.0245106.5798809 0 .2193945-.0081383.4466836-.0326489.6581836.0004787.0388301.0004787.0780273-.0076596.1093301zm-11.8344255 4.7172578c-.1307873.1410918-.2615745.2820918-.4086383.4152891l-.4250107 1.1518671h.2615745c.2533404-.250789.4904043-.5093808.711-.7835781.1961809-.250789.3841277-.5093808.5475638-.7835781zm2.2476064 0h-1.5610213c-.1634362.2742891-.3514787.5328809-.5475638.7835781-.2206915.2742891-.4576596.5328809-.711.7835781h2.1330957c.1879468-.250789.3677553-.5171835.5230532-.7835781.2533404-.415289.4740319-.8462754.6457021-1.292959-.1553936.1802891-.3106915.3448809-.4822659.5093809z" fill="#5c4268"/><path d="m21.3297128 7.16988672c-.6538405-.29778906-1.3321915-.52498633-2.0514256-.6816836-1.4466063-2.53102343-4.0701063-4.36466601-7.1267553-4.81125781.441383-.0705.8908085-.10969726 1.3485638-.10969726 3.6532341-.0000918 6.8079256 2.35853711 7.8296171 5.60263867z" fill="#ad1457"/><path d="m19.2782872 6.48820313c-.678351-.14889454-1.3730744-.2350918-2.1004468-.2350918h-.040883c-1.2586595 0-2.4845744.2350918-3.6369574.67388086-1.1278723-.43098633-2.3537872-.67388086-3.63695745-.67388086-1.5038617 0-2.92595744.33698633-4.20089361.91677539.43314893-1.42615625 1.27493617-2.67991797 2.39467021-3.62808789 1.12787234-.96386719 2.53359575-1.62205078 4.08647875-1.86494531h.0081383c3.0567447.44668359 5.6802447 2.28032617 7.126851 4.81134961z" fill="#d81b60"/><path d="m25.3099149 15.6562324c0 .2193946-.0081383.4466836-.0326489.6581836 0 .0391973 0 .0783945-.0081383.1096973-.0163724.2036972-.0490213.391789-.081766.5876836-.0081383.0548945-.0163723.1096972-.0326489.1645918-.032649.1566972-.0653937.3133945-.1062766.4701836-.0081383.0235-.0163724.047-.0245107.0705-.0572553.1958945-.1225532.391789-.1961808.5876836-.1552979.415289-.3514787.8227753-.5803085 1.2067617-.0899043.1488945-.1798085.297789-.2860851.438789-.0245107.047-.0490213.0861973-.0899043.1253946-.1307872.1880918-.2697128.368289-.4250106.5406836-.1470639.1801972-.3187341.3525918-.4904043.5249863h-2.1658404c.1552979-.1566973.2942234-.3212891.4250106-.4857891.5965851-.7287754 1.070617-1.5280508 1.4139575-2.3899316.441383-1.0735645.678351-2.2254317.678351-3.3929961 0-2.3586289-.9154149-4.5213633-2.4273191-6.16691407.0490213.01569727.0980425.03919727.1470638.06269727.4086383.2115918.8009043.46228906 1.1687553.73657812.1470639.1175.2942234.2350918.433149.3525918l.0245106.0235c.1389255.12539458.2778511.25078908.4086383.38398628.040883.0391973.081766.0861973.1225532.1253946.0980426.1018945.2043192.2193945.2942234.3290918.3432447.3995918.6374681.8384726.8908085 1.292959.0490213.0783945.0899043.1645918.1307873.250789.2615744.5171836.4658936 1.0735645.6048191 1.6455508.0326489.1253945.0572553.2507891.0735319.3839863.0163724.0548946.0245107.1096973.032649.1723946.0081382.047.0163723.1018945.0245106.1566972.0163723.1253946.0326489.2507891.040883.3760918.0081383.0235.0081383.047.0081383.0783946.0164681.1958027.0247021.3838945.0247021.579789z" fill="#bdbdbd"/><g fill="#f4f4f4" transform="translate(15.414894 7.802734)"><path d="m5.46529787.90300586c1.512 1.64555078 2.42731915 3.80828516 2.42731915 6.16691406 0 1.16756446-.23696808 2.31943164-.67835106 3.39299608-.34324468.8619727-.8172766 1.6612481-1.41395745 2.3899317-.13078723.1645918-.26971277.3290918-.42501064.485789h-2.97497872c.18794681-.250789.36775532-.5093808.52305319-.7835781.86629787-1.4182617 1.33219149-3.04031251 1.33219149-4.70156055 0-.25078907-.0081383-.50148633-.03264894-.74438086 0-.03919727 0-.0705-.00813829-.094-.01637234-.15669727-.03264894-.31339453-.05725532-.46228906-.01637234-.14889454-.04088298-.29778907-.07353192-.43878907 0-.00780273 0-.00780273 0-.01569726-.04088298-.18019727-.08176596-.36048633-.13078723-.5406836-.0081383-.03919726-.01637234-.07839453-.03264894-.1175-.04902128-.18019726-.09804255-.36048632-.16343617-.54068359v-.00780273c-.06539362-.1880918-.13892553-.36828907-.22069149-.54848633-.02451064-.08619727-.06539362-.1645918-.10627659-.25078907-.28608511-.62688085-.63746809-1.21456445-1.06247873-1.76305078-.11441489-.15669726-.23696808-.31339453-.37598936-.46228906-.05725532-.07839453-.12255319-.14889453-.19618085-.21939453-.35147872-.38398633-.73560638-.73657813-1.14424468-1.05786719-.17980851-.14889453-.36775532-.28209179-.56393617-.41528906.08990425-.01569727.18794681-.03130274.27785106-.047.22069149-.03919727.44138298-.06269727.66197873-.07839453.20431915-.01569727.4005-.03130274.60481915-.03130274h.00813829.08176596c.17167021 0 .35147872.00780274.52305319.01569727h.0081383c.13892553.00780273.27785106.0235.4167766.03919726.19618085.02350001.39226595.04700001.58030851.08619727.12255319.01569727.24520212.047.36775532.07839453.10627659.01569727.19618085.03919727.2942234.0705.09804255.0235.19618085.05489453.3023617.08619727.17167021.047.34324468.10969726.50668085.18019726.17167022.06269727.34324468.13319727.5149149.2115918.08176595.03130273.15529787.0705.22882978.10969727.04902128.01569726.09804256.047.14715958.0705-.04873404-.02377539-.09775532-.04727539-.1467766-.06297266z"/><path d="m8.83254255 11.7087832c.22882979-.3839863.42501064-.7914727.58030851-1.2067617-.15529787.415289-.34334042.8227754-.58030851 1.2067617z"/></g><path d="m18.036 15.6562324c0 .1723946-.0081383.3525918-.0163723.5249863-.0081383.0861973-.0163724.1645918-.0245107.2428946-.0163723.1723945-.040883.3369863-.0653936.5014863-.0653936.3682891-.1470638.7287754-.2615745 1.0735645-.0245106.0861972-.0572553.1645918-.0899042.250789-.0572553.1645918-.1307873.3290918-.1961809.4936836-.0899042.1880918-.1798085.3682891-.2860851.5563809v.0078027c-.0817659.1410918-.1716702.2898945-.2697127.4309863-.040883.0705-.081766.1410918-.1389256.2115918 0 .0078028-.0081383.0078028-.0081383.0078028-.0899042.1331972-.1879468.2663945-.2942234.3995918-.0653936.094-.1389255.1880918-.2206915.274289-.1552978.1801973-.3105957.3447891-.4821702.5093809h-2.2476064c.1552979-.1566973.2942234-.3212891.4250107-.4857891.5965851-.7287754 1.070617-1.5280508 1.4139574-2.3899316.441383-1.0735645.6783511-2.2254317.6783511-3.3929961 0-2.3586289-.9154149-4.5213633-2.4273192-6.16691407v-.00780273c-.0245106-.0235-.0408829-.047-.0735319-.0705.032649.00780273.0572553.0235.0899043.03919726.0245106.00780274.0490213.01569727.0735319.03130274.0490213.0235.0899042.047.1389255.0705.1552979.07839453.3023617.16459179.4495213.25078906.4086383.25078906.792766.53288086 1.152383.83847266.0817659.0705.1634362.14109179.2369681.21939448.1798085.1723946.359617.3525918.5230532.5406836.1062766.1175.1961808.2350918.2942234.3525918.1961808.2507891.3759893.5171836.5394255.7835782.0653936.1175.1307872.2350918.1961808.3525918.2697128.5014863.4821703 1.0343671.6293298 1.5906562.0245107.0861973.0490213.1723945.0653936.2663945.0980426.3917891.1552979.7992754.1798086 1.2145645.0081383.1566973.0163723.3212891.0163723.4779863z" fill="#6d4c41"/><path d="m15.9519255 14.8726543c0 1.1675645-.2369681 2.3194316-.678351 3.3929961-.3432447.8619726-.8172766 1.661248-1.4139575 2.3899316-.1307872.1645918-.2697127.3290918-.4250106.4857891h-9.39073406c-.13078723-.1253945-.25334043-.2507891-.36775532-.3839863-.10627659-.1175-.21245745-.2428946-.31059574-.3682891-.01637234-.0078027-.02451064-.0156973-.03264894-.0313027-.1062766-.1331973-.20431915-.2663946-.2942234-.4074864-.05725532-.0705-.09804256-.1410918-.13892554-.2115918-.09804255-.1410918-.1879468-.2898945-.26971276-.4309863 0-.0078027 0-.0078027 0-.0078027-.1062766-.1880918-.19618085-.3682891-.28608511-.5563809 0-.0078027 0-.0078027 0-.0156972-.08990425-.1880918-.16343617-.3839864-.22882979-.5798809-.07353191-.1958945-.13078723-.3917891-.1879468-.5954863-.04902128-.2036973-.09804256-.4152891-.13078724-.6268809-.02451064-.1645918-.04902127-.3290918-.06539361-.5014863-.0081383-.0783946-.01637235-.1566973-.02451064-.2428946-.0081383-.1723945-.01637234-.3525917-.01637234-.5249863 0-.2663945.01637234-.5328808.04088298-.7992754.01637234-.1331972.03264893-.2585918.05725531-.391789.0081383-.0783946.02451064-.1566973.04088298-.2271973.01637234-.094.03264894-.1880918.05725532-.2742891.25334043-1.1048671.74374468-2.1157343 1.43023404-2.9933125.15529788-.2036972.32687235-.3995918.49854256-.5798808.19618085-.2115918.4086383-.40748635.62932979-.59548635.11441489-.10189453.23696808-.19589453.35961702-.28989453.2860851-.21159179.58030851-.40748633.89080851-.57988086.08176595-.05489453.17167021-.10189453.25334042-.14109179.08176596-.047.17167022-.094.26157447-.13319727.57207447-.27428906 1.17689362-.48578906 1.8143617-.62688086.15529788-.03919726.31059575-.06269726.46589362-.08619726.04088298-.01569727.08990426-.0235.13078723-.0235.17167022-.03130274.35147873-.047.5230532-.06269727.17980851-.01569727.35961702-.0235.54756383-.03130273h.00813829.16343617c.17167025 0 .33510635.00780273.50668085.01569726.040883 0 .081766.00780274.1144149.00780274.1389255.00780273.2778511.0235.4086383.03919726.0735319.00780274.1389255.01569727.2124574.03130274.2942234.03919726.5884469.10189453.874532.18019726.1471595.03919727.2860851.0705.4250106.1175.359617.10969727.711.25078906 1.0461064.40748633.0245106.00780273.0572553.0235.0899042.047-.0326489-.01569727-.0572553-.03130274-.0899042-.03919727.0326489.0235.0490213.047.0735319.0705v.00780274c1.5120957 1.64564256 2.4275106 3.80837696 2.4275106 6.16700586z" fill="#8d6e63"/><path d="m22.1469894 22.7085273-7.8951064 21.3373575-.5720745-1.3007618-.6129574-1.4261562-.0245107-.047-.1226489-.2742891 7.0287128-18.2891504z" fill="#f9a825"/><g fill="#ffc107" transform="translate(4.882979 22.673828)"><path d="m8.03671277 18.3238496.12264893.2742891-.12264893-.2664864z"/><path d="m8.18387234 18.6451387.61295745 1.4261562-.63746809-1.4731562z"/><path d="m15.0654255.03469922-7.02871273 18.28915038-3.8412766-8.78413476-3.47352128-7.93776757-.68648936-1.56724805z"/></g><g fill="#f9a825" transform="translate(9.382979 24.96875)"><path d="m3.52282979 7.14299023c-.29096809 0-.57293617-.1496289-.7208617-.41299414l-2.67414894-4.77288672c-.21408511-.38086523-.06453192-.85646484.33261702-1.06098828.3996383-.20525781.89329787-.06113671 1.10661702.31972852l2.67414894 4.77288672c.2140851.38086523.06453191.85646484-.33261702 1.06098828-.1225532.06343164-.25496809.09326562-.38575532.09326562z"/><path d="m1.071 5.57574219c-.26808511 0-.53042553-.12612891-.68735106-.35809961-.24520213-.36360742-.13653192-.84866211.24271276-1.08375391l6.31608511-3.91798242c.37838298-.23582617.88429787-.13090234 1.1303617.2319707.24520213.36360743.13653192.84866211-.24271277 1.08375391l-6.3160851 3.91798242c-.13739362.08537109-.29020213.12612891-.44301064.12612891z"/></g></g></svg>