<?xml version="1.0" encoding="iso-8859-1"?>
<!-- Generator: Adobe Illustrator 19.0.0, SVG Export Plug-In . SVG Version: 6.00 Build 0)  -->
<svg version="1.1" id="Layer_1" xmlns="http://www.w3.org/2000/svg" xmlns:xlink="http://www.w3.org/1999/xlink" x="0px" y="0px"
	 viewBox="0 0 512 512" style="enable-background:new 0 0 512 512;" xml:space="preserve">
<path d="M374.059,206.421c-2.475-9.899-7.339-17.749-13.824-22.613c3.499-12.288,2.304-27.563-3.413-38.656
	c-3.584-6.827-8.619-11.861-14.763-14.677c5.547-41.728-1.365-74.411-20.821-97.365C302.891,11.435,274.304,0,238.635,0
	c-3.755,0-7.083,2.475-8.192,6.144c-0.427,1.621-0.427,3.243,0.085,4.779c0.512,1.963,1.792,3.669,3.499,4.779
	c11.008,7.168,23.04,16.64,28.16,26.539c2.389,4.523,3.328,9.131,1.963,13.739c-2.389,8.192-11.093,15.616-22.101,21.675
	c-16.64,9.131-38.4,15.104-51.285,16.043c-1.195,0.085-2.304,0.171-3.328,0.171c-2.645,0-5.035,1.195-6.656,3.243
	c-0.427,0.427-0.768,0.939-1.024,1.536c-1.451,2.987-1.024,6.485,1.024,9.045c0.597,0.853,1.28,3.669,0.427,6.827
	c0,0.256-0.085,0.512-0.171,0.768c-1.195,3.669-4.608,4.523-4.779,4.608c-4.864,0.939-9.216,3.157-12.971,6.4
	c-3.243,2.645-5.973,6.144-8.107,10.325c-0.853,1.621-1.621,3.413-2.304,5.205c-3.669,10.325-4.011,22.955-1.109,33.451
	c-6.485,4.864-11.349,12.715-13.824,22.613c-3.243,13.056-2.304,30.635,6.485,43.008c-3.499,14.165-0.939,28.245,7.168,39.083
	c1.365,1.877,2.901,3.584,4.608,5.12c4.096,4.011,8.96,7.168,14.421,9.387c5.632,2.389,12.032,3.755,18.859,4.181l41.557,148.309
	l7.765,27.563l0.939,3.499l7.765,27.733c1.024,3.669,4.352,6.229,8.107,6.229c0.085,0,0.085,0,0.085,0
	c3.755,0,7.168-2.475,8.192-6.144l57.941-198.741c16.469-0.768,30.037-7.168,38.571-18.603c8.107-10.837,10.667-24.917,7.168-39.083
	C376.363,237.056,377.301,219.477,374.059,206.421z M255.872,472.405c0,0-0.085-0.341-0.256-1.024
	c-0.427-1.536-1.365-4.864-2.731-9.643c-0.341-1.195-0.683-2.389-1.024-3.755c-1.109-4.011-2.475-8.704-3.925-13.995v-0.085
	c0-0.085-0.085-0.171-0.085-0.171c-0.597-2.133-1.195-4.437-1.877-6.741c-4.523-16.213-10.069-36.267-15.701-56.405
	c-0.683-2.475-1.28-4.864-1.963-7.253c-3.328-11.861-6.571-23.637-9.643-34.389c-0.597-2.304-1.28-4.608-1.877-6.827
	c-0.768-2.731-1.536-5.461-2.219-8.021c-0.683-2.389-1.28-4.608-1.877-6.741c-3.072-11.008-5.461-19.712-6.827-24.576
	c-0.171-0.683-0.341-1.28-0.512-1.792c-0.427-1.621-0.683-2.56-0.683-2.56c0.085-0.683,0.256-1.365,0.512-2.048
	c0.171-0.597,0.427-1.195,0.768-1.792c0.427-0.939,0.939-1.792,1.621-2.645c0.512-0.683,1.109-1.451,1.792-2.133
	c1.024-1.109,2.219-2.219,3.584-3.157c0.768-0.683,1.621-1.195,2.475-1.792c0.853-0.597,1.877-1.195,2.816-1.707
	c1.024-0.597,2.133-1.109,3.243-1.707c0.256-0.171,0.512-0.256,0.768-0.341c0.939-0.427,1.963-0.853,3.072-1.28
	c8.277-3.243,18.603-5.291,30.379-5.291c1.28,0,2.475,0,3.669,0.085c1.28,0.085,2.56,0.171,3.84,0.341
	c2.816,0.256,5.632,0.683,8.277,1.365c4.011,0.853,7.851,2.133,11.435,3.669c1.109,0.512,2.304,1.024,3.413,1.621
	s2.219,1.195,3.243,1.792c1.109,0.597,2.048,1.195,2.987,1.963c1.792,1.109,3.328,2.389,4.779,3.84
	c2.645,2.389,4.779,5.12,6.315,7.936c0.427,0.683,0.768,1.451,1.109,2.133c0.171,0.341,0.341,0.683,0.427,0.939
	c0.256,0.683,0.427,1.28,0.597,1.963c0.341,0.768,0.512,1.536,0.597,2.304c0.256,1.109,0.341,2.133,0.427,3.243L255.872,472.405z
	 M351.957,241.579c-2.219,2.219-2.987,5.632-1.963,8.619c3.584,10.411,2.389,20.651-3.243,28.075
	c-3.84,5.035-9.387,8.619-16.213,10.496c-2.389,0.597-4.864,1.024-7.509,1.28c-1.195-5.035-3.328-9.728-6.315-14.165
	c-3.499-5.376-8.363-10.24-14.08-14.251c-12.203-8.789-28.757-14.165-46.933-14.165c-15.872,0-30.293,3.243-41.813,8.789
	c-11.605,5.461-20.139,13.227-24.064,22.443c-0.427,0.853-0.768,1.792-1.024,2.731c-1.28-0.085-2.56-0.256-3.755-0.512h-0.085
	c-7.253-1.28-13.312-4.267-17.749-8.875c-0.683-0.683-1.365-1.451-1.963-2.304c-5.547-7.424-6.827-17.664-3.243-28.075
	c1.024-2.987,0.256-6.4-1.963-8.619c-5.973-6.229-8.363-19.627-5.547-31.061c1.963-7.765,5.803-13.141,10.581-14.677
	c2.389-0.768,4.352-2.56,5.291-4.949c0.939-2.304,0.768-4.949-0.427-7.168c-4.267-8.107-4.096-21.931,0.427-30.72
	c2.475-4.779,5.888-7.424,10.24-8.021c1.195-0.171,2.304-0.512,3.328-1.195c6.229-2.56,11.008-7.765,13.312-14.592
	c1.195-3.499,1.621-7.253,1.365-10.837c25.088-4.011,71.851-19.285,81.493-47.701c0.171-0.427,0.256-0.939,0.427-1.365
	c2.987-10.069,1.195-20.139-5.376-30.208c-2.133-3.413-4.949-6.912-8.277-10.411c14.848,3.499,29.952,10.581,41.301,23.979
	c17.237,20.309,22.528,50.944,15.872,91.051c-0.341,2.219,0.256,4.608,1.621,6.485c1.365,1.877,3.499,3.072,5.803,3.328
	c4.267,0.597,7.68,3.243,10.155,8.021c4.608,8.789,4.779,22.613,0.427,30.72c-1.195,2.219-1.365,4.864-0.427,7.168
	c0.939,2.389,2.901,4.181,5.291,4.949c4.779,1.536,8.619,6.912,10.581,14.677C360.32,221.952,358.016,235.349,351.957,241.579z"/>
<path style="fill:#BDBDBD;" d="M351.957,241.579c-2.219,2.219-2.987,5.632-1.963,8.619c3.584,10.411,2.389,20.651-3.243,28.075
	c-3.84,5.035-9.387,8.619-16.213,10.496c4.096-9.216,4.949-19.968,2.304-30.805c8.789-12.373,9.728-29.952,6.485-43.008
	c-2.475-9.899-7.339-17.749-13.824-22.613c3.499-12.288,2.304-27.563-3.413-38.656c-3.584-6.827-8.619-11.861-14.763-14.677
	c5.547-41.728-1.365-74.411-20.821-97.365c-3.413-4.096-7.253-7.765-11.349-11.093c-2.133-3.413-4.949-6.912-8.277-10.411
	c14.848,3.499,29.952,10.581,41.301,23.979c17.237,20.309,22.528,50.944,15.872,91.051c-0.341,2.219,0.256,4.608,1.621,6.485
	c1.365,1.877,3.499,3.072,5.803,3.328c4.267,0.597,7.68,3.243,10.155,8.021c4.608,8.789,4.779,22.613,0.427,30.72
	c-1.195,2.219-1.365,4.864-0.427,7.168c0.939,2.389,2.901,4.181,5.291,4.949c4.779,1.536,8.619,6.912,10.581,14.677
	C360.32,221.952,358.016,235.349,351.957,241.579z"/>
<path style="fill:#F4F4F4;" d="M332.843,257.963c2.645,10.837,1.792,21.589-2.304,30.805c-2.389,0.597-4.864,1.024-7.509,1.28
	c-1.195-5.035-3.328-9.728-6.315-14.165c-11.179-16.811-34.304-28.416-61.013-28.416c-15.872,0-30.293,3.243-41.813,8.789
	c-11.605,5.461-20.139,13.227-24.064,22.443c-0.427,0.853-0.768,1.792-1.024,2.731c-1.28-0.085-2.56-0.256-3.755-0.512
	c-0.085-0.085-0.085,0-0.085,0c-7.253-1.28-13.312-4.267-17.749-8.875c-0.683-0.683-1.365-1.451-1.963-2.304
	c-5.547-7.424-6.827-17.664-3.243-28.075c1.024-2.987,0.256-6.4-1.963-8.619c-5.973-6.229-8.363-19.627-5.547-31.061
	c1.963-7.765,5.803-13.141,10.581-14.677c2.389-0.768,4.352-2.56,5.291-4.949c0.939-2.304,0.768-4.949-0.427-7.168
	c-4.267-8.107-4.096-21.931,0.427-30.72c2.475-4.779,5.888-7.424,10.24-8.021c1.195-0.171,2.304-0.512,3.328-1.195
	c6.229-2.56,11.008-7.765,13.312-14.592c1.195-3.499,1.621-7.253,1.365-10.837c25.088-4.011,71.851-19.285,81.493-47.701
	c0.171-0.427,0.256-0.939,0.427-1.365c2.987-10.069,1.195-20.139-5.376-30.208c4.096,3.328,7.936,6.997,11.349,11.093
	c19.456,22.955,26.368,55.637,20.821,97.365c6.144,2.816,11.179,7.851,14.763,14.677c5.717,11.093,6.912,26.368,3.413,38.656
	c6.485,4.864,11.349,12.715,13.824,22.613C342.571,228.011,341.632,245.589,332.843,257.963z"/>
<path style="fill:#FFC107;" d="M292.565,275.371c1.792,1.109,3.328,2.389,4.779,3.84l-49.408,164.693
	c0-0.085-0.085-0.171-0.085-0.171c-0.597-2.133-1.195-4.437-1.877-6.741c-4.523-16.213-10.069-36.267-15.701-56.405
	c-0.683-2.475-1.28-4.864-1.963-7.253c-3.328-11.861-6.571-23.637-9.643-34.389c-0.597-2.304-1.28-4.608-1.877-6.827
	c-0.768-2.731-1.536-5.461-2.219-8.021c-0.683-2.304-1.28-4.523-1.877-6.741c-3.072-11.008-5.461-19.712-6.827-24.576
	c-0.171-0.683-0.341-1.28-0.512-1.792c-0.427-1.621-0.683-2.56-0.683-2.56c0.085-0.683,0.256-1.365,0.512-2.048
	c0.171-0.597,0.427-1.195,0.768-1.792c0.427-0.939,0.939-1.792,1.621-2.645c0.512-0.768,1.109-1.451,1.792-2.133
	c1.024-1.109,2.219-2.219,3.584-3.157c0.768-0.683,1.621-1.195,2.475-1.792c0.853-0.597,1.877-1.195,2.816-1.707
	c1.024-0.597,2.133-1.109,3.243-1.707c0.256-0.171,0.512-0.256,0.768-0.341c0.939-0.427,1.963-0.853,3.072-1.28
	c8.277-3.243,18.603-5.291,30.379-5.291c1.28,0,2.475,0,3.669,0.085c1.28,0.085,2.56,0.171,3.84,0.341
	c2.816,0.256,5.632,0.683,8.277,1.365c4.096,0.853,7.936,2.048,11.435,3.669c1.109,0.512,2.304,1.024,3.413,1.621
	c1.109,0.597,2.219,1.195,3.243,1.792C290.688,274.005,291.627,274.603,292.565,275.371z"/>
<g>
	<path style="fill:#F9A825;" d="M306.816,297.728l-50.944,174.677c0,0-0.085-0.341-0.256-1.024
		c-0.427-1.536-1.365-4.864-2.731-9.643c-0.341-1.109-0.683-2.389-1.024-3.755c-1.109-4.011-2.475-8.704-3.925-13.995v-0.085
		l49.408-164.693c2.645,2.389,4.779,5.12,6.315,7.936c0.427,0.683,0.768,1.451,1.109,2.133c0.171,0.341,0.341,0.683,0.427,0.939
		c0.256,0.683,0.427,1.28,0.597,1.963c0.341,0.768,0.512,1.536,0.597,2.304C306.645,295.509,306.731,296.619,306.816,297.728z"/>
	<path style="fill:#F9A825;" d="M230.11,337.604c-2.432,0-4.847-1.033-6.545-3.038c-3.029-3.61-2.569-8.994,1.041-12.023
		l36.156-30.404c3.61-3.038,8.986-2.569,12.023,1.041c3.029,3.61,2.569,8.994-1.041,12.023l-36.156,30.404
		C233.993,336.939,232.038,337.604,230.11,337.604z"/>
	<path style="fill:#F9A825;" d="M281.301,358.4c-2.185,0-4.369-0.836-6.033-2.5l-51.2-51.2c-3.337-3.337-3.337-8.73,0-12.066
		s8.73-3.337,12.066,0l51.2,51.2c3.337,3.337,3.337,8.73,0,12.066C285.662,357.564,283.486,358.4,281.301,358.4z"/>
</g>
<g>
</g>
<g>
</g>
<g>
</g>
<g>
</g>
<g>
</g>
<g>
</g>
<g>
</g>
<g>
</g>
<g>
</g>
<g>
</g>
<g>
</g>
<g>
</g>
<g>
</g>
<g>
</g>
<g>
</g>
</svg>
