<?xml version="1.0" encoding="iso-8859-1"?>
<!-- Generator: Adobe Illustrator 19.0.0, SVG Export Plug-In . SVG Version: 6.00 Build 0)  -->
<svg version="1.1" id="Layer_1" xmlns="http://www.w3.org/2000/svg" xmlns:xlink="http://www.w3.org/1999/xlink" x="0px" y="0px"
	 viewBox="0 0 512 512" style="enable-background:new 0 0 512 512;" xml:space="preserve">
<path d="M349.867,0H162.133c-14.08,0-25.6,11.52-25.6,25.6v332.8c0,14.08,11.52,25.6,25.6,25.6h0.683
	c2.816,16.811,13.909,25.6,24.917,25.6h8.533v8.533c0,6.912,2.731,13.397,7.424,18.005c4.779,4.864,11.349,7.595,18.176,7.595V486.4
	c0,14.08,11.52,25.6,25.6,25.6h17.067c14.08,0,25.6-11.52,25.6-25.6V384h59.733c14.08,0,25.6-11.52,25.6-25.6V25.6
	C375.467,11.52,363.947,0,349.867,0z M273.067,486.4c0,0.768-0.085,1.536-0.256,2.219c-0.597,2.133-1.963,3.925-3.84,5.12
	c-0.853,0.512-1.707,0.853-2.731,1.024c-0.512,0.085-1.109,0.171-1.707,0.171h-17.067c-4.693,0-8.533-3.84-8.533-8.533v-49.579
	c5.205-4.949,8.533-11.947,8.533-19.627V384h25.6V486.4z M358.4,358.4c0,4.693-3.84,8.533-8.533,8.533H238.933
	c-4.693,0-8.533,3.84-8.533,8.533v41.728c0,4.864-3.499,9.045-7.765,9.472c-2.56,0.256-4.949-0.683-6.827-2.645
	c-1.621-1.536-2.475-3.584-2.475-5.888v-17.067c0-4.693-3.84-8.533-8.533-8.533h-17.067c-4.096,0-8.533-5.973-8.533-17.067
	c0-4.693-3.84-8.533-8.533-8.533h-8.533c-4.693,0-8.533-3.84-8.533-8.533V256h204.8V358.4z M358.4,238.933H153.6v-102.4h204.8
	V238.933z M358.4,119.467H153.6V25.6c0-4.693,3.84-8.533,8.533-8.533h187.733c4.693,0,8.533,3.84,8.533,8.533V119.467z"/>
<path style="fill:#B71C1C;" d="M358.4,256v102.4c0,4.693-3.84,8.533-8.533,8.533H332.8V256H358.4z"/>
<path style="fill:#D50000;" d="M332.8,256v110.933h-93.867c-4.693,0-8.533,3.84-8.533,8.533v41.728c0,4.864-3.499,9.045-7.765,9.472
	c-2.56,0.256-4.949-0.683-6.827-2.645c-1.621-1.536-2.475-3.584-2.475-5.888v-17.067c0-4.693-3.84-8.533-8.533-8.533h-17.067
	c-4.096,0-8.533-5.973-8.533-17.067c0-4.693-3.84-8.533-8.533-8.533h-8.533c-4.693,0-8.533-3.84-8.533-8.533V256H332.8z"/>
<rect x="332.8" y="136.533" style="fill:#F9A825;" width="25.6" height="102.4"/>
<rect x="153.6" y="136.533" style="fill:#FFC107;" width="179.2" height="102.4"/>
<path style="fill:#388E3C;" d="M358.4,25.6v93.867h-25.6v-102.4h17.067C354.56,17.067,358.4,20.907,358.4,25.6z"/>
<path style="fill:#4CAF50;" d="M332.8,17.067v102.4H153.6V25.6c0-4.693,3.84-8.533,8.533-8.533H332.8z"/>
<path style="fill:#C1AD9D;" d="M264.533,384v110.933h-17.067c-4.693,0-8.533-3.84-8.533-8.533v-49.579
	c5.205-4.949,8.533-11.947,8.533-19.627V384H264.533z"/>
<path style="fill:#8D6E63;" d="M273.067,384v102.997c0,3.84-2.901,6.997-6.827,7.765c-0.512,0.085-1.109,0.171-1.707,0.171V384
	H273.067z"/>
<g>
</g>
<g>
</g>
<g>
</g>
<g>
</g>
<g>
</g>
<g>
</g>
<g>
</g>
<g>
</g>
<g>
</g>
<g>
</g>
<g>
</g>
<g>
</g>
<g>
</g>
<g>
</g>
<g>
</g>
</svg>
