<?xml version="1.0" encoding="iso-8859-1"?>
<!-- Generator: Adobe Illustrator 19.0.0, SVG Export Plug-In . SVG Version: 6.00 Build 0)  -->
<svg version="1.1" id="Layer_1" xmlns="http://www.w3.org/2000/svg" xmlns:xlink="http://www.w3.org/1999/xlink" x="0px" y="0px"
	 viewBox="0 0 512 512" style="enable-background:new 0 0 512 512;" xml:space="preserve">
<path d="M391.595,344.235L341.077,83.371C325.12,14.507,286.037,0,256,0c-13.312,0-28.501,2.901-42.581,12.117
	c-2.987,1.877-5.888,4.096-8.704,6.656c-7.765,6.912-14.933,16.213-21.077,28.416c-5.12,10.069-9.472,22.101-12.8,36.523
	l-2.901,15.104l-47.531,245.419c-0.597,3.157-1.024,6.4-0.768,9.557c0.683,9.643,4.096,18.603,9.472,26.027
	c9.301,12.885,24.491,21.248,41.557,21.248h17.067v93.867c0,0.768,0.085,1.536,0.171,2.304c0.683,5.461,4.011,9.984,8.533,12.544
	c2.475,1.451,5.291,2.219,8.363,2.219h17.067c3.157,0,6.144-0.853,8.704-2.389c5.035-2.987,8.363-8.448,8.363-14.677v-93.867h34.133
	v17.067l0.085,76.8c0,0.683,0.085,1.451,0.171,2.133c0.768,4.864,4.181,9.557,8.533,12.288c2.56,1.621,5.461,2.645,8.363,2.645
	h17.067c3.072,0,6.059-1.109,8.704-2.816c4.779-3.243,8.363-8.789,8.363-14.251l-0.085-59.733v-34.133h17.067
	c1.451,0,2.901-0.085,4.352-0.256c6.997-0.597,13.653-2.56,19.541-5.803c7.253-3.669,13.483-9.216,18.091-15.957
	c5.12-7.253,8.363-15.872,9.045-25.259C392.619,350.635,392.192,347.392,391.595,344.235z M221.867,486.4
	c0,2.304-0.939,4.437-2.475,5.973c-0.171,0.171-0.341,0.341-0.597,0.512c-0.512,0.512-1.109,0.853-1.707,1.109
	c-0.341,0.171-0.683,0.341-1.109,0.427c-0.341,0.171-0.683,0.256-1.024,0.341c-0.512,0.085-1.024,0.171-1.536,0.171h-0.085
	c-0.597,0-1.195-0.085-1.707-0.171c-0.597-0.085-1.109-0.256-1.536-0.512c-3.072-1.28-5.291-4.267-5.291-7.851v-85.333h17.067V486.4
	z M230.4,384h-59.733c-14.677,0-27.307-9.387-32.085-22.443c-1.963-5.291-1.963-11.179-0.939-16.725l46.763-241.835l3.072-15.701
	c1.024-4.352,2.133-8.448,3.328-12.373c0.512-1.963,1.195-3.84,1.877-5.717c2.731-7.936,5.973-15.019,9.728-21.163v-0.085
	c3.328-5.376,6.912-10.155,11.008-13.995c0.341-0.427,0.768-0.768,1.109-1.109c1.451-1.365,2.816-2.645,4.352-3.755
	c1.28-1.024,2.645-2.048,4.096-2.901c2.304-1.536,4.864-2.901,7.424-4.011C230.4,22.187,230.4,384,230.4,384z M264.533,384h-17.067
	V17.579c2.731-0.256,5.632-0.512,8.533-0.512c2.987,0,5.803,0.256,8.533,0.512V384z M304.811,492.373
	c-0.171,0.171-0.341,0.341-0.597,0.512c-0.512,0.512-1.109,0.853-1.707,1.109c-0.341,0.171-0.683,0.341-1.109,0.427
	c-0.341,0.171-0.683,0.256-1.024,0.341c-0.512,0.085-1.109,0.171-1.621,0.171c-0.597,0-1.195-0.085-1.707-0.171
	c-0.597-0.085-1.109-0.256-1.536-0.512c-3.072-1.28-5.291-4.267-5.291-7.851l-0.085-85.333H307.2l0.085,85.333
	C307.285,488.704,306.347,490.837,304.811,492.373z M373.419,361.557c-0.939,2.645-2.304,5.12-3.84,7.424
	c-0.597,0.853-1.195,1.621-1.792,2.389c0,0.085-0.085,0.085-0.171,0.171c-0.768,0.939-1.621,1.877-2.56,2.731
	c-0.512,0.512-1.024,1.024-1.536,1.451c-0.171,0.171-0.341,0.341-0.512,0.427c-0.597,0.512-1.195,0.939-1.792,1.365
	c-1.365,1.024-2.816,1.963-4.352,2.731c-4.693,2.389-9.984,3.755-15.531,3.755H281.6V22.101
	c20.736,9.131,34.901,30.549,42.837,64.853l49.92,257.877C375.381,350.379,375.381,356.267,373.419,361.557z"/>
<path style="fill:#2979FF;" d="M264.533,29.184V384h-17.067V20.992C253.184,22.784,258.987,25.429,264.533,29.184z"/>
<path style="fill:#8D6E63;" d="M221.867,401.067V486.4c0,2.304-0.939,4.437-2.475,5.973c-0.171,0.171-0.341,0.341-0.597,0.512
	c-0.512,0.512-1.109,0.853-1.707,1.109c-0.341,0.171-0.683,0.341-1.109,0.427c-0.341,0.171-0.683,0.256-1.024,0.341
	c-0.512,0.085-1.024,0.171-1.536,0.171v-93.867H221.867z"/>
<path style="fill:#C1AD9D;" d="M204.8,401.067h8.619v93.867h-0.085c-0.597,0-1.195-0.085-1.707-0.171
	c-0.512-0.085-1.024-0.256-1.536-0.512c-3.072-1.28-5.291-4.267-5.291-7.851V401.067z"/>
<path style="fill:#8D6E63;" d="M307.285,486.4c0,2.304-0.939,4.437-2.475,5.973c-0.171,0.171-0.341,0.341-0.597,0.512
	c-0.512,0.512-1.109,0.853-1.707,1.109c-0.341,0.171-0.683,0.341-1.109,0.427c-0.341,0.171-0.683,0.256-1.024,0.341
	c-0.512,0.085-1.024,0.171-1.621,0.171v-93.867h8.448L307.285,486.4z"/>
<path style="fill:#C1AD9D;" d="M290.133,401.067h8.619v93.867c-0.597,0-1.195-0.085-1.707-0.171
	c-0.512-0.085-1.024-0.256-1.536-0.512c-3.072-1.28-5.291-4.267-5.291-7.851L290.133,401.067z"/>
<path style="fill:#2979FF;" d="M373.419,361.557c-2.987,8.107-8.96,14.763-16.555,18.688c0.768-3.072,1.28-6.144,1.536-9.387
	c0.256-3.157-0.171-6.4-0.768-9.557l-50.517-260.864c-5.888-25.344-14.933-43.349-25.515-55.979V22.101
	c20.736,9.131,34.901,30.549,42.837,64.853l49.92,257.877C375.381,350.379,375.381,356.267,373.419,361.557z"/>
<path style="fill:#0091EA;" d="M358.4,370.859c-0.256,3.243-0.768,6.315-1.536,9.387c-4.693,2.389-9.984,3.755-15.531,3.755H281.6
	V44.459c10.581,12.629,19.627,30.635,25.515,55.979l50.517,260.864C358.229,364.459,358.656,367.701,358.4,370.859z"/>
<g>
	<path style="fill:#2979FF;" d="M230.4,22.187V35.84c-5.632,1.109-11.349,2.987-16.981,5.632c-3.669,1.792-7.424,3.925-11.008,6.485
		c3.328-5.376,6.912-10.155,11.008-13.995c0.341-0.427,0.768-0.768,1.109-1.109c1.451-1.365,2.816-2.645,4.352-3.755
		c1.28-1.024,2.645-2.048,4.096-2.901C225.28,24.661,227.84,23.296,230.4,22.187z"/>
	<path style="fill:#2979FF;" d="M230.4,35.84V384h-16.981V41.472C219.051,38.827,224.768,36.949,230.4,35.84z"/>
</g>
<path style="fill:#0091EA;" d="M213.419,41.472V384h-42.752c-14.677,0-27.307-9.387-32.085-22.443
	c-1.963-5.291-1.963-11.179-0.939-16.725l46.763-241.835l3.072-15.701c1.024-4.352,2.133-8.448,3.328-12.373
	c0.597-1.963,1.195-3.84,1.877-5.717c2.731-7.936,5.973-15.019,9.728-21.163v-0.085C205.995,45.397,209.749,43.264,213.419,41.472z"
	/>
<path style="fill:#2979FF;" d="M264.533,17.579v11.605c-5.547-3.755-11.349-6.4-17.067-8.192v-3.413
	c2.731-0.256,5.632-0.512,8.533-0.512C258.987,17.067,261.803,17.323,264.533,17.579z"/>
<g>
</g>
<g>
</g>
<g>
</g>
<g>
</g>
<g>
</g>
<g>
</g>
<g>
</g>
<g>
</g>
<g>
</g>
<g>
</g>
<g>
</g>
<g>
</g>
<g>
</g>
<g>
</g>
<g>
</g>
</svg>
