<?xml version="1.0" encoding="iso-8859-1"?>
<!-- Generator: Adobe Illustrator 19.0.0, SVG Export Plug-In . SVG Version: 6.00 Build 0)  -->
<svg version="1.1" id="Layer_1" xmlns="http://www.w3.org/2000/svg" xmlns:xlink="http://www.w3.org/1999/xlink" x="0px" y="0px"
	 viewBox="0 0 512 512" style="enable-background:new 0 0 512 512;" xml:space="preserve">
<path d="M408.917,369.543c-2.133-6.315-9.472-10.923-21.931-13.909l43.691-72.021c5.205-8.021,6.912-18.005,4.693-27.221
	c-2.219-9.131-7.851-16.725-15.957-21.419l-40.533-23.381l57.003-98.731c7.083-12.203,2.901-27.904-9.387-34.987l-4.779-2.816
	l-9.984-5.717c-12.203-7.083-27.904-2.816-34.987,9.387l-57.003,98.731l-45.909-26.539c-8.192-4.608-17.664-5.717-26.709-2.987
	c-9.216,2.731-16.64,8.96-20.992,17.323L123.477,352.22c-12.885,0-52.736,1.536-55.125,19.627C8.107,381.404,0,393.607,0,403.42
	c0,6.485,4.437,11.179,8.789,14.165c-0.171,0.939-0.256,1.963-0.256,2.901c0,14.336,15.019,25.6,34.133,25.6
	c9.643,0,18.859-2.987,25.173-8.192c1.963-1.621,4.352-2.304,6.656-1.963c4.864,0.768,9.899,1.451,15.189,2.048
	c64.427,8.107,155.904,10.24,239.616,5.632c12.971-0.683,25.344-1.024,37.205-1.451c26.197-0.853,48.896-1.536,69.973-4.693
	c0.939-0.171,1.877-0.341,2.816-0.597c6.485,6.315,17.408,9.216,25.771,9.216c16.384,0,29.696-11.349,29.867-25.344
	c8.96-3.584,17.067-8.789,17.067-17.323C512,395.484,512,380.977,408.917,369.543z M391.509,87.26
	c2.389-4.096,7.595-5.461,11.691-3.157l9.984,5.803l4.779,2.731c4.096,2.389,5.461,7.595,3.157,11.691l-57.003,98.731l-11.691-6.741
	l-17.92-10.325L391.509,87.26z M482.731,407.004c-2.304,0.683-4.181,2.304-5.12,4.437c-1.024,2.133-1.109,4.608-0.256,6.827
	c0.341,0.853,0.512,1.536,0.512,2.219c0,4.011-5.291,8.533-12.8,8.533c-6.656,0-12.971-2.901-14.336-4.864
	c-2.731-3.925-6.4-4.949-9.472-4.949c-2.475,0-4.608,0.597-5.803,0.939c-0.512,0.171-1.024,0.341-1.536,0.427
	c-20.053,2.987-42.24,3.755-67.925,4.523c-11.947,0.427-24.491,0.768-37.632,1.451c-82.859,4.608-173.056,2.475-236.629-5.461
	c-5.12-0.597-10.069-1.28-14.763-2.048c-6.997-1.024-14.251,1.024-19.883,5.632c-3.328,2.731-8.704,4.352-14.421,4.352
	c-10.24,0-17.067-5.12-17.067-8.533c0-0.597,0.256-1.28,0.683-2.048c1.365-2.048,1.792-4.523,1.109-6.912
	c-0.597-2.389-2.304-4.437-4.523-5.461c-2.219-1.109-3.669-1.963-4.608-2.645c4.181-2.901,18.347-10.069,63.488-16.299
	c3.499-0.512,6.315-3.072,7.083-6.485c0.512-2.219,0.171-4.437-0.939-6.315c5.803-2.389,18.091-5.035,35.84-5.035
	c1.451,0,2.901,0,4.352,0.085c3.243,0.256,6.315-1.536,7.936-4.437l105.216-191.659c2.219-4.437,6.059-7.595,10.752-9.045
	c4.523-1.365,9.301-0.768,13.312,1.536l145.579,83.968c3.925,2.389,6.741,6.144,7.851,10.667c1.195,4.779,0.341,9.728-2.56,14.165
	l-43.776,72.192c-2.816,4.693-3.243,10.325-1.109,15.36c2.048,5.035,6.485,8.875,11.861,10.155c3.669,0.853,6.229,1.792,7.936,2.56
	c-0.512,1.536-0.427,3.328,0.085,4.949c1.109,3.157,3.925,5.376,7.253,5.717c57.941,6.059,84.565,13.397,93.696,17.835
	C490.155,404.359,487.168,405.553,482.731,407.004z"/>
<path style="fill:#C1AD9D;" d="M413.184,89.905l-60.757,106.411l-17.92-10.325l57.003-98.731c2.389-4.096,7.595-5.461,11.691-3.157
	L413.184,89.905z"/>
<path style="fill:#AFB42B;" d="M398.421,385.5c-3.328-0.341-6.144-2.56-7.253-5.717c-0.512-1.621-0.597-3.413-0.085-4.949
	c-1.707-0.768-4.267-1.707-7.936-2.56c-5.376-1.28-9.813-5.12-11.861-10.155c-2.133-5.035-1.707-10.667,1.109-15.36l43.776-72.192
	c2.901-4.437,3.755-9.387,2.56-14.165c-1.109-4.523-3.925-8.277-7.851-10.667l-145.579-83.968
	c-4.011-2.304-8.789-2.901-13.312-1.536c-4.693,1.451-8.533,4.608-10.752,9.045L136.021,364.935
	c-1.621,2.901-4.693,4.693-7.936,4.437c-1.451-0.085-2.901-0.085-4.352-0.085c-17.749,0-30.037,2.645-35.84,5.035
	c1.109,1.877,1.451,4.096,0.939,6.315c-0.768,3.413-3.584,5.973-7.083,6.485c-45.141,6.229-59.307,13.397-63.488,16.299
	c0.939,0.683,2.389,1.536,4.608,2.645c2.219,1.024,3.925,3.072,4.523,5.461c0.683,2.389,0.256,4.864-1.109,6.912
	c-0.427,0.768-0.683,1.451-0.683,2.048c0,3.413,6.827,8.533,17.067,8.533c5.717,0,11.093-1.621,14.421-4.352
	c5.632-4.608,12.885-6.656,19.883-5.632c4.693,0.768,9.643,1.451,14.763,2.048c63.573,7.936,153.771,10.069,236.629,5.461
	c13.141-0.683,25.685-1.024,37.632-1.451c25.685-0.768,47.872-1.536,67.925-4.523c0.512-0.085,1.024-0.256,1.536-0.427
	c1.195-0.341,3.328-0.939,5.803-0.939c3.072,0,6.741,1.024,9.472,4.949c1.365,1.963,7.68,4.864,14.336,4.864
	c7.509,0,12.8-4.523,12.8-8.533c0-0.683-0.171-1.365-0.512-2.219c-0.853-2.219-0.768-4.693,0.256-6.827
	c0.939-2.133,2.816-3.755,5.12-4.437c4.437-1.451,7.424-2.645,9.387-3.669C482.987,398.897,456.363,391.559,398.421,385.5z
	 M349.867,301.02c0,14.08-11.52,25.6-25.6,25.6H307.2c-2.987,0-5.888-0.597-8.533-1.536v27.136c0,14.08-11.52,25.6-25.6,25.6H256
	c-14.08,0-25.6-11.52-25.6-25.6v-76.8c0-4.693,3.84-8.533,8.533-8.533s8.533,3.84,8.533,8.533v76.8h25.6V241.287h8.533
	c0-4.693,3.84-8.533,8.533-8.533s8.533,3.84,8.533,8.533v59.733h25.6v-34.133h8.533c0-4.693,3.84-8.533,8.533-8.533
	s8.533,3.84,8.533,8.533V301.02z"/>
<path d="M349.867,266.887v34.133c0,14.08-11.52,25.6-25.6,25.6H307.2c-2.987,0-5.888-0.597-8.533-1.536v27.136
	c0,14.08-11.52,25.6-25.6,25.6H256c-14.08,0-25.6-11.52-25.6-25.6v-76.8c0-4.693,3.84-8.533,8.533-8.533s8.533,3.84,8.533,8.533
	v76.8c0,4.693,3.84,8.533,8.533,8.533h17.067c4.693,0,8.533-3.84,8.533-8.533V241.287c0-4.693,3.84-8.533,8.533-8.533
	s8.533,3.84,8.533,8.533v59.733c0,4.693,3.84,8.533,8.533,8.533h17.067c4.693,0,8.533-3.84,8.533-8.533v-34.133
	c0-4.693,3.84-8.533,8.533-8.533S349.867,262.193,349.867,266.887z"/>
<path style="fill:#8D6E63;" d="M421.12,104.327l-57.003,98.731l-11.691-6.741l60.757-106.411l4.779,2.731
	C422.059,95.025,423.424,100.231,421.12,104.327z"/>
<g>
	<path style="fill:#827717;" d="M281.6,241.287V352.22c0,4.693-3.84,8.533-8.533,8.533H256c-4.693,0-8.533-3.84-8.533-8.533h25.6
		V241.287L281.6,241.287L281.6,241.287z"/>
	<path style="fill:#827717;" d="M332.8,266.887v34.133c0,4.693-3.84,8.533-8.533,8.533H307.2c-4.693,0-8.533-3.84-8.533-8.533h25.6
		v-34.133H332.8z"/>
	<path style="fill:#827717;" d="M349.858,352.22c-1.545,0-3.106-0.418-4.514-1.297c-4.002-2.5-5.214-7.765-2.714-11.759
		l42.667-68.267c2.5-3.994,7.774-5.214,11.759-2.714c4.002,2.5,5.214,7.765,2.714,11.759l-42.667,68.267
		C355.482,350.795,352.708,352.22,349.858,352.22z"/>
</g>
<g>
</g>
<g>
</g>
<g>
</g>
<g>
</g>
<g>
</g>
<g>
</g>
<g>
</g>
<g>
</g>
<g>
</g>
<g>
</g>
<g>
</g>
<g>
</g>
<g>
</g>
<g>
</g>
<g>
</g>
</svg>
