<?xml version="1.0" encoding="iso-8859-1"?>
<!-- Generator: Adobe Illustrator 19.0.0, SVG Export Plug-In . SVG Version: 6.00 Build 0)  -->
<svg version="1.1" id="Layer_1" xmlns="http://www.w3.org/2000/svg" xmlns:xlink="http://www.w3.org/1999/xlink" x="0px" y="0px"
	 viewBox="0 0 512 512" style="enable-background:new 0 0 512 512;" xml:space="preserve">
<path d="M256,51.2c-12.715,0-23.808,6.997-29.696,17.323c-2.816,4.949-4.437,10.752-4.437,16.811v230.4
	c0,13.397,7.68,25.003,18.944,30.549c4.608,2.304,9.728,3.584,15.189,3.584c1.365,0,2.731-0.085,4.096-0.256
	c16.896-2.048,30.037-16.384,30.037-33.877v-230.4C290.133,66.475,274.859,51.2,256,51.2z M273.067,315.733
	c0,6.315-3.413,11.776-8.533,14.763c-2.475,1.451-5.461,2.304-8.533,2.304c-3.072,0-6.059-0.853-8.533-2.304
	c-5.12-2.987-8.533-8.448-8.533-14.763v-230.4c0-5.461,2.645-10.411,6.656-13.483c2.901-2.304,6.485-3.584,10.411-3.584
	c9.387,0,17.067,7.68,17.067,17.067V315.733z"/>
<path d="M256,0c-35.413,0-73.045,7.936-82.859,25.088c-1.195,2.048-1.963,4.267-2.304,6.656c-0.085,0.768-0.171,1.536-0.171,2.389
	v358.4c0,4.693,3.84,8.533,8.533,8.533h42.667v86.528c0,10.581,7.168,19.627,17.067,22.955c1.024,0.341,2.048,0.683,3.157,0.853
	c0.085,0,0.085,0,0.085,0c1.707,0.427,3.499,0.597,5.291,0.597h17.067c14.08,0,25.6-10.923,25.6-24.405v-86.528H332.8
	c4.693,0,8.533-3.84,8.533-8.533v-358.4C341.333,10.667,297.131,0,256,0z M273.067,487.595c0,4.011-3.925,7.339-8.533,7.339h-17.067
	c-4.608,0-8.533-3.328-8.533-7.339v-86.528h34.133V487.595z M324.267,384H187.733V34.133c0-1.621,3.243-4.352,9.557-7.168
	c4.352-1.963,10.155-3.925,17.408-5.632c1.792-0.427,3.669-0.853,5.632-1.195c3.157-0.597,6.485-1.109,10.155-1.536
	c2.048-0.256,4.096-0.512,6.229-0.683c1.877-0.171,3.755-0.341,5.717-0.427c1.792-0.085,3.584-0.256,5.461-0.256
	c2.56-0.171,5.291-0.171,8.107-0.171c44.8,0,68.267,12.715,68.267,17.067V384z"/>
<path style="fill:#8D6E63;" d="M273.067,401.067v86.528c0,4.011-3.925,7.339-8.533,7.339v-93.867H273.067z"/>
<path style="fill:#C1AD9D;" d="M264.533,401.067v93.867h-17.067c-4.608,0-8.533-3.328-8.533-7.339v-86.528H264.533z"/>
<path style="fill:#4CAF50;" d="M221.867,25.6c-8.192,0-16.555,0.427-24.576,1.365c-6.315,2.816-9.557,5.547-9.557,7.168V384H307.2
	V59.733C307.2,36.267,262.997,25.6,221.867,25.6z M290.133,315.733c0,17.493-13.141,31.829-30.037,33.877
	c-1.365,0.171-2.731,0.256-4.096,0.256c-5.461,0-10.581-1.28-15.189-3.584c-11.264-5.547-18.944-17.152-18.944-30.549v-230.4
	c0-6.059,1.621-11.861,4.437-16.811C232.192,58.197,243.285,51.2,256,51.2c18.859,0,34.133,15.275,34.133,34.133V315.733z"/>
<g>
	<path style="fill:#388E3C;" d="M324.267,34.133V384H307.2V59.733c0-23.467-44.203-34.133-85.333-34.133
		c-8.192,0-16.555,0.427-24.576,1.365c4.352-1.963,10.155-3.925,17.408-5.632c1.792-0.427,3.669-0.853,5.632-1.195
		c3.157-0.597,6.485-1.109,10.155-1.536c2.048-0.256,4.096-0.512,6.229-0.683c1.877-0.171,3.755-0.341,5.717-0.427
		c1.792-0.085,3.584-0.256,5.461-0.256c2.56-0.085,5.291-0.171,8.107-0.171C300.8,17.067,324.267,29.781,324.267,34.133z"/>
	<path style="fill:#388E3C;" d="M273.067,85.333v230.4c0,6.315-3.413,11.776-8.533,14.763V102.4c0-13.397-7.68-25.003-18.944-30.549
		c2.901-2.304,6.485-3.584,10.411-3.584C265.387,68.267,273.067,75.947,273.067,85.333z"/>
</g>
<path style="fill:#4CAF50;" d="M264.533,102.4v228.096c-2.475,1.451-5.461,2.304-8.533,2.304c-3.072,0-6.059-0.853-8.533-2.304
	c-5.12-2.987-8.533-8.448-8.533-14.763v-230.4c0-5.461,2.645-10.411,6.656-13.483C256.853,77.397,264.533,89.003,264.533,102.4z"/>
<g>
</g>
<g>
</g>
<g>
</g>
<g>
</g>
<g>
</g>
<g>
</g>
<g>
</g>
<g>
</g>
<g>
</g>
<g>
</g>
<g>
</g>
<g>
</g>
<g>
</g>
<g>
</g>
<g>
</g>
</svg>
