<?xml version="1.0" encoding="iso-8859-1"?>
<!-- Generator: Adobe Illustrator 19.0.0, SVG Export Plug-In . SVG Version: 6.00 Build 0)  -->
<svg version="1.1" id="Layer_1" xmlns="http://www.w3.org/2000/svg" xmlns:xlink="http://www.w3.org/1999/xlink" x="0px" y="0px"
	 viewBox="0 0 512 512" style="enable-background:new 0 0 512 512;" xml:space="preserve">
<path d="M359.509,32.512C358.656,14.251,343.723,0,325.461,0H186.539c-18.261,0-33.195,14.251-34.048,32.512l-14.677,307.2
	c-0.427,9.387,2.901,18.347,9.387,25.173c6.571,6.827,15.275,10.581,24.747,10.581h49.92V486.4c0,14.08,11.52,25.6,25.6,25.6h17.067
	c14.08,0,25.6-11.52,25.6-25.6V375.467h49.92c9.472,0,18.176-3.755,24.747-10.581c6.485-6.827,9.813-15.787,9.387-25.173
	L359.509,32.512z M169.472,33.28c0.427-9.045,7.936-16.213,17.067-16.213h138.923c9.131,0,16.64,7.168,17.067,16.213l0.853,17.92
	H168.619L169.472,33.28z M167.851,68.267h176.299l1.621,34.133H166.229L167.851,68.267z M165.376,119.467h181.248l1.621,34.133
	H163.755L165.376,119.467z M162.987,170.667h186.027l1.621,34.133H161.365L162.987,170.667z M160.512,221.867h190.976L353.109,256
	H158.891L160.512,221.867z M158.123,273.067h195.755l1.621,34.133H156.501L158.123,273.067z M273.067,486.4
	c0,4.693-3.84,8.533-8.533,8.533h-17.067c-4.693,0-8.533-3.84-8.533-8.533V375.467h34.133V486.4z M352.427,353.109
	c-3.243,3.413-7.68,5.291-12.373,5.291H171.947c-4.693,0-9.131-1.877-12.373-5.291c-3.243-3.413-4.949-7.936-4.693-12.629
	l0.768-16.213h200.704l0.768,16.213C357.376,345.173,355.669,349.696,352.427,353.109z"/>
<path style="fill:#8D6E63;" d="M273.067,375.467V486.4c0,4.693-3.84,8.533-8.533,8.533V375.467H273.067z"/>
<path style="fill:#C1AD9D;" d="M264.533,375.467v119.467h-17.067c-4.693,0-8.533-3.84-8.533-8.533V375.467H264.533z"/>
<path style="fill:#BDBDBD;" d="M357.12,340.48c0.256,4.693-1.451,9.216-4.693,12.629c-3.243,3.413-7.68,5.291-12.373,5.291h-9.899
	l-1.28-34.133h27.477L357.12,340.48z"/>
<path style="fill:#F4F4F4;" d="M330.155,358.4H171.947c-4.693,0-9.131-1.877-12.373-5.291c-3.243-3.413-4.949-7.936-4.693-12.629
	l0.768-16.213h173.227L330.155,358.4z"/>
<polygon style="fill:#388E3C;" points="355.499,307.2 328.192,307.2 326.912,273.067 353.877,273.067 "/>
<polygon style="fill:#4CAF50;" points="328.192,307.2 156.501,307.2 158.123,273.067 326.912,273.067 "/>
<polygon style="fill:#BDBDBD;" points="353.109,256 326.229,256 324.949,221.867 351.488,221.867 "/>
<polygon style="fill:#F4F4F4;" points="326.229,256 158.891,256 160.512,221.867 324.949,221.867 "/>
<polygon style="fill:#388E3C;" points="350.635,204.8 324.267,204.8 322.987,170.667 349.013,170.667 "/>
<polygon style="fill:#4CAF50;" points="324.267,204.8 161.365,204.8 162.987,170.667 322.987,170.667 "/>
<polygon style="fill:#BDBDBD;" points="348.245,153.6 322.304,153.6 321.024,119.467 346.624,119.467 "/>
<polygon style="fill:#F4F4F4;" points="322.304,153.6 163.755,153.6 165.376,119.467 321.024,119.467 "/>
<polygon style="fill:#388E3C;" points="345.771,102.4 320.341,102.4 318.976,68.267 344.149,68.267 "/>
<polygon style="fill:#4CAF50;" points="320.341,102.4 166.229,102.4 167.851,68.267 318.976,68.267 "/>
<path style="fill:#BDBDBD;" d="M343.381,51.2h-25.003l-1.365-34.133h8.448c9.131,0,16.64,7.168,17.067,16.213L343.381,51.2z"/>
<path style="fill:#F4F4F4;" d="M318.379,51.2h-149.76l0.853-17.92c0.427-9.045,7.936-16.213,17.067-16.213h130.475L318.379,51.2z"/>
<g>
</g>
<g>
</g>
<g>
</g>
<g>
</g>
<g>
</g>
<g>
</g>
<g>
</g>
<g>
</g>
<g>
</g>
<g>
</g>
<g>
</g>
<g>
</g>
<g>
</g>
<g>
</g>
<g>
</g>
</svg>
