<?xml version="1.0" encoding="iso-8859-1"?>
<!-- Generator: Adobe Illustrator 19.0.0, SVG Export Plug-In . SVG Version: 6.00 Build 0)  -->
<svg version="1.1" id="Layer_1" xmlns="http://www.w3.org/2000/svg" xmlns:xlink="http://www.w3.org/1999/xlink" x="0px" y="0px"
	 viewBox="0 0 512 512" style="enable-background:new 0 0 512 512;" xml:space="preserve">
<path d="M364.715,141.141l-1.365-29.184c-0.171-3.84-2.645-7.168-6.315-8.448c-3.669-1.195-7.68-0.085-10.155,2.901
	c-2.901,3.328-8.021,5.803-14.251,3.84c-0.597-0.256-1.195-0.512-1.877-0.768c-1.621-0.768-3.243-2.645-4.437-4.949
	c-1.195-2.475-2.048-5.376-2.048-8.021c0-0.512,0.171-1.109,0.085-2.901c-0.085-3.072-1.877-5.888-4.608-7.339
	c-2.731-1.451-6.059-1.195-8.619,0.512c-4.608,3.072-8.875,5.12-12.8,6.144c-2.987,0.853-5.888,1.024-8.533,0.597
	c-12.629-1.792-23.04-12.288-24.917-24.917c-0.341-2.56-0.427-5.12-0.085-7.595c0.341-4.864,2.048-9.557,4.779-13.739
	c1.877-2.731,1.707-6.229,0-9.045c-1.707-2.901-5.12-4.352-8.448-4.096c-4.267,0.171-8.277-1.451-10.581-4.437
	c-1.024-1.28-1.792-2.645-2.304-4.011c-1.536-4.267-0.512-8.448,1.28-11.264c1.792-2.901,1.963-6.571,0.341-9.557
	C248.32,2.133,244.736,0,241.664,0h-55.125c-18.261,0-33.195,14.251-34.133,32.512l-14.592,307.115
	c-0.427,9.472,2.901,18.432,9.472,25.259c6.485,6.827,15.275,10.581,24.661,10.581h49.92V486.4c0,14.08,11.52,25.6,25.6,25.6h17.067
	c14.08,0,25.6-11.52,25.6-25.6V375.467h49.92c9.387,0,18.176-3.755,24.661-10.581c6.571-6.827,9.899-15.787,9.472-25.259
	L364.715,141.141z M273.067,486.4c0,4.693-3.84,8.533-8.533,8.533h-17.067c-4.693,0-8.533-3.84-8.533-8.533V375.467h34.133V486.4z
	 M352.427,353.109c-3.243,3.413-7.68,5.291-12.373,5.291H171.947c-4.693,0-9.131-1.877-12.373-5.291
	c-3.243-3.413-4.949-7.936-4.693-12.629l14.592-307.115c0.427-9.131,7.936-16.299,17.067-16.299h44.117
	c-1.109,8.021,1.024,16.384,6.485,23.211c0.085,0.085,0.085,0.085,0.085,0.171c3.413,4.096,7.68,7.083,12.544,8.875
	c-1.877,5.973-2.645,12.288-2.048,18.688c0,1.024,0.085,2.048,0.256,3.072c2.987,20.224,19.115,36.352,39.339,39.339
	c3.84,0.512,7.68,0.512,11.52-0.171c3.413-0.512,6.741-1.536,10.24-2.987c1.792,5.205,4.693,10.24,8.875,13.909
	c1.707,1.536,3.584,2.816,5.632,3.755c1.195,0.597,2.475,1.109,3.755,1.536c6.571,2.048,13.483,1.963,19.627-0.171l0.853,18.688
	l9.301,195.499C357.376,345.173,355.669,349.696,352.427,353.109z"/>
<path style="fill:#AD1457;" d="M357.12,340.48c0.256,4.693-1.451,9.216-4.693,12.629c-3.243,3.413-7.68,5.291-12.373,5.291h-1.877
	l-10.069-216.32c6.059,2.133,12.715,3.243,19.712,2.901L357.12,340.48z"/>
<path style="fill:#D81B60;" d="M338.176,358.4H171.947c-4.693,0-9.131-1.877-12.373-5.291c-3.243-3.413-4.949-7.936-4.693-12.629
	l14.592-307.115c0.427-9.131,7.936-16.299,17.067-16.299h24.491c-0.085,1.024-0.171,2.048-0.256,3.157
	c-1.109,19.285,7.168,36.267,19.883,43.776c-0.171,1.365-0.256,2.816-0.256,4.267c0,33.024,26.709,59.733,59.733,59.733
	c1.877,0,3.669-0.085,5.461-0.256c6.656-0.597,13.141,1.877,18.261,6.059c4.181,3.499,8.96,6.315,14.251,8.277L338.176,358.4z"/>
<path style="fill:#BDBDBD;" d="M347.819,144.981c-6.997,0.341-13.653-0.768-19.712-2.901l-0.768-15.616
	c6.571,2.048,13.483,1.963,19.627-0.171L347.819,144.981z"/>
<path style="fill:#F4F4F4;" d="M328.107,142.08c-5.291-1.963-10.069-4.779-14.251-8.277c-5.12-4.181-11.605-6.656-18.261-6.059
	c-1.792,0.171-3.584,0.256-5.461,0.256c-33.024,0-59.733-26.709-59.733-59.733c0-1.451,0.085-2.901,0.256-4.267
	c-12.715-7.509-20.992-24.491-19.883-43.776c0.085-1.109,0.171-2.133,0.256-3.157h19.627c-1.109,8.021,1.024,16.384,6.485,23.211
	c0.085,0.085,0.085,0.085,0.085,0.171c3.413,4.096,7.68,7.083,12.544,8.875c-1.877,5.973-2.645,12.288-2.048,18.688
	c0,1.024,0.085,2.048,0.256,3.072c2.987,20.224,19.115,36.352,39.339,39.339c3.84,0.512,7.68,0.512,11.52-0.171
	c3.413-0.512,6.741-1.536,10.24-2.987c1.792,5.205,4.693,10.24,8.875,13.909c1.707,1.536,3.584,2.816,5.632,3.755
	c1.195,0.597,2.475,1.109,3.755,1.536L328.107,142.08z"/>
<path style="fill:#8D6E63;" d="M273.067,375.467V486.4c0,4.693-3.84,8.533-8.533,8.533V375.467H273.067z"/>
<path style="fill:#C1AD9D;" d="M264.533,375.467v119.467h-17.067c-4.693,0-8.533-3.84-8.533-8.533V375.467H264.533z"/>
<g>
</g>
<g>
</g>
<g>
</g>
<g>
</g>
<g>
</g>
<g>
</g>
<g>
</g>
<g>
</g>
<g>
</g>
<g>
</g>
<g>
</g>
<g>
</g>
<g>
</g>
<g>
</g>
<g>
</g>
</svg>
