<?xml version="1.0" encoding="iso-8859-1"?>
<!-- Generator: Adobe Illustrator 19.0.0, SVG Export Plug-In . SVG Version: 6.00 Build 0)  -->
<svg version="1.1" id="Layer_1" xmlns="http://www.w3.org/2000/svg" xmlns:xlink="http://www.w3.org/1999/xlink" x="0px" y="0px"
	 viewBox="0 0 512.001 512.001" style="enable-background:new 0 0 512.001 512.001;" xml:space="preserve">
<path d="M407.059,25.734c-6.909-5.374-14.159-9.894-21.75-13.477C363.814,1.766,340.187-1.902,317.414,0.913
	c-29.427,3.582-57.489,17.912-77.789,42.306c-1.194,1.194-161.89,208.631-161.89,208.631c-2.644,3.497-4.35,7.335-5.118,11.344
	c-1.706,9.553,1.791,19.703,9.98,26.1l49.812,38.553l-1.535,2.047l-70.795,91.351c-1.024,2.218-1.621,4.435-2.047,6.653
	c-1.791,9.297,1.194,18.083,7.591,24.138c0.512,0.512,1.194,1.024,1.791,1.535l11.174,8.7l2.303,1.706
	c4.606,3.668,10.15,5.374,15.609,5.374c7.677,0,15.268-3.412,20.3-9.894l67.724-87.513l1.791-2.303l20.471,15.865l1.109,0.853
	c4.179,3.241,7.591,10.235,7.591,15.524v84.527c0,3.071,0.597,6.056,1.621,8.785c3.497,9.809,12.88,16.803,23.968,16.803h25.589
	c14.159,0,25.588-11.43,25.588-25.589v-34.118c0-4.691,3.838-8.529,8.53-8.529h17.059c14.159,0,25.588-11.43,25.588-25.589V301.834
	c0,0,87.683-108.239,88.366-109.178C469.836,139.176,459.003,65.908,407.059,25.734z M103.323,448.968
	c-2.9,3.753-8.274,4.435-12.027,1.535l-2.388-1.791l-2.218-1.706l-8.871-6.909c-1.706-1.45-2.815-3.327-3.156-5.544
	c-0.085-0.085-0.085-0.085-0.085-0.171c-0.256-2.218,0.341-4.435,1.706-6.312l68.065-87.769l1.535-1.962l16.888,13.135l10.065,7.762
	l-1.535,1.962L103.323,448.968z M417.806,182.847c-0.085,0.171-89.56,110.542-89.56,110.542c-1.194,1.535-1.876,3.412-1.876,5.374
	v119.413c0,4.691-3.838,8.53-8.53,8.53h-17.059c-14.159,0-25.588,11.43-25.588,25.588v34.118c0,4.691-3.838,8.53-8.53,8.53h-25.588
	c-4.691,0-8.529-3.838-8.529-8.53v-84.527c0-9.894-6.397-22.944-14.159-29L93.003,275.819c-4.265-3.326-5.032-9.297-1.706-13.562
	c0,0,159.672-206.243,160.952-207.523c20.641-24.821,50.239-37.615,80.177-37.615c14.841,0,29.768,3.156,43.671,9.638
	c7.165,3.241,14.074,7.421,20.556,12.453c11.174,8.7,20.13,19.106,26.697,30.621C443.394,104.376,442.456,148.473,417.806,182.847z"
	/>
<path style="fill:#C1AD9D;" d="M162.774,351.475l-73.865,97.236l-11.088-8.615c-1.791-1.45-2.9-3.412-3.241-5.715
	c-0.256-2.218,0.341-4.435,1.706-6.312l69.601-89.73L162.774,351.475z"/>
<path style="fill:#AD1457;" d="M417.806,182.847c-0.085,0.171-89.56,110.542-89.56,110.542c-1.194,1.535-1.876,3.412-1.876,5.374
	v119.413c0,4.691-3.838,8.53-8.53,8.53h-17.059c-14.159,0-25.588,11.43-25.588,25.588v34.118c0,4.691-3.838,8.53-8.53,8.53h-22.433
	c12.538-1.535,22.262-12.282,22.262-25.333v-34.118c0-4.691,3.838-8.53,8.529-8.53h17.059c14.159,0,25.589-11.43,25.589-25.588
	V285.031c0,0,87.683-108.239,88.366-109.178c22.774-32.071,28.062-71.221,17.315-106.022
	C443.394,104.376,442.456,148.473,417.806,182.847z"/>
<path style="fill:#D81B60;" d="M406.035,175.853c-0.682,0.938-88.366,109.178-88.366,109.178v116.342
	c0,14.159-11.43,25.588-25.589,25.588h-17.059c-4.691,0-8.529,3.838-8.529,8.53v34.118c0,13.05-9.724,23.797-22.262,25.333h-3.156
	c-4.691,0-8.529-3.838-8.529-8.53v-84.527c0-9.894-6.397-22.944-14.159-29L93.003,275.819c-4.265-3.326-5.032-9.297-1.706-13.562
	c0,0,159.672-206.243,160.952-207.523c20.641-24.821,50.239-37.615,80.177-37.615c14.841,0,29.768,3.156,43.671,9.638
	c7.165,3.241,14.074,7.421,20.556,12.453c11.174,8.7,20.13,19.106,26.697,30.621C434.097,104.632,428.809,143.782,406.035,175.853z"
	/>
<path style="fill:#8D6E63;" d="M172.839,359.237l-69.515,89.73c-2.9,3.753-8.274,4.435-12.027,1.535l-2.388-1.791l73.865-97.236
	L172.839,359.237z"/>
<g>
	<path style="fill:#AD1457;" d="M266.663,392.588c-4.717,0-8.53-3.821-8.53-8.53v-93.824c0-4.708,3.813-8.53,8.53-8.53
		c4.717,0,8.529,3.821,8.529,8.53v93.824C275.193,388.766,271.38,392.588,266.663,392.588z"/>
	<path style="fill:#AD1457;" d="M403.135,119.644c-0.017,0-0.043,0-0.06,0c-4.717-0.034-8.504-3.881-8.47-8.589
		c0-0.23-0.196-26.467-18.859-44.055c-13.093-12.351-32.344-17.844-57.404-16.394c-4.742,0.35-8.734-3.309-9.016-8.009
		c-0.281-4.7,3.309-8.743,8.009-9.016c29.913-1.766,53.625,5.348,70.283,21.162c24.002,22.791,24.045,55.066,24.036,56.431
		C411.631,115.865,407.818,119.644,403.135,119.644z"/>
</g>
<g>
</g>
<g>
</g>
<g>
</g>
<g>
</g>
<g>
</g>
<g>
</g>
<g>
</g>
<g>
</g>
<g>
</g>
<g>
</g>
<g>
</g>
<g>
</g>
<g>
</g>
<g>
</g>
<g>
</g>
</svg>
