<?xml version="1.0" encoding="iso-8859-1"?>
<!-- Generator: Adobe Illustrator 19.0.0, SVG Export Plug-In . SVG Version: 6.00 Build 0)  -->
<svg version="1.1" id="Layer_1" xmlns="http://www.w3.org/2000/svg" xmlns:xlink="http://www.w3.org/1999/xlink" x="0px" y="0px"
	 viewBox="0 0 512 512" style="enable-background:new 0 0 512 512;" xml:space="preserve">
<path style="fill:#8D6E63;" d="M162.133,17.067c-4.693,0-8.533,3.84-8.533,8.533v93.867h187.733v-25.6
	c0,2.219-0.853,4.437-2.475,6.059c-1.707,1.621-3.84,2.475-6.059,2.475s-4.352-0.853-6.059-2.475l-8.533-8.533
	c-3.328-3.328-3.328-8.789,0-12.117c3.328-3.328,8.789-3.328,12.117,0l8.533,8.533c1.621,1.621,2.475,3.84,2.475,6.059v-51.2
	c0,2.219-0.853,4.437-2.475,6.059l-8.533,8.533c-1.707,1.621-3.84,2.475-6.059,2.475c-2.219,0-4.352-0.853-6.059-2.475
	c-3.328-3.328-3.328-8.789,0-12.117l8.533-8.533c3.328-3.328,8.789-3.328,12.117,0c1.621,1.621,2.475,3.84,2.475,6.059v-25.6
	H162.133z M193.792,91.392l-8.533,8.533c-1.707,1.621-3.84,2.475-6.059,2.475c-2.219,0-4.352-0.853-6.059-2.475
	c-3.328-3.328-3.328-8.789,0-12.117l8.533-8.533c3.328-3.328,8.789-3.328,12.117,0S197.12,88.064,193.792,91.392z M193.792,57.259
	c-1.707,1.621-3.84,2.475-6.059,2.475c-2.219,0-4.352-0.853-6.059-2.475l-8.533-8.533c-3.328-3.328-3.328-8.789,0-12.117
	c3.328-3.328,8.789-3.328,12.117,0l8.533,8.533C197.12,48.469,197.12,53.931,193.792,57.259z M221.867,59.733
	c-4.693,0-8.533-3.84-8.533-8.533v-8.533c0-4.693,3.84-8.533,8.533-8.533c4.693,0,8.533,3.84,8.533,8.533V51.2
	C230.4,55.893,226.56,59.733,221.867,59.733z M247.467,93.867c0,4.693-3.84,8.533-8.533,8.533c-4.693,0-8.533-3.84-8.533-8.533
	v-8.533c0-4.693,3.84-8.533,8.533-8.533c4.693,0,8.533,3.84,8.533,8.533V93.867z M256,42.667c0-4.693,3.84-8.533,8.533-8.533h8.533
	c4.693,0,8.533,3.84,8.533,8.533s-3.84,8.533-8.533,8.533h-8.533C259.84,51.2,256,47.36,256,42.667z M287.659,91.392
	c-1.707,1.621-3.84,2.475-6.059,2.475c-2.219,0-4.352-0.853-6.059-2.475l-8.533-8.533c-3.328-3.328-3.328-8.789,0-12.117
	c3.328-3.328,8.789-3.328,12.117,0l8.533,8.533C290.987,82.603,290.987,88.064,287.659,91.392z"/>
<path style="fill:#388E3C;" d="M287.684,99.942c-1.707,1.621-3.84,2.475-6.059,2.475s-4.352-0.853-6.059-2.475l-8.533-8.533
	c-3.328-3.328-3.328-8.789,0-12.117s8.789-3.328,12.117,0l8.533,8.533C291.004,91.162,291.004,96.623,287.684,99.942z"/>
<path style="fill:#2979FF;" d="M338.842,108.459c-1.707,1.621-3.84,2.475-6.059,2.475s-4.352-0.853-6.059-2.475l-8.533-8.533
	c-3.328-3.328-3.328-8.789,0-12.117c3.328-3.328,8.789-3.328,12.117,0l8.533,8.533C342.161,99.669,342.161,105.131,338.842,108.459z
	"/>
<path style="fill:#827717;" d="M256,93.867v8.533c0,4.693-3.84,8.533-8.533,8.533c-4.693,0-8.533-3.84-8.533-8.533v-8.533
	c0-4.693,3.84-8.533,8.533-8.533C252.16,85.333,256,89.173,256,93.867z"/>
<path style="fill:#BDBDBD;" d="M338.884,57.259l-8.533,8.533c-1.715,1.621-3.849,2.475-6.067,2.475s-4.352-0.853-6.059-2.475
	c-3.328-3.328-3.328-8.789,0-12.117l8.533-8.533c3.328-3.328,8.789-3.328,12.117,0C342.204,48.469,342.204,53.931,338.884,57.259z"
	/>
<path style="fill:#D81B60;" d="M238.933,51.2v8.533c0,4.693-3.84,8.533-8.533,8.533c-4.693,0-8.533-3.84-8.533-8.533V51.2
	c0-4.693,3.84-8.533,8.533-8.533C235.093,42.667,238.933,46.507,238.933,51.2z"/>
<path style="fill:#388E3C;" d="M202.308,57.276c-1.707,1.621-3.84,2.475-6.059,2.475c-2.219,0-4.352-0.853-6.059-2.475l-8.533-8.533
	c-3.328-3.328-3.328-8.789,0-12.117c3.328-3.328,8.789-3.328,12.117,0l8.533,8.533C205.628,48.495,205.628,53.956,202.308,57.276z"
	/>
<path style="fill:#BDBDBD;" d="M202.308,99.942l-8.533,8.533c-1.707,1.621-3.84,2.475-6.059,2.475s-4.352-0.853-6.059-2.475
	c-3.328-3.328-3.328-8.789,0-12.117l8.533-8.533c3.328-3.328,8.789-3.328,12.117,0C205.628,91.162,205.628,96.623,202.308,99.942z"
	/>
<path style="fill:#5E35B1;" d="M290.133,51.2c0,4.693-3.84,8.533-8.533,8.533h-8.533c-4.693,0-8.533-3.84-8.533-8.533
	s3.84-8.533,8.533-8.533h8.533C286.293,42.667,290.133,46.507,290.133,51.2z"/>
<path d="M193.792,91.392l-8.533,8.533c-1.707,1.621-3.84,2.475-6.059,2.475c-2.219,0-4.352-0.853-6.059-2.475
	c-3.328-3.328-3.328-8.789,0-12.117l8.533-8.533c3.328-3.328,8.789-3.328,12.117,0S197.12,88.064,193.792,91.392z"/>
<path d="M247.467,85.333v8.533c0,4.693-3.84,8.533-8.533,8.533c-4.693,0-8.533-3.84-8.533-8.533v-8.533
	c0-4.693,3.84-8.533,8.533-8.533C243.627,76.8,247.467,80.64,247.467,85.333z"/>
<path d="M193.792,57.259c-1.707,1.621-3.84,2.475-6.059,2.475c-2.219,0-4.352-0.853-6.059-2.475l-8.533-8.533
	c-3.328-3.328-3.328-8.789,0-12.117c3.328-3.328,8.789-3.328,12.117,0l8.533,8.533C197.12,48.469,197.12,53.931,193.792,57.259z"/>
<path d="M230.4,42.667V51.2c0,4.693-3.84,8.533-8.533,8.533c-4.693,0-8.533-3.84-8.533-8.533v-8.533c0-4.693,3.84-8.533,8.533-8.533
	C226.56,34.133,230.4,37.973,230.4,42.667z"/>
<path d="M281.6,42.667c0,4.693-3.84,8.533-8.533,8.533h-8.533c-4.693,0-8.533-3.84-8.533-8.533s3.84-8.533,8.533-8.533h8.533
	C277.76,34.133,281.6,37.973,281.6,42.667z"/>
<path d="M287.659,91.392c-1.707,1.621-3.84,2.475-6.059,2.475c-2.219,0-4.352-0.853-6.059-2.475l-8.533-8.533
	c-3.328-3.328-3.328-8.789,0-12.117c3.328-3.328,8.789-3.328,12.117,0l8.533,8.533C290.987,82.603,290.987,88.064,287.659,91.392z"
	/>
<path d="M338.859,99.925c-1.707,1.621-3.84,2.475-6.059,2.475s-4.352-0.853-6.059-2.475l-8.533-8.533
	c-3.328-3.328-3.328-8.789,0-12.117c3.328-3.328,8.789-3.328,12.117,0l8.533,8.533C342.187,91.136,342.187,96.597,338.859,99.925z"
	/>
<path d="M338.859,48.725l-8.533,8.533c-1.707,1.621-3.84,2.475-6.059,2.475c-2.219,0-4.352-0.853-6.059-2.475
	c-3.328-3.328-3.328-8.789,0-12.117l8.533-8.533c3.328-3.328,8.789-3.328,12.117,0C342.187,39.936,342.187,45.397,338.859,48.725z"
	/>
<path d="M349.867,0H162.133c-14.08,0-25.6,11.52-25.6,25.6v332.8c0,14.08,11.52,25.6,25.6,25.6h59.733v102.4
	c0,14.08,11.52,25.6,25.6,25.6h17.067c14.08,0,25.6-11.52,25.6-25.6V384h59.733c14.08,0,25.6-11.52,25.6-25.6V25.6
	C375.467,11.52,363.947,0,349.867,0z M273.067,486.4c0,0.683-0.085,1.28-0.171,1.877c-0.341,1.365-0.939,2.56-1.792,3.669
	c-0.256,0.341-0.597,0.597-0.939,0.939s-0.768,0.597-1.195,0.853c-0.427,0.256-0.853,0.427-1.28,0.597
	c-1.024,0.427-2.048,0.597-3.157,0.597h-17.067c-1.109,0-2.133-0.171-3.157-0.597c-0.427-0.171-0.853-0.341-1.28-0.597
	c-0.427-0.256-0.853-0.512-1.195-0.853c-0.341-0.341-0.683-0.597-0.939-0.939c-0.853-1.109-1.451-2.304-1.792-3.669
	c-0.085-0.597-0.171-1.195-0.171-1.877V384h34.133V486.4z M358.4,358.4c0,4.693-3.84,8.533-8.533,8.533H162.133
	c-4.693,0-8.533-3.84-8.533-8.533V256h204.8V358.4z M358.4,238.933H153.6v-102.4h204.8V238.933z M358.4,119.467H153.6V25.6
	c0-4.693,3.84-8.533,8.533-8.533h187.733c4.693,0,8.533,3.84,8.533,8.533V119.467z"/>
<path style="fill:#6D4C41;" d="M358.4,25.6v93.867h-17.067v-102.4h8.533C354.56,17.067,358.4,20.907,358.4,25.6z"/>
<rect x="341.333" y="136.533" style="fill:#AD1457;" width="17.067" height="102.4"/>
<rect x="153.6" y="136.533" style="fill:#D81B60;" width="187.733" height="102.4"/>
<path style="fill:#F9A825;" d="M358.4,256v102.4c0,4.693-3.84,8.533-8.533,8.533h-8.533V256H358.4z"/>
<path style="fill:#FFC107;" d="M341.333,256v110.933h-179.2c-4.693,0-8.533-3.84-8.533-8.533V256H341.333z"/>
<path style="fill:#8D6E63;" d="M273.067,384v103.006c0,4.361-3.84,7.927-8.533,7.927V384H273.067z"/>
<path style="fill:#C1AD9D;" d="M264.533,384v110.933h-17.067c-4.693,0-8.533-3.567-8.533-7.927V384H264.533z"/>
<g>
	
		<line style="fill:none;stroke:#000000;stroke-width:2;stroke-miterlimit:10;" x1="341.333" y1="136.533" x2="341.333" y2="119.467"/>
	<line style="fill:none;stroke:#000000;stroke-width:2;stroke-miterlimit:10;" x1="341.333" y1="256" x2="341.333" y2="238.933"/>
</g>
<g>
</g>
<g>
</g>
<g>
</g>
<g>
</g>
<g>
</g>
<g>
</g>
<g>
</g>
<g>
</g>
<g>
</g>
<g>
</g>
<g>
</g>
<g>
</g>
<g>
</g>
<g>
</g>
<g>
</g>
</svg>
