<?xml version="1.0" encoding="iso-8859-1"?>
<!-- Generator: Adobe Illustrator 19.0.0, SVG Export Plug-In . SVG Version: 6.00 Build 0)  -->
<svg version="1.1" id="Layer_1" xmlns="http://www.w3.org/2000/svg" xmlns:xlink="http://www.w3.org/1999/xlink" x="0px" y="0px"
	 viewBox="0 0 512 512" style="enable-background:new 0 0 512 512;" xml:space="preserve">
<path style="fill:#4CAF50;" d="M459.947,453.044c-2.048-0.171-4.011-0.341-6.059-0.512c-5.376-0.427-10.752-0.683-15.787-0.853
	c0,0,0,0-0.085,0c-6.656-0.171-12.885-0.171-17.749-0.171c-4.267-0.085-8.021-0.085-10.923-0.171
	c-7.424-0.256-13.739-1.621-18.859-4.267c-2.304-1.109-4.352-2.389-6.144-3.925c-1.707-1.365-3.157-2.987-4.437-4.693
	c-2.901-3.925-4.523-8.192-5.291-12.459c-1.451-8.021,0.171-15.701,1.195-19.541c1.792-6.912-6.571-16.469-21.419-24.405
	c-2.133-1.109-3.755-3.157-4.267-5.547c-0.597-2.304-0.085-4.864,1.28-6.827l14.165-20.309l65.707-130.645
	c0.171-0.512,0.341-0.939,0.512-1.365c5.717-18.773,0-38.315-12.971-51.285c0,0,0,0-0.085-0.085c0,0,0,0-0.085-0.085l-9.131-4.267
	l-8.875-4.096l-19.115-8.96l-0.256-0.085l-15.616-7.339l-15.616-7.253l-15.616-7.339l-9.899-4.608l-21.333-9.984l-15.616-7.339
	l-3.157-1.451c-1.451-0.683-2.987-1.195-4.437-1.621c-2.901-0.939-5.888-1.451-8.875-1.536c-4.267-0.171-8.448,0.512-12.373,1.963
	c-1.792,0.512-3.499,1.28-5.12,2.219c-0.683,0.341-1.365,0.683-1.963,1.109c-1.365,0.853-2.645,1.792-3.84,2.901
	c-3.413,2.816-6.315,6.485-8.448,10.752l-1.024,4.181l-4.523,18.091L175.36,373.684l-1.451,5.717
	c-0.853,4.779-2.048,12.544-2.816,22.357c-0.171,2.133-0.341,4.523-0.427,6.912c-0.085,3.243-0.171,6.656-0.171,10.24
	c0,2.133,0.085,4.267,0.171,6.485v0.256c0,2.304-0.939,4.523-2.56,6.144c-1.707,1.707-3.925,2.645-6.4,2.475h-1.621
	c-2.731-0.085-8.448-0.085-17.152-0.085c-4.523,0.085-9.899,0.085-16.128,0.085h-3.669c-3.755,0-7.253,0.171-10.496,0.427
	c-11.861,0.768-20.224,2.731-24.747,4.608c1.024,1.621,1.365,3.584,1.024,5.547c0,0.256,0,0.512-0.085,0.768
	c-0.256,1.024-0.597,1.877-1.109,2.731c-1.365,1.963-3.499,3.413-5.973,3.755c-7.339,1.024-13.909,2.048-19.712,3.157
	c-4.267,0.768-8.107,1.451-11.52,2.219c-6.656,1.451-12.032,2.816-16.299,4.096c0.683,5.632,4.779,9.728,8.704,12.459
	c-0.171,0.939-0.256,1.963-0.256,2.901v0.853c0.256,5.547,2.731,10.667,6.912,14.763c0.171,0.171,0.341,0.341,0.512,0.427
	c2.731-0.683,5.205-1.877,6.997-3.328c2.389-1.877,4.949-3.328,7.68-4.352c1.28-0.427,2.475-0.768,3.755-1.024
	c2.816-0.597,5.632-0.683,8.448-0.256c1.792,0.341,3.669,0.597,5.632,0.853c0.683,0.085,1.451,0.256,2.133,0.341
	c2.304,0.256,4.608,0.597,6.997,0.853c25.515,3.157,55.381,5.376,87.296,6.656c33.621-0.085,70.485-1.707,107.435-4.693
	c23.637-1.707,47.36-4.011,70.4-6.827c12.885-1.536,25.259-2.645,37.035-3.84c3.84-0.341,7.595-0.768,11.179-1.195
	c0.085,0.085,0.171,0,0.171,0c18.944-1.877,36.011-3.755,51.968-6.827c2.304-2.987,3.413-6.144,3.584-9.045
	C460.971,457.737,460.715,455.348,459.947,453.044z M256,178.27h0.427c27.989,0.256,28.757,25.941,29.269,43.008
	c0.683,20.992,2.219,29.952,15.104,31.573c12.885-1.621,14.421-10.581,15.104-31.573c0.512-17.152,1.28-43.008,29.696-43.008
	c4.693,0,8.533,3.84,8.533,8.533s-3.84,8.533-8.533,8.533c-9.984,0-12.032,4.181-12.715,26.453
	c-0.512,18.005-1.28,45.227-31.232,48.213h-1.707c-29.952-2.987-30.72-30.208-31.232-48.213
	c-0.683-22.272-2.731-26.453-12.715-26.453c-1.28,0-2.475-0.256-3.584-0.853c-2.901-1.28-4.949-4.267-4.949-7.68
	C247.467,182.11,251.307,178.27,256,178.27z"/>
<path style="fill:#388E3C;" d="M362.667,197.47c0,4.693-3.84,8.533-8.533,8.533c-9.984,0-12.032,4.181-12.715,26.453
	c-0.512,18.005-1.28,45.227-31.232,48.213h-1.707c-29.952-2.987-30.72-30.208-31.232-48.213
	c-0.683-22.272-2.731-26.453-12.715-26.453c-4.693,0-8.533-3.84-8.533-8.533s3.84-8.533,8.533-8.533
	c28.416,0,29.184,25.856,29.696,43.008c0.683,20.992,2.219,29.952,15.104,31.573c12.885-1.621,14.421-10.581,15.104-31.573
	c0.512-17.152,1.28-43.008,29.696-43.008C358.827,188.937,362.667,192.777,362.667,197.47z"/>
<path d="M511.915,466.953c0-5.205-1.792-9.899-5.035-13.995c-0.427-0.512-0.853-1.024-1.365-1.536
	c-0.683-0.683-1.365-1.365-2.048-1.877c-2.048-1.877-4.437-3.413-7.083-4.779c-13.141-6.827-32.939-9.131-54.272-9.984h-0.085
	c-7.168-0.171-14.421-0.341-21.675-0.341c-0.768,0-1.451,0-2.133-0.085c-3.243,0-6.059,0-8.363-0.085
	c-6.315-0.171-11.093-1.451-14.165-3.84c-0.853-0.597-1.536-1.365-2.133-2.133c-0.427-0.597-0.768-1.195-1.109-1.877
	c-2.56-5.547-0.853-13.056-0.256-15.531c3.755-13.568-4.096-27.477-21.504-38.997l10.325-14.763l9.813-14.08l79.36-113.664
	c0.256-0.427,0.512-0.853,0.768-1.28c4.267-9.216,5.632-19.029,4.352-28.331c-1.109-8.363-4.267-16.384-9.216-23.211
	c-4.864-6.912-11.605-12.715-19.797-16.555l-15.531-7.253l2.133-4.608l4.437-9.387l2.816-6.059l4.437-9.387l22.357-47.787
	c2.731-5.803,3.925-11.435,3.499-16.469c-0.171-1.707-0.512-3.328-1.024-4.864c-1.195-3.328-3.243-6.144-5.973-8.192
	c-0.939-0.683-1.963-1.365-3.072-1.877l-4.096-1.877l-2.304-1.109l-5.205-2.389c-0.256-0.085-0.427-0.171-0.683-0.256
	c-6.912-2.987-14.165-1.109-20.053,4.608c-2.901,2.645-5.376,6.315-7.424,10.667l-1.792,3.84l-25.003,53.419l-3.413,7.339
	l-0.853,1.792l-2.987,6.315l-2.133,4.608l-13.824-6.4l-0.597-0.256l-14.933-7.083l-0.427-0.171l-1.109-0.512l2.219-4.608
	l1.963-4.267l0.768-1.621l4.437-9.557l2.048-4.267l19.115-41.045l5.547-11.947c0.597-1.28,1.109-2.56,1.536-3.755
	c0.853-2.304,1.365-4.608,1.707-6.827c0.512-3.925,0.256-7.509-0.853-10.667c-1.024-3.413-3.072-6.229-5.973-8.277
	c-0.853-0.683-1.877-1.28-2.901-1.792l-4.096-1.877l-1.195-0.597l-6.315-2.987c-0.256-0.171-0.597-0.256-0.853-0.341
	c-7.083-2.901-14.507-0.853-20.48,5.291c-2.645,2.645-4.949,6.059-6.912,10.155l-1.792,3.755c0,0,0,0.085,0,0.171L315.989,75.87
	l-5.461,11.691l-0.768,1.536l-1.195,2.645l-1.451,3.157l-6.912-3.157l-7.509-3.499l-0.171-0.085l-0.853-0.427
	c-5.035-2.304-10.155-3.84-15.445-4.437h-0.085c-0.256,0-0.597-0.085-0.853-0.085c-5.888-0.683-11.605-0.171-17.237,1.109
	c-0.427,0.085-0.939,0.256-1.365,0.427c-0.939,0.171-1.792,0.427-2.731,0.768c-1.707,0.512-3.328,1.109-4.864,1.877
	c-0.085,0-0.171,0-0.171,0.085c-4.779,2.048-9.131,4.864-13.056,8.363c-2.389,2.133-4.523,4.523-6.485,7.083
	c-2.304,2.901-4.181,6.059-5.803,9.472c-0.171,0.512-0.427,1.024-0.512,1.536l-1.28,5.12l-4.693,18.688l-50.176,199.339
	l-9.728,38.827c-1.365,8.277-2.645,17.067-3.243,27.051c-0.171,1.877-0.256,3.84-0.341,5.803c-0.085,2.731-0.171,5.547-0.171,8.448
	c-2.731-0.085-6.315,0-11.008,0h-18.688c-1.195,0-2.645,0-4.267,0.085c-2.645,0-5.888,0.171-9.387,0.427
	c-4.864,0.341-10.325,1.024-15.616,2.048c-6.485,1.28-12.8,3.157-17.579,5.973c-3.072,1.792-5.547,3.925-6.997,6.571
	c-0.512,0.853-0.939,1.877-1.195,2.901c-0.171,0.512-0.256,1.024-0.341,1.621c-3.669,0.597-7.168,1.195-10.411,1.792h-0.256
	c-4.523,0.853-8.704,1.707-12.629,2.56C5.888,449.972,0,460.041,0,468.404c0,5.291,2.987,9.387,6.4,12.288
	c0.768,0.683,1.621,1.365,2.389,1.877c-0.171,0.939-0.256,1.963-0.256,2.901c0,4.267,1.365,8.363,3.755,11.861
	c0.939,1.365,1.963,2.56,3.157,3.755c4.608,4.608,11.349,7.936,19.115,9.301c2.56,0.427,5.291,0.683,8.107,0.683
	c9.643,0,18.859-2.987,25.259-8.192c0.171-0.171,0.341-0.256,0.512-0.341c0.256-0.256,0.597-0.427,0.853-0.597
	c1.621-0.939,3.413-1.28,5.205-1.024c1.109,0.171,2.133,0.341,3.243,0.512c1.621,0.256,3.328,0.512,5.035,0.683
	c2.219,0.341,4.523,0.597,6.827,0.853c46.592,5.888,107.349,8.619,169.045,7.851c23.637-0.171,47.445-0.939,70.656-2.219
	c12.971-0.683,25.344-1.024,37.205-1.451c3.84-0.085,7.595-0.256,11.264-0.427c0.085,0.085,0.171,0,0.171,0
	c21.504-0.683,40.619-1.621,58.539-4.267c0.939-0.171,1.877-0.341,2.816-0.597c6.485,6.315,17.408,9.216,25.771,9.216
	c9.643,0,18.176-3.925,23.637-9.899c3.669-4.096,5.973-9.045,6.229-14.507c1.195-0.341,2.219-0.768,3.243-1.28
	c7.253-3.072,11.179-7.68,12.885-12.203c0.597-1.451,0.853-2.987,0.939-4.352v-1.365C512,467.294,512,467.124,511.915,466.953z
	 M436.053,61.022c2.304-4.949,4.864-6.741,5.547-6.827l0.341,0.171l4.949,2.304l2.048,0.939l4.267,1.963
	c0.341,0.597,0.597,3.755-1.707,8.704l-30.037,64.256l-3.925,8.363l-2.219,4.693l-7.595-3.584l-7.851-3.669l2.219-4.693l3.413-7.253
	l3.755-8.107l3.499-7.424L436.053,61.022z M358.741,24.841c2.304-4.949,4.864-6.741,5.547-6.827l0.171,0.085l6.229,2.987
	l0.939,0.427l4.267,1.963c0.341,0.512,0.597,3.669-1.707,8.619l-0.341,0.683l-31.147,66.645l-0.939,2.133l-1.536,3.243l-2.219,4.608
	l-6.4-2.987l-9.045-4.267l2.133-4.608l1.024-2.219l6.229-13.227l1.109-2.304L358.741,24.841z M477.952,475.828
	c0,0,0,0.085-0.085,0.085c-1.28,2.219-1.451,4.949-0.512,7.339c0.341,0.853,0.512,1.536,0.512,2.219c0,4.011-5.291,8.533-12.8,8.533
	c-6.656,0-12.971-2.901-14.336-4.864c-2.389-3.413-5.461-4.608-8.277-4.864c-0.427-0.085-0.768-0.085-1.195-0.085
	c-2.475,0-4.608,0.597-5.803,0.939c-0.512,0.171-1.024,0.341-1.536,0.427c-17.493,2.56-36.523,3.499-58.112,4.267h-0.341
	c-3.072,0.085-6.229,0.171-9.472,0.256c-11.947,0.427-24.491,0.768-37.632,1.451c-49.493,2.731-101.717,3.072-149.333,1.195
	c-31.915-1.28-61.781-3.499-87.296-6.656c-2.389-0.256-4.693-0.597-6.997-0.853c-0.683-0.085-1.451-0.256-2.133-0.341
	c-1.963-0.256-3.84-0.512-5.632-0.853c-2.816-0.427-5.632-0.341-8.448,0.256c-1.28,0.256-2.475,0.597-3.755,1.024
	c-2.731,1.024-5.291,2.475-7.68,4.352c-1.792,1.451-4.267,2.645-6.997,3.328c-2.219,0.683-4.693,1.024-7.168,1.024h-0.256
	c-3.669,0-6.912-0.683-9.472-1.621c-4.779-1.792-7.595-4.693-7.595-6.912c0-0.597,0.256-1.28,0.683-2.048
	c1.365-2.048,1.792-4.523,1.109-6.912c-0.085-0.256-0.171-0.597-0.341-0.853c-0.683-2.048-2.219-3.669-4.181-4.608
	c-2.219-1.109-3.669-1.963-4.608-2.645c1.28-0.939,3.584-2.219,7.595-3.925c2.219-0.853,4.949-1.792,8.363-2.901
	c4.267-1.28,9.643-2.645,16.299-4.096c3.413-0.768,7.253-1.451,11.52-2.219c5.803-1.109,12.373-2.133,19.712-3.157
	c2.475-0.341,4.608-1.792,5.973-3.755c0.512-0.853,0.853-1.707,1.109-2.731c0.085-0.256,0.085-0.512,0.085-0.768
	c0.341-1.963,0-3.925-1.024-5.547c4.523-1.877,12.885-3.84,24.747-4.608c3.243-0.256,6.741-0.427,10.496-0.427h3.669
	c6.229,0,11.605,0,16.128-0.085c8.704,0,14.421,0,17.152,0.085h1.621c2.475,0.171,4.693-0.768,6.4-2.475
	c1.621-1.621,2.56-3.84,2.56-6.144v-0.256c-0.085-2.219-0.171-4.352-0.171-6.485c0-3.584,0.085-6.997,0.171-10.24
	c0.085-2.389,0.256-4.779,0.427-6.912c0.768-9.813,1.963-17.579,2.816-22.357l1.451-5.717l58.453-232.448l4.523-18.091l1.024-4.181
	c2.133-4.267,5.035-7.936,8.448-10.752c1.195-1.109,2.475-2.048,3.84-2.901c0.597-0.427,1.28-0.768,1.963-1.109
	c1.621-0.939,3.328-1.707,5.12-2.219c3.925-1.451,8.107-2.133,12.373-1.963c2.987,0.085,5.973,0.597,8.875,1.536
	c1.451,0.427,2.987,0.939,4.437,1.621l3.157,1.451l15.616,7.339l21.333,9.984l9.899,4.608l15.616,7.339l15.616,7.253l15.616,7.339
	l0.256,0.085l19.115,8.96l8.875,4.096l9.131,4.267c0.085,0.085,0.085,0.085,0.085,0.085c0.085,0.085,0.085,0.085,0.085,0.085
	l20.224,9.387c9.216,4.352,15.531,12.203,18.176,21.248c2.304,7.509,1.963,15.872-1.451,23.552L368.64,345.012l-3.072,4.352
	l-14.165,20.309c-1.365,1.963-1.877,4.523-1.28,6.827c0.512,2.389,2.133,4.437,4.267,5.547
	c14.848,7.936,23.211,17.493,21.419,24.405c-1.024,3.84-2.645,11.52-1.195,19.541c0.768,4.267,2.389,8.533,5.291,12.459
	c1.28,1.707,2.731,3.328,4.437,4.693c1.792,1.536,3.84,2.816,6.144,3.925c5.12,2.645,11.435,4.011,18.859,4.267
	c2.901,0.085,6.656,0.085,10.923,0.171c4.864,0,11.093,0,17.749,0.171c0.085,0,0.085,0,0.085,0
	c5.035,0.171,10.411,0.427,15.787,0.853c2.048,0.171,4.011,0.341,6.059,0.512c7.168,0.768,13.995,1.792,19.797,3.413h0.085
	c5.803,1.707,10.496,3.84,13.227,6.741c1.451,1.451,1.963,2.901,2.048,4.011c-0.427,0.853-3.328,3.413-10.923,4.437
	c-1.621,0.171-3.157,0.853-4.352,1.963C479.061,474.206,478.464,474.974,477.952,475.828z"/>
<g>
	<path style="fill:#388E3C;" d="M457.216,469.342c-2.731,3.499-7.083,6.741-13.483,8.789c-0.085,2.133-0.512,4.181-1.28,6.144
		c-0.427-0.085-0.768-0.085-1.195-0.085c-2.475,0-4.608,0.597-5.803,0.939c-0.512,0.171-1.024,0.341-1.536,0.427
		c-17.493,2.56-36.523,3.499-58.112,4.267h-0.341c-3.072,0.085-6.229,0.171-9.472,0.256c-11.947,0.427-24.491,0.768-37.632,1.451
		c-49.493,2.731-101.717,3.072-149.333,1.195c33.621-0.085,70.485-1.707,107.435-4.693c23.637-1.707,47.36-4.011,70.4-6.827
		c12.885-1.536,25.259-2.645,37.035-3.84c3.84-0.341,7.595-0.768,11.179-1.195c0.085,0.085,0.171,0,0.171,0
		C424.192,474.292,441.259,472.414,457.216,469.342z"/>
	<path style="fill:#388E3C;" d="M495.104,467.209c-0.427,0.853-3.328,3.413-10.923,4.437c-1.621,0.171-3.157,0.853-4.352,1.963
		c-0.768,0.597-1.365,1.365-1.877,2.219c0,0,0,0.085-0.085,0.085c-1.28,2.219-1.451,4.949-0.512,7.339
		c0.341,0.853,0.512,1.536,0.512,2.219c0,4.011-5.291,8.533-12.8,8.533c-6.656,0-12.971-2.901-14.336-4.864
		c-2.389-3.413-5.461-4.608-8.277-4.864c0.768-1.963,1.195-4.011,1.28-6.144c6.4-2.048,10.752-5.291,13.483-8.789
		c2.304-2.987,3.413-6.144,3.584-9.045c0.171-2.56-0.085-4.949-0.853-7.253c7.168,0.768,13.995,1.792,19.797,3.413h0.085
		c5.803,1.707,10.496,3.84,13.227,6.741C494.507,464.649,495.019,466.1,495.104,467.209z"/>
	<path style="fill:#388E3C;" d="M50.091,492.98c-2.304,0.683-4.864,1.024-7.424,1.024c-3.669,0-6.912-0.683-9.472-1.621
		c-4.779-1.792-7.595-4.693-7.595-6.912c0-0.597,0.256-1.28,0.683-2.048c1.365-2.048,1.792-4.523,1.109-6.912
		c-0.597-2.389-2.304-4.437-4.523-5.461c-2.219-1.109-3.669-1.963-4.608-2.645c2.048-1.451,6.485-3.84,15.957-6.827
		c0.683,5.632,4.779,9.728,8.704,12.459c-0.171,0.939-0.256,1.963-0.256,2.901c0,5.888,2.56,11.349,6.912,15.616
		C49.749,492.724,49.92,492.894,50.091,492.98z"/>
	<path style="fill:#388E3C;" d="M455.765,220.254l-90.197,129.109l65.707-130.645c0.171-0.512,0.341-0.939,0.512-1.365
		c5.717-18.773,0-38.315-12.971-51.285l20.224,9.387C455.851,183.305,463.275,203.273,455.765,220.254z"/>
</g>
<g>
	<path style="fill:#C1AD9D;" d="M446.891,56.67l-39.168,85.333l-7.851-3.669l36.181-77.312c2.304-4.949,4.864-6.741,5.547-6.827
		L446.891,56.67z"/>
	<path style="fill:#C1AD9D;" d="M370.688,21.086l-39.083,85.333l-9.045-4.267l36.181-77.312c2.304-4.949,4.864-6.741,5.547-6.827
		L370.688,21.086z"/>
</g>
<path d="M354.133,186.804c0,4.693-3.84,8.533-8.533,8.533c-9.984,0-12.032,4.181-12.715,26.453
	c-0.512,18.005-1.28,45.227-31.232,48.213h-1.707c-29.952-2.987-30.72-30.208-31.232-48.213
	c-0.683-22.272-2.731-26.453-12.715-26.453c-4.693,0-8.533-3.84-8.533-8.533s3.84-8.533,8.533-8.533
	c28.416,0,29.184,25.856,29.696,43.008c0.683,20.992,2.219,29.952,15.104,31.573c12.885-1.621,14.421-10.581,15.104-31.573
	c0.512-17.152,1.28-43.008,29.696-43.008C350.293,178.27,354.133,182.11,354.133,186.804z"/>
<g>
	<path style="fill:#8D6E63;" d="M451.499,68.276l-36.181,77.312l-7.595-3.584l39.168-85.333l6.315,2.901
		C453.547,60.169,453.803,63.326,451.499,68.276z"/>
	<path style="fill:#8D6E63;" d="M374.187,32.094l-36.181,77.312l-6.4-2.987l39.083-85.333l5.205,2.389
		C376.235,23.988,376.491,27.145,374.187,32.094z"/>
</g>
<g>
</g>
<g>
</g>
<g>
</g>
<g>
</g>
<g>
</g>
<g>
</g>
<g>
</g>
<g>
</g>
<g>
</g>
<g>
</g>
<g>
</g>
<g>
</g>
<g>
</g>
<g>
</g>
<g>
</g>
</svg>
