<?xml version="1.0" encoding="iso-8859-1"?>
<!-- Generator: Adobe Illustrator 19.0.0, SVG Export Plug-In . SVG Version: 6.00 Build 0)  -->
<svg version="1.1" id="Layer_1" xmlns="http://www.w3.org/2000/svg" xmlns:xlink="http://www.w3.org/1999/xlink" x="0px" y="0px"
	 viewBox="0 0 512 512" style="enable-background:new 0 0 512 512;" xml:space="preserve">
<path d="M384,168.192V51.2C384,22.955,361.045,0,332.8,0c-5.973,0-11.691,1.024-17.067,2.987
	c-8.277,2.816-15.616,7.851-21.248,14.336c-4.949,5.547-8.704,12.203-10.837,19.627c-1.365,4.523-2.048,9.301-2.048,14.251v46.677
	c-5.461-1.792-11.093-2.987-17.067-3.584c-2.816-0.256-5.632-0.427-8.533-0.427c-2.987,0-5.803,0.085-8.533,0.427
	c-3.157,0.171-6.229,0.597-9.131,1.28c-2.731,0.512-5.376,1.195-7.936,2.048V51.2c0-28.245-22.955-51.2-51.2-51.2
	c-5.973,0-11.691,1.024-17.067,2.987c-8.277,2.816-15.616,7.851-21.248,14.336c-4.949,5.547-8.704,12.203-10.837,19.627
	C128.683,41.472,128,46.251,128,51.2v116.992c-11.349,18.005-17.067,38.912-17.067,62.208c0,4.352,0.256,8.619,0.768,12.885
	c3.925,34.816,23.723,65.451,52.907,86.272c16.469,11.861,36.011,20.48,57.259,25.088v132.949c0,2.56,0.427,5.035,1.195,7.339
	c2.389,7.339,8.363,13.141,15.872,15.616c2.645,0.939,5.547,1.451,8.533,1.451h17.067c2.987,0,5.888-0.512,8.533-1.451
	c9.899-3.328,17.067-12.373,17.067-22.955V354.645c5.461-1.195,10.752-2.56,15.872-4.267c26.368-8.533,49.152-23.637,65.707-43.093
	c18.432-21.419,29.355-48.043,29.355-76.885C401.067,207.104,395.349,186.197,384,168.192z M273.067,487.595
	c0,4.011-3.925,7.339-8.533,7.339h-17.067c-4.608,0-8.533-3.328-8.533-7.339V357.461c5.632,0.597,11.264,0.939,17.067,0.939
	c2.901,0,5.717-0.085,8.533-0.256c2.816-0.171,5.717-0.341,8.533-0.683V487.595z M383.829,235.861c0,1.024-0.085,1.963-0.256,2.901
	c-0.085,1.28-0.171,2.475-0.341,3.669c-0.427,3.157-0.939,6.315-1.621,9.387c-0.427,1.792-0.853,3.499-1.365,5.205
	c-0.256,0.939-0.512,1.877-0.853,2.731c-0.341,1.195-0.768,2.389-1.195,3.584c-1.963,5.547-4.437,10.837-7.339,15.957
	c-0.683,1.28-1.451,2.56-2.219,3.755c-0.683,1.109-1.451,2.219-2.133,3.328c-0.853,1.28-1.792,2.56-2.731,3.84
	c-1.109,1.451-2.219,2.816-3.328,4.267c-1.024,1.28-2.133,2.56-3.157,3.755c-0.085,0.085-0.085,0.085-0.085,0.085
	c-5.888,6.485-12.459,12.373-19.883,17.664c-1.365,0.939-2.731,1.877-4.096,2.731c-4.181,2.816-8.533,5.376-13.056,7.595
	c-2.133,1.109-4.352,2.133-6.571,3.072c-0.085,0.085-0.256,0.085-0.341,0.171c-2.389,1.109-4.864,2.048-7.424,2.987
	c-1.792,0.683-3.669,1.365-5.547,1.877c-1.877,0.597-3.755,1.195-5.717,1.707c-0.171,0.085-0.341,0.171-0.512,0.171
	c-2.389,0.597-4.779,1.195-7.168,1.707c-4.779,1.024-9.728,1.792-14.763,2.389c-2.475,0.256-5.035,0.427-7.595,0.597
	c-1.195,0.085-2.304,0.171-3.499,0.171c-1.621,0.171-3.328,0.171-5.035,0.171c-5.973,0-11.776-0.341-17.493-1.109
	C176.128,332.885,128,286.464,128,230.4c0-20.821,5.291-39.339,15.616-55.04c0.939-1.365,1.451-2.987,1.451-4.693V51.2
	c0-1.365,0.085-2.731,0.256-4.096c0.939-8.363,5.035-15.787,11.008-21.163c1.707-1.621,3.669-3.072,5.803-4.267
	c5.035-2.901,10.837-4.608,17.067-4.608c1.451,0,2.816,0.085,4.181,0.256c16.896,2.048,29.952,16.469,29.952,33.877v59.733
	c0,0.171,0,0.256,0.085,0.427c0.085,2.901,1.707,5.547,4.267,6.997c2.645,1.536,5.888,1.451,8.533-0.085
	c3.84-2.304,7.851-4.011,12.203-5.205c5.205-1.451,10.923-2.133,17.579-2.133c2.901,0,5.717,0.171,8.448,0.512h0.085
	c5.973,0.768,11.605,2.304,17.067,4.779c1.451,0.683,2.987,1.451,4.437,2.219c2.645,1.451,5.888,1.365,8.448-0.171
	s4.181-4.352,4.181-7.339V51.2c0-1.365,0.085-2.731,0.256-4.096c0.939-8.363,5.035-15.787,11.008-21.163
	c1.707-1.621,3.669-3.072,5.803-4.267c5.035-2.901,10.837-4.608,17.067-4.608c1.451,0,2.816,0.085,4.181,0.256
	c16.896,2.048,29.952,16.469,29.952,33.877v119.467c0,1.707,0.512,3.328,1.451,4.693C378.709,191.061,384,209.579,384,230.4
	C384,232.277,383.915,234.069,383.829,235.861z"/>
<path style="fill:#8D6E63;" d="M273.067,357.461v130.133c0,4.011-3.925,7.339-8.533,7.339V358.144
	C267.349,357.973,270.251,357.803,273.067,357.461z"/>
<path style="fill:#C1AD9D;" d="M264.533,358.144v136.789h-17.067c-4.608,0-8.533-3.328-8.533-7.339V357.461
	c5.632,0.597,11.264,0.939,17.067,0.939C258.901,358.4,261.717,358.315,264.533,358.144z"/>
<g>
	<path style="fill:#AD1457;" d="M384,230.4c0,1.877-0.085,3.669-0.171,5.461c-0.085,1.024-0.085,1.963-0.256,2.901
		c-0.085,1.28-0.171,2.475-0.341,3.669c-0.427,3.157-0.939,6.315-1.621,9.387c-0.427,1.792-0.853,3.499-1.365,5.205
		c-0.256,0.939-0.512,1.877-0.853,2.731c-0.341,1.195-0.768,2.389-1.195,3.584c-1.963,5.547-4.437,10.837-7.339,15.957
		c-0.683,1.28-1.451,2.56-2.219,3.755c-0.683,1.109-1.451,2.219-2.133,3.328c-0.853,1.28-1.792,2.56-2.731,3.84
		c-1.109,1.451-2.219,2.816-3.328,4.267c-1.024,1.28-2.133,2.56-3.157,3.755c-0.085,0.085-0.085,0.085-0.085,0.085
		c-5.888,6.485-12.459,12.373-19.883,17.664c-1.365,0.939-2.731,1.877-4.096,2.731c-4.181,2.816-8.533,5.376-13.056,7.595
		c-2.133,1.109-4.352,2.133-6.571,3.072c4.096-2.901,7.936-6.059,11.605-9.387c1.707-1.536,3.328-3.072,4.949-4.693
		c5.461-5.291,10.325-11.008,14.592-17.067c1.451-1.963,2.731-3.925,4.011-5.973c2.475-3.925,4.693-7.936,6.656-12.032
		c0.939-1.963,1.877-3.925,2.645-5.888c0.853-1.963,1.621-3.925,2.304-5.973c0.683-1.877,1.365-3.84,1.877-5.803
		c0.085-0.171,0.085-0.341,0.171-0.427c0.597-1.963,1.109-3.925,1.451-5.888c0.085-0.171,0.171-0.341,0.171-0.427
		c0.512-1.963,0.853-4.011,1.195-6.059c0.427-2.133,0.768-4.267,0.939-6.485c0.256-1.792,0.427-3.669,0.512-5.461
		c0.171-2.475,0.256-4.949,0.256-7.424c0-23.296-5.717-44.203-17.067-62.208V51.2c0-1.963-0.085-3.84-0.341-5.717
		c-0.085-0.768-0.171-1.536-0.341-2.304c-0.085-0.939-0.256-1.877-0.512-2.816c-0.171-1.109-0.512-2.304-0.853-3.413
		c-0.512-1.792-1.109-3.584-1.792-5.205c-0.085-0.171-0.171-0.341-0.256-0.512c-0.597-1.451-1.195-2.816-2.048-4.181
		c-0.597-1.28-1.28-2.475-2.133-3.584c-0.512-0.939-1.109-1.792-1.792-2.645c-0.853-1.195-1.792-2.389-2.816-3.499
		c16.896,2.048,29.952,16.469,29.952,33.877v119.467c0,1.707,0.512,3.328,1.451,4.693C378.709,191.061,384,209.579,384,230.4z"/>
	<path style="fill:#AD1457;" d="M213.333,51.2v25.6c0-28.245-22.955-51.2-51.2-51.2c-1.963,0-3.925,0.085-5.803,0.341
		c1.707-1.621,3.669-3.072,5.803-4.267c5.035-2.901,10.837-4.608,17.067-4.608c1.451,0,2.816,0.085,4.181,0.256
		C200.277,19.371,213.333,33.792,213.333,51.2z"/>
	<path style="fill:#AD1457;" d="M347.819,36.949c-8.789-7.168-19.883-11.349-32.085-11.349c-1.963,0-3.925,0.085-5.803,0.341
		c1.707-1.621,3.669-3.072,5.803-4.267c5.035-2.901,10.837-4.608,17.067-4.608c1.451,0,2.816,0.085,4.181,0.256
		c1.024,1.109,1.963,2.304,2.816,3.499c0.683,0.853,1.28,1.707,1.792,2.645c0.853,1.109,1.536,2.304,2.133,3.584
		c0.768,1.365,1.451,2.731,2.048,4.181c0.085,0.171,0.171,0.341,0.256,0.512C346.709,33.451,347.307,35.157,347.819,36.949z"/>
</g>
<path style="fill:#D81B60;" d="M366.933,230.4c0,2.475-0.085,4.949-0.256,7.424c-0.085,1.792-0.256,3.669-0.512,5.461
	c-0.256,2.133-0.512,4.352-0.939,6.485c-0.341,1.963-0.768,4.011-1.195,6.059c0,0.085-0.085,0.256-0.171,0.427
	c-0.427,1.963-0.939,3.925-1.451,5.888c-0.085,0.085-0.085,0.256-0.171,0.427c-0.512,1.963-1.195,3.925-1.877,5.803
	c-0.683,2.048-1.451,4.011-2.304,5.973c-0.768,1.963-1.707,3.925-2.645,5.888c-1.963,4.096-4.181,8.107-6.656,12.032
	c-1.28,2.048-2.56,4.011-4.011,5.973c-4.267,6.059-9.131,11.776-14.592,17.067c-1.621,1.621-3.243,3.157-4.949,4.693
	c-3.669,3.328-7.509,6.485-11.605,9.387c-0.085,0.085-0.256,0.085-0.341,0.171c-2.389,1.109-4.864,2.048-7.424,2.987
	c-1.792,0.683-3.669,1.365-5.547,1.877c-1.877,0.597-3.755,1.195-5.717,1.707c-0.171,0.085-0.341,0.171-0.512,0.171
	c-2.389,0.597-4.779,1.195-7.168,1.707c-4.864,1.109-9.728,1.877-14.763,2.389c-2.475,0.256-5.035,0.427-7.595,0.597
	c-1.195,0.085-2.304,0.171-3.499,0.171c-1.621,0.171-3.328,0.171-5.035,0.171c-5.973,0-11.776-0.341-17.493-1.109
	C176.128,332.885,128,286.464,128,230.4c0-20.821,5.291-39.339,15.616-55.04c0.939-1.365,1.451-2.987,1.451-4.693V51.2
	c0-1.365,0.085-2.731,0.256-4.096c0.939-8.363,5.035-15.787,11.008-21.163c1.877-0.256,3.84-0.341,5.803-0.341
	c28.245,0,51.2,22.955,51.2,51.2v34.133c0,0.171,0,0.256,0.085,0.427c0.085,2.901,1.707,5.547,4.267,6.997
	c2.645,1.536,5.888,1.451,8.533-0.085c3.84-2.304,7.851-4.011,12.203-5.205c5.205-1.451,10.923-2.133,17.579-2.133
	c2.901,0,5.717,0.171,8.448,0.512h0.085c5.973,0.768,11.605,2.304,17.067,4.779c1.451,0.683,2.987,1.451,4.437,2.219
	c2.645,1.451,5.888,1.365,8.448-0.171s4.181-4.352,4.181-7.339V51.2c0-1.365,0.085-2.731,0.256-4.096
	c0.939-8.363,5.035-15.787,11.008-21.163c1.877-0.256,3.84-0.341,5.803-0.341c12.203,0,23.296,4.181,32.085,11.349
	c0.341,1.109,0.683,2.304,0.853,3.413c0.256,0.939,0.427,1.877,0.512,2.816c0.171,0.768,0.256,1.536,0.341,2.304
	c0.256,1.877,0.341,3.755,0.341,5.717v116.992C361.216,186.197,366.933,207.104,366.933,230.4z"/>
<g>
	<circle style="fill:#AD1457;" cx="290.133" cy="179.2" r="17.067"/>
	<path style="fill:#AD1457;" d="M204.8,200.533c-1.562,0-3.063-0.862-3.814-2.355c-1.05-2.108-0.196-4.668,1.911-5.726
		l26.496-13.252l-26.496-13.252c-2.108-1.058-2.961-3.618-1.911-5.726c1.067-2.116,3.618-2.944,5.726-1.911l26.496,13.252
		c2.91,1.451,4.719,4.378,4.719,7.637s-1.809,6.178-4.719,7.637l-26.496,13.252C206.089,200.388,205.44,200.533,204.8,200.533z"/>
	<path style="fill:#AD1457;" d="M256,243.2c-2.355,0-4.267-1.911-4.267-4.267v-25.6c0-2.355,1.911-4.267,4.267-4.267
		c2.355,0,4.267,1.911,4.267,4.267v25.6C260.267,241.289,258.355,243.2,256,243.2z"/>
	<path style="fill:#AD1457;" d="M284.655,272.486c-5.359,0-10.556-1.442-15.326-4.335c-11.426-6.929-17.596-20.224-17.596-29.218
		c0-2.355,1.911-4.267,4.267-4.267c2.355,0,4.267,1.911,4.267,4.267c0,6.758,5.043,16.802,13.483,21.914
		c6.997,4.241,14.703,4.215,22.938-0.094c2.099-1.092,4.659-0.282,5.76,1.809c1.092,2.091,0.282,4.668-1.809,5.76
		C295.322,271.095,289.92,272.486,284.655,272.486z"/>
	<path style="fill:#AD1457;" d="M227.345,272.486c-5.257,0-10.667-1.391-15.983-4.164c-2.091-1.092-2.901-3.669-1.809-5.76
		c1.101-2.091,3.678-2.893,5.76-1.809c8.226,4.301,15.949,4.335,22.938,0.094c8.439-5.111,13.483-15.155,13.483-21.914
		c0-2.355,1.911-4.267,4.267-4.267c2.355,0,4.267,1.911,4.267,4.267c0,8.994-6.17,22.289-17.604,29.21
		C237.901,271.036,232.704,272.486,227.345,272.486z"/>
</g>
<g>
</g>
<g>
</g>
<g>
</g>
<g>
</g>
<g>
</g>
<g>
</g>
<g>
</g>
<g>
</g>
<g>
</g>
<g>
</g>
<g>
</g>
<g>
</g>
<g>
</g>
<g>
</g>
<g>
</g>
</svg>
