<?xml version="1.0" encoding="iso-8859-1"?>
<!-- Generator: Adobe Illustrator 19.0.0, SVG Export Plug-In . SVG Version: 6.00 Build 0)  -->
<svg version="1.1" id="Layer_1" xmlns="http://www.w3.org/2000/svg" xmlns:xlink="http://www.w3.org/1999/xlink" x="0px" y="0px"
	 viewBox="0 0 512 512" style="enable-background:new 0 0 512 512;" xml:space="preserve">
<path d="M375.296,110.592C372.821,48.555,320.427,0,256,0c-7.253,0-14.421,0.597-21.333,1.877
	c-16.896,2.816-32.597,9.131-46.165,18.091c-30.123,19.712-50.261,52.395-51.712,89.856c-0.085,0.341-0.085,0.683-0.085,1.109
	c-0.171,1.365-0.171,2.816-0.171,4.267v243.2c0,2.987,0.512,5.888,1.536,8.533c3.584,9.899,13.312,17.067,24.747,17.067h59.051
	v102.4c0,2.901,0.512,5.717,1.451,8.363c1.963,5.888,6.059,10.752,11.349,13.824c3.755,2.133,8.192,3.413,12.8,3.413h17.067
	c14.08,0,25.6-11.52,25.6-25.6V384h59.051c14.507,0,26.283-11.52,26.283-25.6V115.2
	C375.467,113.408,375.467,111.531,375.296,110.592z M156.672,91.477c0.341-1.451,0.768-2.901,1.195-4.267
	c0.939-2.987,1.963-5.973,3.243-8.875c0.512-1.451,1.195-2.816,1.877-4.267c2.645-5.632,5.888-11.008,9.643-15.957
	c0.768-1.109,1.536-2.133,2.389-3.157c0.597-0.768,1.28-1.536,1.877-2.219c0.853-1.024,1.707-1.963,2.645-2.901
	c0.683-0.768,1.451-1.536,2.219-2.304c1.024-1.109,2.219-2.219,3.328-3.243s2.219-1.963,3.328-2.987
	c7.253-6.059,15.36-11.179,24.235-15.104c1.28-0.597,2.475-1.109,3.755-1.621c5.803-2.304,11.861-4.096,18.176-5.376
	c0.085,0,0.171,0,0.256-0.085c2.56-0.427,5.12-0.853,7.68-1.195c1.877-0.256,3.84-0.427,5.803-0.512
	c1.109-0.171,2.304-0.256,3.499-0.256c1.365-0.085,2.816-0.085,4.181-0.085c2.048,0,4.011,0.085,5.973,0.171
	c2.219,0.085,4.437,0.341,6.656,0.597c1.792,0.171,3.584,0.427,5.291,0.768c2.304,0.341,4.608,0.768,6.912,1.365
	c1.365,0.341,2.731,0.683,4.011,1.024c1.28,0.341,2.56,0.768,3.925,1.195c2.56,0.853,5.12,1.792,7.595,2.816
	c1.195,0.427,2.389,0.939,3.584,1.536c1.28,0.512,2.56,1.109,3.755,1.792c2.389,1.195,4.693,2.475,6.997,3.84
	c5.12,3.072,9.813,6.571,14.251,10.496c1.451,1.109,2.816,2.389,4.096,3.84c0.085,0,0.171,0,0.171,0.171
	c0.256,0.085,0.512,0.427,0.768,0.683c2.389,2.304,4.608,4.779,6.656,7.339c0.853,1.024,1.707,2.133,2.475,3.243
	c3.328,4.352,6.229,9.131,8.789,14.08c1.024,1.963,1.963,4.011,2.816,6.144c0.427,0.939,0.853,1.877,1.195,2.901
	c0.171,0.597,0.427,1.28,0.683,1.963c0.939,2.475,1.707,5.035,2.389,7.595c0.256,0.768,0.427,1.536,0.597,2.304
	c0.341,1.109,0.597,2.304,0.768,3.413c0.341,1.365,0.597,2.816,0.768,4.352c0.171,1.024,0.341,2.048,0.427,3.072
	c0.171,1.195,0.341,2.389,0.427,3.584c0.085,1.195,0.171,2.389,0.256,3.584H153.771C154.027,104.192,155.051,97.707,156.672,91.477z
	 M273.067,486.4c0,0.683-0.085,1.28-0.171,1.877c-0.341,1.365-0.939,2.56-1.792,3.669c-0.256,0.341-0.597,0.597-0.939,0.939
	s-0.768,0.597-1.195,0.853c-0.427,0.256-0.853,0.427-1.28,0.597c-1.024,0.427-2.048,0.597-3.157,0.597h-17.067
	c-0.512,0-1.024,0-1.451-0.171c-0.597,0-1.195-0.171-1.707-0.427c-0.427-0.171-0.853-0.341-1.28-0.597
	c-0.427-0.256-0.853-0.512-1.195-0.853c-0.341-0.341-0.683-0.597-0.939-0.939c-0.853-1.109-1.451-2.304-1.792-3.669
	c-0.085-0.597-0.171-1.195-0.171-1.877V384h34.133V486.4z M358.4,358.4c0,4.693-4.096,8.533-9.216,8.533H162.816
	c-5.12,0-9.216-3.84-9.216-8.533V256h204.8V358.4z M358.4,238.933H153.6V128h204.8V238.933z"/>
<path style="fill:#6D4C41;" d="M332.629,110.933v-0.341c-1.536-37.888-21.675-70.827-51.797-90.624
	c1.365,0.341,2.731,0.683,4.011,1.024c1.28,0.341,2.56,0.768,3.925,1.195c2.56,0.853,5.12,1.792,7.595,2.816
	c1.195,0.427,2.389,0.939,3.584,1.536c1.28,0.512,2.56,1.109,3.755,1.792c2.389,1.195,4.693,2.475,6.997,3.84
	c5.12,3.072,9.813,6.571,14.251,10.496c1.365,1.195,2.816,2.475,4.096,3.84c0.085,0,0.171,0,0.171,0.171
	c0.256,0.171,0.512,0.427,0.768,0.683c2.389,2.304,4.608,4.779,6.656,7.339c0.853,1.024,1.707,2.133,2.475,3.243
	c3.328,4.352,6.229,9.131,8.789,14.08c1.024,1.963,1.963,4.011,2.816,6.144c0.427,0.939,0.853,1.877,1.195,2.901
	c0.171,0.597,0.427,1.28,0.683,1.963c0.939,2.475,1.707,5.035,2.389,7.595c0.256,0.768,0.427,1.536,0.597,2.304
	c0.341,1.109,0.597,2.304,0.768,3.413c0.341,1.451,0.597,2.901,0.768,4.352c0.171,1.024,0.341,2.048,0.427,3.072
	c0.171,1.195,0.341,2.389,0.427,3.584c0.085,1.195,0.171,2.389,0.256,3.584H332.629z"/>
<path style="fill:#8D6E63;" d="M332.629,110.592v0.341H153.771c0.256-6.741,1.28-13.227,2.901-19.456
	c0.341-1.451,0.768-2.901,1.195-4.267c0.939-2.987,1.963-5.973,3.243-8.875c0.597-1.451,1.195-2.901,1.877-4.267
	c2.645-5.632,5.888-11.008,9.643-15.957c0.768-1.109,1.621-2.133,2.389-3.157c0.597-0.768,1.28-1.536,1.877-2.219
	c0.853-1.024,1.707-1.963,2.645-2.901c0.683-0.768,1.451-1.536,2.219-2.304c1.024-1.109,2.219-2.219,3.328-3.243
	s2.219-1.963,3.328-2.987c7.253-6.059,15.36-11.179,24.235-15.104c1.195-0.512,2.475-1.109,3.755-1.621
	c5.803-2.304,11.861-4.096,18.176-5.376c0.085,0,0.171,0,0.256-0.085c2.56-0.427,5.12-0.853,7.68-1.195
	c1.877-0.256,3.84-0.427,5.803-0.512c1.109-0.171,2.304-0.256,3.499-0.256c1.365-0.085,2.816-0.085,4.181-0.085
	c2.048,0,4.011,0.085,5.973,0.171c2.219,0.085,4.437,0.341,6.656,0.597c1.792,0.171,3.584,0.427,5.291,0.768
	c2.304,0.341,4.608,0.768,6.912,1.365C310.955,39.765,331.093,72.704,332.629,110.592z"/>
<rect x="332.8" y="128" style="fill:#BDBDBD;" width="25.6" height="110.933"/>
<rect x="153.6" y="128" style="fill:#F4F4F4;" width="179.2" height="110.933"/>
<path style="fill:#B71C1C;" d="M358.4,256v102.4c0,4.693-4.096,8.533-9.216,8.533h-17.92c1.024-2.645,1.536-5.547,1.536-8.533V256
	H358.4z"/>
<path style="fill:#D50000;" d="M332.8,256v102.4c0,2.987-0.512,5.888-1.536,8.533H162.816c-5.12,0-9.216-3.84-9.216-8.533V256H332.8
	z"/>
<path style="fill:#8D6E63;" d="M273.067,384v103.006c0,4.361-3.84,7.927-8.533,7.927V384H273.067z"/>
<path style="fill:#C1AD9D;" d="M264.533,384v110.933h-17.067c-4.693,0-8.533-3.567-8.533-7.927V384H264.533z"/>
<g>
</g>
<g>
</g>
<g>
</g>
<g>
</g>
<g>
</g>
<g>
</g>
<g>
</g>
<g>
</g>
<g>
</g>
<g>
</g>
<g>
</g>
<g>
</g>
<g>
</g>
<g>
</g>
<g>
</g>
</svg>
