<?xml version="1.0" encoding="iso-8859-1"?>
<!-- Generator: Adobe Illustrator 19.0.0, SVG Export Plug-In . SVG Version: 6.00 Build 0)  -->
<svg version="1.1" id="Layer_1" xmlns="http://www.w3.org/2000/svg" xmlns:xlink="http://www.w3.org/1999/xlink" x="0px" y="0px"
	 viewBox="0 0 512 512" style="enable-background:new 0 0 512 512;" xml:space="preserve">
<path style="fill:#8D6E63;" d="M263.851,17.408c-2.56,16.725-12.288,31.147-28.075,41.387
	c-18.176,11.691-42.155,15.957-60.416,11.52c-3.157,8.789-4.693,19.2-4.693,32.085v238.933c0,9.387,7.68,17.067,17.067,17.067
	h136.533c9.387,0,17.067-7.68,17.067-17.067V102.4C341.333,58.027,307.285,21.419,263.851,17.408z M267.008,53.675
	c3.328-3.328,8.789-3.328,12.117,0l8.533,8.533c3.328,3.328,3.328,8.789,0,12.117c-1.707,1.621-3.84,2.475-6.059,2.475
	c-2.219,0-4.352-0.853-6.059-2.475l-8.533-8.533C263.68,62.464,263.68,57.003,267.008,53.675z M290.133,136.533
	c0,4.693-3.84,8.533-8.533,8.533h-8.533c-4.693,0-8.533-3.84-8.533-8.533s3.84-8.533,8.533-8.533h8.533
	C286.293,128,290.133,131.84,290.133,136.533z M224.341,79.275c3.328-3.328,8.789-3.328,12.117,0l8.533,8.533
	c3.328,3.328,3.328,8.789,0,12.117c-1.707,1.621-3.84,2.475-6.059,2.475c-2.219,0-4.352-0.853-6.059-2.475l-8.533-8.533
	C221.013,88.064,221.013,82.603,224.341,79.275z M221.867,153.6c4.693,0,8.533,3.84,8.533,8.533v8.533
	c0,4.693-3.84,8.533-8.533,8.533c-4.693,0-8.533-3.84-8.533-8.533v-8.533C213.333,157.44,217.173,153.6,221.867,153.6z
	 M190.208,121.941l8.533-8.533c3.328-3.328,8.789-3.328,12.117,0s3.328,8.789,0,12.117l-8.533,8.533
	c-1.707,1.621-3.84,2.475-6.059,2.475s-4.352-0.853-6.059-2.475C186.88,130.731,186.88,125.269,190.208,121.941z M219.392,313.259
	l-8.533,8.533c-1.707,1.621-3.84,2.475-6.059,2.475c-2.219,0-4.352-0.853-6.059-2.475c-3.328-3.328-3.328-8.789,0-12.117
	l8.533-8.533c3.328-3.328,8.789-3.328,12.117,0S222.72,309.931,219.392,313.259z M237.653,281.6h-1.707
	c-29.952-2.987-30.72-30.208-31.232-48.213c-0.683-22.272-2.731-26.453-12.715-26.453c-4.693,0-8.533-3.84-8.533-8.533
	s3.84-8.533,8.533-8.533c28.416,0,29.184,25.856,29.696,43.008c0.683,20.992,2.219,29.952,15.104,31.573
	c12.885-1.621,14.421-10.581,15.104-31.573c0.512-17.152,1.28-43.008,29.696-43.008c4.693,0,8.533,3.84,8.533,8.533
	s-3.84,8.533-8.533,8.533c-9.984,0-12.032,4.181-12.715,26.453C268.373,251.392,267.605,278.613,237.653,281.6z M296.192,330.325
	c-1.707,1.621-3.84,2.475-6.059,2.475c-2.219,0-4.352-0.853-6.059-2.475l-8.533-8.533c-3.328-3.328-3.328-8.789,0-12.117
	c3.328-3.328,8.789-3.328,12.117,0l8.533,8.533C299.52,321.536,299.52,326.997,296.192,330.325z M321.792,244.992l-8.533,8.533
	c-1.707,1.621-3.84,2.475-6.059,2.475s-4.352-0.853-6.059-2.475c-3.328-3.328-3.328-8.789,0-12.117l8.533-8.533
	c3.328-3.328,8.789-3.328,12.117,0C325.12,236.203,325.12,241.664,321.792,244.992z M321.792,168.192l-8.533,8.533
	c-1.707,1.621-3.84,2.475-6.059,2.475s-4.352-0.853-6.059-2.475c-3.328-3.328-3.328-8.789,0-12.117l8.533-8.533
	c3.328-3.328,8.789-3.328,12.117,0C325.12,159.403,325.12,164.864,321.792,168.192z M321.792,99.925l-8.533,8.533
	c-1.707,1.621-3.84,2.475-6.059,2.475s-4.352-0.853-6.059-2.475c-3.328-3.328-3.328-8.789,0-12.117l8.533-8.533
	c3.328-3.328,8.789-3.328,12.117,0S325.12,96.597,321.792,99.925z"/>
<path style="fill:#BDBDBD;" d="M219.418,321.792l-8.533,8.533c-1.715,1.621-3.849,2.475-6.067,2.475s-4.352-0.853-6.059-2.475
	c-3.328-3.328-3.328-8.789,0-12.117l8.533-8.533c3.328-3.328,8.789-3.328,12.117,0C222.737,313.003,222.737,318.464,219.418,321.792
	z"/>
<path style="fill:#D81B60;" d="M238.933,170.667v8.533c0,4.693-3.84,8.533-8.533,8.533c-4.693,0-8.533-3.84-8.533-8.533v-8.533
	c0-4.693,3.84-8.533,8.533-8.533C235.093,162.133,238.933,165.973,238.933,170.667z"/>
<path style="fill:#BDBDBD;" d="M321.818,176.725l-8.533,8.533c-1.707,1.621-3.84,2.475-6.059,2.475s-4.352-0.853-6.059-2.475
	c-3.328-3.328-3.328-8.789,0-12.117l8.533-8.533c3.328-3.328,8.789-3.328,12.117,0C325.137,167.936,325.137,173.397,321.818,176.725
	z"/>
<path style="fill:#5E35B1;" d="M298.667,145.067c0,4.693-3.84,8.533-8.533,8.533H281.6c-4.693,0-8.533-3.84-8.533-8.533
	c0-4.693,3.84-8.533,8.533-8.533h8.533C294.827,136.533,298.667,140.373,298.667,145.067z"/>
<path style="fill:#388E3C;" d="M321.775,253.525l-8.533,8.533c-1.707,1.621-3.84,2.475-6.059,2.475s-4.352-0.853-6.059-2.475
	c-3.328-3.328-3.328-8.789,0-12.117l8.533-8.533c3.328-3.328,8.789-3.328,12.117,0C325.094,244.736,325.094,250.197,321.775,253.525
	z"/>
<path style="fill:#2979FF;" d="M296.218,338.876c-1.707,1.621-3.84,2.475-6.059,2.475c-2.219,0-4.352-0.853-6.059-2.475
	l-8.533-8.533c-3.328-3.328-3.328-8.789,0-12.117c3.328-3.328,8.789-3.328,12.117,0l8.533,8.533
	C299.537,330.095,299.537,335.556,296.218,338.876z"/>
<path style="fill:#827717;" d="M210.842,116.992l-8.533,8.533c-1.707,1.621-3.84,2.475-6.059,2.475
	c-2.219,0-4.352-0.853-6.059-2.475c-3.328-3.328-3.328-8.789,0-12.117l8.533-8.533c3.328-3.328,8.789-3.328,12.117,0
	C214.161,108.203,214.161,113.664,210.842,116.992z"/>
<path style="fill:#D81B60;" d="M296.218,74.325c-1.715,1.621-3.849,2.475-6.067,2.475s-4.352-0.853-6.059-2.475l-8.533-8.533
	c-3.328-3.328-3.328-8.789,0-12.117c3.328-3.328,8.789-3.328,12.117,0l8.533,8.533C299.537,65.536,299.537,70.997,296.218,74.325z"
	/>
<path style="fill:#2979FF;" d="M321.818,108.459l-8.533,8.533c-1.707,1.621-3.84,2.475-6.059,2.475s-4.352-0.853-6.059-2.475
	c-3.328-3.328-3.328-8.789,0-12.117l8.533-8.533c3.328-3.328,8.789-3.328,12.117,0C325.137,99.669,325.137,105.131,321.818,108.459z
	"/>
<path style="fill:#004D40;" d="M253.551,99.942c-1.707,1.621-3.84,2.475-6.059,2.475c-2.219,0-4.352-0.853-6.059-2.475l-8.533-8.533
	c-3.328-3.328-3.328-8.789,0-12.117s8.789-3.328,12.117,0l8.533,8.533C256.87,91.162,256.87,96.623,253.551,99.942z"/>
<path style="fill:#6D4C41;" d="M294.4,213.333c0,4.693-3.84,8.533-8.533,8.533c-9.984,0-12.032,4.181-12.715,26.453
	c-0.512,18.005-1.28,45.227-31.232,48.213h-1.707c-29.952-2.987-30.72-30.208-31.232-48.213
	c-0.683-22.272-2.731-26.453-12.715-26.453c-4.693,0-8.533-3.84-8.533-8.533s3.84-8.533,8.533-8.533
	c28.416,0,29.184,25.856,29.696,43.008c0.683,20.992,2.219,29.952,15.104,31.573c12.885-1.621,14.421-10.581,15.104-31.573
	c0.512-17.152,1.28-43.008,29.696-43.008C290.56,204.8,294.4,208.64,294.4,213.333z"/>
<path d="M256,0c-4.693,0-8.533,3.84-8.533,8.533c0,18.517-11.435,29.696-20.992,35.925c-15.957,10.24-38.912,13.568-52.309,7.509
	c-4.096-1.877-9.045-0.171-11.093,3.84c-6.485,12.715-9.472,27.477-9.472,46.592v238.933c0,18.859,15.275,34.133,34.133,34.133
	h34.133V486.4c0,14.08,11.52,25.6,25.6,25.6h17.067c14.08,0,25.6-11.52,25.6-25.6V375.467h34.133
	c18.859,0,34.133-15.275,34.133-34.133V102.4C358.4,45.909,312.491,0,256,0z M273.067,486.4c0,4.693-3.84,8.533-8.533,8.533h-17.067
	c-4.693,0-8.533-3.84-8.533-8.533V375.467h34.133V486.4z M341.333,341.333c0,9.387-7.68,17.067-17.067,17.067H187.733
	c-9.387,0-17.067-7.68-17.067-17.067V102.4c0-12.885,1.536-23.296,4.693-32.085c18.261,4.437,42.24,0.171,60.416-11.52
	c15.787-10.24,25.515-24.661,28.075-41.387c43.435,4.011,77.483,40.619,77.483,84.992V341.333z"/>
<path d="M321.792,99.925l-8.533,8.533c-1.707,1.621-3.84,2.475-6.059,2.475s-4.352-0.853-6.059-2.475
	c-3.328-3.328-3.328-8.789,0-12.117l8.533-8.533c3.328-3.328,8.789-3.328,12.117,0S325.12,96.597,321.792,99.925z"/>
<path d="M287.659,74.325c-1.707,1.621-3.84,2.475-6.059,2.475c-2.219,0-4.352-0.853-6.059-2.475l-8.533-8.533
	c-3.328-3.328-3.328-8.789,0-12.117c3.328-3.328,8.789-3.328,12.117,0l8.533,8.533C290.987,65.536,290.987,70.997,287.659,74.325z"
	/>
<path d="M244.992,99.925c-1.707,1.621-3.84,2.475-6.059,2.475c-2.219,0-4.352-0.853-6.059-2.475l-8.533-8.533
	c-3.328-3.328-3.328-8.789,0-12.117c3.328-3.328,8.789-3.328,12.117,0l8.533,8.533C248.32,91.136,248.32,96.597,244.992,99.925z"/>
<path d="M210.859,125.525l-8.533,8.533c-1.707,1.621-3.84,2.475-6.059,2.475s-4.352-0.853-6.059-2.475
	c-3.328-3.328-3.328-8.789,0-12.117l8.533-8.533c3.328-3.328,8.789-3.328,12.117,0S214.187,122.197,210.859,125.525z"/>
<path d="M230.4,162.133v8.533c0,4.693-3.84,8.533-8.533,8.533c-4.693,0-8.533-3.84-8.533-8.533v-8.533
	c0-4.693,3.84-8.533,8.533-8.533C226.56,153.6,230.4,157.44,230.4,162.133z"/>
<path d="M290.133,136.533c0,4.693-3.84,8.533-8.533,8.533h-8.533c-4.693,0-8.533-3.84-8.533-8.533s3.84-8.533,8.533-8.533h8.533
	C286.293,128,290.133,131.84,290.133,136.533z"/>
<path d="M321.792,168.192l-8.533,8.533c-1.707,1.621-3.84,2.475-6.059,2.475s-4.352-0.853-6.059-2.475
	c-3.328-3.328-3.328-8.789,0-12.117l8.533-8.533c3.328-3.328,8.789-3.328,12.117,0C325.12,159.403,325.12,164.864,321.792,168.192z"
	/>
<path d="M321.792,244.992l-8.533,8.533c-1.707,1.621-3.84,2.475-6.059,2.475s-4.352-0.853-6.059-2.475
	c-3.328-3.328-3.328-8.789,0-12.117l8.533-8.533c3.328-3.328,8.789-3.328,12.117,0C325.12,236.203,325.12,241.664,321.792,244.992z"
	/>
<path d="M296.192,330.325c-1.707,1.621-3.84,2.475-6.059,2.475c-2.219,0-4.352-0.853-6.059-2.475l-8.533-8.533
	c-3.328-3.328-3.328-8.789,0-12.117c3.328-3.328,8.789-3.328,12.117,0l8.533,8.533C299.52,321.536,299.52,326.997,296.192,330.325z"
	/>
<path d="M219.392,313.259l-8.533,8.533c-1.707,1.621-3.84,2.475-6.059,2.475c-2.219,0-4.352-0.853-6.059-2.475
	c-3.328-3.328-3.328-8.789,0-12.117l8.533-8.533c3.328-3.328,8.789-3.328,12.117,0S222.72,309.931,219.392,313.259z"/>
<path d="M290.133,198.4c0,4.693-3.84,8.533-8.533,8.533c-9.984,0-12.032,4.181-12.715,26.453
	c-0.512,18.005-1.28,45.227-31.232,48.213h-1.707c-29.952-2.987-30.72-30.208-31.232-48.213
	c-0.683-22.272-2.731-26.453-12.715-26.453c-4.693,0-8.533-3.84-8.533-8.533s3.84-8.533,8.533-8.533
	c28.416,0,29.184,25.856,29.696,43.008c0.683,20.992,2.219,29.952,15.104,31.573c12.885-1.621,14.421-10.581,15.104-31.573
	c0.512-17.152,1.28-43.008,29.696-43.008C286.293,189.867,290.133,193.707,290.133,198.4z"/>
<path style="fill:#8D6E63;" d="M273.067,375.467V486.4c0,4.693-3.84,8.533-8.533,8.533V375.467H273.067z"/>
<path style="fill:#C1AD9D;" d="M264.533,375.467v119.467h-17.067c-4.693,0-8.533-3.84-8.533-8.533V375.467H264.533z"/>
<g>
</g>
<g>
</g>
<g>
</g>
<g>
</g>
<g>
</g>
<g>
</g>
<g>
</g>
<g>
</g>
<g>
</g>
<g>
</g>
<g>
</g>
<g>
</g>
<g>
</g>
<g>
</g>
<g>
</g>
</svg>
