<?xml version="1.0" encoding="iso-8859-1"?>
<!-- Generator: Adobe Illustrator 19.0.0, SVG Export Plug-In . SVG Version: 6.00 Build 0)  -->
<svg version="1.1" id="Layer_1" xmlns="http://www.w3.org/2000/svg" xmlns:xlink="http://www.w3.org/1999/xlink" x="0px" y="0px"
	 viewBox="0 0 512 512" style="enable-background:new 0 0 512 512;" xml:space="preserve">
<path d="M317.484,209.654c-0.683-1.28-1.365-2.56-2.219-3.755c-1.28-1.877-2.56-3.669-3.84-5.376
	c-0.256-0.341-0.597-0.683-0.853-1.024c-0.512-0.597-0.939-1.195-1.365-1.707c-0.427-0.512-0.853-1.024-1.365-1.451
	c-0.085-0.171-0.256-0.341-0.427-0.512v-0.085c-1.451-1.536-2.816-2.987-4.352-4.352c-0.768-0.683-1.536-1.451-2.304-2.048
	c-0.256-0.256-0.512-0.427-0.768-0.683c-0.683-0.597-1.28-1.109-1.963-1.621c0.597-0.341,1.28-0.683,1.877-1.109
	c0.597-0.256,1.195-0.512,1.792-0.768c1.109-0.597,2.304-1.109,3.499-1.621c-0.683-0.256-1.28-0.427-1.963-0.597
	c-2.901-1.024-5.974-1.792-9.046-2.389c-1.365-0.256-2.816-0.512-4.267-0.683c-1.621-0.256-3.243-0.427-4.949-0.512
	s-3.413-0.171-5.12-0.171c-1.877,0-3.669,0.085-5.462,0.256h-0.427c-0.341,0-0.597,0.085-0.939,0.085
	c-1.792,0.171-3.584,0.427-5.206,0.683c0,0-0.085,0-0.171,0c-0.341,0.085-0.683,0.085-1.109,0.256
	c-1.707,0.256-3.413,0.597-5.035,1.024l-7.936-32.001c0-0.085,0.085-0.085,0.171-0.171c0.256-0.512,0.597-0.939,0.939-1.451v-0.085
	c0.597-0.939,1.195-1.877,1.877-2.816l-0.085-0.085c-1.792-1.963-3.669-3.84-5.718-5.632c-1.877-1.792-3.925-3.413-5.974-4.949
	l0.768-1.28l1.707-2.731l0.341-0.512l1.536-2.475c-0.341,0.256-0.597,0.597-0.853,0.853l-0.256-1.195l-1.963-7.766l-0.853-3.499
	l-0.341-1.195l-1.024-4.096l-1.28-5.206l-2.645,4.352l-0.939,1.536l-0.939,1.451c-0.768,0.427-1.536,0.768-2.304,1.195
	c0.341,0.256,0.768,0.597,1.109,0.939l-5.803,9.387l-0.939,1.621l3.84,15.446l2.816,11.35l4.608,18.774l4.011,16.214
	c-0.341,0.171-0.768,0.341-1.109,0.597c-3.243,1.707-6.4,3.584-9.302,5.718c-0.683,0.512-1.365,1.024-2.048,1.536
	c-2.048,1.536-3.925,3.157-5.718,4.949c-0.853,0.768-1.621,1.536-2.389,2.389c1.28,1.536,2.304,3.157,3.328,4.864
	c0.171,0.341,0.427,0.683,0.597,1.024c0.085,0.171,0.171,0.256,0.256,0.427c-0.085,0-0.256,0-0.341,0.085
	c-0.085,0-0.171,0.085-0.256,0.085c-1.024,0.427-1.963,0.853-2.901,1.365c-0.256,0.085-0.427,0.171-0.597,0.256
	c-1.28,0.512-2.475,1.195-3.669,1.877c0.683,0.512,1.28,1.024,1.963,1.621c0.939,0.768,1.877,1.621,2.816,2.475
	c0.085,0.085,0.171,0.171,0.256,0.256c1.536,1.365,2.901,2.816,4.352,4.352v0.085c0.085,0.171,0.256,0.256,0.341,0.427h0.085
	c0.768-1.195,1.621-2.389,2.56-3.499c0.597-0.768,1.195-1.451,1.792-2.133c0.085-0.085,0.171-0.171,0.256-0.256
	c0.597-0.683,1.28-1.451,1.963-1.877v-0.085c0.427-0.512,0.853-0.939,1.28-1.28c0.171-0.256,0.427-0.427,0.597-0.597
	c0.256-0.341,0.512-0.597,0.853-0.768c1.621-1.451,3.328-2.816,5.12-4.096c0.939-0.597,1.877-1.28,2.816-1.877
	c0.256-0.171,0.512-0.427,0.853-0.512c0.171-0.085,0.256-0.171,0.427-0.256c1.621-1.024,3.328-1.963,5.035-2.645
	c0.853-0.427,1.877-0.768,2.731-1.195c0-0.085,0.085-0.171,0.171-0.085c0.256-0.171,0.597-0.256,0.853-0.341
	c1.109-0.512,2.133-0.939,3.328-1.28c0.853-0.256,1.792-0.512,2.731-0.768c1.109-0.256,2.133-0.512,3.243-0.768
	c0.256-0.085,0.512-0.085,0.683-0.171c1.109-0.256,2.219-0.341,3.328-0.512c1.365-0.256,2.731-0.341,4.096-0.427
	s2.731-0.171,4.096-0.171c1.621,0,3.243,0.085,4.864,0.256c0.597,0,1.109,0.085,1.621,0.171h0.085c0.341,0,0.597,0,0.939,0.085
	c1.195,0.085,2.304,0.256,3.413,0.512c0.085,0,0.256,0,0.341,0.085c0.853,0.085,1.621,0.256,2.389,0.512
	c0.597,0.171,1.195,0.256,1.707,0.427c0.171,0.085,0.341,0.085,0.512,0.171c1.195,0.256,2.304,0.597,3.413,1.024
	c1.109,0.341,2.304,0.768,3.328,1.28c0.427,0.085,0.853,0.256,1.28,0.512c0.427,0.171,0.853,0.341,1.28,0.597
	c1.365,0.597,2.645,1.28,3.925,1.963c1.024,0.597,2.048,1.195,3.072,1.877c0.171,0.085,0.427,0.171,0.597,0.341
	c0.939,0.597,1.877,1.28,2.731,1.963c0.597,0.427,1.195,0.853,1.792,1.365l0.427,0.427
	C317.569,209.739,317.484,209.739,317.484,209.654z M234.964,193.781c-0.683,0.512-1.365,1.024-2.048,1.536
	c-2.048,1.536-3.925,3.157-5.718,4.949c-0.853,0.768-1.621,1.536-2.389,2.389c-0.256,0.171-0.427,0.427-0.597,0.597l-2.816,3.072
	c-0.085,0.171-0.256,0.341-0.341,0.427c-0.085,0.085-0.256,0.256-0.341,0.427c-0.256,0.256-0.512,0.512-0.768,0.853
	c-0.341,0.427-0.683,0.853-1.024,1.365c-0.768,1.024-1.536,2.048-2.219,3.072c0.683-0.427,1.28-0.768,1.963-1.109
	c1.024-0.512,2.133-1.024,3.243-1.451c1.621-0.768,3.328-1.451,5.12-1.963c0.341-0.256,0.683-0.341,1.109-0.427
	c2.304-0.768,4.779-1.365,7.254-1.707c0.768-0.171,1.621-0.341,2.389-0.427L234.964,193.781z M193.063,210.251
	c-0.683,1.877-1.28,3.755-1.792,5.718c-0.085,0.256-0.171,0.512-0.171,0.768c-0.427,1.707-0.768,3.413-0.939,5.12
	c-0.512,2.816-0.683,5.632-0.683,8.534c0,0.683,0,1.536,0.085,2.475c0.597-0.427,1.195-0.853,1.792-1.195
	c0.597-0.427,1.28-0.768,1.963-1.195c0.085,0,0.085-0.085,0.171-0.085c1.195-0.768,2.645-1.451,4.011-2.133l0.768,0.171l1.109,0.171
	c0.341-0.427,0.683-0.853,1.109-1.28c0.939-1.024,2.048-2.133,3.157-3.157l-1.536-0.256c0.768-0.853,1.451-1.536,2.219-2.219
	c0.512-0.597,1.024-1.109,1.536-1.536c0.085-0.085,0.256-0.256,0.341-0.256c1.109-1.024,2.219-1.963,3.413-2.731
	c0.597-0.512,1.109-0.939,1.707-1.365c0.939-0.597,1.877-1.28,2.816-1.877c0.085-0.085,0.085-0.085,0.171-0.085L193.063,210.251z
	 M335.746,284.067c-0.085-0.597-0.171-1.195-0.256-1.792c0-0.256-0.085-0.512-0.085-0.768c-0.085-0.683-0.171-1.28-0.256-1.877
	c0-0.085,0-0.171-0.085-0.256c-0.085,0.171-0.085,0.256-0.085,0.256c-2.901,0.341-5.803,0.597-8.875,0.853
	c-4.352,0.341-8.875,0.597-13.483,0.768h-0.341c-1.28,0.085-2.645,0.171-3.925,0.171c-1.621,0.085-3.243,0.085-4.949,0.085h-0.768
	c-1.877,0.085-3.755,0.085-5.718,0.085c-1.792,0-3.584,0-5.291-0.085c-0.768,0.341-1.536,0.683-2.304,1.024
	c-2.219,1.024-4.693,1.963-7.339,2.816c-0.512,0.256-1.109,0.427-1.707,0.597c-0.171,0.085-0.427,0.171-0.597,0.256
	c-1.109,0.427-2.219,0.768-3.413,1.109c-2.987,1.024-6.144,1.963-9.558,2.816h-3.925c-1.451,0-2.816,0-4.181-0.085
	c-3.328,0-6.571-0.085-9.728-0.171h-0.085c-1.109-0.085-2.133-0.085-3.157-0.171c-5.035-0.171-9.814-0.512-14.422-0.939
	c-3.925-0.341-7.766-0.768-11.52-1.28c-1.024-0.085-2.048-0.256-3.072-0.341c-5.888-0.768-11.52-1.707-16.811-2.731
	c1.365,0.427,2.816,0.939,4.181,1.365c4.011,1.365,8.278,2.56,12.63,3.669c1.707,0.427,3.413,0.853,5.12,1.28
	c2.731,0.597,5.462,1.195,8.363,1.792c0.085,0,0.085,0,0.085,0c8.534,1.707,17.494,3.072,26.796,4.011
	c5.632,0.683,11.435,1.109,17.323,1.451c6.827,0.427,13.824,0.683,20.822,0.683h1.792c1.707,0,3.413,0,5.12-0.085
	c3.669,0,7.254-0.085,10.838-0.256c2.816-0.085,5.547-0.256,8.278-0.427c4.864-0.341,9.643-0.683,14.336-1.195
	c0.341-2.389,0.597-4.693,0.597-6.571C336.087,288.078,336.002,286.03,335.746,284.067z M256.468,144.883
	c-0.597,0.939-1.195,1.877-1.792,2.901c0.597-0.939,1.195-1.877,1.877-2.816L256.468,144.883z M335.746,284.067
	c-0.085-0.597-0.171-1.195-0.256-1.792c0-0.256-0.085-0.512-0.085-0.768c-0.085-0.683-0.171-1.28-0.256-1.877
	c0-0.085,0-0.171-0.085-0.256c-0.085,0.171-0.085,0.256-0.085,0.256c-2.901,0.341-5.803,0.597-8.875,0.853
	c-4.352,0.341-8.875,0.597-13.483,0.768h-0.341c-1.28,0.085-2.645,0.171-3.925,0.171c-1.621,0.085-3.243,0.085-4.949,0.085h-0.768
	c-1.877,0.085-3.755,0.085-5.718,0.085c-1.792,0-3.584,0-5.291-0.085c-0.768,0.341-1.536,0.683-2.304,1.024
	c-2.219,1.024-4.693,1.963-7.339,2.816c-0.512,0.256-1.109,0.427-1.707,0.597c-0.171,0.085-0.427,0.171-0.597,0.256
	c-1.109,0.427-2.219,0.768-3.413,1.109c-0.256,2.56-0.683,5.12-1.28,7.595c-0.085,0.683-0.256,1.28-0.427,1.877
	c-0.085,0.341-0.085,0.768-0.256,1.195c6.827,0.427,13.824,0.683,20.822,0.683h1.792c1.707,0,3.413,0,5.12-0.085
	c3.669,0,7.254-0.085,10.838-0.256c2.816-0.085,5.547-0.256,8.278-0.427c4.864-0.341,9.643-0.683,14.336-1.195
	c0.341-2.389,0.597-4.693,0.597-6.571C336.087,288.078,336.002,286.03,335.746,284.067z M276.864,280.995
	c0,0.256,0,0.597-0.085,0.853c-0.085,1.792-0.256,3.669-0.512,5.462c1.195-0.341,2.304-0.683,3.413-1.109
	c0.171-0.085,0.427-0.171,0.597-0.256c0.597-0.171,1.195-0.341,1.707-0.597c2.645-0.853,5.12-1.792,7.339-2.816
	c0.768-0.341,1.536-0.683,2.304-1.024C286.592,281.421,281.642,281.251,276.864,280.995z M262.442,196.256
	c-3.84-0.597-7.595-1.195-11.179-1.963c0.085-0.939,0.171-1.877,0.171-2.731c0-2.048-0.085-4.096-0.341-6.059
	c-0.171-1.536-0.341-2.987-0.597-4.437c0-0.085,0-0.171-0.085-0.256c0-0.085,0-0.085,0-0.171c-0.085-0.853-0.341-1.792-0.597-2.645
	c0-0.512-0.171-1.024-0.341-1.451c-0.256-1.195-0.597-2.389-1.024-3.584c-1.877-5.632-4.523-11.008-7.936-15.787l-0.085-0.085
	c-1.109-1.621-2.389-3.157-3.669-4.608l4.608,18.774l4.011,16.214c-0.341,0.171-0.768,0.341-1.109,0.597
	c-3.243,1.707-6.4,3.584-9.302,5.718c-0.683,0.512-1.365,1.024-2.048,1.536c-2.048,1.536-3.925,3.157-5.718,4.949
	c-0.853,0.768-1.621,1.536-2.389,2.389c-0.256,0.171-0.427,0.427-0.597,0.597l-2.816,3.072c-0.085,0.171-0.256,0.341-0.341,0.427
	c-0.085,0.085-0.256,0.256-0.341,0.427c-0.256,0.256-0.512,0.512-0.768,0.853c-0.341,0.427-0.683,0.853-1.024,1.365
	c-0.768,1.024-1.536,2.048-2.219,3.072c-0.427,0.512-0.768,1.024-1.109,1.536l-1.28-0.171c-0.085,0-0.085,0-0.171,0.085
	c-0.939,0.597-1.877,1.28-2.816,1.877c-0.597,0.427-1.109,0.853-1.707,1.365c-1.195,0.768-2.304,1.707-3.413,2.731
	c-0.085,0-0.256,0.171-0.341,0.256c-0.512,0.427-1.024,0.939-1.536,1.536c-0.768,0.683-1.451,1.365-2.219,2.219
	c-0.171,0.171-0.427,0.341-0.597,0.597c-1.195,1.28-2.304,2.56-3.243,3.925l1.109,0.171l8.278,1.365
	c-0.512,1.365-0.939,2.816-1.365,4.267h2.475c3.243,0,6.486,0,9.643-0.171c2.048,0,4.011-0.085,6.059-0.171
	c0-0.085,0-0.256,0.085-0.341c0.597-1.536,1.28-2.987,2.048-4.437c0.085-0.256,0.171-0.512,0.341-0.768
	c0.427-0.512,0.683-1.109,0.939-1.621c0.939-1.621,1.963-3.243,3.072-4.779v-0.085h0.085c0.768-1.195,1.621-2.389,2.56-3.499
	c0.597-0.768,1.195-1.451,1.792-2.133c0.085-0.085,0.171-0.171,0.256-0.256c0.597-0.683,1.28-1.451,1.963-1.877v-0.085
	c0.427-0.512,0.853-0.939,1.28-1.28c0.171-0.256,0.427-0.427,0.597-0.597c0.256-0.341,0.512-0.597,0.853-0.768
	c1.621-1.451,3.328-2.816,5.12-4.096c0.939-0.597,1.877-1.28,2.816-1.877c0.256-0.171,0.512-0.427,0.853-0.512
	c0.171-0.085,0.256-0.171,0.427-0.256c1.621-1.024,3.328-1.963,5.035-2.645c0.853-0.427,1.877-0.768,2.731-1.195
	c0-0.085,0.085-0.171,0.171-0.085c0.256-0.171,0.597-0.256,0.853-0.341c1.109-0.512,2.133-0.939,3.328-1.28
	c0.853-0.256,1.792-0.512,2.731-0.768c1.109-0.256,2.133-0.512,3.243-0.768c0.256-0.085,0.512-0.085,0.683-0.171v-0.256
	C266.282,196.853,264.319,196.597,262.442,196.256z M299.99,188.661c-0.683-0.597-1.28-1.109-1.963-1.621
	c0.597-0.341,1.28-0.683,1.877-1.109l-0.171-0.683c1.109-0.853,2.304-1.621,3.499-2.304c-2.901-1.024-5.974-1.792-9.046-2.389
	c-1.365-0.256-2.816-0.512-4.267-0.683c-1.621-0.256-3.243-0.427-4.949-0.512s-3.413-0.171-5.12-0.171
	c-1.877,0-3.669,0.085-5.462,0.256h-0.427l1.195,4.608l0.853,3.413c-0.171,0.085-0.427,0.171-0.597,0.341
	c-4.608,2.304-8.96,5.206-12.971,8.448c-1.024,0.768-2.048,1.621-2.987,2.475c-0.256,0.256-0.512,0.427-0.768,0.683
	c-0.427,0.341-0.853,0.768-1.195,1.28c0.256-0.171,0.597-0.256,0.853-0.341c1.109-0.512,2.133-0.939,3.328-1.28
	c0.853-0.256,1.792-0.512,2.731-0.768c1.109-0.256,2.133-0.512,3.243-0.768c0.256-0.085,0.512-0.085,0.683-0.171
	c1.109-0.256,2.219-0.341,3.328-0.512c1.365-0.256,2.731-0.341,4.096-0.427c1.365-0.085,2.731-0.171,4.096-0.171
	c1.621,0,3.243,0.085,4.864,0.256c0.597,0,1.109,0.085,1.621,0.171h0.085c0.341,0,0.597,0,0.939,0.085
	c1.195,0.085,2.304,0.256,3.413,0.512c0.085,0,0.256,0,0.341,0.085c0.853,0.085,1.621,0.256,2.389,0.512
	c0.597,0.171,1.195,0.256,1.707,0.427c2.389-0.683,4.864-1.109,7.339-1.451l-1.792-7.51
	C300.502,189.088,300.246,188.917,299.99,188.661z M256.468,144.883c-0.597,0.939-1.195,1.877-1.792,2.901
	c0.597-0.939,1.195-1.877,1.877-2.816L256.468,144.883z M256.468,144.883c-0.597,0.939-1.195,1.877-1.792,2.901
	c0.597-0.939,1.195-1.877,1.877-2.816L256.468,144.883z M352.386,114.418l5.376-8.875l0.512-0.768l2.048-3.328l0.939-1.621
	l0.085-0.085l4.181-6.827l6.059,3.755l1.707,1.024l2.645,1.621l6.998,4.352l4.864,2.987l5.888,3.584l4.352,2.645l5.974,3.669
	l1.877,1.195l17.75,10.838c0.683,0.427,1.451,0.683,2.219,0.853c0.597,0.171,1.28,0.256,1.963,0.256
	c0.853,0,1.707-0.085,2.475-0.256c2.219-0.597,4.267-2.219,5.462-4.181c1.195-2.048,1.536-4.608,0.768-6.912l-0.256-0.768
	l-7.68-24.662L410.671,34.97l-3.328-10.752l4.096-6.827l2.731-4.437c2.475-4.011,1.195-9.302-2.816-11.691
	c-4.096-2.475-9.302-1.195-11.776,2.816l-6.827,11.264l-11.435,1.963l-2.389,0.427l-1.28,0.256l-17.323,3.157l-3.925,0.683
	l-17.067,2.987l-16.982,2.987l-10.496,1.877l-3.84,0.683l-12.288,2.219c-1.877,0.341-3.584,1.365-4.779,2.731
	c-0.256,0.256-0.427,0.427-0.512,0.683c-0.085,0.085-0.171,0.171-0.256,0.341c-0.683,0.853-1.109,1.963-1.365,3.072
	c-0.683,3.499,0.939,6.998,3.925,8.875l5.12,3.157l0.683,0.427l7.68,4.693l9.643,5.974l21.931,13.398l13.142,8.107l-4.096,6.742
	l-0.085,0.171l-0.939,1.536l-2.048,3.413l-4.011,6.571l-1.877,2.987l-0.939,1.536l-1.024,1.707
	c-2.389-1.024-4.864-1.963-7.339-2.645c-0.597-0.256-1.28-0.427-1.877-0.597c-0.341-0.171-0.683-0.256-1.024-0.341
	c-0.512-0.171-1.109-0.256-1.621-0.427c-1.024-0.256-2.048-0.512-3.157-0.683c-3.243-0.768-6.656-1.195-10.155-1.451
	c-1.109-0.085-2.219-0.171-3.413-0.171h-1.877c-0.939,0-1.963,0-2.901,0.085c-3.157,0.085-6.315,0.427-9.387,0.939
	c-2.901,0.512-5.718,1.109-8.534,1.963c-3.584,1.024-7.083,2.304-10.411,3.84c-1.195,0.512-2.389,1.109-3.584,1.707
	c0,0.085-0.085,0.085-0.085,0.085s0,0-0.085,0c-0.171,0.085-0.427,0.171-0.597,0.341c-1.451,0.768-2.816,1.536-4.181,2.389
	c-1.792,1.024-3.499,2.219-5.206,3.413c-0.512,0.341-1.024,0.768-1.536,1.195c-3.072,2.304-5.974,4.949-8.704,7.851
	c-0.427,0.341-0.768,0.768-1.109,1.109c-0.341,0.256-0.597,0.597-0.853,0.853l-0.256-1.195l-1.963-7.766l-0.853-3.499l-0.341-1.195
	l-1.024-4.096l-1.28-5.206l-0.683-2.901l-0.939-3.669l-2.133-8.704l-1.963-7.936c-0.683-2.731-1.621-5.291-2.901-7.766
	c-0.683-1.28-1.365-2.56-2.133-3.755c-0.341-0.427-0.683-0.939-1.024-1.365c-2.219-2.987-4.864-5.718-8.022-8.022
	c-2.987-2.304-6.4-4.267-10.155-5.803c-1.877-0.768-3.755-1.536-5.718-2.048c-0.341-0.171-0.768-0.256-1.195-0.341
	c-2.304-0.683-4.693-1.109-7.083-1.451c-2.389-0.256-4.779-0.427-7.168-0.427h-0.085c-1.707,0-3.328,0.085-5.035,0.256
	c-6.827,0.597-13.312,2.56-19.115,5.632c-1.536,0.768-2.987,1.707-4.437,2.645c-0.171,0.085-0.256,0.171-0.341,0.256
	c-0.171,0.085-0.341,0.256-0.512,0.341c-0.768,0.512-1.536,1.024-2.219,1.707c-1.536,1.109-2.987,2.475-4.352,3.925
	c-2.816,2.987-5.547,6.742-7.766,11.35c-0.171,0.341-0.341,0.683-0.427,1.024c-0.256,0.512-0.427,1.024-0.683,1.536
	c-3.584,8.363-5.462,19.371-3.499,33.793c0.256,1.877,0.512,3.84,0.939,5.888c0.085,0.256,0.085,0.512,0.171,0.768
	c-0.683-0.171-1.365-0.256-2.048-0.341c-0.427-0.171-0.853-0.171-1.195-0.256c-1.707-0.341-3.413-0.597-5.035-0.853
	c-0.512-0.085-0.939-0.085-1.451-0.171c-3.072-0.256-5.974-0.341-8.704-0.256c-1.195-0.085-2.304,0-3.413,0.085
	c-1.365,0.085-2.731,0.171-4.011,0.256c-3.499,0.341-6.656,1.024-9.558,1.792c-1.195,0.341-2.304,0.683-3.413,1.109
	c-4.096,1.536-7.424,3.328-10.326,5.291h-0.085c-0.085,0.085-0.085,0.171-0.171,0.171c-1.707,1.109-3.157,2.304-4.523,3.499
	c-3.584,3.243-6.571,7.083-8.96,11.35c-0.512,0.853-1.024,1.792-1.451,2.731c-0.085,0.256-0.256,0.512-0.341,0.853
	c-1.792,4.011-3.072,8.278-3.669,12.8c-0.768,4.352-0.853,8.875-0.341,13.483c0.171,2.219,0.512,4.352,0.939,6.571
	c0,0.085,0,0.085,0.085,0.171c0.597,2.987,1.536,5.974,2.645,8.704c2.389,5.888,5.632,11.094,9.643,15.275
	c1.877,1.877,3.84,3.584,5.974,5.035c0.341,0.256,0.683,0.597,1.109,0.768c0.341,0.341,0.768,0.512,1.109,0.768
	c2.645,1.621,5.462,2.901,8.448,3.84c0.341,0.171,0.768,0.256,1.109,0.256l16.47,2.731l17.835,2.987l6.315,1.024l16.214,2.731
	l9.472,1.621h0.256c-0.085,0.085-0.171,0.171-0.256,0.256c-2.56,2.389-4.779,4.864-6.571,7.424c-1.28,1.707-2.304,3.413-3.157,5.12
	c-0.085,0.085-0.085,0.256-0.171,0.341c-0.341,0.768-0.683,1.536-1.024,2.389c-0.939,2.56-1.451,5.206-1.451,7.766
	c0,1.707,0.085,3.328,0.171,5.035c0.085,1.451,0.171,2.901,0.341,4.352c0.341,3.243,0.853,6.4,1.536,9.472
	c0.256,1.195,0.512,2.389,0.853,3.499c0.256,1.195,0.597,2.389,0.939,3.499c0.085,0.256,0.085,0.427,0.171,0.683
	c0.171,0.512,0.341,1.109,0.512,1.621c1.536,4.779,3.413,9.387,5.718,13.824c1.024,2.133,2.219,4.181,3.413,6.23
	c0.256,0.427,0.512,0.853,0.768,1.28c0.256,0.427,0.597,0.853,0.939,1.365c0.085,0.256,0.341,0.597,0.597,0.939
	c3.755,5.803,8.192,11.35,13.227,16.47c0.085,0.085,0.171,0.171,0.256,0.256c7.339,7.595,15.787,14.336,25.26,20.139
	c4.352,2.645,8.875,5.12,13.654,7.339c0,0.597,0,1.195,0.085,1.707c0,0.256,0,0.597,0.085,0.853v0.683
	c0.085,2.219,0.341,4.438,0.683,6.571c0.341,2.901,0.939,5.717,1.621,8.448c0.171,0.768,0.427,1.536,0.597,2.219
	c0.085,0.256,0.085,0.427,0.171,0.683c0.512,1.792,1.024,3.499,1.621,5.206c0.256,0.597,0.427,1.28,0.768,1.877
	c1.109,3.072,2.56,6.059,4.096,8.875c0.171,0.427,0.427,0.939,0.683,1.365c0.085,0.171,0.171,0.256,0.256,0.427
	c1.28,2.389,2.731,4.693,4.267,6.827c1.877,2.731,3.925,5.206,6.315,7.595c3.669,4.181,8.022,7.766,12.715,10.752
	c0.085,0.085,0.171,0.085,0.256,0.171c0.512,0.256,0.939,0.597,1.28,0.853c0.256,0.171,0.597,0.427,0.939,0.597
	c0.171,0.085,0.427,0.256,0.597,0.341c1.792,1.195,3.669,2.133,5.547,2.987v33.025c-1.195,0.171-2.304,0.341-3.499,0.512
	c-0.256,0.085-0.597,0.085-0.853,0.171c-2.645,0.427-5.12,1.024-7.68,1.621c-1.707,0.341-3.413,0.768-5.035,1.195
	c-1.195,0.341-2.389,0.683-3.499,1.024c-4.523,1.365-8.875,3.072-12.63,4.949c-5.12,2.56-9.387,5.632-12.544,9.216
	c-2.645,2.987-4.437,6.315-5.12,10.07c-0.085,0.341-0.171,0.768-0.171,1.109c-0.171,0.768-0.171,1.621-0.171,2.475v0.512
	c0,0.683,0.085,1.451,0.171,2.133c0.683,4.95,3.328,9.216,7.339,12.971c3.157,2.987,7.168,5.547,11.776,7.68
	c0.597,0.341,1.195,0.683,1.792,0.939c0.256,0.171,0.512,0.256,0.853,0.341c0.085,0.085,0.171,0.171,0.256,0.171
	c0.768,0.341,1.451,0.597,2.219,0.853c5.376,2.048,11.35,3.84,17.665,5.035c9.302,2.048,19.371,3.157,29.526,3.413
	c0.853,0,1.792,0.085,2.731,0c0.853,0.085,1.621,0.085,2.475,0.085c5.206,0,10.411-0.256,15.446-0.683
	c0.427,0,0.853-0.085,1.28-0.085c1.451-0.171,2.987-0.256,4.437-0.512c9.728-1.109,18.945-3.072,27.052-5.803
	c6.912-2.304,12.971-5.206,17.665-8.619c3.072-2.304,5.632-4.779,7.424-7.51c2.304-3.328,3.499-6.912,3.499-10.923
	c0-4.011-1.195-7.595-3.328-10.838c-5.888-9.131-19.115-15.275-34.305-18.859c-3.413-0.853-6.998-1.536-10.582-2.133
	c-1.024-0.256-1.963-0.341-2.987-0.512v-33.025c6.144-2.816,11.776-6.571,16.897-11.094c1.024-0.939,2.048-1.877,2.987-2.901
	c10.496-10.667,18.091-24.918,21.163-41.047c0.171-1.024,0.341-2.133,0.512-3.243c0.597-3.499,0.853-7.083,1.024-10.752
	c10.411-4.95,19.969-10.923,28.332-17.75c0.085-0.085,0.085-0.085,0.085-0.085c4.011-3.243,7.68-6.656,11.094-10.24l0.085-0.085
	c9.046-9.387,16.214-19.969,21.078-31.404c1.451-3.328,2.731-6.742,3.755-10.155c1.109-3.669,2.048-7.424,2.56-11.264h0.085
	c0.853-4.95,1.28-9.899,1.28-15.019c0-21.846-9.216-41.559-23.894-55.383c0,0-0.085,0-0.085-0.085
	c-7.766-7.51-17.067-13.227-27.393-16.897c-0.085-1.365-0.171-2.731-0.427-4.096c-1.28-12.544-5.632-24.15-12.288-34.134
	c-2.219-3.413-4.779-6.571-7.51-9.558c-3.328-3.669-7.083-7.083-11.179-10.07l0.768-1.28L352.386,114.418z M295.723,198.475
	c1.195,0.256,2.304,0.597,3.413,1.024c1.109,0.341,2.304,0.768,3.328,1.28c0.427,0.085,0.853,0.256,1.28,0.512
	c0.427,0.171,0.853,0.341,1.28,0.597c1.365,0.597,2.645,1.28,3.925,1.963c1.024,0.597,2.048,1.195,3.072,1.877
	c0.171,0.085,0.427,0.171,0.597,0.341c0.939,0.597,1.877,1.28,2.731,1.963c0.597,0.427,1.195,0.853,1.792,1.365l0.427,0.427
	c0.171,0.085,0.341,0.256,0.512,0.341c0.597,0.512,1.28,1.024,1.877,1.707c0.171,0.085,0.256,0.256,0.427,0.427
	c0.341,0.256,0.683,0.512,1.024,0.853l1.024,1.024c1.792,1.792,3.499,3.755,4.949,5.803c1.536,1.963,2.816,3.925,4.011,6.059
	c0.512,0.939,1.024,1.792,1.536,2.731c0,0.085,0.085,0.085,0.085,0.171c0.853,1.451,1.536,2.987,2.133,4.523
	c0.427,1.024,0.853,2.133,1.195,3.243c0.171,0.171,0.171,0.427,0.256,0.683c0.427,1.195,0.768,2.389,1.024,3.584v0.085
	c0.171,0.341,0.256,0.683,0.341,1.109c0,0.085,0.085,0.171,0,0.256c0.256,0.939,0.512,1.877,0.597,2.816
	c0.085,0.085,0.085,0.085,0.085,0.171v0.085c0.256,1.451,0.512,2.901,0.597,4.438c0.256,1.963,0.341,4.011,0.341,6.059
	c0,7.254-3.925,21.334-4.523,23.382c-0.085,0.171-0.085,0.256-0.085,0.256c-2.901,0.341-5.803,0.597-8.875,0.853
	c-4.352,0.341-8.875,0.597-13.483,0.768h-0.341c-1.28,0.085-2.645,0.171-3.925,0.171c-1.621,0.085-3.243,0.085-4.949,0.085h-0.768
	c-1.877,0.085-3.755,0.085-5.718,0.085c-1.792,0-3.584,0-5.291-0.085c-5.035-0.085-9.984-0.256-14.763-0.512
	c-9.302-0.427-18.091-1.28-26.284-2.389c-6.059-0.768-11.691-1.707-17.067-2.816c-0.939-0.171-1.877-0.341-2.731-0.597
	c-3.072-0.597-5.974-1.28-8.704-1.963c0-0.256-0.171-1.451-0.427-3.157c-0.085-0.512-0.085-1.024-0.171-1.536
	c-0.085-0.512-0.171-1.024-0.256-1.536c-0.085-0.683-0.171-1.451-0.341-2.219c-0.085-1.28-0.256-2.475-0.427-3.669
	c0-0.597-0.085-1.109-0.171-1.621c-0.085-1.365-0.171-2.56-0.171-3.499c0-1.792,0.085-3.584,0.256-5.291
	c0.171-1.877,0.427-3.84,0.768-5.632c0.085-0.683,0.256-1.365,0.427-1.963c0.256-1.451,0.683-2.901,1.109-4.267
	c0,0,0-0.085,0.085-0.171c0.427-1.621,1.024-3.157,1.707-4.779c0-0.085,0-0.256,0.085-0.341c0.597-1.536,1.28-2.987,2.048-4.438
	c0.085-0.256,0.171-0.512,0.341-0.768c0.427-0.512,0.683-1.109,0.939-1.621c0.939-1.621,1.963-3.243,3.072-4.779v-0.085h0.085
	c0.768-1.195,1.621-2.389,2.56-3.499c0.597-0.768,1.195-1.451,1.792-2.133c0.085-0.085,0.171-0.171,0.256-0.256
	c0.597-0.683,1.28-1.451,1.963-1.877v-0.085c0.427-0.512,0.853-0.939,1.28-1.28c0.171-0.256,0.427-0.427,0.597-0.597
	c0.256-0.341,0.512-0.597,0.853-0.768c1.621-1.451,3.328-2.816,5.12-4.096c0.939-0.597,1.877-1.28,2.816-1.877
	c0.256-0.171,0.512-0.427,0.853-0.512c0.171-0.085,0.256-0.171,0.427-0.256c1.621-1.024,3.328-1.963,5.035-2.645
	c0.853-0.427,1.877-0.768,2.731-1.195c0-0.085,0.085-0.171,0.171-0.085c0.256-0.171,0.597-0.256,0.853-0.341
	c1.109-0.512,2.133-0.939,3.328-1.28c0.853-0.256,1.792-0.512,2.731-0.768c1.109-0.256,2.133-0.512,3.243-0.768
	c0.256-0.085,0.512-0.085,0.683-0.171c1.109-0.256,2.219-0.341,3.328-0.512c1.365-0.256,2.731-0.341,4.096-0.427
	c1.365-0.085,2.731-0.171,4.096-0.171c1.621,0,3.243,0.085,4.864,0.256c0.597,0,1.109,0.085,1.621,0.171h0.085
	c0.341,0,0.597,0,0.939,0.085c1.195,0.085,2.304,0.256,3.413,0.512c0.085,0,0.256,0,0.341,0.085
	c0.853,0.085,1.621,0.256,2.389,0.512c0.597,0.171,1.195,0.256,1.707,0.427C295.382,198.389,295.552,198.389,295.723,198.475z
	 M138.619,201.12l-23.467-3.925l-5.291-0.853c-1.109-0.427-2.219-0.853-3.328-1.451c-0.683-0.427-1.365-0.853-2.048-1.451
	c-2.645-1.792-4.949-4.352-6.827-7.339c-0.341-0.512-0.683-1.024-0.853-1.536c-0.512-0.768-0.939-1.621-1.28-2.475
	c-0.256-0.427-0.427-0.853-0.597-1.365v-0.085c-0.341-0.683-0.512-1.28-0.768-1.963c0-0.085-0.085-0.256-0.171-0.341
	c-0.341-1.195-0.683-2.475-0.939-3.755c-0.939-4.267-1.28-9.387-0.427-14.422v-0.085c0.085-0.768,0.256-1.536,0.427-2.304
	c0.171-0.597,0.256-1.109,0.512-1.621c0.171-0.683,0.427-1.451,0.683-2.133c0.341-1.109,0.853-2.133,1.451-3.157
	c0.341-0.853,0.768-1.621,1.365-2.389c0-0.171,0.085-0.256,0.171-0.341c0.341-0.512,0.768-1.024,1.195-1.536
	c0.427-0.597,0.853-1.109,1.365-1.621c0.512-0.683,1.109-1.195,1.707-1.792c2.219-2.048,4.864-3.669,7.851-4.864
	c0.853-0.427,1.707-0.683,2.645-1.024c0.939-0.341,1.963-0.597,2.987-0.853h0.341l0.085-0.085c0.939-0.171,2.048-0.341,3.072-0.512
	c0.853-0.171,1.792-0.256,2.645-0.341c3.499-0.256,7.339-0.256,11.35,0.256c1.877,0.171,3.84,0.427,5.888,0.768
	c0.085,0,0.256,0.085,0.341,0.085c1.28,0.171,2.56,0.427,3.84,0.768c3.499,0.768,7.168,1.707,10.923,2.987
	c0.853,0.341,1.707,0.427,2.56,0.427c2.304,0,4.523-0.853,6.144-2.475c0.256-0.256,0.427-0.427,0.597-0.683
	c0.256-0.341,0.512-0.597,0.683-0.939c0.171-0.256,0.341-0.597,0.427-0.853c0.939-1.963,1.024-4.181,0.341-6.23
	c-1.28-3.925-2.304-7.68-2.987-11.264c-0.171-0.683-0.341-1.28-0.427-1.963c-1.024-4.949-1.451-9.558-1.451-13.824
	c0-2.475,0.171-4.779,0.427-6.998c0.085-0.853,0.256-1.707,0.427-2.475c0.085-0.256,0.085-0.512,0.171-0.768
	c0.085-0.427,0.171-0.853,0.341-1.28c0.171-0.939,0.427-1.792,0.768-2.731c0.341-1.024,0.683-1.963,1.195-2.987
	c0-0.085,0-0.171,0.085-0.256c0.341-0.768,0.768-1.621,1.28-2.389c0-0.171,0.085-0.341,0.256-0.512
	c0.427-0.768,0.853-1.451,1.451-2.133c0.597-0.939,1.28-1.792,2.048-2.56c0.853-0.853,1.707-1.707,2.731-2.475
	c0.427-0.341,0.853-0.683,1.365-1.024c0.939-0.768,2.048-1.365,3.157-1.963c0.085-0.085,0.171-0.085,0.256-0.171
	c0.341-0.171,0.768-0.341,1.109-0.512c0.939-0.427,1.963-0.853,2.987-1.195c1.451-0.512,2.987-0.939,4.608-1.28h0.085
	c0.597-0.171,1.28-0.256,1.963-0.341c4.864-0.768,10.155-0.512,15.275,0.853c0.597,0.171,1.195,0.341,1.707,0.597
	c0.683,0.171,1.28,0.341,1.877,0.597c0.683,0.256,1.28,0.427,1.792,0.768c0.171,0.085,0.341,0.171,0.512,0.256
	c0.853,0.427,1.707,0.853,2.475,1.28c0.768,0.427,1.536,0.939,2.219,1.451c0.768,0.512,1.451,1.024,2.048,1.621
	c0.853,0.683,1.536,1.451,2.219,2.219c0.597,0.683,1.195,1.451,1.621,2.304c0.085,0.085,0.171,0.171,0.171,0.256
	c0.512,0.683,0.853,1.365,1.109,2.048c0.171,0.256,0.256,0.427,0.341,0.597c0.341,0.939,0.597,1.792,0.853,2.731l3.157,12.715v0.085
	l6.656,26.796l3.84,15.446l2.816,11.35l4.608,18.774l4.011,16.214c-0.341,0.171-0.768,0.341-1.109,0.597
	c-3.243,1.707-6.4,3.584-9.302,5.718c-0.683,0.512-1.365,1.024-2.048,1.536c-2.048,1.536-3.925,3.157-5.718,4.949
	c-0.853,0.768-1.621,1.536-2.389,2.389c-0.256,0.171-0.427,0.427-0.597,0.597l-2.816,3.072c-0.085,0.171-0.256,0.341-0.341,0.427
	s-0.256,0.256-0.341,0.427c-0.256,0.256-0.512,0.512-0.768,0.853c-0.341,0.427-0.683,0.853-1.024,1.365
	c-0.768,1.024-1.536,2.048-2.219,3.072c-0.427,0.512-0.768,1.024-1.109,1.536l-1.28-0.171l-21.249-3.584l-1.195-0.171l-5.803-0.939
	l-22.102-3.755L138.619,201.12z M182.738,256.247c-0.768-0.683-1.451-1.365-1.963-1.963c-0.597-0.597-1.109-1.195-1.536-1.877
	c-0.341-0.427-0.597-0.853-0.768-1.28c-0.341-0.597-0.597-1.28-0.768-1.877c-0.171-0.597-0.256-1.195-0.256-1.792
	c0-0.427,0.085-0.939,0.256-1.536c0.085-0.171,0.085-0.341,0.171-0.512c0.171-0.512,0.427-1.109,0.768-1.707
	c0.171-0.341,0.341-0.683,0.597-1.109c0.256-0.341,0.597-0.768,0.853-1.195c1.536-2.048,3.755-4.267,6.656-6.571
	c0.512-0.341,1.109-0.768,1.707-1.195c0.341-0.256,0.768-0.512,1.109-0.768c0.597-0.427,1.195-0.853,1.792-1.195
	c0.597-0.427,1.28-0.768,1.963-1.195c0.085,0,0.085-0.085,0.171-0.085c1.195-0.768,2.645-1.451,4.011-2.133l0.768,0.171l1.109,0.171
	l8.278,1.365c-0.512,1.365-0.939,2.816-1.365,4.267c-1.195,4.011-2.133,8.192-2.56,12.459c-0.512,3.072-0.683,6.144-0.683,9.302
	c0,2.645,0.256,5.376,0.512,8.022c0.085,0.427,0.171,0.939,0.171,1.365c0.085,0.597,0.171,1.195,0.256,1.792
	c0,0.171,0.085,0.341,0.085,0.512c-0.341-0.171-0.683-0.256-0.939-0.341c-0.512-0.256-1.024-0.512-1.536-0.683
	c-0.341-0.085-0.597-0.256-0.939-0.341c-1.109-0.427-2.219-0.853-3.243-1.365c-1.536-0.683-2.987-1.365-4.352-2.048
	c-0.085-0.085-0.256-0.085-0.341-0.171c-0.171-0.085-0.341-0.171-0.427-0.256c-2.304-1.195-4.267-2.389-6.059-3.584
	c0-0.085-0.085-0.085-0.085-0.085c-1.195-0.768-2.219-1.536-3.157-2.304L182.738,256.247z M344.621,468.82
	c1.451,0.597,2.816,1.28,4.011,1.877c5.461,2.901,8.022,5.632,8.022,7.168c0,0.341-0.085,0.683-0.256,1.024
	c-0.427,0.939-1.451,2.048-2.987,3.243c-0.341,0.341-0.853,0.683-1.365,0.939c-1.024,0.768-2.304,1.451-3.669,2.133
	c-0.853,0.427-1.707,0.853-2.56,1.195c-0.512,0.256-1.024,0.427-1.536,0.683c-1.451,0.597-3.157,1.195-4.864,1.792h-0.085
	c-1.195,0.341-2.304,0.768-3.584,1.109c-2.987,0.939-6.23,1.707-9.814,2.389c-1.365,0.256-2.645,0.512-4.096,0.683
	c-1.621,0.256-3.243,0.512-4.949,0.683c-1.195,0.171-2.389,0.341-3.584,0.427c-0.341,0.085-0.683,0.085-1.109,0.085
	c-0.853,0.171-1.707,0.171-2.645,0.256h-0.171c-3.925,0.256-8.022,0.427-12.459,0.427c-0.853,0-1.621,0-2.475-0.085
	c-1.195,0.085-2.475,0-3.584-0.085h-0.341c-8.619-0.256-16.299-1.195-22.87-2.475c-5.206-0.939-9.643-2.133-13.483-3.499
	c-0.341-0.085-0.683-0.256-1.024-0.341c-1.877-0.683-3.499-1.28-5.035-1.963c-0.085,0-0.085-0.085-0.085-0.085
	c-1.024-0.512-2.133-0.939-2.987-1.451c-0.085,0-0.085-0.085-0.171-0.085c-0.341-0.171-0.597-0.341-0.939-0.512
	c-0.853-0.427-1.621-0.853-2.304-1.365c-0.683-0.427-1.28-0.939-1.792-1.365c-1.024-0.853-1.792-1.621-2.133-2.389
	c-0.171-0.171-0.171-0.341-0.256-0.512c-0.171-0.171-0.171-0.341-0.171-0.512c-0.085-0.171-0.085-0.256-0.085-0.341
	c0-0.683,0.512-1.621,1.536-2.645c1.365-1.451,3.669-3.157,7.168-4.864c1.621-0.768,3.499-1.621,5.632-2.389
	c0.768-0.341,1.707-0.683,2.56-0.939c0.085-0.085,0.085-0.085,0.171-0.085c2.133-0.768,4.437-1.451,7.083-2.048
	c0.939-0.256,1.877-0.512,2.816-0.683c1.195-0.256,2.389-0.512,3.669-0.768c1.109-0.256,2.304-0.512,3.499-0.597
	c0.085-0.085,0.171-0.085,0.256-0.085c0.085,0.683,0.256,1.365,0.512,2.048c0.427,1.451,1.109,2.816,2.048,4.011
	c0.427,0.512,0.768,0.939,1.195,1.365c0.171,0.256,0.427,0.427,0.597,0.512c0.512,0.683,1.109,1.109,1.707,1.621
	c1.536,1.195,3.413,2.219,5.547,3.072c0.512,0.256,1.109,0.427,1.707,0.683c0.427,0.171,0.853,0.256,1.28,0.341
	c0.341,0.171,0.768,0.256,1.195,0.341c2.901,0.683,6.144,1.109,9.558,1.109c1.536,0,3.072-0.085,4.523-0.256
	c0.171,0,0.341,0,0.512-0.085c0.768,0,1.536-0.171,2.304-0.341c0.427,0,0.939-0.085,1.365-0.256h0.085
	c0.512-0.085,0.939-0.171,1.365-0.341c0.256-0.085,0.597-0.171,0.853-0.256c0.939-0.256,1.877-0.512,2.731-0.939
	c0.597-0.256,1.109-0.427,1.621-0.768c2.816-1.195,5.12-2.901,6.742-4.949c1.109-1.28,1.877-2.645,2.475-4.181v-0.085
	c0.256-0.512,0.341-1.024,0.427-1.536c0.085-0.085,0.085-0.171,0.085-0.256c0.171-0.256,0.171-0.512,0.256-0.853
	C331.82,464.297,339.159,466.516,344.621,468.82z M288.384,459.091v-41.644c1.621,0.256,3.328,0.427,5.035,0.512h0.597
	c0.939,0.085,1.877,0.171,2.901,0.171c1.707,0,3.413-0.085,5.035-0.256c1.195-0.085,2.304-0.256,3.499-0.427v41.644
	c-0.768,0.341-1.877,0.853-3.499,1.195c-1.365,0.256-3.072,0.512-5.035,0.512c-2.56,0-4.608-0.341-6.144-0.853
	C289.749,459.689,288.896,459.347,288.384,459.091z M346.498,355.749c-0.085,0.512-0.256,1.024-0.341,1.536
	c-0.256,1.109-0.597,2.219-0.853,3.243c-0.683,2.219-1.365,4.352-2.304,6.4c-0.341,1.195-0.853,2.304-1.451,3.499
	c-0.683,1.451-1.451,2.901-2.219,4.267c-0.085,0.171-0.256,0.341-0.256,0.512c-0.853,1.28-1.621,2.56-2.56,3.84
	c-0.853,1.195-1.707,2.389-2.645,3.499c-1.195,1.451-2.389,2.816-3.669,4.096c-0.768,0.768-1.536,1.536-2.389,2.219
	c-0.256,0.256-0.597,0.512-0.853,0.768c-0.768,0.683-1.621,1.365-2.475,1.963s-1.621,1.195-2.56,1.792
	c-1.024,0.683-2.048,1.28-3.157,1.877c-0.597,0.341-1.195,0.683-1.792,1.024c-0.427,0.256-0.939,0.427-1.451,0.683
	c-1.109,0.512-2.133,0.939-3.328,1.28l-0.085,0.085c0,0,0,0.085-0.085,0.085c-2.048,0.683-4.096,1.28-6.23,1.707
	c-1.109,0.256-2.133,0.427-3.243,0.512c-1.195,0.256-2.389,0.341-3.584,0.341c-0.683,0.085-1.365,0.085-2.048,0.085
	c-2.389,0-4.693-0.171-6.998-0.597c-0.939-0.085-1.877-0.256-2.816-0.512c-1.28-0.256-2.56-0.597-3.84-1.109
	c-0.341-0.085-0.768-0.171-1.109-0.341c-0.683-0.256-1.28-0.512-1.963-0.768c-0.597-0.171-1.28-0.427-1.877-0.768
	c-0.341-0.085-0.683-0.256-0.939-0.427c-0.683-0.256-1.28-0.597-1.877-1.024c-0.341-0.085-0.597-0.256-0.853-0.427
	c-1.109-0.597-2.133-1.195-3.157-1.963c-0.256-0.171-0.597-0.427-0.853-0.683h-0.085c-0.171-0.171-0.427-0.256-0.597-0.427
	c-0.683-0.512-1.28-1.024-1.963-1.536c-1.024-0.768-2.048-1.707-3.072-2.731c-1.365-1.195-2.645-2.475-3.84-3.925
	c-0.171-0.085-0.171-0.171-0.256-0.256c-1.195-1.451-2.389-2.987-3.499-4.523c-0.171-0.256-0.341-0.427-0.427-0.683
	c0,0,0-0.085-0.085-0.085c-1.024-1.621-2.048-3.243-2.987-4.95c-0.256-0.427-0.512-0.853-0.683-1.28
	c-0.427-0.768-0.853-1.621-1.195-2.475c-0.427-0.939-0.853-1.877-1.28-2.901c0-0.085-0.085-0.171-0.085-0.256
	c-0.341-0.683-0.512-1.365-0.853-2.133c-0.427-1.109-0.768-2.304-1.109-3.499c-0.512-1.621-0.939-3.328-1.28-5.035
	c-0.427-1.792-0.683-3.499-0.939-5.291c4.523,1.451,9.216,2.731,13.995,3.755c2.56,0.683,5.12,1.195,7.766,1.621
	c3.413,0.597,6.827,1.109,10.24,1.451c6.059,0.768,12.203,1.109,18.518,1.109c2.219,0,4.438-0.085,6.656-0.171
	c1.109,0,2.219-0.085,3.328-0.171c1.877-0.085,3.669-0.256,5.462-0.427h0.085c0.683-0.085,1.28-0.171,1.877-0.256
	c1.792-0.171,3.584-0.341,5.291-0.597h0.427c2.475-0.341,4.864-0.768,7.254-1.28c1.195-0.171,2.389-0.427,3.499-0.683
	c0.853-0.171,1.621-0.341,2.475-0.512c1.536-0.341,3.072-0.683,4.608-1.109c3.243-0.768,6.4-1.707,9.558-2.731
	C347.181,352.25,346.925,353.957,346.498,355.749z M402.82,290.808c-1.195,1.792-2.475,3.499-3.755,5.206
	c-6.144,7.936-13.739,15.105-22.529,21.163c-0.085,0.085-0.085,0.085-0.171,0.171c-2.56,1.877-5.291,3.669-8.107,5.291
	c-2.304,1.365-4.608,2.645-6.998,3.84c-7.851,3.925-16.299,7.254-25.345,9.643c-6.486,1.792-13.398,3.157-20.395,4.011
	c-1.195,0.085-2.304,0.256-3.499,0.341c-0.427,0.085-0.939,0.085-1.365,0.171c-4.523,0.512-9.131,0.683-13.739,0.683
	c-2.475,0-4.949-0.085-7.424-0.171c0,0,0,0-0.085,0c-8.363-0.427-16.555-1.536-24.321-3.243c-4.011-0.853-7.851-1.877-11.691-3.072
	c-4.181-1.28-8.363-2.731-12.288-4.438c-1.536-0.597-3.072-1.28-4.523-1.963c-0.427-0.171-0.853-0.341-1.195-0.597
	c-1.365-0.683-2.731-1.28-4.096-1.963c-6.144-3.157-11.862-6.827-17.153-10.923c-5.035-3.755-9.643-7.851-13.824-12.374
	c-0.256-0.256-0.512-0.512-0.683-0.853c-0.171-0.171-0.341-0.341-0.427-0.512c-0.768-0.853-1.536-1.707-2.304-2.645
	c-1.451-1.792-2.901-3.584-4.181-5.462c-2.56-3.499-4.779-7.168-6.571-10.923c-0.341-0.597-0.683-1.28-1.024-1.877
	c-0.427-0.853-0.768-1.792-1.195-2.645c-0.085-0.085-0.085-0.256-0.171-0.341c0.085,0,0.085,0.085,0.171,0.085
	c1.195,0.597,2.389,1.28,3.669,1.792c2.731,1.365,5.718,2.645,8.875,3.84c0.768,0.256,1.451,0.597,2.219,0.939
	c0.341,0.085,0.768,0.256,1.109,0.427c1.365,0.427,2.816,0.939,4.181,1.365c4.011,1.365,8.278,2.56,12.63,3.669
	c1.707,0.427,3.413,0.853,5.12,1.28c2.731,0.597,5.462,1.195,8.363,1.792c0.085,0,0.085,0,0.085,0
	c8.534,1.707,17.494,3.072,26.796,4.011c5.632,0.683,11.435,1.109,17.323,1.451c6.827,0.427,13.824,0.683,20.822,0.683h1.792
	c1.707,0,3.413,0,5.12-0.085c3.669,0,7.254-0.085,10.838-0.256c2.816-0.085,5.547-0.256,8.278-0.427
	c4.864-0.341,9.643-0.683,14.336-1.195c5.12-0.427,10.155-1.109,15.104-1.792c0.853-0.171,1.707-0.256,2.475-0.427
	c1.536-0.256,2.987-0.512,4.438-0.768c2.901-0.512,5.803-1.024,8.619-1.621c1.195-0.256,2.475-0.512,3.669-0.768
	c1.28-0.256,2.56-0.597,3.84-0.853c6.144-1.451,11.862-3.157,17.323-5.035c0.341-0.085,0.597-0.256,0.939-0.341
	c1.024-0.341,1.963-0.683,2.901-1.024c5.632-2.048,10.667-4.352,15.275-6.742C408.111,282.019,405.636,286.542,402.82,290.808z
	 M370.221,189.258c0.597,0.171,1.195,0.256,1.707,0.512h0.085c0.171,0,0.256,0,0.427,0.085c0.939,0.256,1.877,0.512,2.816,0.853
	c1.621,0.512,3.157,1.109,4.608,1.707c1.195,0.512,2.389,1.024,3.499,1.621c5.462,2.731,10.496,6.315,14.849,10.582
	c0.853,0.853,1.707,1.707,2.475,2.645c1.792,1.877,3.328,3.755,4.779,5.803c0.768,1.024,1.365,2.048,2.048,3.072
	c0.341,0.512,0.597,1.024,0.939,1.536c0.427,0.768,0.939,1.621,1.28,2.475c0.597,1.024,1.109,2.133,1.536,3.243
	c0.683,1.365,1.195,2.816,1.707,4.267c0.427,1.024,0.768,2.133,1.024,3.157c0.427,1.195,0.768,2.475,0.939,3.755
	c0.171,0.427,0.256,0.768,0.341,1.195c0.341,1.707,0.597,3.413,0.683,5.12c0.341,2.133,0.427,4.352,0.427,6.571
	c0,0.512-0.085,1.109-0.256,1.621c-0.085,0.256-0.171,0.512-0.256,0.853c-1.28,3.499-5.206,7.339-11.606,11.008
	c-0.768,0.427-1.536,0.853-2.475,1.365c-0.853,0.512-1.792,1.024-2.816,1.451c-3.755,1.792-8.022,3.584-12.886,5.206
	c-3.413,1.195-7.083,2.304-11.008,3.328c-0.256,0.085-0.597,0.171-0.939,0.256c-0.939,0.256-1.877,0.512-2.816,0.768
	c-1.195,0.256-2.389,0.597-3.584,0.853c-0.256,0.085-0.427,0.085-0.683,0.171c-0.341,0.085-0.768,0.171-1.109,0.256
	c-3.84,0.853-7.936,1.707-12.203,2.389c0-0.085,0-0.085,0-0.171c0.256-0.768,0.427-1.536,0.597-2.304
	c0.512-1.707,0.853-3.499,1.109-5.291c0.427-2.133,0.683-4.352,0.853-6.486c0.085-0.683,0.171-1.451,0.171-2.133
	c0.085-1.536,0.171-3.072,0.171-4.608c0-2.475-0.085-4.949-0.427-7.424c0-0.853-0.085-1.707-0.256-2.475
	c-0.256-2.475-0.683-4.864-1.28-7.254c-0.256-1.365-0.683-2.731-1.109-4.096c-0.341-1.365-0.768-2.731-1.28-4.011
	c-0.427-1.28-0.939-2.56-1.451-3.84c-0.512-1.28-1.024-2.56-1.707-3.84c-0.597-1.28-1.195-2.475-1.877-3.669
	c-0.853-1.707-1.877-3.328-2.901-4.949c-1.024-1.621-2.048-3.072-3.243-4.523c-0.171-0.341-0.341-0.597-0.597-0.853
	c-0.683-0.939-1.451-1.877-2.304-2.731c-1.621-1.963-3.413-3.84-5.206-5.547c-0.256-0.341-0.597-0.597-0.853-0.853
	c-1.024-0.939-2.048-1.877-3.072-2.731c-0.256-0.256-0.427-0.427-0.683-0.597c-0.427-0.341-0.853-0.683-1.28-1.024
	c0.939-0.597,1.963-1.109,2.987-1.536c0.427-0.171,0.768-0.427,1.195-0.597c2.048-1.024,4.181-1.877,6.315-2.56
	c1.195-0.427,2.389-0.853,3.669-1.109c1.28-0.341,2.475-0.683,3.755-0.853c0.256-0.085,0.512-0.085,0.768-0.171
	c0.853-0.171,1.707-0.341,2.56-0.427c0.597-0.085,1.109-0.171,1.707-0.256h0.341c1.109-0.171,2.219-0.256,3.328-0.256
	c0.939-0.085,1.963-0.085,2.901-0.085h1.109c0.256,0,0.427,0,0.597,0.085c1.707,0,3.328,0.085,4.864,0.256
	c1.451,0.171,2.816,0.427,4.267,0.683C368.344,188.917,369.283,189.088,370.221,189.258z M352.301,142.409
	c0.597,0.683,1.195,1.365,1.621,2.133c0.939,1.195,1.792,2.475,2.56,3.84c0.939,1.536,1.792,3.157,2.645,4.779
	c1.451,3.072,2.731,6.315,3.669,9.728c0.597,1.792,1.024,3.669,1.28,5.547c0.256,0.853,0.427,1.707,0.512,2.645
	c-0.768-0.085-1.536-0.171-2.304-0.171c-1.877-0.171-3.755-0.256-5.632-0.256c-1.963,0-3.84,0.085-5.803,0.256
	c-2.133,0.171-4.267,0.427-6.4,0.768c-1.109,0.171-2.219,0.341-3.243,0.683c-1.109,0.085-2.133,0.341-3.243,0.683
	c-1.621,0.341-3.243,0.853-4.779,1.365c-0.427,0.085-0.768,0.171-1.109,0.341c-0.768,0.256-1.536,0.512-2.304,0.768
	c-0.683,0.256-1.28,0.512-1.963,0.768v0.085c-2.731,1.109-5.462,2.389-8.022,3.84c-1.28,0.683-2.56,1.365-3.755,2.133
	c-1.536,0.939-2.987,1.963-4.352,2.987c-0.256,0.171-0.512,0.341-0.768,0.512c-1.707-0.768-3.499-1.536-5.291-2.133
	c-0.171-0.085-0.341-0.085-0.427-0.171c-0.683-0.256-1.28-0.427-1.963-0.597c-2.901-1.024-5.974-1.792-9.046-2.389
	c-1.365-0.256-2.816-0.512-4.267-0.683c-1.621-0.256-3.243-0.427-4.949-0.512s-3.413-0.171-5.12-0.171
	c-1.877,0-3.669,0.085-5.462,0.256h-0.427c-0.341,0-0.597,0.085-0.939,0.085c-1.792,0.171-3.584,0.427-5.206,0.683
	c0,0-0.085,0-0.171,0c-0.341,0.085-0.683,0.085-1.109,0.256c-1.707,0.256-3.413,0.597-5.035,1.024l-7.936-32.001
	c0-0.085,0.085-0.085,0.171-0.171c0.256-0.512,0.597-0.939,0.939-1.451v-0.085c0.597-0.939,1.195-1.877,1.877-2.816
	c0.597-0.853,1.195-1.707,1.792-2.475c0.683-0.853,1.28-1.621,1.963-2.389c0.085-0.085,0.171-0.256,0.341-0.427
	c1.28-1.365,2.56-2.731,3.84-3.925c1.536-1.451,3.072-2.731,4.608-4.011c1.451-1.024,2.901-2.048,4.438-2.987
	c0.341-0.256,0.597-0.427,0.939-0.597c1.28-0.768,2.56-1.536,3.925-2.133c0.939-0.512,1.877-0.939,2.901-1.28
	c0.171-0.171,0.341-0.256,0.597-0.341c0.171-0.171,0.341-0.171,0.597-0.256c0.256-0.171,0.512-0.256,0.853-0.427
	c0.597-0.256,1.365-0.512,2.048-0.683c1.024-0.427,1.963-0.768,2.987-1.024c0.939-0.341,1.877-0.597,2.816-0.768
	c0.853-0.256,1.621-0.427,2.475-0.597c0.768-0.171,1.451-0.256,2.219-0.427c0.853-0.171,1.792-0.256,2.731-0.341
	c0.853-0.171,1.792-0.256,2.731-0.256c1.365-0.085,2.731-0.171,4.096-0.171c0.768,0,1.536,0,2.304,0.085
	c0.256,0,0.512,0,0.768,0.085c1.195,0,2.304,0.085,3.413,0.256h0.171c1.365,0.085,2.816,0.341,4.181,0.597
	c1.536,0.256,2.987,0.597,4.438,1.024c0.683,0.171,1.365,0.341,2.048,0.597c1.451,0.427,2.731,0.853,4.096,1.365l-3.584,5.888
	c0,0,0,0,0,0.085l-8.022,13.142c-0.256,0.341-0.427,0.768-0.512,1.195c-0.085,0.171-0.171,0.341-0.256,0.597
	c0,0.171-0.085,0.341-0.085,0.512c-0.171,0.512-0.256,0.939-0.256,1.451c-0.085,0.939,0,1.963,0.256,2.816
	c0.171,0.768,0.427,1.451,0.768,2.048c0.341,0.597,0.768,1.195,1.28,1.707c0.512,0.597,1.109,1.024,1.707,1.365
	c0.597,0.341,1.195,0.683,1.877,0.853c0.427,0.171,0.939,0.256,1.365,0.256c0.427,0.171,0.768,0.171,1.195,0.171
	c2.816,0,5.632-1.451,7.254-4.096l4.608-7.51v-0.085l7.339-11.947c0.597,0.427,1.195,0.939,1.792,1.536
	c1.621,1.28,3.157,2.645,4.523,4.181c0.171,0.171,0.341,0.341,0.512,0.512C349.997,139.422,351.191,140.873,352.301,142.409z
	 M347.01,61.595l-5.803-3.584L323.969,47.43l-3.157-1.963l23.638-4.181l22.529-4.011l7.254-1.28l9.814-1.707l8.022-1.451
	l1.621,5.206l0.853,2.731l12.032,38.572l3.925,12.886c0,0,0,0,0.085,0l3.157,10.326l-10.496-6.486c-0.085,0-0.085,0-0.085,0
	l-6.912-4.181l-5.803-3.584l-9.387-5.803l-3.925-2.389l-8.875-5.462l-5.12-3.157L347.01,61.595z M256.468,144.883
	c-0.597,0.939-1.195,1.877-1.792,2.901c0.597-0.939,1.195-1.877,1.877-2.816L256.468,144.883z M299.99,188.661
	c-0.683-0.597-1.28-1.109-1.963-1.621c0.597-0.341,1.28-0.683,1.877-1.109l-0.171-0.683c1.109-0.853,2.304-1.621,3.499-2.304
	c-2.901-1.024-5.974-1.792-9.046-2.389c-1.365-0.256-2.816-0.512-4.267-0.683c-1.621-0.256-3.243-0.427-4.949-0.512
	s-3.413-0.171-5.12-0.171c-1.877,0-3.669,0.085-5.462,0.256h-0.427l1.195,4.608l0.853,3.413c-0.171,0.085-0.427,0.171-0.597,0.341
	c-4.608,2.304-8.96,5.206-12.971,8.448c-1.024,0.768-2.048,1.621-2.987,2.475c-0.256,0.256-0.512,0.427-0.768,0.683
	c-0.427,0.341-0.853,0.768-1.195,1.28c0.256-0.171,0.597-0.256,0.853-0.341c1.109-0.512,2.133-0.939,3.328-1.28
	c0.853-0.256,1.792-0.512,2.731-0.768c1.109-0.256,2.133-0.512,3.243-0.768c0.256-0.085,0.512-0.085,0.683-0.171
	c1.109-0.256,2.219-0.341,3.328-0.512c1.365-0.256,2.731-0.341,4.096-0.427c1.365-0.085,2.731-0.171,4.096-0.171
	c1.621,0,3.243,0.085,4.864,0.256c0.597,0,1.109,0.085,1.621,0.171h0.085c0.341,0,0.597,0,0.939,0.085
	c1.195,0.085,2.304,0.256,3.413,0.512c0.085,0,0.256,0,0.341,0.085c0.853,0.085,1.621,0.256,2.389,0.512
	c0.597,0.171,1.195,0.256,1.707,0.427c2.389-0.683,4.864-1.109,7.339-1.451l-1.792-7.51
	C300.502,189.088,300.246,188.917,299.99,188.661z M262.442,196.256c-3.84-0.597-7.595-1.195-11.179-1.963
	c0.085-0.939,0.171-1.877,0.171-2.731c0-2.048-0.085-4.096-0.341-6.059c-0.171-1.536-0.341-2.987-0.597-4.437
	c0-0.085,0-0.171-0.085-0.256c0-0.085,0-0.085,0-0.171c-0.085-0.853-0.341-1.792-0.597-2.645c0-0.512-0.171-1.024-0.341-1.451
	c-0.256-1.195-0.597-2.389-1.024-3.584c-1.877-5.632-4.523-11.008-7.936-15.787l-0.085-0.085c-1.109-1.621-2.389-3.157-3.669-4.608
	l4.608,18.774l4.011,16.214c-0.341,0.171-0.768,0.341-1.109,0.597c-3.243,1.707-6.4,3.584-9.302,5.718
	c-0.683,0.512-1.365,1.024-2.048,1.536c-2.048,1.536-3.925,3.157-5.718,4.949c-0.853,0.768-1.621,1.536-2.389,2.389
	c-0.256,0.171-0.427,0.427-0.597,0.597l-2.816,3.072c-0.085,0.171-0.256,0.341-0.341,0.427c-0.085,0.085-0.256,0.256-0.341,0.427
	c-0.256,0.256-0.512,0.512-0.768,0.853c-0.341,0.427-0.683,0.853-1.024,1.365c-0.768,1.024-1.536,2.048-2.219,3.072
	c-0.427,0.512-0.768,1.024-1.109,1.536l-1.28-0.171c-0.085,0-0.085,0-0.171,0.085c-0.939,0.597-1.877,1.28-2.816,1.877
	c-0.597,0.427-1.109,0.853-1.707,1.365c-1.195,0.768-2.304,1.707-3.413,2.731c-0.085,0-0.256,0.171-0.341,0.256
	c-0.512,0.427-1.024,0.939-1.536,1.536c-0.768,0.683-1.451,1.365-2.219,2.219c-0.171,0.171-0.427,0.341-0.597,0.597
	c-1.195,1.28-2.304,2.56-3.243,3.925l1.109,0.171l8.278,1.365c-0.512,1.365-0.939,2.816-1.365,4.267h2.475
	c3.243,0,6.486,0,9.643-0.171c2.048,0,4.011-0.085,6.059-0.171c0-0.085,0-0.256,0.085-0.341c0.597-1.536,1.28-2.987,2.048-4.437
	c0.085-0.256,0.171-0.512,0.341-0.768c0.427-0.512,0.683-1.109,0.939-1.621c0.939-1.621,1.963-3.243,3.072-4.779v-0.085h0.085
	c0.768-1.195,1.621-2.389,2.56-3.499c0.597-0.768,1.195-1.451,1.792-2.133c0.085-0.085,0.171-0.171,0.256-0.256
	c0.597-0.683,1.28-1.451,1.963-1.877v-0.085c0.427-0.512,0.853-0.939,1.28-1.28c0.171-0.256,0.427-0.427,0.597-0.597
	c0.256-0.341,0.512-0.597,0.853-0.768c1.621-1.451,3.328-2.816,5.12-4.096c0.939-0.597,1.877-1.28,2.816-1.877
	c0.256-0.171,0.512-0.427,0.853-0.512c0.171-0.085,0.256-0.171,0.427-0.256c1.621-1.024,3.328-1.963,5.035-2.645
	c0.853-0.427,1.877-0.768,2.731-1.195c0-0.085,0.085-0.171,0.171-0.085c0.256-0.171,0.597-0.256,0.853-0.341
	c1.109-0.512,2.133-0.939,3.328-1.28c0.853-0.256,1.792-0.512,2.731-0.768c1.109-0.256,2.133-0.512,3.243-0.768
	c0.256-0.085,0.512-0.085,0.683-0.171v-0.256C266.282,196.853,264.319,196.597,262.442,196.256z M276.864,280.995
	c0,0.256,0,0.597-0.085,0.853c-0.085,1.792-0.256,3.669-0.512,5.462c1.195-0.341,2.304-0.683,3.413-1.109
	c0.171-0.085,0.427-0.171,0.597-0.256c0.597-0.171,1.195-0.341,1.707-0.597c2.645-0.853,5.12-1.792,7.339-2.816
	c0.768-0.341,1.536-0.683,2.304-1.024C286.592,281.421,281.642,281.251,276.864,280.995z M335.746,284.067
	c-0.085-0.597-0.171-1.195-0.256-1.792c0-0.256-0.085-0.512-0.085-0.768c-0.085-0.683-0.171-1.28-0.256-1.877
	c0-0.085,0-0.171-0.085-0.256c-0.085,0.171-0.085,0.256-0.085,0.256c-2.901,0.341-5.803,0.597-8.875,0.853
	c-4.352,0.341-8.875,0.597-13.483,0.768h-0.341c-1.28,0.085-2.645,0.171-3.925,0.171c-1.621,0.085-3.243,0.085-4.949,0.085h-0.768
	c-1.877,0.085-3.755,0.085-5.718,0.085c-1.792,0-3.584,0-5.291-0.085c-0.768,0.341-1.536,0.683-2.304,1.024
	c-2.219,1.024-4.693,1.963-7.339,2.816c-0.512,0.256-1.109,0.427-1.707,0.597c-0.171,0.085-0.427,0.171-0.597,0.256
	c-1.109,0.427-2.219,0.768-3.413,1.109c-0.256,2.56-0.683,5.12-1.28,7.595c-0.085,0.683-0.256,1.28-0.427,1.877
	c-0.085,0.341-0.085,0.768-0.256,1.195c6.827,0.427,13.824,0.683,20.822,0.683h1.792c1.707,0,3.413,0,5.12-0.085
	c3.669,0,7.254-0.085,10.838-0.256c2.816-0.085,5.547-0.256,8.278-0.427c4.864-0.341,9.643-0.683,14.336-1.195
	c0.341-2.389,0.597-4.693,0.597-6.571C336.087,288.078,336.002,286.03,335.746,284.067z M256.468,144.883
	c-0.597,0.939-1.195,1.877-1.792,2.901c0.597-0.939,1.195-1.877,1.877-2.816L256.468,144.883z M163.964,205.387l-25.345-4.267
	l0.853,3.413c-0.171,0.085-0.427,0.171-0.597,0.341c-1.792,0.853-3.499,1.792-5.12,2.816c-1.28,0.768-2.56,1.621-3.755,2.56
	c-2.475,1.707-4.864,3.584-7.083,5.547l17.835,2.987l6.315,1.024c2.816-1.365,5.803-2.645,8.875-3.584
	c2.56-0.853,5.12-1.451,7.766-1.877c0.768-0.171,1.536-0.341,2.304-0.427c0.512-0.171,0.939-0.171,1.451-0.256
	c2.133-0.256,4.267-0.341,6.486-0.341c1.109,0,2.219,0,3.243,0.171c0.341-0.256,0.683-0.512,1.109-0.597
	c0.939-0.597,1.792-1.109,2.731-1.536c0.597-0.341,1.195-0.597,1.792-0.853c1.109-0.512,2.133-1.024,3.243-1.365L163.964,205.387z
	 M224.809,202.656c-0.256,0.171-0.427,0.427-0.597,0.597l-2.816,3.072h0.085c0.085,0,0.171,0.085,0.256,0.085
	c0.768,0.085,1.536,0.341,2.219,0.597c1.109,0.256,2.048,0.512,3.072,0.939c0.341-0.256,0.683-0.341,1.109-0.427
	C227.113,205.813,226.089,204.192,224.809,202.656z M335.746,284.067c-0.085-0.597-0.171-1.195-0.256-1.792
	c0-0.256-0.085-0.512-0.085-0.768c-0.085-0.683-0.171-1.28-0.256-1.877c0-0.085,0-0.171-0.085-0.256
	c-0.085,0.171-0.085,0.256-0.085,0.256c-2.901,0.341-5.803,0.597-8.875,0.853c-4.352,0.341-8.875,0.597-13.483,0.768h-0.341
	c-1.28,0.085-2.645,0.171-3.925,0.171c-1.621,0.085-3.243,0.085-4.949,0.085h-0.768c-1.877,0.085-3.755,0.085-5.718,0.085
	c-1.792,0-3.584,0-5.291-0.085c-0.768,0.341-1.536,0.683-2.304,1.024c-2.219,1.024-4.693,1.963-7.339,2.816
	c-0.512,0.256-1.109,0.427-1.707,0.597c-0.171,0.085-0.427,0.171-0.597,0.256c-1.109,0.427-2.219,0.768-3.413,1.109
	c-2.987,1.024-6.144,1.963-9.558,2.816h-3.925c-1.451,0-2.816,0-4.181-0.085c-3.328,0-6.571-0.085-9.728-0.171h-0.085
	c-1.109-0.085-2.133-0.085-3.157-0.171c-5.035-0.171-9.814-0.512-14.422-0.939c-0.171,0.427-0.256,0.853-0.341,1.28
	c-0.256,0.939-0.427,1.792-0.683,2.475c8.534,1.707,17.494,3.072,26.796,4.011c5.632,0.683,11.435,1.109,17.323,1.451
	c6.827,0.427,13.824,0.683,20.822,0.683h1.792c1.707,0,3.413,0,5.12-0.085c3.669,0,7.254-0.085,10.838-0.256
	c2.816-0.085,5.547-0.256,8.278-0.427c4.864-0.341,9.643-0.683,14.336-1.195c0.341-2.389,0.597-4.693,0.597-6.571
	C336.087,288.078,336.002,286.03,335.746,284.067z M297.344,113.138l-7.851-4.779l-4.864-2.987
	c-3.584,1.024-7.083,2.304-10.411,3.84c-1.195,0.512-2.389,1.109-3.584,1.707c0,0.085-0.085,0.085-0.085,0.085s0,0-0.085,0
	c-0.171,0.085-0.427,0.171-0.597,0.341c-1.451,0.768-2.816,1.536-4.181,2.389c-1.792,1.024-3.499,2.219-5.206,3.413
	c-0.512,0.341-1.024,0.768-1.536,1.195c-3.072,2.304-5.974,4.949-8.704,7.851c-0.427,0.341-0.768,0.768-1.109,1.109
	c-0.341,0.256-0.597,0.597-0.853,0.853l-0.256-1.195c-0.256,0.085-0.597,0.256-0.853,0.341c-0.171,0-0.256,0.085-0.427,0.171
	c-0.085,0-0.256,0-0.341,0.085c-0.085,0-0.171,0.085-0.256,0.085c-1.195,0.512-2.389,1.024-3.499,1.621
	c-1.28,0.512-2.475,1.195-3.669,1.877c0.683,0.512,1.28,1.024,1.963,1.621c1.024,0.853,2.048,1.792,3.072,2.731
	c1.536,1.365,2.901,2.816,4.352,4.352v0.085c0.085,0.171,0.256,0.256,0.341,0.427h0.085c1.195,1.365,2.389,2.816,3.584,4.267
	c0.512,0.683,1.109,1.451,1.621,2.219v0.085c0.256,0.256,0.427,0.597,0.683,0.853c0.597-1.024,1.195-1.963,1.792-2.901l0.085,0.085
	c0.597-0.853,1.195-1.707,1.792-2.475c0.683-0.853,1.28-1.621,1.963-2.389c0.085-0.085,0.171-0.256,0.341-0.427
	c1.28-1.365,2.56-2.731,3.84-3.925c1.536-1.451,3.072-2.731,4.608-4.011c1.451-1.024,2.901-2.048,4.438-2.987
	c0.341-0.256,0.597-0.427,0.939-0.597c1.28-0.768,2.56-1.536,3.925-2.133c0.939-0.512,1.877-0.939,2.901-1.28
	c0.171-0.171,0.341-0.256,0.597-0.341c0.171-0.171,0.341-0.171,0.597-0.256c0.256-0.171,0.512-0.256,0.853-0.427
	c0.597-0.256,1.365-0.512,2.048-0.683c1.024-0.427,1.963-0.768,2.987-1.024c0.939-0.341,1.877-0.597,2.816-0.768
	c0.853-0.256,1.621-0.427,2.475-0.597c0.768-0.171,1.451-0.256,2.219-0.427c0.853-0.171,1.792-0.256,2.731-0.341
	c0.853-0.171,1.792-0.256,2.731-0.256c1.365-0.085,2.731-0.171,4.096-0.171c0.768,0,1.536,0,2.304,0.085L297.344,113.138z
	 M352.983,285.517c0-0.939-0.085-1.877-0.256-2.816c0-0.683-0.085-1.28-0.171-1.963c-0.085-1.024-0.256-2.048-0.427-2.987
	c0-0.085,0-0.256-0.085-0.341c-0.171-1.536-0.427-2.901-0.853-4.438c-0.341-1.365-0.683-2.731-1.109-4.096
	c-0.341-1.365-0.768-2.645-1.28-4.011c-0.427-1.28-0.939-2.56-1.451-3.84c-0.512-1.28-1.024-2.56-1.707-3.84
	c-0.597-1.28-1.195-2.475-1.877-3.669c-0.171-0.341-0.341-0.683-0.597-1.024c-0.683-1.365-1.451-2.645-2.304-3.925
	c-0.683-1.024-1.451-2.048-2.219-3.072c0.256,1.451,0.512,2.901,0.597,4.437c0.256,1.963,0.341,4.011,0.341,6.059
	c0,7.254-3.925,21.334-4.523,23.382c0.085,0.085,0.085,0.171,0.085,0.256c0.085,0.597,0.171,1.195,0.256,1.877
	c0,0.256,0.085,0.512,0.085,0.768c0.085,0.597,0.171,1.195,0.256,1.792c0.256,1.963,0.341,4.011,0.341,6.059
	c0,1.877-0.256,4.181-0.597,6.571c5.12-0.427,10.155-1.109,15.104-1.792c0.853-0.171,1.707-0.256,2.475-0.427v-0.427
	c0.085-1.28,0.085-2.645,0.085-3.925C353.154,288.59,353.069,287.054,352.983,285.517z M332.076,174.751
	c-0.768,0.256-1.536,0.512-2.304,0.768c-0.683,0.256-1.28,0.512-1.963,0.768v0.085c-2.731,1.109-5.462,2.389-8.022,3.84
	c-1.28,0.683-2.56,1.365-3.755,2.133c-1.536,0.939-2.987,1.963-4.352,2.987c0.683,1.28,1.707,2.304,2.987,3.072
	c1.365,0.853,2.901,1.28,4.437,1.28c2.816,0,5.632-1.451,7.254-4.096l1.877-2.987l0.683-1.109l0.256-0.512l0.853-1.365l0.341-0.597
	l2.816-4.608C332.759,174.495,332.417,174.58,332.076,174.751z"/>
<polygon style="fill:#2979FF;" points="413.743,102.557 403.161,96.071 384.046,34.288 392.067,32.837 "/>
<polygon style="fill:#0091EA;" points="403.161,96.071 381.059,82.503 320.812,45.467 366.979,37.275 384.046,34.288 "/>
<path style="fill:#BDBDBD;" d="M305.451,417.447v41.644c-1.365,0.683-4.267,1.707-8.534,1.707V418.13
	C299.819,418.13,302.635,417.874,305.451,417.447z"/>
<path style="fill:#F4F4F4;" d="M296.918,418.13v42.668c-4.267,0-7.168-1.024-8.534-1.707v-41.644
	C291.2,417.874,294.016,418.13,296.918,418.13z"/>
<path style="fill:#BDBDBD;" d="M356.653,477.865c0,0.341-0.085,0.683-0.256,1.024c-0.427,0.939-1.451,2.048-2.987,3.243
	c-0.341,0.341-0.853,0.683-1.365,0.939c-1.024,0.768-2.304,1.451-3.669,2.133c-2.475,1.28-5.462,2.475-8.96,3.669
	c-1.195,0.341-2.389,0.768-3.669,1.109c0.256-1.195,0.341-2.389,0.341-3.584c0-8.79-5.718-15.702-14.592-20.907c0,0,0.085,0,0-0.085
	c0.427-0.853,0.597-1.707,0.768-2.645C346.242,466.601,356.653,474.793,356.653,477.865z"/>
<g>
	<path style="fill:#F4F4F4;" d="M336.087,486.399c0,1.195-0.085,2.389-0.341,3.584c-4.096,1.28-8.704,2.304-13.91,3.072
		c-1.621,0.256-3.243,0.512-4.949,0.683c-2.389,0.341-4.779,0.597-7.339,0.768h-0.171c-3.925,0.256-8.022,0.427-12.459,0.427
		c-19.03,0-33.708-2.901-43.777-6.486c-3.669-1.28-6.742-2.645-9.216-4.096c-0.853-0.427-1.621-0.853-2.304-1.365
		c-0.683-0.427-1.28-0.939-1.792-1.365c-1.024-0.853-1.792-1.621-2.133-2.389c-0.171-0.171-0.171-0.341-0.256-0.512
		c-0.171-0.171-0.171-0.341-0.171-0.512c-0.085-0.171-0.085-0.256-0.085-0.341c0-2.048,4.437-6.23,14.336-9.899
		c2.816-1.109,6.059-2.219,9.814-3.072c0.939-0.256,1.877-0.512,2.816-0.683c1.195-0.256,2.389-0.512,3.669-0.768
		c1.195-0.256,2.475-0.512,3.755-0.683c0.085,0.683,0.256,1.365,0.512,2.048c0.597,1.963,1.707,3.755,3.243,5.376
		c0.683,0.768,1.451,1.451,2.304,2.133c1.536,1.195,3.413,2.219,5.547,3.072c1.28,0.597,2.731,1.024,4.181,1.365
		c2.901,0.683,6.144,1.109,9.558,1.109c1.536,0,3.072-0.085,4.523-0.256c0.939-0.085,1.877-0.171,2.816-0.427
		c0.427,0,0.939-0.085,1.365-0.256h0.085c0.512-0.085,0.939-0.171,1.365-0.341c1.28-0.341,2.475-0.683,3.584-1.195
		c5.376-2.133,9.216-5.547,10.838-9.899C330.369,470.697,336.087,477.609,336.087,486.399z"/>
	<path style="fill:#F4F4F4;" d="M339.415,488.874c3.499-1.195,6.486-2.389,8.96-3.669
		C345.901,486.484,342.914,487.764,339.415,488.874z"/>
</g>
<path style="fill:#BDBDBD;" d="M347.437,350.458c-0.256,1.792-0.512,3.499-0.939,5.291c-0.341,1.621-0.683,3.243-1.195,4.779
	c-1.024,3.499-2.219,6.742-3.755,9.899c-0.683,1.451-1.451,2.901-2.219,4.267c-0.085,0.171-0.256,0.341-0.256,0.512
	c-0.853,1.28-1.621,2.56-2.56,3.84c-0.853,1.195-1.707,2.389-2.645,3.499c-1.195,1.451-2.389,2.816-3.669,4.096
	c-1.024,1.024-2.133,2.048-3.243,2.987c-0.768,0.683-1.621,1.365-2.475,1.963s-1.621,1.195-2.56,1.792
	c-1.024,0.683-2.048,1.28-3.157,1.877c-1.024,0.683-2.133,1.195-3.243,1.707s-2.219,0.939-3.413,1.365
	c8.619-11.862,14.166-26.625,15.19-42.839c3.584-0.597,7.083-1.365,10.582-2.304C341.122,352.421,344.279,351.482,347.437,350.458z"
	/>
<path style="fill:#F4F4F4;" d="M327.297,355.493c-1.024,16.214-6.571,30.977-15.19,42.839c0,0,0,0.085-0.085,0.085
	c-2.048,0.683-4.096,1.28-6.23,1.707c-1.109,0.256-2.133,0.427-3.243,0.512c-1.877,0.341-3.755,0.427-5.632,0.427
	c-3.328,0-6.656-0.341-9.814-1.109c-1.28-0.256-2.56-0.597-3.84-1.109c-1.024-0.256-2.048-0.683-3.072-1.109
	c-0.597-0.171-1.28-0.427-1.877-0.768c-0.341-0.085-0.683-0.256-0.939-0.427c-0.939-0.427-1.877-0.939-2.731-1.451
	c-1.109-0.597-2.133-1.195-3.157-1.963c-2.304-1.536-4.523-3.328-6.571-5.376c-1.365-1.195-2.645-2.475-3.84-3.925
	c-0.171-0.085-0.171-0.171-0.256-0.256c-1.195-1.451-2.389-2.987-3.499-4.523c-0.171-0.256-0.341-0.427-0.427-0.683
	c-1.109-1.621-2.133-3.328-3.072-5.035c-0.256-0.427-0.512-0.853-0.683-1.28c-0.939-1.707-1.707-3.499-2.475-5.376
	c-0.341-0.768-0.597-1.536-0.939-2.389c-0.427-1.109-0.768-2.304-1.109-3.499c-0.512-1.621-0.939-3.328-1.28-5.035
	c-0.427-1.792-0.683-3.499-0.939-5.291c15.617,5.035,32.684,7.936,50.519,7.936c2.219,0,4.437-0.085,6.656-0.171
	c1.109,0,2.219-0.085,3.328-0.171c1.877-0.085,3.669-0.256,5.462-0.427c2.475-0.171,4.864-0.512,7.254-0.853h0.427
	C322.518,356.432,324.908,356.005,327.297,355.493z"/>
<path style="fill:#BDBDBD;" d="M410.073,277.325c-7.766,18.262-22.529,33.964-41.815,45.314
	c10.24-11.008,18.006-23.553,22.699-37.207C398.041,283.043,404.441,280.312,410.073,277.325z"/>
<path style="fill:#F4F4F4;" d="M390.958,285.432c-4.693,13.654-12.459,26.198-22.699,37.207
	c-16.385,9.728-36.183,16.129-57.602,18.006c-4.523,0.512-9.131,0.683-13.739,0.683c-39.681,0-74.84-15.275-96.601-38.743
	c-5.718-6.23-10.582-13.056-14.166-20.395c-0.853-1.451-1.536-2.987-2.219-4.523c-0.085-0.085-0.085-0.256-0.171-0.341
	c0.085,0,0.085,0.085,0.171,0.085c5.888,3.157,12.63,5.974,20.054,8.363c25.516,8.534,59.309,12.886,92.931,12.886
	c18.262,0,36.609-1.28,53.676-3.755c6.571-1.024,13.056-2.219,19.201-3.584C377.304,289.699,384.387,287.736,390.958,285.432z"/>
<path style="fill:#BDBDBD;" d="M203.048,255.991c0,3.925,0.427,7.851,1.024,11.691c-17.067-6.4-26.625-13.91-26.625-20.225
	c0-4.096,6.315-12.544,20.054-19.201l10.155,1.707C204.755,238.071,203.048,246.86,203.048,255.991z"/>
<path style="fill:#388E3C;" d="M416.388,247.458c0,0.512-0.085,1.109-0.256,1.621c-0.085,0.256-0.171,0.512-0.256,0.853
	c-1.28,3.499-5.206,7.339-11.606,11.008c-0.768,0.427-1.536,0.853-2.475,1.365c-0.853,0.512-1.792,1.024-2.816,1.451
	c0.256-2.56,0.341-5.12,0.341-7.766c0-2.645-0.171-5.291-0.427-7.851c-1.109-10.752-4.438-20.907-9.643-29.953
	c-1.28-2.304-2.731-4.523-4.352-6.656v-0.085c-6.912-9.814-16.214-17.921-27.052-23.467c-0.171-0.085-0.256-0.171-0.427-0.171
	c0.341-0.085,0.683-0.085,0.939,0c3.157,0,6.144,0.341,9.131,0.939c0.853,0.171,1.792,0.341,2.731,0.512
	c0.768,0.171,1.536,0.341,2.219,0.597c0.939,0.256,1.877,0.512,2.816,0.853c1.621,0.512,3.157,1.109,4.608,1.707
	c1.195,0.512,2.389,1.024,3.499,1.621c5.462,2.731,10.496,6.315,14.849,10.582c0.853,0.853,1.707,1.707,2.475,2.645
	c1.792,1.877,3.328,3.755,4.779,5.803c0.768,1.024,1.365,2.048,2.048,3.072c0.341,0.512,0.597,1.024,0.939,1.536
	c0.427,0.768,0.939,1.621,1.28,2.475c0.597,1.024,1.109,2.133,1.536,3.243c0.683,1.365,1.195,2.816,1.707,4.267
	c0.427,1.024,0.768,2.133,1.024,3.157c0.427,1.195,0.683,2.475,0.939,3.755c0.171,0.427,0.256,0.768,0.341,1.195
	c0.341,1.707,0.597,3.413,0.683,5.12C416.303,243.02,416.388,245.239,416.388,247.458z"/>
<path style="fill:#4CAF50;" d="M398.894,248.14c0.256,2.56,0.427,5.206,0.427,7.851c0,2.645-0.085,5.206-0.341,7.766
	c-6.571,3.157-14.934,6.23-24.833,8.79c-2.133,0.597-4.267,1.109-6.4,1.621c-0.597,0.171-1.195,0.256-1.792,0.427
	c-3.84,0.853-7.936,1.621-12.203,2.389c0-0.085,0-0.085,0-0.171c0.256-0.768,0.427-1.536,0.597-2.304
	c0.512-1.707,0.853-3.499,1.109-5.291c0.427-2.133,0.683-4.352,0.853-6.486c0.085-0.683,0.171-1.451,0.171-2.133
	c0.085-1.536,0.171-3.072,0.171-4.608c0-2.475-0.085-4.949-0.427-7.424c0-0.853-0.085-1.707-0.256-2.475
	c-0.256-2.475-0.683-4.864-1.28-7.254c-0.256-1.365-0.683-2.731-1.109-4.096c-0.341-1.365-0.768-2.731-1.28-4.011
	c-0.341-1.28-0.853-2.56-1.451-3.84c-0.512-1.28-1.024-2.56-1.707-3.84c-0.597-1.28-1.195-2.475-1.877-3.669
	c-0.853-1.707-1.877-3.328-2.901-4.949c-1.195-1.877-2.475-3.669-3.84-5.376c-0.683-0.939-1.451-1.877-2.304-2.731
	c-1.877-2.304-3.925-4.437-6.059-6.4c-1.024-0.939-2.048-1.877-3.072-2.731c-0.256-0.256-0.427-0.427-0.683-0.597
	c-0.427-0.341-0.853-0.683-1.28-1.024c0.939-0.597,1.963-1.109,2.987-1.536c2.389-1.28,4.949-2.304,7.51-3.157
	c1.195-0.427,2.389-0.853,3.669-1.109c1.536-0.427,2.987-0.768,4.523-1.024c1.536-0.341,3.072-0.512,4.608-0.683
	c1.109-0.171,2.219-0.256,3.328-0.256c0.939-0.085,1.963-0.085,2.901-0.085h0.768v0.085c0.171,0,0.256,0.085,0.427,0.171
	c10.838,5.547,20.139,13.654,27.052,23.467v0.085c1.621,2.133,3.072,4.352,4.352,6.656
	C394.457,227.233,397.785,237.388,398.894,248.14z"/>
<path style="fill:#AD1457;" d="M339.586,255.991c0,7.254-3.925,21.334-4.523,23.382c-0.085,0.171-0.085,0.256-0.085,0.256
	c-2.901,0.341-5.803,0.597-8.875,0.853c0.512-2.731,0.853-5.462,1.109-8.192c0.256-2.56,0.341-5.12,0.341-7.766
	s-0.171-5.291-0.427-7.851c-1.109-10.752-4.437-20.907-9.643-29.953c-1.28-2.304-2.731-4.523-4.352-6.656v-0.085
	c-6.827-9.728-16.043-17.75-26.71-23.297c0.341,0,0.597,0,0.939,0.085c1.195,0.085,2.304,0.256,3.413,0.512
	c0.085,0,0.256,0,0.341,0.085c0.853,0.085,1.621,0.256,2.389,0.512c0.768,0.171,1.536,0.341,2.219,0.597
	c1.195,0.256,2.304,0.597,3.413,1.024c1.109,0.341,2.304,0.768,3.328,1.28c0.427,0.085,0.853,0.256,1.28,0.512
	c1.792,0.768,3.499,1.621,5.206,2.56c1.024,0.512,2.048,1.195,3.072,1.877c0.171,0.085,0.427,0.171,0.597,0.341
	c0.939,0.597,1.877,1.28,2.731,1.963c0.597,0.427,1.195,0.853,1.792,1.365l0.427,0.427c0.171,0.085,0.341,0.256,0.512,0.341
	c0.597,0.512,1.28,1.024,1.877,1.707c0.171,0.085,0.256,0.256,0.427,0.427c0.341,0.256,0.683,0.512,1.024,0.853
	c0.427,0.341,0.768,0.683,1.024,1.024c1.792,1.792,3.499,3.755,4.949,5.803c1.536,1.963,2.816,3.925,4.011,6.059
	c0.512,0.939,1.024,1.792,1.536,2.731c0.853,1.536,1.621,3.072,2.219,4.693c0.427,1.024,0.853,2.133,1.195,3.243
	c0.171,0.171,0.171,0.427,0.256,0.683c0.427,1.195,0.768,2.389,1.024,3.584c0,0,0.085,0,0,0.085
	c0.171,0.341,0.256,0.683,0.341,1.109c0,0.085,0.085,0.171,0,0.256c0.256,0.939,0.512,1.877,0.597,2.816
	c0.085,0.085,0.085,0.171,0.085,0.256c0.256,1.451,0.512,2.901,0.597,4.437C339.5,251.895,339.586,253.943,339.586,255.991z"/>
<g>
	<path style="fill:#D81B60;" d="M317.569,209.824l-0.427-0.427c0.171,0,0.256,0.171,0.341,0.256
		c0.256,0.085,0.427,0.256,0.597,0.512C317.91,210.08,317.74,209.91,317.569,209.824z"/>
	<path style="fill:#D81B60;" d="M320.385,212.299c-0.171-0.171-0.256-0.341-0.427-0.427c0.512,0.341,1.024,0.768,1.451,1.28
		C321.068,212.811,320.726,212.555,320.385,212.299z"/>
	<path style="fill:#D81B60;" d="M327.127,256.674c0.256,2.56,0.427,5.206,0.427,7.851s-0.085,5.206-0.341,7.766
		c-0.256,2.731-0.597,5.462-1.109,8.192c-5.632,0.427-11.606,0.768-17.75,0.939c-1.621,0.085-3.243,0.085-4.949,0.085h-0.768
		c-1.877,0.085-3.755,0.085-5.718,0.085c-1.792,0-3.584,0-5.291-0.085c-14.934-0.171-28.673-1.195-41.047-2.901
		c-6.059-0.768-11.691-1.707-17.067-2.816c-4.011-0.768-7.851-1.621-11.435-2.56c0-0.256-0.171-1.451-0.427-3.157
		c0-0.427-0.085-0.939-0.171-1.536c-0.085-0.512-0.171-1.024-0.256-1.536c-0.085-0.768-0.171-1.451-0.341-2.219
		c-0.085-1.28-0.256-2.475-0.427-3.669c0-0.597-0.085-1.109-0.171-1.621c-0.085-1.365-0.171-2.56-0.171-3.499
		c0-1.792,0.085-3.584,0.256-5.291c0.171-1.877,0.427-3.84,0.768-5.632c0.085-0.683,0.256-1.28,0.427-1.963
		c0.256-1.451,0.683-2.901,1.109-4.267v-0.256c0.597-1.707,1.195-3.413,1.877-5.035c0.683-1.792,1.536-3.499,2.389-5.206
		c0.427-0.512,0.683-1.109,0.939-1.621c0.939-1.621,1.963-3.243,3.072-4.779c-0.085-0.085,0-0.085,0-0.085h0.085
		c0.768-1.195,1.621-2.389,2.56-3.499c0.683-0.853,1.365-1.621,2.048-2.389c1.195-1.365,2.475-2.645,3.84-3.84
		c0.256-0.341,0.512-0.597,0.853-0.768c1.621-1.451,3.328-2.816,5.12-4.096c0.939-0.597,1.877-1.28,2.816-1.877
		c0.256-0.171,0.512-0.427,0.853-0.512c1.707-1.109,3.584-2.133,5.462-2.901c0.939-0.427,1.963-0.853,2.901-1.28
		c2.219-1.024,4.523-1.792,6.912-2.389c1.024-0.256,2.133-0.597,3.243-0.768c1.365-0.341,2.645-0.512,4.011-0.683
		c1.365-0.256,2.731-0.341,4.096-0.427c1.365-0.085,2.731-0.171,4.096-0.171c1.621,0,3.243,0.085,4.864,0.256
		c0.597,0,1.109,0.085,1.621,0.171h0.085c10.667,5.547,19.883,13.568,26.71,23.297v0.085c1.621,2.133,3.072,4.352,4.352,6.656
		C322.689,235.766,326.017,245.922,327.127,256.674z"/>
</g>
<path style="fill:#BDBDBD;" d="M364.589,171.082c-0.768-0.085-1.536-0.171-2.304-0.171c-1.877-0.171-3.755-0.256-5.632-0.256
	c-1.963,0-3.84,0.085-5.803,0.256c-2.133,0.171-4.267,0.427-6.4,0.768c-1.451-9.472-4.608-18.433-9.216-26.454
	c-0.256-0.427-0.512-0.853-0.768-1.28v-0.085l7.339-11.947c0.597,0.427,1.195,0.939,1.792,1.536c1.621,1.28,3.157,2.645,4.523,4.181
	c1.536,1.451,2.901,3.072,4.181,4.779c0.597,0.683,1.195,1.365,1.621,2.133c0.939,1.195,1.792,2.475,2.56,3.84
	c2.731,4.437,4.864,9.302,6.315,14.507c0.512,1.792,0.939,3.669,1.28,5.547C364.333,169.29,364.504,170.143,364.589,171.082z"/>
<path d="M326.871,123.464l-3.584,5.888c-3.413-3.499-7.168-6.656-11.264-9.472h0.085c1.365,0.085,2.816,0.341,4.181,0.597
	c1.024,0.171,2.048,0.427,3.072,0.768c1.195,0.256,2.304,0.512,3.413,0.853C324.225,122.525,325.505,122.952,326.871,123.464z"/>
<path style="fill:#F4F4F4;" d="M344.45,171.679c-1.109,0.171-2.219,0.341-3.243,0.683c-1.109,0.085-2.133,0.341-3.243,0.683
	c-1.621,0.341-3.243,0.853-4.779,1.365c-0.427,0.085-0.768,0.171-1.109,0.341c-1.451,0.512-2.901,1.024-4.267,1.621
	c-2.731,1.109-5.462,2.389-8.022,3.84c-1.28,0.683-2.56,1.365-3.755,2.133c-1.536,0.939-2.987,1.963-4.352,2.987
	c-0.256,0.171-0.512,0.341-0.768,0.512c-1.707-0.768-3.499-1.536-5.291-2.133c-0.171-0.085-0.341-0.085-0.427-0.171
	c-3.584-1.28-7.254-2.304-11.008-2.987c-1.365-0.256-2.816-0.512-4.267-0.683c-1.621-0.256-3.243-0.427-4.949-0.512
	c-1.707-0.085-3.413-0.171-5.12-0.171c-1.877,0-3.669,0.085-5.462,0.256c-2.219,0.085-4.438,0.427-6.571,0.768
	c-0.085,0-0.085,0-0.171,0.085c-0.341,0-0.768,0.085-1.109,0.171c-1.707,0.256-3.413,0.597-5.035,1.024l-7.936-32.001
	c0-0.085,0.085-0.085,0.171-0.171c0.256-0.512,0.597-0.939,0.939-1.451v-0.085c0.597-1.024,1.195-1.963,1.792-2.901
	c0.683-0.853,1.28-1.621,1.877-2.389c0.683-0.853,1.28-1.621,1.963-2.389c0.085-0.085,0.171-0.256,0.341-0.427
	c1.28-1.365,2.56-2.731,3.84-3.925c1.536-1.451,3.072-2.731,4.608-4.011c1.451-1.024,2.901-2.048,4.437-2.987
	c0.341-0.256,0.597-0.427,0.939-0.597c1.28-0.768,2.56-1.536,3.925-2.133c0.939-0.512,1.877-0.939,2.816-1.365
	c0.171-0.085,0.427-0.171,0.683-0.256c0.171-0.171,0.341-0.171,0.597-0.256c0.939-0.512,1.877-0.853,2.901-1.109
	c1.024-0.427,1.963-0.768,2.987-1.024c0.939-0.341,1.877-0.597,2.816-0.768c0.853-0.256,1.621-0.427,2.475-0.597
	c0.768-0.171,1.451-0.256,2.219-0.427c0.853-0.171,1.792-0.256,2.731-0.341c0.853-0.171,1.792-0.256,2.731-0.256
	c1.365-0.085,2.731-0.171,4.096-0.171c0.768,0,1.536,0,2.304,0.085c0.256,0,0.512,0,0.768,0.085c1.109,0,2.219,0.085,3.328,0.171
	c0.085,0,0.085,0.085,0.085,0.085h0.085c4.096,2.816,7.851,5.974,11.264,9.472c0,0,0,0,0,0.085l-8.022,13.142
	c-0.341,0.597-0.683,1.195-0.768,1.792c-0.085,0.085-0.171,0.256-0.171,0.341c0,0,0,0,0,0.085c-0.085,0.512-0.171,1.024-0.171,1.536
	c-0.171,0.939-0.085,1.963,0.256,2.816c0.171,0.768,0.427,1.451,0.768,2.048c0.341,0.683,0.768,1.195,1.28,1.707
	c0.512,0.597,1.109,1.024,1.707,1.365c0.597,0.341,1.195,0.683,1.877,0.853c0.427,0.171,0.939,0.256,1.365,0.256
	c0.427,0.171,0.768,0.171,1.195,0.171c2.816,0,5.632-1.451,7.254-4.096l4.608-7.51c0.256,0.427,0.512,0.853,0.768,1.28
	C339.842,153.246,342.999,162.207,344.45,171.679z"/>
<g>
	<path style="fill:#6D4C41;" d="M223.443,98.802c-1.877-1.877-4.011-3.584-6.4-5.12h-0.085c-2.901-1.963-6.059-3.669-9.472-4.949
		c-1.707-0.683-3.499-1.195-5.291-1.707c-1.621-0.427-3.243-0.768-4.864-1.109c-1.365-0.171-2.645-0.341-4.011-0.512
		c-1.707-0.171-3.413-0.256-5.12-0.256c-4.608,0-9.216,0.597-13.568,1.707c-5.12,1.28-9.984,3.413-14.336,6.23
		c0-0.256,0-0.512,0.085-0.768c0.085-0.427,0.171-0.853,0.341-1.28c0.171-0.939,0.427-1.792,0.768-2.731
		c0.341-1.024,0.683-1.963,1.195-2.987c0-0.085,0-0.171,0.085-0.256c0.341-0.768,0.768-1.621,1.28-2.389
		c0-0.171,0.085-0.341,0.256-0.512c0.427-0.768,0.853-1.451,1.451-2.133c0.597-0.939,1.28-1.792,2.048-2.56
		c0.853-0.853,1.707-1.707,2.731-2.475c0.427-0.341,0.853-0.683,1.365-1.024c0.939-0.768,2.048-1.365,3.157-1.963
		c0.085-0.085,0.171-0.085,0.256-0.171c0.341-0.171,0.768-0.341,1.109-0.512c0.939-0.427,1.963-0.853,2.987-1.195
		c1.451-0.512,2.987-0.939,4.608-1.28h0.085c0.597-0.171,1.28-0.256,1.963-0.341c4.864-0.768,10.155-0.512,15.275,0.853
		c0.597,0.171,1.109,0.341,1.707,0.427c0.683,0.256,1.28,0.512,1.877,0.768c0.683,0.171,1.28,0.427,1.792,0.768
		c0.171,0.085,0.341,0.171,0.512,0.256c0.853,0.427,1.707,0.853,2.475,1.28c0.768,0.427,1.536,0.939,2.219,1.451
		c0.768,0.512,1.451,1.024,2.048,1.621c0.853,0.683,1.536,1.451,2.219,2.219c0.597,0.683,1.195,1.451,1.621,2.304
		c0.085,0.085,0.171,0.171,0.171,0.256c0.512,0.683,0.853,1.365,1.109,2.048c0.171,0.256,0.256,0.427,0.341,0.597
		c0.341,0.939,0.597,1.792,0.853,2.731L223.443,98.802z"/>
	<path style="fill:#6D4C41;" d="M106.959,178.25c1.536,7.168,4.352,13.568,8.192,18.945l-5.291-0.853
		c-1.109-0.427-2.219-0.853-3.328-1.451c-0.683-0.427-1.365-0.853-2.048-1.451c-2.645-1.792-4.949-4.352-6.827-7.339
		c-0.341-0.512-0.683-1.024-0.853-1.536c-0.512-0.768-0.939-1.621-1.28-2.475c-0.256-0.427-0.427-0.853-0.597-1.365v-0.085
		c-0.341-0.683-0.512-1.28-0.768-1.963c0-0.085-0.085-0.256-0.171-0.341c-0.341-1.195-0.683-2.475-0.939-3.755
		c-0.939-4.267-1.28-9.387-0.427-14.422v-0.085c0.085-0.768,0.256-1.536,0.427-2.304c0.171-0.597,0.256-1.109,0.512-1.621
		c0.171-0.683,0.427-1.451,0.683-2.133c0.341-1.109,0.853-2.133,1.451-3.157c0.341-0.853,0.768-1.621,1.365-2.389
		c0-0.171,0.085-0.256,0.171-0.341c0.341-0.512,0.768-1.024,1.195-1.536c0.427-0.597,0.853-1.109,1.365-1.621
		c0.512-0.683,1.109-1.195,1.707-1.792c2.219-2.048,4.864-3.669,7.851-4.864c0.853-0.427,1.707-0.683,2.645-1.024
		c0.939-0.341,1.963-0.597,2.987-0.853h0.341c-1.877,2.389-3.499,5.035-4.779,7.851c-0.085,0.085-0.171,0.171-0.171,0.256
		C105.679,154.441,104.399,166.388,106.959,178.25z"/>
	<path style="fill:#6D4C41;" d="M245.375,187.466c-0.341,0.171-0.768,0.341-1.109,0.597c-3.243,1.707-6.4,3.584-9.302,5.718
		c-0.683,0.512-1.365,1.024-2.048,1.536l-25.43-106.585c3.413,1.28,6.571,2.987,9.472,4.949h0.085c2.389,1.536,4.523,3.243,6.4,5.12
		v0.085l6.656,26.796l3.84,15.446l2.816,11.35l4.608,18.774L245.375,187.466z"/>
</g>
<path style="fill:#8D6E63;" d="M232.915,195.317c-2.048,1.536-3.925,3.157-5.718,4.949c-0.853,0.768-1.707,1.536-2.389,2.389
	c-0.256,0.171-0.427,0.427-0.597,0.597c-0.939,1.024-1.877,2.048-2.731,3.072c-0.171,0.171-0.341,0.256-0.427,0.427
	c-0.085,0.085-0.256,0.256-0.341,0.427c-0.256,0.256-0.512,0.512-0.768,0.853c-0.341,0.427-0.683,0.853-1.024,1.365
	c-0.768,1.024-1.536,2.048-2.219,3.072c-0.427,0.512-0.768,1.024-1.109,1.536l-1.28-0.171l-21.249-3.584l-1.195-0.171l-5.803-0.939
	l-22.102-3.755l-25.345-4.267l-23.467-3.925c-3.84-5.376-6.656-11.776-8.192-18.945c-2.56-11.862-1.28-23.809,3.413-33.708
	c0-0.085,0.085-0.171,0.171-0.256c1.28-2.816,2.901-5.462,4.779-7.851l0.085-0.085c0.939-0.171,2.048-0.341,3.072-0.512
	c0.853-0.171,1.792-0.256,2.645-0.341c3.499-0.256,7.339-0.256,11.35,0.256c1.877,0.171,3.84,0.427,5.888,0.768
	c0.085,0,0.256,0.085,0.341,0.085c1.28,0.171,2.56,0.427,3.84,0.768c3.499,0.768,7.168,1.707,10.923,2.987
	c0.853,0.341,1.707,0.427,2.56,0.427c2.304,0,4.523-0.853,6.144-2.475c0.256-0.256,0.427-0.427,0.597-0.683
	c0.256-0.341,0.512-0.597,0.683-0.939c0.171-0.256,0.341-0.597,0.427-0.853c0.939-1.963,1.024-4.181,0.341-6.23
	c-1.28-3.925-2.304-7.68-2.987-11.264c-0.171-0.683-0.341-1.28-0.427-1.963c-1.024-4.95-1.451-9.558-1.451-13.824
	c0-2.475,0.171-4.779,0.427-6.998c0.085-0.853,0.256-1.707,0.427-2.475c0.085,0,0.085,0,0.085,0c4.352-2.816,9.216-4.95,14.336-6.23
	c4.352-1.109,8.96-1.707,13.568-1.707c1.707,0,3.413,0.085,5.12,0.256c1.365,0.085,2.731,0.341,4.011,0.512
	c1.621,0.341,3.243,0.683,4.864,1.109c1.792,0.512,3.584,1.024,5.291,1.707L232.915,195.317z"/>
<g>
</g>
<g>
</g>
<g>
</g>
<g>
</g>
<g>
</g>
<g>
</g>
<g>
</g>
<g>
</g>
<g>
</g>
<g>
</g>
<g>
</g>
<g>
</g>
<g>
</g>
<g>
</g>
<g>
</g>
</svg>
