<?xml version="1.0" encoding="iso-8859-1"?>
<!-- Generator: Adobe Illustrator 19.0.0, SVG Export Plug-In . SVG Version: 6.00 Build 0)  -->
<svg version="1.1" id="Layer_1" xmlns="http://www.w3.org/2000/svg" xmlns:xlink="http://www.w3.org/1999/xlink" x="0px" y="0px"
	 viewBox="0 0 512.002 512.002" style="enable-background:new 0 0 512.002 512.002;" xml:space="preserve">
<path d="M50.808,112.04c-0.427-2.815-1.194-5.716-2.304-8.702c-0.427-1.194-0.938-2.474-1.536-3.669
	c-0.171,0.341-0.341,0.683-0.512,1.024c-1.706,3.498-4.266,7.081-7.337,10.409c-0.768,0.853-1.536,1.621-2.304,2.389
	c-1.706,1.621-2.645,3.839-2.645,6.228c0,2.304,0.938,4.522,2.645,6.143c2.986,2.815,5.46,5.631,7.508,8.446
	c0.427,0.597,0.853,1.109,1.194,1.706c0.085,0,0.085,0.085,0.085,0.085c0.171-0.256,0.341-0.597,0.512-0.853
	c0.512-0.683,0.938-1.365,1.28-2.048c0.256-0.427,0.427-0.768,0.683-1.194c0.597-1.194,1.109-2.474,1.536-3.754
	c0.085-0.256,0.171-0.512,0.256-0.768c1.28-4.01,1.706-8.361,1.28-12.968C51.064,113.746,50.979,112.893,50.808,112.04z
	 M505.032,456.803l-76.443-74.737l-6.825-6.655l-4.351-4.181l66.461-66.461c3.327-3.327,3.327-8.788,0-12.115l-19.623-19.537
	l2.559-2.474c3.327-3.327,3.327-8.788,0-12.115L228.01,19.813C212.994,4.115,185.437-2.54,150.287,0.873
	c-0.256,0-0.597,0.085-0.853,0.085c-30.799,3.157-67.315,14.589-89.582,30.287c-1.365,0.938-2.645,1.962-3.925,2.901
	c-3.071,2.474-5.802,4.948-8.105,7.593c-1.45,1.621-2.645,3.242-3.754,4.948c-1.792,2.815-1.792,6.484,0,9.214
	c0.085,0.171,0.171,0.256,0.256,0.427c0.085,0.171,0.171,0.256,0.256,0.427c0.171,0.171,0.341,0.341,0.341,0.512
	c4.351,6.143,5.972,12.286,4.522,16.893c0,0.341-0.171,0.683-0.256,1.024c-0.427,1.109-1.109,2.133-1.962,3.157
	c-0.256,0.341-0.512,0.683-0.853,1.024c-0.171,0.171-0.341,0.256-0.512,0.427c-2.901,2.645-7.337,4.607-13.053,5.716
	c-0.085,0.085-0.171,0.085-0.256,0.085c-0.853,0.171-1.621,0.427-2.389,0.853c-1.706,0.853-3.071,2.304-3.839,4.18
	c-1.109,2.559-0.853,5.546,0.683,7.934c0.768,1.28,1.536,2.474,2.218,3.583c0.256,0.597,0.597,1.194,0.938,1.792v0.085
	c3.157,6.057,4.522,11.347,4.01,15.698c-0.171,1.024-0.341,1.962-0.683,2.901c0,0.085,0,0.085-0.085,0.171
	c-0.512,1.536-1.45,3.071-2.73,4.436c-2.645,3.327-7.167,6.313-13.48,8.702c-0.341,0.171-0.768,0.341-1.194,0.512
	c-0.597,0.256-1.109,0.512-1.706,0.683c-2.218,0.768-4.01,2.389-5.034,4.607c-0.938,2.133-0.938,4.692,0,6.825
	c0.683,1.706,1.45,3.242,2.218,4.607c0.171,0.512,0.427,0.938,0.683,1.365c1.194,2.389,2.474,4.436,3.583,6.399
	c2.048,3.498,3.669,6.313,4.351,9.129c0.938,3.839,0.085,7.678-3.839,13.309c-2.645,3.839-6.825,8.532-12.883,14.589
	c-0.256,0.256-0.512,0.597-0.853,0.853c-0.341,0.341-0.683,0.768-0.938,1.194c-0.341,0.427-0.597,0.938-0.853,1.45
	c-0.171,0.427-0.341,0.938-0.427,1.45c-0.085,0.085-0.085,0.171-0.085,0.256c-0.256,1.365-0.256,2.73,0.171,4.01
	c0.341,1.365,1.109,2.645,2.133,3.669c0,0.085,0,0.085,0,0.085L258.468,466.87c1.706,1.621,3.839,2.474,6.057,2.474
	c2.218,0,4.351-0.853,6.057-2.474l2.474-2.559l5.119,5.119l3.498,3.498l9.214,9.214l1.706,1.792
	c1.706,1.621,3.839,2.474,6.057,2.474s4.351-0.853,6.057-2.474l37.027-37.113l8.873-8.873l3.242-3.242l8.788-8.788l4.436-4.436
	l4.436,4.095l6.996,6.569l65.949,61.342l8.958,8.361l3.413,3.242c0.085,0.085,0.085,0.085,0.171,0.171
	c3.157,3.071,6.911,5.119,11.091,6.057c0.341,0.085,0.768,0.171,1.109,0.256c1.45,0.256,2.901,0.427,4.436,0.427h0.939
	c6.569-0.256,12.797-2.986,17.575-7.764l2.645-2.645l3.413-3.327l5.972-6.057c4.778-4.778,7.508-11.006,7.764-17.575
	C512.207,467.894,509.724,461.495,505.032,456.803z M24.616,200.086c1.194-1.365,2.218-2.73,3.242-4.01
	c0.341-0.427,0.683-0.853,0.938-1.28c0.085-0.085,0.085-0.085,0.171-0.171c0.597-0.768,1.109-1.536,1.621-2.304
	s1.024-1.536,1.45-2.304c0.171-0.171,0.256-0.341,0.256-0.512c1.194-1.962,2.218-3.754,2.901-5.546
	c0.427-0.938,0.768-1.962,1.109-2.901c0.341-0.938,0.597-1.877,0.768-2.815c0.171-0.938,0.341-1.792,0.427-2.73
	c0.085-0.938,0.171-1.792,0.171-2.645c0-1.45-0.171-2.901-0.427-4.351c-0.085-0.256-0.085-0.512-0.171-0.768
	c-0.171-0.768-0.341-1.536-0.512-2.218c-0.085-0.171-0.085-0.256-0.085-0.341v-0.085c-0.171-0.341-0.256-0.597-0.341-0.938
	c-1.28-3.754-3.242-7.593-5.631-11.688c-0.512-1.024-1.109-1.962-1.621-2.986c3.327-1.621,6.313-3.498,8.873-5.546
	c0.853-0.597,1.621-1.194,2.389-1.877c0.341-0.341,0.683-0.597,0.938-0.853c0.683-0.683,1.45-1.365,2.048-2.133
	c0.597-0.597,1.109-1.28,1.621-1.962c0.341-0.341,0.597-0.683,0.853-1.024c0.171-0.256,0.341-0.597,0.512-0.853
	c0.512-0.683,0.938-1.365,1.28-2.048c0.256-0.427,0.427-0.768,0.683-1.194c0.597-1.194,1.109-2.474,1.536-3.754
	c0.085-0.256,0.171-0.512,0.256-0.768c1.28-4.01,1.706-8.361,1.28-12.968c-0.085-0.768-0.171-1.621-0.341-2.474
	c-0.427-2.815-1.194-5.716-2.304-8.702c-0.427-1.194-0.938-2.474-1.536-3.669c-0.085-0.171-0.171-0.427-0.256-0.597
	c2.645-1.109,5.034-2.474,7.167-4.01c1.109-0.683,2.133-1.536,3.157-2.389c1.024-0.938,1.962-1.877,2.901-2.901
	c0.768-0.938,1.536-1.877,2.218-2.901c1.194-1.706,2.133-3.498,2.901-5.46c0.341-0.853,0.597-1.706,0.853-2.559c0,0,0-0.085,0-0.171
	c0.341-0.853,0.512-1.706,0.683-2.559c0-0.085,0-0.256,0.085-0.341c0.256-1.536,0.427-3.157,0.427-4.692
	c0-0.853,0-1.792-0.171-2.645c0-0.938-0.085-1.792-0.256-2.73c-0.171-1.536-0.512-3.071-1.024-4.522
	c-0.427-1.536-0.938-2.986-1.536-4.522c-0.683-1.536-1.45-3.157-2.304-4.692c1.109,0.341,2.218,0.597,3.413,1.024
	c0.768,0.171,1.536,0.427,2.304,0.768c1.536,0.512,3.157,1.194,4.607,1.962c0.512,0.256,1.024,0.597,1.536,0.853
	c0.938,0.427,1.792,1.024,2.559,1.706c0.683,0.512,1.365,0.938,1.962,1.536c0.427,0.341,0.938,0.768,1.28,1.28
	c0.256,0.085,0.427,0.341,0.512,0.597c0.512,0.512,0.938,1.109,1.28,1.706c0.853,1.194,1.365,2.389,1.792,3.754
	c0.427,1.45,0.683,2.986,0.683,4.607c0,1.877-0.256,3.754-0.768,5.716c-0.341,0.938-0.683,1.962-1.024,2.986
	c-0.427,1.024-0.853,2.048-1.365,3.071c-0.683,1.365-1.45,2.73-2.304,4.01c-1.28,1.962-2.73,3.839-4.351,5.631
	c-0.938,1.109-1.877,2.133-2.986,3.157c-1.706,1.621-2.645,3.839-2.645,6.228c0,2.304,0.938,4.522,2.645,6.143
	c4.863,4.607,8.532,9.214,10.92,13.821c0.597,1.024,1.024,2.133,1.536,3.242c0,0.171,0.085,0.256,0.085,0.341
	c0.938,2.304,1.536,4.692,1.792,6.996c0.171,1.194,0.256,2.304,0.256,3.498v0.683c0,0.938-0.085,1.877-0.256,2.815
	c-0.171,1.45-0.427,2.815-0.853,4.18c-0.085,0.341-0.171,0.683-0.341,1.024c-0.171,0.683-0.427,1.28-0.683,1.877
	c-0.341,1.109-0.853,2.133-1.365,3.071c-0.256,0.683-0.597,1.365-0.938,1.962c-4.18,7.252-9.555,11.859-9.641,11.944
	c-2.218,1.792-3.413,4.607-3.157,7.423c1.194,11.774-1.024,19.793-6.911,24.486c-0.853,0.683-1.877,1.365-2.901,1.877
	c-1.194,0.683-2.474,1.194-3.754,1.621c-1.28,0.427-2.73,0.853-4.18,1.109c-1.536,0.341-3.071,0.512-4.778,0.683h-0.597
	c-1.536,0.171-3.157,0.256-4.778,0.256h-0.341c-1.792,0-3.498-0.085-5.204-0.256c-0.853,0-1.706-0.085-2.474-0.171
	C29.65,200.939,27.09,200.598,24.616,200.086z M264.525,448.783l-4.948-5.034l-3.498-3.498l-8.532-8.532L40.314,224.487
	c0,0,0,0-0.085,0l-5.887-5.972c3.498,0.256,7.081,0.256,10.75,0h0.085c0.768,0,1.536-0.085,2.304-0.171
	c1.792-0.171,3.669-0.427,5.46-0.683c1.365-0.256,2.73-0.597,4.095-0.938c1.28-0.341,2.474-0.683,3.754-1.109
	c4.01-1.45,7.764-3.413,11.176-6.143c9.811-7.764,14.333-19.623,13.651-35.321c5.631-5.716,16.295-18.77,16.978-36.089
	c0.427-12.456-4.266-24.486-14.077-35.748c10.409-12.797,14.589-27.557,10.92-39.928c-1.024-3.413-2.73-7.167-5.631-10.835
	c-0.341-0.427-0.683-0.938-1.109-1.365c-0.597-0.683-1.194-1.365-1.877-2.048c-2.304-2.218-5.119-4.351-8.446-6.313
	c-1.28-0.683-2.559-1.365-3.925-2.048c1.194-0.597,2.389-1.28,3.583-1.877c2.218-1.194,4.607-2.304,7.081-3.413
	c1.194-0.512,2.474-1.109,3.754-1.621c4.607-1.962,9.641-3.839,15.016-5.631c1.962-0.683,3.925-1.194,5.972-1.792
	c1.45-0.512,2.986-0.938,4.522-1.28c1.45-0.427,2.986-0.853,4.607-1.194c0.597-0.171,1.28-0.341,1.877-0.427
	c2.048-0.512,4.095-1.024,6.228-1.45c3.327-0.768,6.825-1.365,10.238-1.877c0.085,0,0.171,0,0.171,0
	c2.815-0.512,5.546-0.853,8.361-1.109c0.085,0,0.085,0,0.085,0c0.683-0.085,1.365-0.171,2.048-0.256
	c16.466-1.621,30.714-0.853,42.061,2.218c9.214,2.389,16.637,6.313,21.756,11.688l232.913,232.828l-13.565,13.565l-8.788,8.788
	l-16.978-17.063L254.543,115.026c-4.436-4.436-9.897-7.423-15.613-8.873c-8.532-2.218-17.831-1.024-25.68,3.583
	c-2.474,1.365-4.863,3.157-6.996,5.29c-0.853,0.853-1.621,1.792-2.389,2.73s-1.45,1.962-2.133,2.986
	c-0.427,0.597-0.768,1.194-1.109,1.792c-0.085,0.085-0.085,0.256-0.171,0.341c-0.341,0.683-0.768,1.365-1.109,2.133
	c-0.256,0.597-0.512,1.194-0.768,1.877c-0.512,1.194-0.938,2.474-1.194,3.754c-0.085,0.256-0.171,0.512-0.171,0.683
	c-0.256,1.024-0.427,2.048-0.597,3.071c-0.256,1.536-0.341,3.157-0.341,4.778c0,0.085,0,0.085,0,0.171
	c0,1.28,0.085,2.474,0.256,3.754c0.171,1.792,0.512,3.498,1.024,5.204c0.171,0.853,0.427,1.621,0.768,2.474
	c0.427,1.194,0.938,2.389,1.536,3.583c0.256,0.683,0.683,1.365,1.109,2.048c0.512,0.938,1.109,1.792,1.706,2.645
	c0.512,0.768,1.109,1.536,1.706,2.218c0.597,0.683,1.194,1.365,1.877,2.048l154.849,154.849l8.532,8.532l3.583,3.583l4.863,4.863
	l-38.99,38.99l-4.948-4.948l-12.03-12.03L165.302,200.342c-6.399-6.399-14.93-9.897-24.145-9.897
	c-6.143,0-11.944,1.536-17.063,4.522c-2.559,1.45-4.863,3.242-6.996,5.375c-1.621,1.621-3.071,3.327-4.266,5.204
	c-0.256,0.341-0.512,0.768-0.768,1.194c-0.256,0.341-0.427,0.768-0.683,1.194c-0.085,0.085-0.085,0.256-0.171,0.341
	c0,0.085-0.085,0.085-0.085,0.171c-0.597,0.938-1.024,1.962-1.45,2.986c-0.341,0.768-0.597,1.621-0.853,2.389
	c-0.256,0.597-0.427,1.194-0.512,1.792c-0.256,0.768-0.427,1.45-0.512,2.133c-0.427,2.218-0.683,4.436-0.683,6.74v0.341
	c0,1.194,0.085,2.389,0.256,3.583c0,0.341,0.085,0.768,0.171,1.109c0,0.512,0.085,1.024,0.256,1.536
	c0.256,1.706,0.683,3.413,1.365,5.034c0.427,1.194,0.938,2.389,1.536,3.583c0.341,0.683,0.683,1.365,1.109,2.048
	c0.427,0.938,1.024,1.792,1.706,2.645c0.512,0.768,1.109,1.536,1.706,2.218c0.597,0.683,1.194,1.365,1.877,2.048l165.343,165.343
	l3.498,3.498l4.948,4.948L264.525,448.783z M213.6,136.27c0-0.341,0.085-0.683,0.256-1.024c0.085-0.683,0.256-1.28,0.512-1.962
	c0.256-0.853,0.683-1.792,1.194-2.559c0.085-0.171,0.171-0.341,0.341-0.512c0.171-0.256,0.256-0.512,0.512-0.768
	c0.512-0.853,1.194-1.621,1.877-2.304c2.645-2.645,5.972-4.266,9.385-4.778c5.204-0.853,10.75,0.768,14.76,4.778L397.286,281.99
	l12.03,12.03l4.948,4.948l-9.214,9.299l-12.115,12.03l-2.73,2.815l-4.948-4.948l-12.115-12.115L218.292,151.285
	c-0.597-0.597-1.194-1.28-1.621-1.962c-0.341-0.427-0.597-0.853-0.853-1.365c-0.512-0.853-0.938-1.706-1.28-2.559
	c-0.341-0.768-0.597-1.621-0.768-2.474c-0.085-0.256-0.085-0.512-0.085-0.768c-0.256-1.024-0.341-1.962-0.341-2.986
	C213.335,138.232,213.421,137.208,213.6,136.27z M125.289,218.685c0.256-0.938,0.683-1.792,1.109-2.559
	c0.683-1.365,1.621-2.559,2.73-3.669c2.559-2.559,5.972-4.095,9.555-4.522c5.29-0.853,10.835,0.768,14.589,4.522l173.789,173.789
	l-9.214,9.299l-12.115,12.03l-2.815,2.815l-4.948-4.948l-12.03-12.03L129.128,236.602c-0.938-0.938-1.792-1.962-2.389-3.071
	c-1.706-2.645-2.559-5.802-2.559-9.044C124.18,222.439,124.53,220.477,125.289,218.685z M298.652,465.846l-13.565-13.565
	l83.61-83.525l68.253-68.253l10.238-10.323l5.034-5.034l13.565,13.565l-15.272,15.357l-68.253,68.253L298.652,465.846z
	 M492.149,480.094l-6.057,6.057l-6.057,6.057c-1.194,1.28-2.73,2.133-4.436,2.474c-0.512,0.171-1.024,0.256-1.621,0.256h-0.341
	c-0.853,0-1.621-0.171-2.389-0.427c-0.939-0.341-1.792-0.853-2.559-1.621l-78.064-72.86l-11.432-10.665l15.101-15.016l11.006-11.091
	l11.176,10.92l76.529,74.737c1.28,1.28,1.962,3.071,1.877,5.119C494.794,476.255,493.855,478.473,492.149,480.094z M131.176,200.427
	c-2.133-2.133-4.522-3.925-7.081-5.46c-2.559,1.45-4.863,3.242-6.996,5.375c-1.621,1.621-3.071,3.327-4.266,5.204
	c-0.256,0.341-0.512,0.768-0.768,1.194c-0.256,0.341-0.427,0.768-0.683,1.194c-0.085,0.085-0.085,0.256-0.171,0.341
	c2.986,0.597,5.716,2.048,7.934,4.266l6.143,6.143c0.256-0.938,0.683-1.792,1.109-2.559c0.683-1.365,1.621-2.559,2.73-3.669
	c2.559-2.559,5.972-4.095,9.555-4.522L131.176,200.427z M220.417,115.111c-2.133-2.133-4.607-4.01-7.167-5.375
	c-2.474,1.365-4.863,3.157-6.996,5.29c-0.853,0.853-1.621,1.792-2.389,2.73s-1.45,1.962-2.133,2.986
	c-0.427,0.597-0.768,1.194-1.109,1.792c-0.085,0.085-0.085,0.256-0.171,0.341c2.901,0.597,5.631,2.133,7.849,4.351l6.057,6.057
	c0.256-0.853,0.683-1.792,1.194-2.559c0.085-0.171,0.171-0.341,0.341-0.512c0.171-0.256,0.256-0.512,0.512-0.768
	c0.512-0.853,1.194-1.621,1.877-2.304c2.645-2.645,5.972-4.266,9.385-4.778L220.417,115.111z"/>
<polygon style="fill:#BDBDBD;" points="465.795,298.712 450.515,314.069 436.958,300.503 452.221,285.146 "/>
<polygon style="fill:#F4F4F4;" points="450.515,314.069 382.262,382.322 298.652,465.846 285.086,452.281 368.705,368.756 
	436.958,300.503 "/>
<path style="fill:#C1AD9D;" d="M486.092,486.152l-6.057,6.057c-1.194,1.28-2.73,2.133-4.436,2.474
	c-0.512,0.171-1.024,0.256-1.621,0.256h-0.341c-0.853,0-1.621-0.171-2.389-0.427c-0.939-0.341-1.792-0.853-2.559-1.621
	l-78.064-72.86l14.674-14.674L486.092,486.152z"/>
<g>
	<path style="fill:#F4F4F4;" d="M54.391,102.399c9.811,11.262,14.504,23.291,14.077,35.748
		c-0.683,17.319-11.347,30.373-16.978,36.089c0.512,10.92-1.536,19.964-6.313,27.131h0.597c-0.256,0-0.427,0.085-0.597,0.085
		c-1.621,0.085-3.157,0.171-4.778,0.171h-0.341c-1.792,0-3.498-0.085-5.204-0.256c-0.853,0-1.706-0.085-2.474-0.171
		c-2.645-0.256-5.29-0.683-7.764-1.109c1.194-1.365,2.218-2.73,3.242-4.01c0.341-0.427,0.683-0.853,0.853-1.28
		c0.085,0,0.085,0,0.085,0c0.683-0.853,1.194-1.621,1.792-2.474c0.512-0.768,1.024-1.536,1.45-2.304
		c0.171-0.171,0.256-0.341,0.256-0.512c1.194-1.962,2.218-3.754,2.901-5.546c0.512-1.024,0.853-1.962,1.109-2.901
		c0.341-0.938,0.597-1.877,0.768-2.815c0.256-0.938,0.341-1.792,0.427-2.73c0.085-0.938,0.171-1.792,0.171-2.645
		c0-1.45-0.171-2.901-0.427-4.351c-0.085-0.256-0.085-0.512-0.171-0.768c-0.171-0.768-0.341-1.536-0.512-2.218
		c-0.085-0.171-0.085-0.256-0.085-0.341c-0.171-0.341-0.256-0.683-0.341-1.024c-1.28-3.754-3.242-7.593-5.631-11.688
		c-0.512-1.024-1.109-1.962-1.621-2.986c3.327-1.621,6.313-3.498,8.873-5.546c0.853-0.597,1.621-1.194,2.389-1.877
		c0.341-0.341,0.683-0.597,0.938-0.853c0.768-0.683,1.45-1.45,2.048-2.133c0.597-0.597,1.109-1.28,1.621-1.962
		c0.341-0.341,0.597-0.683,0.768-1.109c0.256-0.256,0.427-0.512,0.597-0.768c0.512-0.683,0.938-1.365,1.28-2.048
		c0.256-0.427,0.427-0.768,0.683-1.194c0.597-1.194,1.109-2.474,1.536-3.754c0.085-0.256,0.171-0.512,0.256-0.768
		c1.28-4.01,1.706-8.361,1.28-12.968c-0.085-0.768-0.171-1.621-0.341-2.474c-0.427-2.815-1.194-5.716-2.304-8.702
		c-0.427-1.194-0.938-2.474-1.536-3.669c-0.085-0.171-0.171-0.427-0.256-0.597c2.645-1.109,5.034-2.474,7.167-4.01
		c1.109-0.683,2.218-1.536,3.157-2.389c1.109-0.938,2.048-1.877,2.901-2.901c0.853-0.938,1.621-1.877,2.218-2.901
		c1.194-1.706,2.133-3.498,2.901-5.46c0.341-0.853,0.597-1.706,0.853-2.559C64.373,86.871,60.449,94.977,54.391,102.399z"/>
	<path style="fill:#F4F4F4;" d="M73.929,93.185c1.621-1.792,3.071-3.669,4.351-5.631C77,89.431,75.635,91.308,73.929,93.185z"/>
</g>
<g>
	<path style="fill:#5E35B1;" d="M317.848,395.546l-12.115,12.03l-2.815,2.815L129.128,236.602c-0.938-0.938-1.792-1.962-2.389-3.071
		c-1.706-2.645-2.559-5.802-2.559-9.044c0-2.986,0.768-5.887,2.218-8.361c8.361,0.512,15.954,3.925,21.841,9.811L317.848,395.546z"
		/>
	<path style="fill:#5E35B1;" d="M405.041,308.267l-12.115,12.03l-2.73,2.815L218.284,151.285c-0.597-0.597-1.194-1.28-1.621-1.962
		c-0.341-0.427-0.597-0.853-0.853-1.365c-0.512-0.853-0.938-1.706-1.28-2.559c-0.341-0.768-0.597-1.621-0.768-2.474
		c-0.085-0.256-0.085-0.512-0.085-0.768c-0.256-1.024-0.341-1.962-0.341-2.986c0-0.938,0.085-1.962,0.256-2.901
		c0-0.341,0.085-0.683,0.256-1.024c0.256-1.621,0.853-3.157,1.706-4.522h0.085c7.934,0.512,15.784,3.839,21.841,9.897
		L405.041,308.267z"/>
</g>
<path style="fill:#311B92;" d="M448.732,264.585l-14.077,14.077c-0.427-1.109-1.109-2.048-1.962-2.986L193.883,36.961
	c-9.811-10.238-24.912-16.637-43.938-18.855c0.683-0.085,1.365-0.171,2.048-0.256c29.775-2.901,52.384,1.962,63.817,13.907
	L448.732,264.585z"/>
<path style="fill:#5E35B1;" d="M196.272,139.17c0,0.085,0,0.085,0,0.171c0,1.28,0.085,2.474,0.256,3.754
	c0.171,1.792,0.512,3.498,1.024,5.204c0.171,0.853,0.427,1.621,0.768,2.474c0.427,1.194,0.938,2.389,1.536,3.583
	c0.256,0.683,0.683,1.365,1.109,2.048c0.512,0.938,1.109,1.792,1.706,2.645c0.512,0.768,1.109,1.536,1.706,2.218
	c0.597,0.683,1.194,1.365,1.877,2.048l163.381,163.381l8.446,8.446l-38.99,38.99L165.302,200.342
	c-6.399-6.399-14.93-9.897-24.145-9.897c-9.129,0-17.66,3.498-24.059,9.897c-1.621,1.621-3.071,3.327-4.266,5.204
	c-0.512,0.768-1.024,1.536-1.365,2.389c0,0,0-0.085-0.085,0c-0.085,0.171-0.171,0.341-0.256,0.512
	c-0.597,0.938-1.024,1.962-1.45,2.986c-0.341,0.768-0.597,1.621-0.853,2.389c-0.256,0.597-0.427,1.194-0.512,1.792
	c-0.256,0.768-0.427,1.45-0.512,2.133c-0.427,2.218-0.683,4.436-0.683,6.74v0.341c0,1.194,0.085,2.389,0.256,3.583
	c0,0.341,0.085,0.768,0.171,1.109c0,0.512,0.085,1.024,0.256,1.536c0.256,1.706,0.683,3.413,1.365,5.034
	c0.341,1.194,0.853,2.389,1.536,3.583c0.256,0.683,0.597,1.365,1.109,2.048c0.427,0.938,1.024,1.792,1.706,2.645
	c0.512,0.768,1.024,1.536,1.706,2.218c0.597,0.683,1.194,1.365,1.877,2.048l165.343,165.343l8.446,8.446l-26.363,26.363
	l-8.446-8.532L40.314,224.487c0,0,0,0-0.085,0l-5.887-5.972c3.498,0.256,7.081,0.256,10.75,0h0.085c0.768,0,1.536-0.085,2.304-0.171
	c1.792-0.171,3.669-0.341,5.46-0.683c1.365-0.256,2.73-0.597,4.095-0.938c1.28-0.341,2.474-0.683,3.754-1.109
	c4.01-1.45,7.764-3.413,11.176-6.143c9.811-7.764,14.333-19.623,13.651-35.321c5.631-5.716,16.295-18.77,16.978-36.089
	c0.427-12.456-4.266-24.486-14.077-35.748c10.409-12.797,14.589-27.557,10.92-39.928c-1.024-3.413-2.73-7.167-5.631-10.835
	c-0.341-0.427-0.683-0.938-1.109-1.365c-0.512-0.683-1.194-1.365-1.877-2.048c-2.304-2.218-5.119-4.351-8.446-6.313
	c-1.28-0.683-2.559-1.365-3.925-2.048c1.194-0.597,2.389-1.28,3.583-1.877c2.218-1.194,4.607-2.304,7.081-3.413
	c1.194-0.512,2.474-1.109,3.754-1.621c4.607-1.962,9.641-3.839,15.016-5.631c1.962-0.683,3.925-1.194,5.972-1.792
	c1.45-0.512,2.986-0.938,4.522-1.28c1.45-0.427,2.986-0.853,4.607-1.194c0.597-0.171,1.28-0.341,1.877-0.427
	c2.048-0.597,4.095-1.024,6.228-1.45c3.327-0.768,6.825-1.365,10.238-1.877c0.085,0,0.171,0,0.171,0
	c2.815-0.512,5.546-0.853,8.361-1.109h0.085c19.026,2.218,34.127,8.617,43.938,18.855l238.8,238.715
	c0.853,0.939,1.536,1.877,1.962,2.986l-8.276,8.276L254.543,115.026c-4.436-4.436-9.897-7.423-15.613-8.873
	c-11.262-2.901-23.803,0-32.676,8.873c-0.853,0.853-1.621,1.792-2.389,2.73s-1.536,1.962-2.133,2.986
	c-0.427,0.597-0.768,1.194-1.109,1.792c-0.427,0.768-0.853,1.621-1.28,2.474c-0.256,0.597-0.512,1.194-0.768,1.877
	c-0.512,1.194-0.938,2.474-1.194,3.754c-0.085,0.256-0.171,0.512-0.171,0.683c-0.256,1.024-0.427,2.048-0.597,3.071
	C196.358,135.928,196.272,137.549,196.272,139.17z"/>
<g>
	<path style="fill:#311B92;" d="M414.255,298.968l-9.214,9.299L237.48,140.621c-6.057-6.057-13.907-9.385-21.841-9.897
		c0-0.171,0.085-0.341,0.256-0.512c0.171-0.256,0.256-0.512,0.512-0.768c0.512-0.853,1.194-1.621,1.877-2.304
		c6.655-6.655,17.49-6.655,24.145,0L414.255,298.968z"/>
	<path style="fill:#311B92;" d="M327.062,386.246l-9.214,9.299L148.239,225.937c-5.887-5.887-13.48-9.299-21.841-9.811
		c0.683-1.365,1.621-2.559,2.73-3.669c6.399-6.399,17.746-6.399,24.145,0L327.062,386.246z"/>
</g>
<path style="fill:#8D6E63;" d="M494.879,474.037c-0.085,2.218-1.024,4.436-2.73,6.057l-6.057,6.057l-80.795-80.794l-11.006-11.006
	l11.006-11.091l11.176,10.92l76.529,74.737C494.282,470.197,494.964,471.989,494.879,474.037z"/>
<path style="fill:#BDBDBD;" d="M85.532,136.611v0.683c0,0.938-0.085,1.877-0.256,2.815c-0.171,1.45-0.512,2.815-0.853,4.18
	c-0.085,0.341-0.171,0.683-0.341,1.024c-0.171,0.683-0.427,1.28-0.683,1.877c-0.341,1.109-0.853,2.133-1.365,3.071
	c-0.341,0.683-0.683,1.365-0.938,1.962c-4.18,7.252-9.555,11.859-9.641,11.944c-2.218,1.792-3.413,4.607-3.157,7.423
	c1.194,11.774-1.024,19.793-6.911,24.486c-0.853,0.683-1.877,1.365-2.901,1.877c-1.194,0.597-2.389,1.194-3.754,1.621
	c-1.28,0.427-2.73,0.853-4.18,1.109c-1.536,0.341-3.071,0.512-4.778,0.683h-0.597c4.778-7.167,6.825-16.21,6.313-27.131
	c5.631-5.716,16.295-18.77,16.978-36.089c0.427-12.456-4.266-24.486-14.077-35.748c6.057-7.423,9.982-15.528,11.518-23.547
	c0,0,0-0.085,0-0.171c0.341-0.853,0.512-1.706,0.683-2.559c0-0.085,0-0.256,0.085-0.341c0.256-1.536,0.427-3.157,0.427-4.692
	c0-0.853,0-1.792-0.171-2.645c0-0.853-0.085-1.792-0.256-2.73c-0.171-1.536-0.512-3.071-1.024-4.522
	c-0.427-1.45-0.938-2.986-1.536-4.522c-0.683-1.536-1.45-3.157-2.304-4.692c1.109,0.341,2.218,0.597,3.413,1.024
	c0.768,0.171,1.536,0.512,2.304,0.768c1.536,0.512,3.157,1.194,4.607,1.962c0.512,0.256,1.024,0.512,1.536,0.853
	c0.938,0.512,1.792,1.109,2.559,1.706c0.683,0.512,1.365,0.938,1.962,1.536c0.512,0.341,0.853,0.768,1.28,1.28
	c0.256,0.085,0.427,0.341,0.512,0.597c0.512,0.512,0.938,1.109,1.28,1.706c0.853,1.194,1.365,2.389,1.792,3.754
	c0.427,1.45,0.683,2.986,0.683,4.607c0,1.792-0.256,3.754-0.768,5.716c-0.341,0.938-0.683,1.962-1.024,2.986
	c-0.427,1.024-0.853,2.048-1.365,3.071c-0.683,1.365-1.45,2.73-2.304,4.01c-1.28,1.962-2.73,3.839-4.351,5.631
	c-0.938,1.109-1.877,2.133-2.986,3.157c-1.706,1.621-2.645,3.839-2.645,6.228c0,2.304,0.938,4.522,2.645,6.143
	c4.863,4.607,8.532,9.214,10.92,13.821c0.597,1.109,1.109,2.218,1.536,3.242c0,0.171,0.085,0.256,0.085,0.341
	c0.938,2.304,1.536,4.692,1.792,6.996C85.446,134.222,85.532,135.416,85.532,136.611z"/>
<polygon style="fill:#8D6E63;" points="405.297,405.357 390.631,420.031 379.19,409.367 394.3,394.351 "/>
<g>
</g>
<g>
</g>
<g>
</g>
<g>
</g>
<g>
</g>
<g>
</g>
<g>
</g>
<g>
</g>
<g>
</g>
<g>
</g>
<g>
</g>
<g>
</g>
<g>
</g>
<g>
</g>
<g>
</g>
</svg>
