<?xml version="1.0" encoding="iso-8859-1"?>
<!-- Generator: Adobe Illustrator 19.0.0, SVG Export Plug-In . SVG Version: 6.00 Build 0)  -->
<svg version="1.1" id="Layer_1" xmlns="http://www.w3.org/2000/svg" xmlns:xlink="http://www.w3.org/1999/xlink" x="0px" y="0px"
	 viewBox="0 0 512 512" style="enable-background:new 0 0 512 512;" xml:space="preserve">
<path d="M307.029,79.104C305.152,34.304,283.477,0,256,0c-8.277,0-16.043,3.072-22.869,8.704c-3.072,2.475-5.973,5.461-8.619,8.96
	c-1.963,2.56-3.84,5.376-5.461,8.363c-1.536,2.389-2.816,4.949-4.011,7.68c-1.536,3.413-2.987,7.083-4.181,11.008
	c-0.512,1.621-1.024,3.243-1.451,4.949c-2.475,9.045-4.011,18.944-4.437,29.44c-1.536,0.853-3.072,2.048-4.437,3.413
	c-1.109,1.024-2.133,2.133-3.157,3.413v0.085c-0.341,0.427-0.597,0.853-0.939,1.28c-0.085,0.171-0.171,0.256-0.256,0.427
	c-1.877,2.731-3.669,5.973-5.12,9.557c-0.853,1.792-1.621,3.755-2.304,5.803l-0.085,0.085c-1.024,2.901-2.048,6.059-2.901,9.387
	c-4.437,16.981-6.571,37.888-6.571,58.112v170.667c0,4.693,3.84,8.533,8.533,8.533H230.4V486.4c0,5.717,1.877,11.008,5.12,15.275
	c0.939,1.28,2.048,2.475,3.243,3.584c3.157,2.901,6.997,5.035,11.349,5.973c1.365,0.341,2.816,0.597,4.352,0.683
	C254.976,512,255.488,512,256,512c6.997,0,13.483-2.901,18.091-7.509c4.608-4.608,7.509-11.093,7.509-18.091V349.867h42.667
	c4.693,0,8.533-3.84,8.533-8.533V170.667C332.8,131.243,324.693,89.173,307.029,79.104z M221.867,170.667V332.8h-25.6V170.667
	c0-3.072,0.085-6.059,0.171-8.96c0-1.963,0.085-3.755,0.256-5.547c0.085-2.048,0.171-4.011,0.341-5.888
	c0.085-1.707,0.256-3.328,0.427-4.949c0.512-5.888,1.28-11.264,2.133-16.043c0-0.085,0.085-0.256,0.085-0.341
	c0.171-0.768,0.256-1.707,0.427-2.475c0.085-0.597,0.256-1.28,0.427-1.877c0.256-1.536,0.597-3.072,1.024-4.523
	c1.365-6.059,2.987-11.093,4.608-15.019c0.341-0.939,0.768-1.792,1.109-2.56c0.427-1.109,0.939-2.048,1.365-2.901
	c0.512-0.853,0.939-1.536,1.365-2.219c0-0.085,0.085-0.171,0.085-0.171c0.768-1.195,1.536-2.133,2.304-2.645
	c0.341-0.341,0.683-0.512,0.939-0.597c0.256,0.085,0.512,0.256,0.939,0.683c0.171,0.171,0.427,0.341,0.597,0.597
	c1.109,1.109,2.56,3.157,4.181,6.485c0.341,0.597,0.683,1.28,0.939,1.963c1.109,2.475,2.219,5.632,3.413,9.472
	c0.171,0.683,0.341,1.365,0.597,2.133c0.512,1.877,1.024,3.84,1.536,6.059C225.536,122.709,221.867,154.539,221.867,170.667z
	 M264.533,486.4c0,4.693-3.84,8.533-8.533,8.533c-4.693,0-8.533-3.84-8.533-8.533V349.867h17.067V486.4z M273.067,332.8h-34.133
	V170.667c0-9.387,0.427-17.835,1.195-25.515c0.171-2.389,0.512-4.779,0.768-6.997c0.171-1.365,0.341-2.645,0.597-3.925
	c0.256-1.536,0.427-2.987,0.683-4.437c0-0.256,0.085-0.597,0.171-0.853v-0.085c1.963-11.179,4.608-19.712,7.168-25.515
	c0.256-0.683,0.597-1.365,0.939-2.048c0-0.085,0-0.171,0.085-0.256c1.195-2.56,2.389-4.437,3.413-5.632
	c0.341-0.341,0.597-0.683,0.853-0.853c0.427-0.341,0.768-0.597,1.109-0.683c3.157,0.853,9.728,12.544,13.739,34.987
	c0.341,1.792,0.683,3.584,0.853,5.461c1.536,10.155,2.56,22.272,2.56,36.352V332.8z M280.917,88.491
	c-1.28,1.963-2.475,4.096-3.669,6.485c-0.512-1.024-1.024-2.048-1.536-3.072c-0.853-1.451-1.621-2.816-2.475-4.011
	c-0.683-1.109-1.451-2.048-2.219-2.987c-0.512-0.683-1.109-1.28-1.707-1.877c-0.597-0.683-1.28-1.28-1.877-1.707
	c-0.597-0.597-1.28-1.024-1.877-1.451c-0.683-0.427-1.365-0.853-2.048-1.195c-0.427-0.256-0.939-0.512-1.365-0.683
	c-1.963-0.768-4.011-1.195-6.144-1.195c-0.939,0-1.877,0.085-2.816,0.256c-0.256,0-0.512,0.085-0.768,0.171
	c-0.939,0.171-1.792,0.427-2.645,0.853c-1.707,0.683-3.328,1.621-4.864,2.901c-0.427,0.341-0.939,0.768-1.365,1.195
	c-3.243,2.987-6.144,7.253-8.619,12.459c-0.085,0.085-0.085,0.256-0.171,0.341c-0.085-0.171-0.171-0.341-0.256-0.512
	c-2.219-4.608-4.693-8.363-7.424-11.179c-0.768-0.853-1.621-1.621-2.475-2.304s-1.707-1.28-2.56-1.792
	c0.853-18.261,5.461-33.707,11.691-44.629c0.939-1.536,1.792-2.987,2.816-4.352c0.512-0.853,1.024-1.621,1.707-2.304
	c0-0.085,0.085-0.171,0.256-0.256c0.512-0.683,1.024-1.365,1.621-1.963c0.939-1.024,1.877-1.963,2.816-2.816
	c0.853-0.768,1.792-1.536,2.731-2.133c0.683-0.427,1.28-0.853,1.963-1.195c0.341-0.256,0.768-0.427,1.195-0.683
	c2.389-1.195,4.779-1.792,7.168-1.792c15.275,0,32.256,25.173,33.963,62.123C286.72,81.152,283.648,84.224,280.917,88.491z
	 M315.733,332.8h-25.6V170.667c0-16.128-3.669-47.957-3.669-49.323c0.256-1.365,0.597-2.56,0.939-3.755
	c0.256-1.024,0.427-1.963,0.768-2.816c1.707-6.144,3.413-10.581,5.035-13.739c2.56-5.035,4.693-6.912,5.376-7.168
	c4.864,1.536,17.152,27.051,17.152,76.8V332.8z"/>
<path style="fill:#8D6E63;" d="M264.533,349.867V486.4c0,4.693-3.84,8.533-8.533,8.533V349.867H264.533z"/>
<path style="fill:#C1AD9D;" d="M256,349.867v145.067c-4.693,0-8.533-3.84-8.533-8.533V349.867H256z"/>
<path style="fill:#827717;" d="M289.963,79.189c-3.243,1.963-6.315,5.035-9.045,9.301c-3.072-32.512-16.811-58.368-35.243-67.755
	c3.413-2.389,6.912-3.669,10.325-3.669C271.275,17.067,288.256,42.24,289.963,79.189z"/>
<path style="fill:#AFB42B;" d="M280.917,88.491c-1.28,1.963-2.475,4.096-3.669,6.485c-4.011-8.448-9.045-14.507-15.104-16.981
	c-1.963-0.768-4.011-1.195-6.144-1.195c-8.789,0-15.787,6.827-21.077,17.835c-0.085,0.085-0.085,0.256-0.171,0.341
	c-0.085-0.171-0.171-0.341-0.256-0.512c-3.584-7.339-7.765-12.544-12.459-15.275c0.853-18.261,5.461-33.707,11.691-44.629
	c3.584-6.229,7.68-10.923,11.947-13.824C264.107,30.123,277.845,55.979,280.917,88.491z"/>
<path style="fill:#827717;" d="M315.733,170.667V332.8H307.2V179.2c0-29.355-4.437-60.16-13.995-78.165
	c2.56-5.035,4.693-6.912,5.376-7.168C303.445,95.403,315.733,120.917,315.733,170.667z"/>
<path style="fill:#AFB42B;" d="M307.2,179.2v153.6h-17.067V170.667c0-16.128-3.669-47.957-3.669-49.323
	c0.256-1.365,0.597-2.56,0.939-3.755c0.256-1.024,0.427-1.963,0.768-2.816c1.707-6.144,3.413-10.581,5.035-13.739
	C302.763,119.04,307.2,149.845,307.2,179.2z"/>
<path style="fill:#827717;" d="M273.067,170.667V332.8h-8.533V179.2c0-29.355-4.437-60.16-13.995-78.165
	c1.195-2.56,2.389-4.437,3.413-5.632c0.341-0.341,0.597-0.597,0.853-0.853c0.427-0.341,0.768-0.597,1.109-0.683
	c3.157,0.853,9.728,12.544,13.739,34.987c0.341,1.707,0.597,3.584,0.853,5.461C272.043,144.469,273.067,156.587,273.067,170.667z"/>
<path style="fill:#AFB42B;" d="M250.539,101.035c9.557,18.005,13.995,48.811,13.995,78.165v153.6h-25.6V170.667
	c0-9.387,0.427-17.835,1.195-25.515c0.171-2.389,0.512-4.779,0.768-6.997c0.171-1.365,0.341-2.645,0.597-3.925
	c0.256-1.536,0.427-2.987,0.683-4.437c0-0.256,0.085-0.597,0.171-0.853v-0.085c1.963-11.179,4.608-19.712,7.168-25.515
	c0.256-0.683,0.597-1.365,0.939-2.048C250.453,101.205,250.453,101.12,250.539,101.035z"/>
<path style="fill:#827717;" d="M225.536,121.344c0,1.365-3.669,33.195-3.669,49.323c0-26.965-3.755-55.125-11.776-73.472
	c0.768-1.195,1.536-2.133,2.304-2.645c0.341-0.341,0.597-0.512,0.939-0.597c0.256,0.085,0.512,0.256,0.939,0.683
	c0.171,0.171,0.427,0.341,0.597,0.597c1.109,1.109,2.56,3.157,4.181,6.485c0.341,0.597,0.597,1.195,0.939,1.963
	c1.109,2.475,2.219,5.632,3.413,9.472c0.171,0.683,0.341,1.365,0.597,2.133C224.512,117.163,225.024,119.125,225.536,121.344z"/>
<path style="fill:#AFB42B;" d="M210.091,97.195c8.021,18.347,11.776,46.507,11.776,73.472V332.8h-25.6V170.667
	c0-3.072,0.085-6.059,0.171-8.96c0-1.963,0.085-3.755,0.256-5.547c0.085-2.048,0.171-4.011,0.341-5.888
	c0.085-1.707,0.256-3.328,0.427-4.949c0.512-5.888,1.28-11.264,2.133-16.043c0-0.085,0.085-0.256,0.085-0.341
	c0.256-1.536,0.512-2.987,0.853-4.352c0.256-1.536,0.597-3.072,1.024-4.523c1.365-6.059,2.987-11.093,4.608-15.019
	c0.341-0.939,0.768-1.792,1.109-2.56c0.427-1.109,0.939-2.048,1.365-2.901c0.512-0.853,0.939-1.536,1.365-2.219
	C210.005,97.28,210.091,97.195,210.091,97.195z"/>
<g>
</g>
<g>
</g>
<g>
</g>
<g>
</g>
<g>
</g>
<g>
</g>
<g>
</g>
<g>
</g>
<g>
</g>
<g>
</g>
<g>
</g>
<g>
</g>
<g>
</g>
<g>
</g>
<g>
</g>
</svg>
