<?xml version="1.0" encoding="iso-8859-1"?>
<!-- Generator: Adobe Illustrator 19.0.0, SVG Export Plug-In . SVG Version: 6.00 Build 0)  -->
<svg version="1.1" id="Layer_1" xmlns="http://www.w3.org/2000/svg" xmlns:xlink="http://www.w3.org/1999/xlink" x="0px" y="0px"
	 viewBox="0 0 512 512" style="enable-background:new 0 0 512 512;" xml:space="preserve">
<path d="M242.684,81.094c-1.195-0.939-2.475-1.878-3.756-2.732c1.11-0.256,2.134-0.427,3.244-0.598
	c4.524-0.683,9.134-1.11,13.829-1.11c1.622,0,3.244,0.085,4.78,0.085c-0.939-0.683-1.878-1.366-2.817-2.049
	c-0.683,0.256-1.28,0.512-1.963,0.768c-2.476-0.939-4.951-1.878-7.512-2.646c-1.28-0.427-2.561-0.768-3.841-1.11
	s-2.646-0.683-3.927-0.939c-1.451-0.341-2.988-0.683-4.439-0.939c-5.975-1.11-12.036-1.707-18.267-1.707
	c-5.89,0-11.695,0.512-17.243,1.537c-1.878,0.256-3.756,0.683-5.549,1.11c-3.841,0.854-7.512,1.963-11.097,3.244
	c-0.939,0.256-1.793,0.598-2.646,0.939c-0.768,0.341-1.536,0.598-2.219,0.939c-0.683,0.256-1.366,0.512-2.049,0.854
	c0.683-0.085,1.28-0.085,1.963-0.085h1.793c1.366,0,2.732,0.085,4.012,0.171c1.195,0.085,2.39,0.171,3.585,0.341
	c1.195,0.085,2.475,0.256,3.671,0.427c8.195,1.28,15.963,3.671,23.133,7.17c0.256,0.171,0.598,0.256,0.854,0.427
	c0.085,0,0.085,0,0.085,0h1.707c1.793,0,3.5,0.085,5.292,0.171c0.427,0,0.854,0.085,1.195,0.085
	c1.451,0.085,2.902,0.256,4.268,0.427c0.768,0.085,1.451,0.171,2.219,0.341c3.073,0.427,6.146,1.11,9.134,1.963
	c1.537,0.427,2.988,0.768,4.439,1.28c3.756,1.195,7.426,2.732,10.926,4.439v0.085c0.341,0.085,0.598,0.256,0.939,0.427
	c0.256,0.085,0.512,0.171,0.768,0.341C252.756,89.801,247.976,85.191,242.684,81.094z M357.581,90.398
	c-5.89-50.107-48.315-89.032-98.849-90.313C257.793,0,256.939,0,256,0c-14.682,0-28.596,3.073-41.23,8.622
	c-3.5,1.537-6.914,3.244-10.158,5.207c-5.036,2.817-9.731,6.146-14.17,9.817c-0.171,0.171-0.341,0.256-0.512,0.427
	c-11.865,9.902-21.426,22.536-27.572,36.962v0.085c-0.512,1.11-1.024,2.305-1.451,3.414c-0.085,0.171-0.085,0.256-0.171,0.427
	c-1.963,4.866-3.5,9.987-4.61,15.194c-0.854,3.414-1.366,6.829-1.793,10.329c-0.512,0.427-1.11,0.854-1.622,1.366
	c-0.171,0.171-0.341,0.256-0.512,0.427c-12.975,10.841-23.304,25.011-29.535,41.059l-0.085,0.085c-4.524,11.438-7,23.987-7,37.132
	c0,18.097,4.866,35.767,13.829,51.217c3.5,6.146,7.683,11.865,12.463,17.072c1.366,1.622,2.902,3.158,4.439,4.695l1.622,3.841
	l7.17,17.072l36.449,87.069l9.817,23.304l31.755,75.887l8.195,19.462l1.366,3.329l0.256,0.598l9.561,22.792l4.183,9.902
	c1.28,3.158,4.439,5.207,7.853,5.207h0.256c3.5-0.085,6.573-2.39,7.768-5.719l93.3-262.914c19.377-19.121,30.56-45.498,30.56-72.814
	C396.42,138.115,381.226,109.178,357.581,90.398z M179.516,64.448c0.683-1.451,1.366-2.902,2.219-4.268
	c0.256-0.512,0.512-1.024,0.854-1.537c0.768-1.366,1.622-2.646,2.561-3.927c0.854-1.451,1.878-2.902,3.073-4.268
	c0.768-1.195,1.707-2.39,2.732-3.5c2.561-2.988,5.292-5.805,8.195-8.365c1.28-1.11,2.561-2.219,3.841-3.158
	c0.939-0.768,1.878-1.537,2.902-2.219c0.341-0.256,0.683-0.512,1.024-0.683c1.024-0.768,2.049-1.537,3.158-2.134
	c2.39-1.622,4.951-2.988,7.512-4.268c1.707-0.854,3.5-1.707,5.292-2.475c0.171-0.085,0.341-0.171,0.598-0.256
	c1.963-0.768,3.841-1.451,5.89-2.049c1.793-0.683,3.671-1.195,5.634-1.622c2.219-0.598,4.524-1.11,6.829-1.451h0.085
	c2.305-0.341,4.61-0.683,7-0.854c2.305-0.256,4.695-0.341,7.085-0.341c1.878,0,3.756,0.085,5.548,0.171
	c1.024,0.085,2.049,0.171,2.988,0.256c1.878,0.171,3.756,0.427,5.549,0.768c1.536,0.256,3.073,0.512,4.524,0.939
	c0.512,0.085,1.11,0.171,1.622,0.341c1.024,0.256,1.963,0.512,2.988,0.768c1.024,0.341,1.963,0.598,2.988,0.939
	c0.854,0.256,1.622,0.512,2.39,0.854c3.927,1.366,7.768,3.073,11.438,5.036c1.793,0.939,3.5,1.963,5.122,3.073
	c0.341,0.171,0.683,0.341,1.024,0.598c1.707,1.11,3.329,2.219,4.866,3.414c8.707,6.573,16.133,14.682,21.853,24.072
	c0.768,1.195,1.451,2.475,2.134,3.756c1.366,2.561,2.646,5.122,3.756,7.853c0.427,0.939,0.854,1.963,1.195,2.988
	c0.683,1.707,1.28,3.414,1.793,5.207c-6.829-3.244-13.914-5.719-21.426-7.426c-1.366-0.341-2.732-0.598-4.183-0.854
	c-1.366-0.256-2.817-0.512-4.183-0.683c-1.451-0.256-2.902-0.427-4.268-0.512c-1.451-0.171-2.902-0.256-4.353-0.341
	c-1.622-0.085-3.244-0.171-4.951-0.171h-0.427c-2.561,0-5.207,0.085-7.768,0.341c-0.683,0-1.366,0.085-2.049,0.171
	c-1.878,0.171-3.671,0.341-5.463,0.598c-1.366,0.256-2.732,0.512-4.097,0.768c-1.195,0.256-2.39,0.512-3.585,0.768
	c-4.439,1.024-8.792,2.305-13.06,3.927c-0.683,0.256-1.28,0.512-1.963,0.768c-2.476-0.939-4.951-1.878-7.512-2.646
	c-1.28-0.427-2.561-0.768-3.841-1.11s-2.646-0.683-3.927-0.939c-1.451-0.341-2.988-0.683-4.439-0.939
	c-5.975-1.11-12.036-1.707-18.267-1.707c-5.89,0-11.695,0.512-17.243,1.537c-1.878,0.256-3.756,0.683-5.549,1.11
	c-3.841,0.854-7.512,1.963-11.097,3.244c-0.939,0.256-1.793,0.598-2.646,0.939c-0.768,0.341-1.536,0.598-2.219,0.939
	c-0.683,0.256-1.366,0.512-2.049,0.854c-1.024,0.427-2.049,0.854-3.073,1.366C175.504,73.326,177.296,68.802,179.516,64.448z
	 M153.395,226.123c-1.11-1.28-2.219-2.646-3.244-4.012c-0.171-0.085-0.256-0.171-0.341-0.341c-1.11-1.451-2.134-2.902-3.073-4.439
	c-0.598-0.768-1.024-1.537-1.451-2.305c-1.024-1.537-1.963-3.158-2.817-4.695c0-0.085,0-0.085,0-0.085
	c-1.11-2.049-2.049-4.012-2.988-6.061c0-0.085,0-0.085,0-0.171c-0.939-2.049-1.707-4.183-2.39-6.317
	c-0.768-2.134-1.366-4.268-1.963-6.487c-0.512-2.219-1.024-4.524-1.366-6.829c-0.256-1.793-0.512-3.585-0.683-5.463
	c-0.085-0.854-0.171-1.707-0.256-2.646c-0.085-1.878-0.171-3.841-0.171-5.719c0-2.902,0.171-5.805,0.427-8.707
	c0.171-1.451,0.341-2.817,0.598-4.268c0.085-0.854,0.256-1.707,0.427-2.475c0.171-1.024,0.341-2.049,0.598-2.988
	c2.646-12.036,7.768-23.048,14.938-32.608c1.622-2.219,3.414-4.353,5.207-6.317c2.049-2.305,4.268-4.439,6.573-6.487
	c1.195-1.11,2.475-2.134,3.756-3.158c2.988-2.305,6.061-4.439,9.304-6.317c0.854-0.598,1.793-1.11,2.646-1.537
	c0.854-0.512,1.793-1.024,2.732-1.451c5.975-2.988,12.292-5.292,18.95-6.829c1.622-0.427,3.244-0.683,4.866-0.939
	c0.427-0.171,0.939-0.256,1.366-0.256c1.793-0.341,3.671-0.512,5.463-0.683c1.963-0.171,3.927-0.256,5.89-0.256v-0.085h1.622
	c1.793,0,3.5,0.085,5.292,0.171c0.427,0,0.854,0.085,1.195,0.085c1.451,0.085,2.902,0.256,4.268,0.427
	c0.768,0.085,1.451,0.171,2.219,0.341c3.073,0.427,6.146,1.11,9.134,1.963c1.537,0.427,2.988,0.768,4.439,1.28
	c3.756,1.195,7.426,2.732,10.926,4.439v0.085c0.341,0.085,0.598,0.256,0.939,0.427c0.256,0.085,0.512,0.171,0.768,0.341
	c0.512,0.256,0.939,0.512,1.451,0.768c1.622,0.854,3.158,1.793,4.695,2.732c4.268,2.732,8.28,5.805,12.036,9.134
	c0.854,0.768,1.707,1.537,2.475,2.39c1.878,1.878,3.756,3.841,5.463,5.89c1.11,1.28,2.049,2.561,3.073,3.841
	c2.049,2.732,3.927,5.634,5.634,8.536c0.683,1.28,1.366,2.561,2.049,3.841c2.817,5.463,5.036,11.268,6.573,17.328
	c0.256,0.939,0.512,1.878,0.683,2.902c1.024,4.268,1.622,8.707,1.878,13.231c0.085,1.707,0.171,3.5,0.171,5.207
	c0,1.878-0.085,3.841-0.171,5.719c-0.085,0.939-0.171,1.793-0.256,2.646c-0.171,1.878-0.427,3.671-0.683,5.463
	c-0.683,4.012-1.537,7.939-2.732,11.695c-0.256,0.939-0.598,1.793-0.939,2.732c-0.598,1.793-1.366,3.585-2.049,5.378
	c-0.939,2.049-1.878,4.012-2.988,6.061c0,0,0,0,0,0.085c-0.854,1.537-1.793,3.158-2.817,4.695c-0.427,0.768-0.854,1.537-1.451,2.305
	c0,0.085-0.085,0.085-0.085,0.085c-0.939,1.451-1.963,2.902-3.073,4.353c-0.683,1.024-1.451,2.049-2.305,2.988
	c-1.622,1.963-3.244,3.756-5.036,5.549H157.236C155.871,228.94,154.59,227.575,153.395,226.123z M263.853,479.819l-5.975-14.17
	l-6.402-15.536l-0.256-0.512l-1.28-2.988l-40.12-95.691l-9.731-23.304l-26.548-63.168l-7.17-17.072h179.943L263.853,479.819z
	 M378.921,178.918c-0.171,2.219-0.512,4.268-0.854,6.402c-0.085,0.598-0.171,1.195-0.341,1.793c-0.341,1.707-0.683,3.414-1.11,5.122
	c-0.085,0.256-0.171,0.512-0.256,0.768c-0.598,2.134-1.28,4.268-2.049,6.402c-0.854,2.219-1.707,4.524-2.732,6.658
	c-1.024,2.219-2.134,4.439-3.329,6.488c-0.939,1.622-1.878,3.244-2.988,4.78c-0.256,0.512-0.512,0.939-0.939,1.366
	c-1.366,2.049-2.817,4.012-4.439,5.89c-1.537,1.963-3.329,3.841-5.122,5.719h-53.693c1.963-2.732,3.841-5.549,5.463-8.536
	c9.048-15.45,13.914-33.12,13.914-51.217c0-2.732-0.085-5.463-0.341-8.109c0-0.427,0-0.768-0.085-1.024
	c-0.171-1.707-0.341-3.414-0.598-5.036c-0.171-1.622-0.427-3.244-0.768-4.78c0-0.085,0-0.085,0-0.171
	c-0.427-1.963-0.854-3.927-1.366-5.89c-0.085-0.427-0.171-0.854-0.341-1.28c-0.512-1.963-1.024-3.927-1.707-5.89v-0.085
	c-0.683-2.049-1.451-4.012-2.305-5.975c-0.256-0.939-0.683-1.793-1.11-2.732c-2.988-6.829-6.658-13.231-11.097-19.206
	c-1.28-1.707-2.561-3.414-3.927-5.036c-0.598-0.854-1.28-1.622-2.049-2.39c-3.671-4.183-7.683-8.024-11.951-11.524
	c-1.878-1.622-3.841-3.158-5.89-4.524c0.939-0.171,1.963-0.341,2.902-0.512c2.305-0.427,4.61-0.683,6.914-0.854
	c2.134-0.171,4.183-0.341,6.317-0.341c0.085,0,0.085,0,0.085,0h0.854c1.793,0,3.671,0.085,5.463,0.171c0.085,0,0.085,0,0.085,0
	c1.451,0.085,2.902,0.256,4.353,0.427c2.049,0.256,4.097,0.512,6.061,0.939c1.28,0.171,2.561,0.512,3.841,0.854
	c1.11,0.171,2.049,0.427,3.073,0.768c1.024,0.256,2.049,0.598,3.158,0.939c1.793,0.512,3.585,1.195,5.292,1.963
	c1.793,0.683,3.585,1.451,5.378,2.305c0.854,0.341,1.622,0.768,2.39,1.195v0.085c0.512,0.171,1.024,0.427,1.537,0.683
	c4.268,2.305,8.365,5.036,12.207,8.024c1.537,1.28,3.073,2.561,4.524,3.841l0.256,0.256c1.451,1.366,2.902,2.732,4.268,4.183
	c0.427,0.427,0.854,0.939,1.28,1.366c1.024,1.11,2.134,2.39,3.073,3.585c3.585,4.353,6.658,9.134,9.304,14.085
	c0.512,0.854,0.939,1.793,1.366,2.732c2.732,5.634,4.866,11.695,6.317,17.926c0.341,1.366,0.598,2.732,0.768,4.183
	c0.171,0.598,0.256,1.195,0.341,1.878c0.085,0.512,0.171,1.11,0.256,1.707c0.171,1.366,0.341,2.732,0.427,4.097
	c0.085,0.256,0.085,0.512,0.085,0.854c0.171,2.134,0.256,4.183,0.256,6.317c0,2.39-0.085,4.866-0.341,7.17
	C379.006,178.15,379.006,178.577,378.921,178.918z M255.317,230.306c-1.366,1.537-2.732,3.073-4.268,4.524l-4.439,12.548h2.732
	c2.646-2.732,5.122-5.549,7.426-8.536c2.049-2.732,4.012-5.549,5.719-8.536H255.317z M278.792,230.306h-16.304
	c-1.707,2.988-3.671,5.805-5.719,8.536c-2.305,2.988-4.78,5.805-7.426,8.536h22.279c1.963-2.732,3.841-5.634,5.463-8.536
	c2.646-4.524,4.951-9.219,6.744-14.085C282.206,226.721,280.584,228.514,278.792,230.306z"/>
<path style="fill:#AD1457;" d="M337.777,78.106c-6.829-3.244-13.914-5.719-21.426-7.426c-15.109-27.572-42.51-47.547-74.435-52.412
	c4.61-0.768,9.304-1.195,14.085-1.195C294.157,17.072,327.106,42.766,337.777,78.106z"/>
<path style="fill:#D81B60;" d="M316.351,70.68c-7.085-1.622-14.341-2.561-21.938-2.561h-0.427c-13.146,0-25.95,2.561-37.986,7.341
	c-11.78-4.695-24.584-7.341-37.986-7.341c-15.707,0-30.56,3.671-43.876,9.987c4.524-15.536,13.316-29.194,25.011-39.523
	c11.78-10.5,26.462-17.67,42.681-20.316h0.085C273.841,23.133,301.242,43.108,316.351,70.68z"/>
<path style="fill:#BDBDBD;" d="M379.348,170.553c0,2.39-0.085,4.866-0.341,7.17c0,0.427,0,0.854-0.085,1.195
	c-0.171,2.219-0.512,4.268-0.854,6.402c-0.085,0.598-0.171,1.195-0.341,1.793c-0.341,1.707-0.683,3.414-1.11,5.122
	c-0.085,0.256-0.171,0.512-0.256,0.768c-0.598,2.134-1.28,4.268-2.049,6.402c-1.622,4.524-3.671,8.963-6.061,13.146
	c-0.939,1.622-1.878,3.244-2.988,4.78c-0.256,0.512-0.512,0.939-0.939,1.366c-1.366,2.049-2.817,4.012-4.439,5.89
	c-1.536,1.963-3.329,3.841-5.122,5.719h-22.621c1.622-1.707,3.073-3.5,4.439-5.292c6.231-7.939,11.182-16.646,14.768-26.035
	c4.61-11.695,7.085-24.243,7.085-36.962c0-25.694-9.561-49.254-25.352-67.18c0.512,0.171,1.024,0.427,1.536,0.683
	c4.268,2.305,8.365,5.036,12.207,8.024c1.536,1.28,3.073,2.561,4.524,3.841l0.256,0.256c1.451,1.366,2.902,2.732,4.268,4.183
	c0.427,0.427,0.854,0.939,1.28,1.366c1.024,1.11,2.134,2.39,3.073,3.585c3.585,4.353,6.658,9.134,9.304,14.085
	c0.512,0.854,0.939,1.793,1.366,2.732c2.732,5.634,4.866,11.695,6.317,17.926c0.341,1.366,0.598,2.732,0.768,4.183
	c0.171,0.598,0.256,1.195,0.341,1.878c0.085,0.512,0.171,1.11,0.256,1.707c0.171,1.366,0.341,2.732,0.427,4.097
	c0.085,0.256,0.085,0.512,0.085,0.854C379.262,166.37,379.348,168.419,379.348,170.553z"/>
<g>
	<path style="fill:#F4F4F4;" d="M333.082,94.837c15.792,17.926,25.352,41.486,25.352,67.18c0,12.719-2.475,25.267-7.085,36.962
		c-3.585,9.39-8.536,18.097-14.768,26.035c-1.366,1.793-2.817,3.585-4.439,5.292h-31.072c1.963-2.732,3.841-5.549,5.463-8.536
		c9.048-15.45,13.914-33.12,13.914-51.217c0-2.732-0.085-5.463-0.341-8.109c0-0.427,0-0.768-0.085-1.024
		c-0.171-1.707-0.341-3.414-0.598-5.036c-0.171-1.622-0.427-3.244-0.768-4.78c0-0.085,0-0.085,0-0.171
		c-0.427-1.963-0.854-3.927-1.366-5.89c-0.085-0.427-0.171-0.854-0.341-1.28c-0.512-1.963-1.024-3.927-1.707-5.89v-0.085
		c-0.683-2.049-1.451-4.012-2.305-5.975c-0.256-0.939-0.683-1.793-1.11-2.732c-2.988-6.829-6.658-13.231-11.097-19.206
		c-1.195-1.707-2.475-3.414-3.927-5.036c-0.598-0.854-1.28-1.622-2.049-2.39c-3.671-4.183-7.683-8.024-11.951-11.524
		c-1.878-1.622-3.841-3.073-5.89-4.524c0.939-0.171,1.963-0.341,2.902-0.512c2.305-0.427,4.61-0.683,6.914-0.854
		c2.134-0.171,4.183-0.341,6.317-0.341c0.085,0,0.085,0,0.085,0h0.854c1.793,0,3.671,0.085,5.463,0.171c0.085,0,0.085,0,0.085,0
		c1.451,0.085,2.902,0.256,4.353,0.427c2.049,0.256,4.097,0.512,6.061,0.939c1.28,0.171,2.561,0.512,3.841,0.854
		c1.11,0.171,2.049,0.427,3.073,0.768c1.024,0.256,2.049,0.598,3.158,0.939c1.793,0.512,3.585,1.195,5.292,1.963
		c1.793,0.683,3.585,1.451,5.378,2.305c0.854,0.341,1.622,0.768,2.39,1.195c0.512,0.171,1.024,0.512,1.537,0.768
		C334.106,95.264,333.594,95.008,333.082,94.837z"/>
	<path style="fill:#F4F4F4;" d="M368.251,212.551c2.39-4.183,4.439-8.622,6.061-13.146
		C372.69,203.929,370.726,208.368,368.251,212.551z"/>
</g>
<path style="fill:#6D4C41;" d="M303.376,170.553c0,1.878-0.085,3.841-0.171,5.719c-0.085,0.939-0.171,1.793-0.256,2.646
	c-0.171,1.878-0.427,3.671-0.683,5.463c-0.683,4.012-1.536,7.939-2.732,11.695c-0.256,0.939-0.598,1.793-0.939,2.732
	c-0.598,1.793-1.366,3.585-2.049,5.378c-0.939,2.049-1.878,4.012-2.988,6.061c0,0,0,0,0,0.085c-0.854,1.537-1.793,3.158-2.817,4.695
	c-0.427,0.768-0.854,1.537-1.451,2.305c0,0.085-0.085,0.085-0.085,0.085c-0.939,1.451-1.963,2.902-3.073,4.353
	c-0.683,1.024-1.451,2.049-2.305,2.988c-1.622,1.963-3.244,3.756-5.036,5.549h-23.475c1.622-1.707,3.073-3.5,4.439-5.292
	c6.231-7.939,11.182-16.646,14.768-26.035c4.61-11.695,7.085-24.243,7.085-36.962c0-25.694-9.561-49.254-25.352-67.18v-0.085
	c-0.256-0.256-0.427-0.512-0.768-0.768c0.341,0.085,0.598,0.256,0.939,0.427c0.256,0.085,0.512,0.171,0.768,0.341
	c0.512,0.256,0.939,0.512,1.451,0.768c1.622,0.854,3.158,1.793,4.695,2.732c4.268,2.732,8.28,5.805,12.036,9.134
	c0.854,0.768,1.707,1.537,2.475,2.39c1.878,1.878,3.756,3.841,5.463,5.89c1.11,1.28,2.049,2.561,3.073,3.841
	c2.049,2.732,3.927,5.634,5.634,8.536c0.683,1.28,1.366,2.561,2.049,3.841c2.817,5.463,5.036,11.268,6.573,17.328
	c0.256,0.939,0.512,1.878,0.683,2.902c1.024,4.268,1.622,8.707,1.878,13.231C303.29,167.053,303.376,168.846,303.376,170.553z"/>
<path style="fill:#8D6E63;" d="M281.609,162.017c0,12.719-2.475,25.267-7.085,36.962c-3.585,9.39-8.536,18.097-14.768,26.035
	c-1.366,1.793-2.817,3.585-4.439,5.292h-98.081c-1.366-1.366-2.646-2.732-3.841-4.183c-1.11-1.28-2.219-2.646-3.244-4.012
	c-0.171-0.085-0.256-0.171-0.341-0.341c-1.11-1.451-2.134-2.902-3.073-4.439c-0.598-0.768-1.024-1.537-1.451-2.305
	c-1.024-1.537-1.963-3.158-2.817-4.695c0-0.085,0-0.085,0-0.085c-1.11-2.049-2.049-4.012-2.988-6.061c0-0.085,0-0.085,0-0.171
	c-0.939-2.049-1.707-4.183-2.39-6.317c-0.768-2.134-1.366-4.268-1.963-6.487c-0.512-2.219-1.024-4.524-1.366-6.829
	c-0.256-1.793-0.512-3.585-0.683-5.463c-0.085-0.854-0.171-1.707-0.256-2.646c-0.085-1.878-0.171-3.841-0.171-5.719
	c0-2.902,0.171-5.805,0.427-8.707c0.171-1.451,0.341-2.817,0.598-4.268c0.085-0.854,0.256-1.707,0.427-2.475
	c0.171-1.024,0.341-2.049,0.598-2.988c2.646-12.036,7.768-23.048,14.938-32.608c1.622-2.219,3.414-4.353,5.207-6.317
	c2.049-2.305,4.268-4.439,6.573-6.487c1.195-1.11,2.475-2.134,3.756-3.158c2.988-2.305,6.061-4.439,9.304-6.317
	c0.854-0.598,1.793-1.11,2.646-1.537c0.854-0.512,1.793-1.024,2.732-1.451c5.975-2.988,12.292-5.292,18.95-6.829
	c1.622-0.427,3.244-0.683,4.866-0.939c0.427-0.171,0.939-0.256,1.366-0.256c1.793-0.341,3.671-0.512,5.463-0.683
	c1.878-0.171,3.756-0.256,5.719-0.341c0.085,0,0.085,0,0.085,0h1.707c1.793,0,3.5,0.085,5.292,0.171
	c0.427,0,0.854,0.085,1.195,0.085c1.451,0.085,2.902,0.256,4.268,0.427c0.768,0.085,1.451,0.171,2.219,0.341
	c3.073,0.427,6.146,1.11,9.134,1.963c1.537,0.427,2.988,0.768,4.439,1.28c3.756,1.195,7.426,2.732,10.926,4.439
	c0.256,0.085,0.598,0.256,0.939,0.512c-0.341-0.171-0.598-0.341-0.939-0.427c0.341,0.256,0.512,0.512,0.768,0.768v0.085
	C272.048,112.763,281.609,136.323,281.609,162.017z"/>
<polygon style="fill:#F9A825;" points="346.313,247.378 263.853,479.819 257.878,465.649 251.476,450.113 251.22,449.601 
	249.939,446.613 323.35,247.378 "/>
<g>
	<polygon style="fill:#FFC107;" points="249.939,446.613 251.22,449.601 249.939,446.698 	"/>
	<polygon style="fill:#FFC107;" points="251.476,450.113 257.878,465.649 251.22,449.601 	"/>
	<polygon style="fill:#FFC107;" points="323.35,247.378 249.939,446.613 209.819,350.922 173.54,264.451 166.37,247.378 	"/>
</g>
<g>
	<path style="fill:#F9A825;" d="M249.794,349.813c-3.039,0-5.984-1.63-7.529-4.499l-27.93-51.994
		c-2.236-4.149-0.674-9.33,3.474-11.558c4.174-2.236,9.33-0.666,11.558,3.483l27.93,51.994c2.236,4.149,0.674,9.33-3.474,11.558
		C252.543,349.488,251.16,349.813,249.794,349.813z"/>
	<path style="fill:#F9A825;" d="M224.186,332.74c-2.8,0-5.54-1.374-7.179-3.901c-2.561-3.961-1.426-9.245,2.535-11.806
		l65.968-42.681c3.952-2.569,9.236-1.426,11.806,2.527c2.561,3.961,1.426,9.245-2.535,11.806l-65.968,42.681
		C227.378,332.296,225.782,332.74,224.186,332.74z"/>
</g>
<g>
</g>
<g>
</g>
<g>
</g>
<g>
</g>
<g>
</g>
<g>
</g>
<g>
</g>
<g>
</g>
<g>
</g>
<g>
</g>
<g>
</g>
<g>
</g>
<g>
</g>
<g>
</g>
<g>
</g>
</svg>
