<?xml version="1.0" encoding="iso-8859-1"?>
<!-- Generator: Adobe Illustrator 19.0.0, SVG Export Plug-In . SVG Version: 6.00 Build 0)  -->
<svg version="1.1" id="Layer_1" xmlns="http://www.w3.org/2000/svg" xmlns:xlink="http://www.w3.org/1999/xlink" x="0px" y="0px"
	 viewBox="0 0 512 512" style="enable-background:new 0 0 512 512;" xml:space="preserve">
<path d="M290.133,1.28C281.259,0.512,270.08,0,256,0c-68.267,0-68.267,11.52-68.267,17.067V384c0,4.352,0.171,12.544,34.133,15.701
	v87.893c0,13.483,11.52,24.405,25.6,24.405h17.067c14.08,0,25.6-10.923,25.6-24.405v-87.893
	c33.963-3.157,34.133-11.349,34.133-15.701V17.067C324.267,12.629,324.267,4.523,290.133,1.28z M273.067,487.595
	c0,4.011-3.925,7.339-8.533,7.339h-17.067c-4.608,0-8.533-3.328-8.533-7.339v-86.869c5.205,0.256,10.752,0.341,17.067,0.341
	c2.987,0,5.803,0,8.533-0.085c2.987,0,5.803-0.085,8.533-0.256V487.595z M307.2,379.648c-1.024,0.256-2.389,0.597-4.096,0.939
	c-0.597,0.085-1.195,0.256-1.792,0.341c-0.939,0.171-2.048,0.341-3.243,0.512c-0.768,0.085-1.621,0.256-2.56,0.341
	c-1.024,0.171-2.048,0.341-3.243,0.427c-0.683,0.085-1.365,0.171-2.133,0.256c-1.109,0.085-2.304,0.256-3.584,0.341
	c-1.024,0.085-2.048,0.171-3.157,0.256c-2.133,0.171-4.523,0.341-6.912,0.427C270.507,383.829,263.68,384,256,384
	c-27.989,0-44.8-2.56-51.2-4.352v-55.381h102.4V379.648z M307.2,307.2H204.8v-59.733h102.4V307.2z M307.2,230.4H204.8v-59.733h102.4
	V230.4z M307.2,153.6H204.8V93.867h102.4V153.6z M307.2,76.8H204.8V21.419c6.4-1.792,23.211-4.352,51.2-4.352
	c14.251,0,25.6,0.683,34.133,1.621c2.987,0.256,5.632,0.597,7.936,0.939c1.365,0.171,2.56,0.427,3.669,0.597
	c0.768,0.171,1.451,0.256,2.133,0.427c1.365,0.256,2.475,0.512,3.328,0.768V76.8z"/>
<path style="fill:#8D6E63;" d="M273.067,400.725v86.869c0,4.011-3.925,7.339-8.533,7.339v-93.952
	C267.52,400.981,270.336,400.896,273.067,400.725z"/>
<path style="fill:#C1AD9D;" d="M264.533,400.981v93.952h-17.067c-4.608,0-8.533-3.328-8.533-7.339v-86.869
	c5.205,0.256,10.752,0.341,17.067,0.341C258.987,401.067,261.803,401.067,264.533,400.981z"/>
<path style="fill:#311B92;" d="M307.2,324.267v55.381c-1.024,0.256-2.389,0.597-4.096,0.939c-0.597,0.085-1.195,0.256-1.792,0.341
	c-0.939,0.171-2.048,0.341-3.243,0.512c-0.768,0.085-1.621,0.256-2.56,0.341c-1.024,0.171-2.048,0.341-3.243,0.427
	c-0.683,0.085-1.365,0.171-2.133,0.171v-58.112H307.2z"/>
<path style="fill:#5E35B1;" d="M204.8,324.267h85.333v58.197c-1.109,0.085-2.304,0.256-3.584,0.341
	c-1.024,0.085-2.048,0.171-3.157,0.256c-2.133,0.085-4.437,0.256-6.912,0.427C270.507,383.829,263.68,384,256,384
	c-27.989,0-44.8-2.56-51.2-4.352V324.267z"/>
<rect x="290.133" y="247.467" style="fill:#388E3C;" width="17.067" height="59.733"/>
<rect x="204.8" y="247.467" style="fill:#4CAF50;" width="85.333" height="59.733"/>
<rect x="290.133" y="170.667" style="fill:#F9A825;" width="17.067" height="59.733"/>
<rect x="204.8" y="170.667" style="fill:#FFC107;" width="85.333" height="59.733"/>
<rect x="290.133" y="93.867" style="fill:#BDBDBD;" width="17.067" height="59.733"/>
<rect x="204.8" y="93.867" style="fill:#F4F4F4;" width="85.333" height="59.733"/>
<path style="fill:#B71C1C;" d="M307.2,21.419V76.8h-17.067V18.688c2.987,0.256,5.632,0.597,7.936,0.939
	c1.365,0.171,2.645,0.427,3.669,0.597c0.768,0.171,1.451,0.256,2.133,0.427C305.237,20.907,306.347,21.163,307.2,21.419z"/>
<path style="fill:#D50000;" d="M256,17.067c14.251,0,25.6,0.683,34.133,1.621V76.8H204.8V21.419
	C211.2,19.627,228.011,17.067,256,17.067z"/>
<g>
</g>
<g>
</g>
<g>
</g>
<g>
</g>
<g>
</g>
<g>
</g>
<g>
</g>
<g>
</g>
<g>
</g>
<g>
</g>
<g>
</g>
<g>
</g>
<g>
</g>
<g>
</g>
<g>
</g>
</svg>
