<?xml version="1.0" encoding="iso-8859-1"?>
<!-- Generator: Adobe Illustrator 19.0.0, SVG Export Plug-In . SVG Version: 6.00 Build 0)  -->
<svg version="1.1" id="Layer_1" xmlns="http://www.w3.org/2000/svg" xmlns:xlink="http://www.w3.org/1999/xlink" x="0px" y="0px"
	 viewBox="0 0 511.997 511.997" style="enable-background:new 0 0 511.997 511.997;" xml:space="preserve">
<path d="M228.331,40.199c-1.365-1.109-2.644-2.218-4.009-3.156c0.768,3.241,1.706,6.653,2.815,9.98
	c2.133-0.597,4.436-1.28,6.739-1.962C232.084,43.27,230.208,41.649,228.331,40.199z M344.852,333.975l4.265-1.791
	c1.109-0.512,2.133-1.194,2.9-2.047c13.989-15.098,22.775-34.973,26.358-59.966c4.436-29.855,1.365-67.046-9.042-112.085
	c-1.194-5.118-2.474-10.151-3.839-15.098c-0.085-0.426-0.256-0.768-0.427-1.194c-0.512-1.194-1.28-2.218-2.218-2.986
	c-3.839-3.412-8.018-7.848-12.113-13.051c-3.412-4.265-6.824-9.042-10.151-14.16c-7.421-11.174-14.331-23.884-19.534-36.082
	c-3.071-7.08-5.545-13.904-7.165-20.131c-1.365-5.374-2.218-10.321-2.303-14.586c0-0.853,0.085-1.621,0.085-2.388
	c0.085-2.303-0.682-4.521-2.218-6.227c-0.426-0.427-0.853-0.853-1.194-1.28c-3.156-3.327-6.312-6.398-9.554-9.127
	c-5.886-5.118-11.857-9.383-17.913-12.624c-6.398-3.497-12.795-6.056-19.278-7.506c-6.227-1.45-12.539-1.962-18.766-1.45
	c-0.768,0.085-1.535,0.256-2.303,0.512l-6.568,2.474l-1.535,0.597l-18.084,6.995l-23.628,9.042l-15.439,5.971v0.085
	c-1.45,0.512-2.815,1.024-4.094,1.706c-0.341,0.171-0.682,0.341-1.024,0.512c-4.265,2.133-8.189,4.947-11.686,8.445
	c-5.8,5.63-10.748,12.966-14.757,22.093c-0.341,0.768-0.682,1.621-0.938,2.388c-3.839,8.957-6.653,19.449-8.445,31.305
	c-5.545,35.314-2.133,79.159,9.639,123.515c8.957,34.035,22.008,65.426,37.618,90.76c4.692,7.762,9.639,14.928,14.842,21.496
	c6.653,8.359,13.392,15.354,20.131,21.069c7.08,5.971,14.16,10.407,21.155,13.307c3.583,1.535,7.251,2.644,10.833,3.327
	c2.9,0.597,5.8,0.853,8.701,0.853c2.986,0,5.886-0.256,8.786-0.938c0.597-0.085,1.28-0.256,1.877-0.426
	c3.071-0.853,5.971-2.047,8.786-3.497l0.938,3.839l26.955,110.806l2.986,12.369c0.341,1.45,0.768,2.815,1.28,4.094
	c0.938,2.644,2.133,5.118,3.668,7.336c3.924,6.227,9.639,10.407,15.695,11.516c0.938,0.171,1.962,0.256,2.986,0.256
	c1.279,0,2.644-0.171,4.009-0.512l5.886-1.45l6.653-1.621c6.142-1.45,11.089-6.312,13.563-13.307
	c1.962-5.8,2.133-12.71,0.512-19.534l-0.682-2.644l-6.227-25.846L328.9,340.884l0.171-0.085L344.852,333.975z M315.679,103.407
	c1.962,3.583,4.009,7.165,6.142,10.577c0.085,0.171,0.171,0.256,0.341,0.427c0.171,0.256,0.341,0.597,0.512,0.853
	c6.056,9.81,12.624,18.766,18.851,26.017l-12.539,5.118l-6.227,2.559l-29.685,12.283c-0.853-0.512-1.706-1.109-2.559-1.791
	c-0.853-0.597-1.706-1.194-2.474-1.877c-0.853-0.682-1.706-1.45-2.474-2.133c-6.568-5.8-12.71-13.477-18.084-22.178l11.771-11.771
	l11.516,5.715c1.28,0.682,2.474,0.938,3.839,0.938c2.73,0,5.459-1.365,7.08-3.839l2.388-3.583c0,0,0,0,0-0.085L315.679,103.407z
	 M296.913,57.601c0.256,1.28,0.597,2.559,0.938,3.839c0.341,1.28,0.768,2.644,1.194,4.009c2.047,6.653,4.692,13.563,7.762,20.472
	l-11.345,17.145l-1.535,2.303l-2.218,3.241l-10.321-5.118c-1.28-0.682-2.73-0.938-4.094-0.938c-0.682,0-1.279,0.085-1.877,0.341
	c-0.171,0-0.341,0-0.427,0.085c-0.682,0.171-1.365,0.427-1.962,0.853c-0.256,0.085-0.426,0.256-0.682,0.427
	c-0.256,0.256-0.597,0.512-0.853,0.768l-12.624,12.624c-1.024-2.133-1.962-4.18-2.815-6.312c-0.341-0.768-0.597-1.45-0.938-2.218
	c-0.597-1.45-1.109-2.815-1.621-4.265c-0.768-1.962-1.45-4.009-2.133-5.971c-2.986-9.042-5.033-17.913-5.886-25.931
	c-0.171-1.621-0.256-3.241-0.341-4.777c0.085,0,3.839-1.024,9.298-2.559c0.768-0.256,1.535-0.427,2.303-0.682
	c1.109-0.341,2.303-0.682,3.668-1.024c4.35-1.28,9.212-2.644,13.989-4.009c1.109-0.341,2.218-0.597,3.327-0.938
	c2.303-0.682,4.521-1.28,6.568-1.877c0.682-0.171,1.28-0.341,1.877-0.512c0.256-0.085,0.512-0.085,0.682-0.171
	c0.426-0.171,0.853-0.256,1.28-0.427c4.777-1.28,7.933-2.218,7.933-2.218C296.316,55.042,296.571,56.321,296.913,57.601z
	 M235.496,20.836l9.724-3.668c1.365-0.085,2.815-0.085,4.18,0c0.938,0,1.877,0.085,2.73,0.171c2.047,0.256,4.094,0.597,6.056,1.024
	c0.768,0.171,1.621,0.427,2.388,0.682c1.109,0.256,2.133,0.597,3.156,1.024c1.024,0.341,2.047,0.768,3.071,1.194
	c6.227,2.644,12.027,6.398,17.231,10.492c0.768,0.597,1.45,1.194,2.133,1.791c1.535,1.28,3.071,2.644,4.521,4.009
	c0,0-2.559,0.768-6.568,1.877c-0.938,0.341-1.877,0.597-2.986,0.938c-0.597,0.171-1.28,0.341-1.962,0.512
	c-2.73,0.768-5.715,1.621-8.786,2.474c-3.327,0.938-6.824,1.962-10.065,2.986c-1.28,0.341-2.474,0.682-3.668,1.024
	c-0.171,0-0.341,0.085-0.512,0.171c-1.791,0.427-3.497,0.938-5.033,1.45h-0.085c-5.971,1.621-10.236,2.9-10.236,2.9
	c-0.426-0.512-0.853-0.938-1.365-1.365c-0.938-1.024-1.877-1.877-2.815-2.815c-0.853-0.938-1.791-1.877-2.73-2.644
	c-1.791-1.791-3.668-3.412-5.545-4.862c-1.365-1.109-2.644-2.218-4.009-3.156c-1.109-0.853-2.218-1.621-3.327-2.388h-0.085
	c-0.085-0.085-0.085-0.085-0.171-0.171c-2.9-1.877-5.715-3.497-8.53-4.947L235.496,20.836z M285.056,328.26
	c-1.28,2.559-2.73,4.862-4.18,6.995c-3.156,4.521-6.739,8.104-10.663,10.577c-2.133,1.28-4.436,2.303-6.739,2.9
	c-0.512,0.171-1.109,0.256-1.621,0.341c-3.668,0.768-7.677,0.597-11.857-0.512c-2.047-0.512-4.18-1.194-6.312-2.133
	c-0.597-0.256-1.194-0.512-1.791-0.853c-5.971-2.815-12.113-7.165-18.34-12.966c-4.606-4.265-9.212-9.298-13.819-15.098
	c-20.728-26.187-38.3-63.805-49.389-106.029c-2.047-7.848-3.839-15.61-5.289-23.287c-6.739-33.95-8.189-66.364-4.009-93.234
	c1.877-12.539,5.033-23.202,9.127-31.732c0.768-1.706,1.621-3.241,2.559-4.777c5.289-9.298,12.027-15.269,19.704-17.231
	c1.962-0.512,4.094-0.768,6.312-0.768c0.085,0,0.085,0,0.171,0c1.706,0,3.412,0.171,5.118,0.512
	c4.947,0.853,10.065,3.071,15.439,6.398c1.535,0.938,3.156,2.047,4.777,3.327c4.521,3.241,9.127,7.421,13.733,12.369v0.085
	c-0.171,5.374,0.341,11.174,1.365,17.231c0.682,4.436,1.621,9.042,2.9,13.733c1.535,6.056,3.497,12.198,5.886,18.34
	c1.024,2.559,2.047,5.118,3.241,7.677c2.218,5.203,4.777,10.321,7.592,15.269c1.28,2.218,2.559,4.436,3.924,6.568
	c5.203,8.53,11.174,16.292,17.657,22.775l0.085,0.085c2.218,2.218,4.521,4.265,6.824,6.142c2.388,2.047,4.947,3.839,7.506,5.459
	l0.597,2.047c0.597,2.303,1.194,4.606,1.706,6.909c9.468,38.897,12.283,76.6,7.933,107.393c-0.085,0.768-0.256,1.535-0.341,2.303
	c-0.597,4.094-1.365,8.018-2.303,11.686C290.6,315.038,288.041,322.289,285.056,328.26z M345.193,479.668
	c1.706,7.251-0.597,11.857-1.535,12.198l-6.739,1.621l-5.8,1.45c-0.682-0.085-2.559-1.194-4.265-3.753
	c-0.341-0.512-0.682-1.109-1.024-1.791c-0.682-1.28-1.28-2.815-1.706-4.606l-31.305-128.463l8.871-3.839l11.345-4.862
	L345.193,479.668z M301.092,334.231c0.597-1.194,1.194-2.559,1.706-3.839c1.535-3.497,2.815-7.251,4.009-11.26
	c0.853-2.644,1.621-5.459,2.303-8.445c0.427-1.706,0.853-3.497,1.194-5.289c0.512-2.559,0.938-5.118,1.365-7.762
	c0.171-1.024,0.341-2.047,0.426-3.156c1.706-12.198,2.388-25.334,2.047-39.238c-0.085-1.877-0.171-3.839-0.256-5.8
	c-0.341-9.127-1.194-18.596-2.559-28.235c-0.426-3.327-0.853-6.739-1.45-10.065c-0.426-2.644-0.853-5.289-1.365-7.933
	c-1.621-9.042-3.668-18.169-6.056-27.381l21.581-8.957l16.037-6.568l11.089-4.606c0.512,2.047,1.024,4.094,1.535,6.227
	c3.839,16.719,6.653,32.244,8.445,46.489c0.512,4.436,1.024,8.701,1.28,12.795c1.024,11.942,1.28,22.946,0.597,33.011
	c-0.256,3.753-0.597,7.421-1.109,11.004c-0.341,3.497-0.853,6.824-1.621,10.065c-0.256,1.109-0.512,2.303-0.768,3.412
	c-0.426,2.047-0.938,4.009-1.535,5.886c-0.427,1.535-0.853,2.986-1.365,4.436c-0.427,1.45-0.938,2.9-1.535,4.265
	c-0.512,1.365-1.109,2.73-1.706,4.009c-0.597,1.365-1.194,2.644-1.877,3.924c-0.768,1.45-1.535,2.986-2.388,4.35
	c-2.388,4.265-5.203,8.104-8.359,11.686L301.092,334.231z M256.139,47.535c-1.791,0.427-3.497,0.938-5.033,1.45h-0.085
	c-5.971,1.621-10.236,2.9-10.236,2.9c-0.427-0.512-0.853-0.938-1.365-1.365c0.512,2.815,1.194,5.8,1.962,8.701
	c1.109,4.521,2.474,9.127,4.094,13.733c-0.171-1.621-0.256-3.241-0.341-4.777c0.085,0,3.839-1.024,9.298-2.559
	c0.768-0.256,1.535-0.426,2.303-0.682c1.109-0.341,2.303-0.682,3.668-1.024C258.613,58.368,257.163,52.824,256.139,47.535z"/>
<path style="fill:#C1AD9D;" d="M336.919,493.487l-5.8,1.45c-0.682-0.085-2.559-1.194-4.265-3.753
	c-0.426-0.512-0.768-1.109-1.024-1.791c-0.682-1.28-1.28-2.815-1.706-4.606l-31.305-128.463l8.871-3.839L336.919,493.487z"/>
<path style="fill:#6D4C41;" d="M290.686,37.555c0,0-2.559,0.768-6.568,1.877c-1.45,0.427-3.156,0.938-4.947,1.45
	c-2.73,0.768-5.715,1.621-8.786,2.474c-1.621-1.621-3.241-3.071-4.947-4.521c-5.886-5.118-11.857-9.383-17.913-12.624
	c-4.009-2.218-8.018-4.009-12.027-5.374l9.724-3.668c1.365-0.085,2.815-0.085,4.18,0c0.938,0,1.877,0.085,2.73,0.171
	c2.047,0.256,4.094,0.597,6.056,1.024c0.768,0.171,1.621,0.427,2.388,0.682c1.109,0.256,2.133,0.597,3.156,1.024
	c1.024,0.341,2.047,0.768,3.071,1.194c6.227,2.644,12.027,6.398,17.231,10.492c0.768,0.597,1.45,1.109,2.133,1.791
	C287.7,34.825,289.236,36.19,290.686,37.555z"/>
<path style="fill:#8D6E63;" d="M270.384,43.355c-3.327,0.938-6.824,1.962-10.065,2.986c-1.28,0.341-2.474,0.682-3.668,1.024
	c-0.171,0-0.341,0.085-0.512,0.171c-1.791,0.427-3.497,0.938-5.033,1.45h-0.085c-5.971,1.621-10.236,2.9-10.236,2.9
	c-0.426-0.512-0.853-0.938-1.365-1.365c-0.938-1.024-1.877-1.962-2.815-2.815c-0.853-0.938-1.791-1.877-2.73-2.644
	c-1.791-1.791-3.668-3.412-5.545-4.862c-1.365-1.109-2.73-2.218-4.009-3.156c-1.109-0.853-2.218-1.621-3.327-2.388h-0.171
	c-0.085-0.085-0.085-0.171-0.085-0.171c-2.9-1.877-5.715-3.497-8.53-4.947l23.287-8.701c4.009,1.365,8.018,3.156,12.027,5.374
	c6.056,3.241,12.027,7.506,17.913,12.624C267.143,40.285,268.763,41.735,270.384,43.355z"/>
<g>
	<path style="fill:#F4F4F4;" d="M286.165,56.577c0.597,16.89,3.839,32.755,9.212,46.489l-1.45,2.303l-2.218,3.241l-10.321-5.118
		c-1.28-0.682-2.73-0.938-4.094-0.938c-0.682,0-1.279,0.085-1.877,0.341c-0.171,0-0.341,0-0.427,0.085
		c-0.682,0.171-1.365,0.427-1.962,0.853c-0.256,0.085-0.426,0.256-0.682,0.427c-0.256,0.256-0.597,0.512-0.853,0.768l-12.624,12.624
		c-1.024-2.133-1.962-4.18-2.815-6.312c-0.938-2.133-1.791-4.35-2.559-6.483c-0.768-1.962-1.45-4.009-2.133-5.971
		c-2.986-9.042-5.033-17.913-5.886-25.931c-0.171-1.621-0.256-3.241-0.341-4.777c0.085,0,3.839-1.024,9.298-2.559
		c0.768-0.256,1.535-0.427,2.303-0.682c1.109-0.341,2.303-0.682,3.668-1.024c4.35-1.28,9.212-2.644,13.989-4.009
		c1.109-0.341,2.218-0.597,3.327-0.938c2.303-0.682,4.521-1.28,6.568-1.877c0.682-0.171,1.28-0.341,1.877-0.597
		c0.682-0.171,1.365-0.341,1.962-0.512c-0.427,0.171-0.853,0.256-1.28,0.427C286.677,56.492,286.421,56.492,286.165,56.577z"/>
	<path style="fill:#F4F4F4;" d="M328.986,146.399v0.085l-6.227,2.474l-29.685,12.283c-0.853-0.512-1.706-1.109-2.559-1.791
		c-0.853-0.597-1.706-1.194-2.474-1.877c-0.853-0.682-1.706-1.45-2.474-2.133c-6.568-5.8-12.71-13.477-18.084-22.178l11.771-11.771
		l11.516,5.715c1.194,0.597,2.559,0.938,3.839,0.938c2.73,0,5.459-1.365,7.08-3.839l2.388-3.583
		C310.987,131.897,319.432,140.769,328.986,146.399z"/>
</g>
<path style="fill:#6D4C41;" d="M363.021,254.219c-0.341,3.753-0.682,7.421-1.109,11.004c-0.341,3.497-0.853,6.824-1.621,10.065
	c-0.256,1.109-0.512,2.303-0.768,3.412c-0.427,2.047-0.938,4.009-1.535,5.886c-0.426,1.535-0.853,2.986-1.365,4.436
	c-0.426,1.45-0.938,2.9-1.535,4.265c-0.512,1.365-1.109,2.73-1.706,4.009c-0.597,1.365-1.194,2.644-1.877,3.924
	c-0.768,1.45-1.535,2.986-2.388,4.35c-2.388,4.265-5.203,8.104-8.359,11.686l-39.665,16.975c0.597-1.194,1.194-2.559,1.706-3.839
	c1.535-3.497,2.815-7.251,4.009-11.26l4.777-2.047l4.265-1.791c1.109-0.512,2.133-1.194,2.9-2.047
	c13.989-15.098,22.775-34.973,26.358-59.966c3.753-25.505,2.133-56.384-5.033-92.978l11.089-4.606
	c0.512,2.047,1.024,4.094,1.535,6.227c3.839,16.719,6.653,32.244,8.445,46.489c0.512,4.436,1.024,8.701,1.28,12.795
	C363.447,233.149,363.703,244.153,363.021,254.219z"/>
<path style="fill:#8D6E63;" d="M340.075,160.303c7.165,36.594,8.786,67.473,5.033,92.978c-3.583,24.993-12.369,44.868-26.358,59.966
	c-0.768,0.853-1.791,1.535-2.9,2.047l-4.265,1.791l-4.777,2.047c0.853-2.644,1.621-5.459,2.303-8.445
	c0.427-1.706,0.853-3.497,1.194-5.289c0.512-2.559,0.938-5.118,1.365-7.762c0.171-1.024,0.341-2.047,0.426-3.156
	c4.862-34.206,1.365-76.088-9.639-118.653l21.581-8.957L340.075,160.303z"/>
<path style="fill:#6D4C41;" d="M285.056,328.26c-5.715,11.089-13.051,18.254-21.581,20.472c-15.184,4.009-34.803-7.336-53.739-31.22
	c-20.728-26.187-38.3-63.805-49.389-106.029c-2.047-7.848-3.839-15.61-5.289-23.287c11.686,41.883,29.599,79.33,50.669,105.943
	c20.046,25.249,41.2,38.556,60.819,38.556c3.668,0,7.165-0.427,10.663-1.365C279.938,330.563,282.497,329.539,285.056,328.26z"/>
<path style="fill:#8D6E63;" d="M295.207,292.775c-0.085,0.768-0.256,1.535-0.341,2.303c-2.047,13.307-5.459,24.481-9.81,33.182
	c-2.559,1.28-5.118,2.303-7.848,3.071c-3.497,0.938-6.995,1.365-10.663,1.365c-19.619,0-40.774-13.307-60.819-38.556
	c-21.069-26.614-38.982-64.061-50.669-105.943c-6.739-33.95-8.189-66.364-4.009-93.234c1.877-12.539,5.033-23.202,9.127-31.732
	c5.715-12.027,13.307-19.704,22.263-22.008c1.962-0.512,4.094-0.768,6.312-0.768c11.771,0,25.42,7.762,39.238,22.605
	c-0.938,36.082,24.396,93.319,56.981,113.365l0.597,2.047C296.401,219.757,299.813,260.19,295.207,292.775z"/>
<g>
	<path style="fill:#BDBDBD;" d="M306.808,85.92l-11.345,17.145h-0.085c-5.374-13.733-8.615-29.599-9.212-46.489
		c0.256-0.085,0.512-0.085,0.682-0.171c0.426-0.171,0.853-0.256,1.28-0.427c4.777-1.28,7.933-2.218,7.933-2.218
		c0.256,1.28,0.512,2.559,0.853,3.839c0.256,1.28,0.597,2.559,0.938,3.839c0.341,1.28,0.768,2.644,1.194,4.009
		C301.092,72.102,303.737,79.011,306.808,85.92z"/>
	<path style="fill:#BDBDBD;" d="M341.525,141.281l-12.539,5.118c-9.554-5.63-17.998-14.501-24.908-25.675c0,0,0,0,0-0.085
		l11.601-17.231c1.962,3.583,4.009,7.165,6.142,10.577c0.256,0.426,0.512,0.853,0.853,1.28
		C328.73,125.073,335.298,134.03,341.525,141.281z"/>
</g>
<path style="fill:#8D6E63;" d="M343.657,491.866l-6.739,1.621l-35.229-141.002l11.345-4.862l32.158,132.045
	C346.899,486.919,344.596,491.525,343.657,491.866z"/>
<g>
</g>
<g>
</g>
<g>
</g>
<g>
</g>
<g>
</g>
<g>
</g>
<g>
</g>
<g>
</g>
<g>
</g>
<g>
</g>
<g>
</g>
<g>
</g>
<g>
</g>
<g>
</g>
<g>
</g>
</svg>
