<?xml version="1.0" encoding="iso-8859-1"?>
<!-- Generator: Adobe Illustrator 19.0.0, SVG Export Plug-In . SVG Version: 6.00 Build 0)  -->
<svg version="1.1" id="Layer_1" xmlns="http://www.w3.org/2000/svg" xmlns:xlink="http://www.w3.org/1999/xlink" x="0px" y="0px"
	 viewBox="0 0 511.999 511.999" style="enable-background:new 0 0 511.999 511.999;" xml:space="preserve">
<path style="fill:#F4F4F4;" d="M359.922,386.222l-156.837-44.713c-5.802,0.853-11.52,2.645-17.151,5.29
	c-37.119,17.493-67.923,70.91-65.875,108.028c1.451,26.623,18.175,40.105,49.577,40.105h162.128c7.168,0,13.653-0.683,19.626-2.048
	c6.741-6.229,12.032-13.909,15.786-23.039C378.866,441.686,372.978,406.445,359.922,386.222z M267.766,401.069
	c-9.984,0-12.032,4.181-12.714,26.452c-0.512,18.005-1.28,45.225-31.231,48.212h-1.707c-29.951-2.987-30.719-30.207-31.231-48.212
	c-0.683-22.271-2.731-26.452-12.714-26.452c-4.693,0-8.533-3.84-8.533-8.533s3.84-8.533,8.533-8.533
	c28.415,0,29.183,25.855,29.695,43.007c0.683,20.991,2.219,29.951,15.104,31.572c12.885-1.621,14.421-10.581,15.104-31.572
	c0.512-17.151,1.28-43.007,29.695-43.007c4.693,0,8.533,3.84,8.533,8.533S272.459,401.069,267.766,401.069z"/>
<path style="fill:#BDBDBD;" d="M280.565,401.069c0,4.693-3.84,8.533-8.533,8.533c-9.984,0-12.032,4.181-12.714,26.452
	c-0.512,18.005-1.28,45.225-31.231,48.212h-1.707c-29.951-2.987-30.719-30.207-31.231-48.212
	c-0.683-22.271-2.731-26.452-12.714-26.452c-4.693,0-8.533-3.84-8.533-8.533s3.84-8.533,8.533-8.533
	c28.415,0,29.183,25.855,29.695,43.007c0.683,20.991,2.219,29.951,15.104,31.572c12.885-1.621,14.421-10.581,15.104-31.572
	c0.512-17.151,1.28-43.007,29.695-43.007C276.725,392.536,280.565,396.376,280.565,401.069z"/>
<path d="M391.665,380.931L408.561,8.976c0.171-3.925-2.304-7.424-6.058-8.618c-3.755-1.109-7.765,0.427-9.813,3.755l-21.162,34.985
	l-0.853,1.365l-17.663,29.183L198.392,325.125c-4.523,0.768-8.96,2.048-13.312,3.669c-8.874,3.328-17.407,8.277-25.428,14.421
	c-34.388,26.367-58.707,74.92-56.659,112.551c0.939,15.616,6.058,28.33,14.933,37.716c11.434,12.032,29.012,18.517,51.71,18.517
	h162.128c34.559,0,59.817-14.933,71.08-42.153C415.643,439.041,407.366,399.704,391.665,380.931z M351.389,105.314l17.237-28.415
	l1.28-2.133l20.053-33.108l-15.018,331.168l-18.346-5.205l-4.352-1.28l-12.544-3.584l-122.876-35.071L351.389,105.314z
	 M387.058,463.36c-6.4,15.53-18.431,25.428-35.668,29.524c-5.973,1.365-12.458,2.048-19.626,2.048H169.635
	c-31.402,0-48.126-13.482-49.577-40.105c-2.048-37.119,28.756-90.536,65.875-108.028c5.632-2.645,11.349-4.437,17.151-5.29
	l156.837,44.713l18.431,5.29C389.362,404.482,397.895,437.164,387.058,463.36z"/>
<path style="fill:#BDBDBD;" d="M387.058,463.36c-6.4,15.53-18.431,25.428-35.668,29.524c6.741-6.229,12.032-13.909,15.786-23.039
	c11.69-28.159,5.802-63.401-7.253-83.624l18.431,5.29C389.362,404.482,397.895,437.164,387.058,463.36z"/>
<polygon style="fill:#F9A825;" points="389.959,41.657 374.941,372.825 352.243,366.34 368.626,76.899 "/>
<polygon style="fill:#FFC107;" points="368.626,76.899 352.243,366.34 216.823,327.685 "/>
<path d="M276.299,392.536c0,4.693-3.84,8.533-8.533,8.533c-9.984,0-12.032,4.181-12.714,26.452
	c-0.512,18.005-1.28,45.225-31.231,48.212h-1.707c-29.951-2.987-30.719-30.207-31.231-48.212
	c-0.683-22.271-2.731-26.452-12.714-26.452c-4.693,0-8.533-3.84-8.533-8.533s3.84-8.533,8.533-8.533
	c28.415,0,29.183,25.855,29.695,43.007c0.683,20.991,2.219,29.951,15.104,31.572c12.885-1.621,14.421-10.581,15.104-31.572
	c0.512-17.151,1.28-43.007,29.695-43.007C272.459,384.003,276.299,387.843,276.299,392.536z"/>
<g>
	<path style="fill:#F9A825;" d="M331.772,341.338c-3.132,0-6.144-1.724-7.646-4.719l-42.665-85.33
		c-2.108-4.215-0.401-9.344,3.814-11.451c4.232-2.108,9.344-0.401,11.451,3.814l42.665,85.33c2.108,4.215,0.401,9.344-3.814,11.451
		C334.357,341.048,333.052,341.338,331.772,341.338z"/>
	<path style="fill:#F9A825;" d="M263.508,315.739c-2.637,0-5.239-1.22-6.912-3.516c-2.773-3.814-1.928-9.147,1.877-11.921
		l93.864-68.264c3.814-2.782,9.147-1.928,11.921,1.877c2.773,3.814,1.928,9.147-1.877,11.921L268.516,314.1
		C267.006,315.21,265.248,315.739,263.508,315.739z"/>
	<path style="fill:#F9A825;" d="M323.239,196.276c-2.5,0-4.983-1.092-6.664-3.2c-2.944-3.678-2.347-9.054,1.331-11.989
		l42.665-34.132c3.678-2.944,9.054-2.347,11.989,1.331c2.944,3.678,2.347,9.054-1.331,11.989l-42.665,34.132
		C326.993,195.662,325.108,196.276,323.239,196.276z"/>
	<path style="fill:#F9A825;" d="M365.904,238.941c-2.756,0-5.461-1.331-7.108-3.797l-17.066-25.599
		c-2.611-3.917-1.553-9.224,2.364-11.835c3.908-2.62,9.216-1.562,11.835,2.364l17.066,25.599c2.611,3.917,1.553,9.224-2.364,11.835
		C369.172,238.48,367.525,238.941,365.904,238.941z"/>
</g>
<g>
</g>
<g>
</g>
<g>
</g>
<g>
</g>
<g>
</g>
<g>
</g>
<g>
</g>
<g>
</g>
<g>
</g>
<g>
</g>
<g>
</g>
<g>
</g>
<g>
</g>
<g>
</g>
<g>
</g>
</svg>
