<?xml version="1.0" encoding="iso-8859-1"?>
<!-- Generator: Adobe Illustrator 19.0.0, SVG Export Plug-In . SVG Version: 6.00 Build 0)  -->
<svg version="1.1" id="Layer_1" xmlns="http://www.w3.org/2000/svg" xmlns:xlink="http://www.w3.org/1999/xlink" x="0px" y="0px"
	 viewBox="0 0 511.998 511.998" style="enable-background:new 0 0 511.998 511.998;" xml:space="preserve">
<path style="fill:#D81B60;" d="M416.859,87.472c0-4.693-3.84-8.533-8.533-8.533h-0.341c-0.427,1.963-1.621,3.669-3.243,4.779
	c-1.365,1.024-3.072,1.621-4.949,1.621c-5.888,0-9.045,1.451-10.752,7.253c-1.195,4.011-1.707,10.154-1.963,19.2
	c-0.512,18.005-1.28,45.226-31.231,48.213h-1.707c-7.424-0.683-13.056-2.987-17.322-6.144c-12.97-9.813-13.482-28.501-13.909-42.069
	c-0.171-6.656-0.512-11.69-1.195-15.53c-1.365-8.704-4.437-10.837-11.178-10.922h-0.341c-4.693,0-8.533-3.84-8.533-8.533
	c0-4.693,3.84-8.533,8.533-8.533c14.336,0,21.589,6.571,25.429,15.274c3.669,8.619,4.011,19.285,4.267,27.733
	c0.597,18.09,1.792,27.221,10.411,30.463c1.365,0.512,2.901,0.853,4.693,1.109c12.885-1.621,14.421-10.581,15.104-31.573
	c0.427-12.97,0.939-30.89,13.397-38.826c4.011-2.645,9.387-4.181,16.298-4.181c0.171,0,0.341,0,0.512,0.085
	c-7.509-21.333-20.053-38.826-36.181-50.858c-9.898-1.024-20.053,0.085-30.378,3.157c-19.2,5.803-38.741,18.517-57.514,37.631
	c0,0,0,0,0,0.085c-4.608,4.693-9.216,9.728-13.653,15.189c-3.243,4.011-9.898,4.011-13.141,0
	c-3.584-4.352-7.168-8.448-10.837-12.288c-0.341-0.256-0.683-0.427-1.024-0.683c-4.949-3.157-9.898-6.059-14.762-8.533
	c-38.229-20.224-75.092-23.21-104.788-7.936c-0.853,0.427-1.792,0.939-2.645,1.365c-9.045,5.035-16.81,11.52-23.552,19.2
	c-4.437,5.035-8.277,10.666-11.605,16.725c-0.085,0-0.085,0,0,0.085c-1.963,6.912-3.328,14.165-4.096,21.674
	c-1.536,14.933-1.707,48.554,17.834,88.575c16.042,33.023,45.653,70.399,98.985,105.3c9.643,6.315,20.053,12.544,31.317,18.688
	h52.308c132.606-83.284,134.142-183.89,131.07-214.183c-0.171-1.877-0.427-3.669-0.768-5.461c0.427-0.085,0.939-0.085,1.451-0.085
	C413.02,96.005,416.859,92.25,416.859,87.472z M224.863,155.737c-9.984,0-12.032,4.181-12.714,26.453
	c-0.512,18.005-1.28,45.226-31.231,48.213h-1.707c-29.951-2.987-30.719-30.208-31.231-48.213
	c-0.683-22.272-2.731-26.453-12.714-26.453c-4.693,0-8.533-3.84-8.533-8.533s3.84-8.533,8.533-8.533
	c28.416,0,29.184,25.856,29.696,43.007c0.683,20.992,2.219,29.952,15.104,31.573c12.885-1.621,14.421-10.581,15.104-31.573
	c0.512-17.152,1.28-43.007,29.695-43.007c4.693,0,8.533,3.84,8.533,8.533S229.556,155.737,224.863,155.737z"/>
<g>
	<path style="fill:#AD1457;" d="M416.859,87.472c0,4.779-3.84,8.533-8.533,8.533c-0.512,0-1.024,0-1.451,0.085
		c-8.704,0.427-10.581,5.291-11.264,26.453c-0.341,12.544-0.853,29.525-11.264,39.594c-4.523,4.437-10.922,7.595-19.968,8.533
		h-1.707c-14.08-1.451-21.674-8.192-25.856-16.81c-4.779-9.643-5.12-21.76-5.376-31.317c-0.597-19.797-2.304-25.344-9.728-26.282
		c-0.853-0.171-1.877-0.256-2.987-0.256c-4.693,0-8.533-3.755-8.533-8.533c0-0.768,0.085-1.451,0.341-2.133
		c0.853-3.669,4.267-6.4,8.192-6.4c7.339,0,12.8,1.707,16.896,4.608c11.861,8.192,12.458,25.77,12.8,38.485
		c0.256,8.448,0.683,14.933,1.877,19.712c1.877,7.253,5.461,10.923,13.226,11.861c12.885-1.621,14.421-10.581,15.104-31.573
		c0.341-11.264,0.768-26.282,9.216-35.327c3.499-3.925,8.618-6.656,15.786-7.509c1.365-0.171,2.816-0.256,4.352-0.256h0.341
		C413.02,78.938,416.859,82.778,416.859,87.472z"/>
	<path style="fill:#AD1457;" d="M233.396,147.247c-28.458,0-29.226,25.898-29.73,43.024c-0.623,21.009-2.184,29.96-15.07,31.581
		c-12.877-1.621-14.438-10.573-15.07-31.581c-0.512-17.135-1.271-43.024-29.73-43.024c-4.71,0-8.533,3.823-8.533,8.533
		s3.823,8.533,8.533,8.533c10.001,0,12.015,4.207,12.672,26.47c0.538,18.005,1.34,45.209,31.291,48.161h1.673
		c29.943-2.952,30.754-30.156,31.291-48.161c0.666-22.263,2.671-26.47,12.672-26.47c4.71,0,8.533-3.823,8.533-8.533
		C241.929,151.07,238.106,147.247,233.396,147.247z"/>
</g>
<path d="M233.396,147.204c0,4.693-3.84,8.533-8.533,8.533c-9.984,0-12.032,4.181-12.714,26.453
	c-0.512,18.005-1.28,45.226-31.231,48.213h-1.707c-29.951-2.987-30.719-30.208-31.231-48.213
	c-0.683-22.272-2.731-26.453-12.714-26.453c-4.693,0-8.533-3.84-8.533-8.533s3.84-8.533,8.533-8.533
	c28.416,0,29.184,25.856,29.696,43.007c0.683,20.992,2.219,29.952,15.104,31.573c12.885-1.621,14.421-10.581,15.104-31.573
	c0.512-17.152,1.28-43.007,29.695-43.007C229.556,138.671,233.396,142.511,233.396,147.204z"/>
<path d="M452.87,101.551c-4.864-48.639-31.999-86.1-70.825-97.876c-4.608-1.451-9.301-2.389-14.08-2.901
	c-11.093-1.536-22.442-0.768-33.877,2.133c-6.827,1.621-13.568,4.096-20.309,7.253c-5.12,2.304-10.154,5.035-15.189,8.107
	c-12.032,7.424-23.893,17.152-35.413,29.013c-2.389,2.475-4.779,5.035-7.168,7.765c-2.133-2.304-4.181-4.608-6.4-6.827
	c-1.109-1.28-2.389-2.56-3.584-3.755c-2.816-2.816-5.717-5.547-8.619-8.107c-1.28-1.195-2.645-2.304-4.011-3.413
	C212.404,15.196,190.474,4.358,168.97,1.116c-12.288-1.877-24.49-1.365-36.266,1.792c-0.939,0.256-1.877,0.512-2.816,0.768
	c-4.949,1.451-9.643,3.413-14.25,5.717c-0.085,0-0.085,0-0.085,0c-4.437,2.304-8.704,5.035-12.8,8.021
	c-23.978,17.834-40.021,47.871-43.605,84.052c-1.707,16.554-1.963,53.844,19.541,97.876c4.864,9.984,10.837,20.309,18.261,30.805
	c18.944,27.221,47.103,55.636,88.489,82.431c0.171,0,0.256,0.085,0.341,0.171c1.451,1.109,2.987,2.048,4.523,2.987
	c4.608,2.901,9.387,5.717,14.336,8.533c2.816,1.707,5.717,3.328,8.704,4.949c0,1.195,0,2.389-0.085,3.584
	c-0.853,34.986-6.571,58.026-11.178,76.884c-3.072,12.544-5.803,23.466-5.803,34.047c0,12.288,2.901,23.893,7.936,33.877
	c3.157,6.315,7.168,12.032,11.861,16.896c3.413,3.413,7.168,6.485,11.178,8.96c1.963,1.28,4.011,2.389,6.144,3.413
	c6.997,3.328,14.592,5.12,22.613,5.12c13.994,0,26.88-5.547,37.034-14.762c4.181-3.755,7.936-8.192,11.008-13.141
	c7.339-11.349,11.69-25.258,11.69-40.362c0-11.008-2.731-22.016-5.888-34.815c-4.181-16.81-9.216-37.119-10.752-66.644
	c-0.256-4.096-0.341-8.448-0.427-12.97c4.267-2.389,8.448-4.779,12.544-7.168c33.621-19.797,59.476-40.874,79.273-61.78
	C454.832,192.345,455.259,125.359,452.87,101.551z M293.811,467.369c-2.645,6.229-6.485,11.776-11.008,16.213
	c-7.168,6.912-16.128,11.093-25.941,11.349c0,0-0.085-0.085-0.085,0h-0.768c-1.792,0-3.584-0.171-5.291-0.427
	c-6.315-0.939-12.202-3.499-17.322-7.424c-0.341-0.256-0.768-0.597-1.109-0.939c-11.434-9.131-18.944-24.746-18.944-42.41
	c0-8.533,2.304-18.005,5.291-29.951c4.608-18.602,10.666-43.519,11.605-80.297v-0.683h51.54c0.597,27.136,4.096,47.871,7.765,64.34
	c1.28,5.803,2.56,11.093,3.755,15.957c2.987,12.117,5.376,21.76,5.376,30.634C298.675,452.266,296.968,460.287,293.811,467.369z
	 M287.923,315.734h-63.658c-5.205-2.816-10.155-5.632-15.018-8.533c-5.632-3.328-11.093-6.741-16.298-10.154
	c-53.332-34.901-82.943-72.276-98.985-105.3c-19.541-40.021-19.37-73.641-17.834-88.575c0.768-7.509,2.133-14.762,4.096-21.674
	c-0.085-0.085-0.085-0.085,0-0.085c8.619-29.781,27.989-52.479,52.82-60.756c0.597-0.256,1.195-0.427,1.792-0.597
	c6.571-2.048,13.226-2.987,20.138-2.987c3.157,0,6.315,0.256,9.472,0.683c1.195,0.085,2.389,0.256,3.669,0.512
	c17.322,2.987,35.242,11.946,52.65,26.282c4.267,3.499,8.448,7.339,12.629,11.434c1.536,1.536,3.157,3.072,4.693,4.779
	c0.171,0.171,0.341,0.341,0.512,0.512c3.669,3.84,7.253,7.936,10.837,12.288c3.243,4.011,9.898,4.011,13.141,0
	c4.437-5.461,9.045-10.496,13.653-15.189c0-0.085,0-0.085,0-0.085c18.773-19.114,38.314-31.829,57.514-37.631
	c9.813-2.901,19.456-4.096,28.928-3.243c0.512,0,0.939,0,1.451,0.085c4.437,0.427,8.789,1.28,13.056,2.56
	c11.434,3.413,21.674,9.898,30.378,18.773c15.36,15.445,25.685,38.229,28.33,64.426
	C438.875,132.698,436.742,234.925,287.923,315.734z"/>
<path style="fill:#8D6E63;" d="M298.675,443.732c0,8.533-1.707,16.554-4.864,23.637c-2.645,6.229-6.485,11.776-11.008,16.213
	c-7.168,6.912-16.128,11.093-25.941,11.349c2.816-1.877,5.547-3.925,8.021-6.229c4.181-3.755,7.936-8.192,11.008-13.141
	c7.339-11.349,11.69-25.258,11.69-40.362c0-11.008-2.731-22.016-5.888-34.815c-4.181-16.81-9.216-37.119-10.752-66.644v-0.939
	h10.837c0.597,27.136,4.096,47.871,7.765,64.34c1.28,5.803,2.56,11.093,3.755,15.957
	C296.285,425.215,298.675,434.858,298.675,443.732z"/>
<path style="fill:#C1AD9D;" d="M287.582,435.199c0,15.104-4.352,29.013-11.69,40.362c-3.072,4.949-6.827,9.387-11.008,13.141
	c-2.475,2.304-5.205,4.352-8.021,6.229c0,0-0.085-0.085-0.085,0h-0.768c-1.792,0-3.584-0.171-5.291-0.427
	c-6.315-0.939-12.202-3.499-17.322-7.424c-0.341-0.256-0.768-0.597-1.109-0.939c-11.434-9.131-18.944-24.746-18.944-42.41
	c0-8.533,2.304-18.005,5.291-29.951c4.608-18.602,10.666-43.519,11.605-80.297v-0.683h40.703v0.939
	c1.536,29.525,6.571,49.834,10.752,66.644C284.851,413.184,287.582,424.191,287.582,435.199z"/>
<g>
	<path style="fill:#AD1457;" d="M238.601,61.275c-0.341-0.256-0.683-0.427-1.024-0.683c-4.949-3.157-9.898-6.059-14.762-8.533
		c-38.229-20.224-75.092-23.21-104.788-7.936c-0.853,0.427-1.792,0.939-2.645,1.365c-9.045,5.035-16.81,11.52-23.552,19.2
		c-4.437,5.035-8.277,10.666-11.605,16.725c8.619-29.781,27.989-52.479,52.82-60.756c0.597-0.256,1.195-0.427,1.792-0.597
		c6.571-2.048,13.226-2.987,20.138-2.987c4.352,0,8.704,0.427,13.141,1.195c17.322,2.987,35.242,11.946,52.65,26.282
		c4.267,3.499,8.448,7.339,12.629,11.434C235.103,57.691,236.895,59.397,238.601,61.275z"/>
	<path style="fill:#AD1457;" d="M287.923,315.734h-11.349c132.606-83.284,134.142-183.89,131.07-214.183
		c-0.171-1.877-0.427-3.669-0.768-5.461c0.427-0.085,0.939-0.085,1.451-0.085c4.693,0,8.533-3.755,8.533-8.533
		c0-4.693-3.84-8.533-8.533-8.533h-0.341c0.256-0.683,0.341-1.365,0.341-2.133c0-4.523-3.584-8.277-8.021-8.448
		c-7.509-21.333-20.053-38.826-36.181-50.858c4.437,0.427,8.789,1.28,13.056,2.56c31.573,9.557,54.612,42.154,58.708,83.199
		C438.875,132.698,436.742,234.925,287.923,315.734z"/>
</g>
<path d="M408.326,76.805c0,0.768-0.085,1.451-0.341,2.133c-0.427,1.963-1.621,3.669-3.243,4.779
	c-1.365,1.024-3.072,1.621-4.949,1.621c-5.888,0-9.045,1.451-10.752,7.253c-1.195,4.011-1.707,10.154-1.963,19.2
	c-0.512,18.005-1.28,45.226-31.231,48.213h-1.707c-7.424-0.683-13.056-2.987-17.322-6.144c-12.97-9.813-13.482-28.501-13.909-42.069
	c-0.171-6.656-0.512-11.69-1.195-15.53c-1.365-8.704-4.437-10.837-11.178-10.922h-0.341c-4.693,0-8.533-3.84-8.533-8.533
	c0-4.693,3.84-8.533,8.533-8.533c14.336,0,21.589,6.571,25.429,15.274c3.669,8.619,4.011,19.285,4.267,27.733
	c0.597,18.09,1.792,27.221,10.411,30.463c1.365,0.512,2.901,0.853,4.693,1.109c12.885-1.621,14.421-10.581,15.104-31.573
	c0.427-12.97,0.939-30.89,13.397-38.826c4.011-2.645,9.387-4.181,16.298-4.181c0.171,0,0.341,0,0.512,0.085
	C404.742,68.528,408.326,72.283,408.326,76.805z"/>
<g>
</g>
<g>
</g>
<g>
</g>
<g>
</g>
<g>
</g>
<g>
</g>
<g>
</g>
<g>
</g>
<g>
</g>
<g>
</g>
<g>
</g>
<g>
</g>
<g>
</g>
<g>
</g>
<g>
</g>
</svg>
