<?xml version="1.0" encoding="iso-8859-1"?>
<!-- Generator: Adobe Illustrator 19.0.0, SVG Export Plug-In . SVG Version: 6.00 Build 0)  -->
<svg version="1.1" id="Layer_1" xmlns="http://www.w3.org/2000/svg" xmlns:xlink="http://www.w3.org/1999/xlink" x="0px" y="0px"
	 viewBox="0 0 512 512" style="enable-background:new 0 0 512 512;" xml:space="preserve">
<path style="fill:#8D6E63;" d="M263.68,17.067c-2.048,10.496-8.021,19.456-16.299,25.6c-0.256,0.256-0.427,0.427-0.683,0.597
	c0.256,1.195,0.427,2.475,0.597,3.755c0.085,0.085,0.085,0.085,0,0.171c0.085,1.28,0.171,2.645,0.171,4.011
	c0,13.995-6.741,26.368-17.152,34.219v0.341c0,1.28,0.085,2.56,0.085,3.84c0,35.072-29.355,64.341-68.267,71.083V179.2h162.133
	v-34.133c0,2.219-0.853,4.437-2.475,6.059c-1.707,1.621-3.84,2.475-6.059,2.475c-2.219,0-4.352-0.853-6.059-2.475l-8.533-8.533
	c-3.328-3.328-3.328-8.789,0-12.117c3.328-3.328,8.789-3.328,12.117,0l8.533,8.533c1.621,1.621,2.475,3.84,2.475,6.059V85.333
	c0,4.693-3.84,8.533-8.533,8.533H307.2c-4.693,0-8.533-3.84-8.533-8.533s3.84-8.533,8.533-8.533h8.533
	c4.693,0,8.533,3.84,8.533,8.533V42.667c0,2.219-0.853,4.437-2.475,6.059l-8.533,8.533c-1.707,1.621-3.84,2.475-6.059,2.475
	s-4.352-0.853-6.059-2.475c-3.328-3.328-3.328-8.789,0-12.117l8.533-8.533c3.328-3.328,8.789-3.328,12.117,0
	c1.621,1.621,2.475,3.84,2.475,6.059v-25.6H263.68z M238.933,145.067c0,4.693-3.84,8.533-8.533,8.533
	c-4.693,0-8.533-3.84-8.533-8.533v-8.533c0-4.693,3.84-8.533,8.533-8.533c4.693,0,8.533,3.84,8.533,8.533V145.067z M247.467,68.267
	c0-4.693,3.84-8.533,8.533-8.533h8.533c4.693,0,8.533,3.84,8.533,8.533s-3.84,8.533-8.533,8.533H256
	C251.307,76.8,247.467,72.96,247.467,68.267z M279.125,116.992c-1.707,1.621-3.84,2.475-6.059,2.475s-4.352-0.853-6.059-2.475
	l-8.533-8.533c-3.328-3.328-3.328-8.789,0-12.117c3.328-3.328,8.789-3.328,12.117,0l8.533,8.533
	C282.453,108.203,282.453,113.664,279.125,116.992z"/>
<rect x="324.267" y="17.067" style="fill:#6D4C41;" width="25.6" height="162.133"/>
<path style="fill:#BDBDBD;" d="M247.467,145.067v8.533c0,4.693-3.84,8.533-8.533,8.533c-4.693,0-8.533-3.84-8.533-8.533v-8.533
	c0-4.693,3.84-8.533,8.533-8.533C243.627,136.533,247.467,140.373,247.467,145.067z"/>
<path style="fill:#5E35B1;" d="M279.151,125.542c-1.707,1.621-3.84,2.475-6.059,2.475s-4.352-0.853-6.059-2.475l-8.533-8.533
	c-3.328-3.328-3.328-8.789,0-12.117s8.789-3.328,12.117,0l8.533,8.533C282.47,116.762,282.47,122.223,279.151,125.542z"/>
<path style="fill:#004D40;" d="M321.818,159.676c-1.707,1.621-3.84,2.475-6.059,2.475c-2.219,0-4.352-0.853-6.059-2.475
	l-8.533-8.533c-3.328-3.328-3.328-8.789,0-12.117s8.789-3.328,12.117,0l8.533,8.533
	C325.137,150.895,325.137,156.356,321.818,159.676z"/>
<path style="fill:#388E3C;" d="M332.8,93.867c0,4.693-3.84,8.533-8.533,8.533h-8.533c-4.693,0-8.533-3.84-8.533-8.533
	c0-4.693,3.84-8.533,8.533-8.533h8.533C328.96,85.333,332.8,89.173,332.8,93.867z"/>
<path style="fill:#2979FF;" d="M330.308,48.742l-8.533,8.533c-1.707,1.621-3.84,2.475-6.059,2.475c-2.219,0-4.352-0.853-6.059-2.475
	c-3.328-3.328-3.328-8.789,0-12.117l8.533-8.533c3.328-3.328,8.789-3.328,12.117,0C333.628,39.962,333.628,45.423,330.308,48.742z"
	/>
<path style="fill:#D81B60;" d="M281.6,59.733c0,4.693-3.84,8.533-8.533,8.533h-8.533c-4.693,0-8.533-3.84-8.533-8.533
	s3.84-8.533,8.533-8.533h8.533C277.76,51.2,281.6,55.04,281.6,59.733z"/>
<path d="M358.4,0H247.467c-3.328,0-6.4,1.963-7.765,5.035c-3.499,7.68-5.547,10.496-9.984,11.52
	c-2.048,0.427-4.523,0.512-7.851,0.512c-3.072,0-5.888,1.621-7.424,4.267c-1.536,2.645-1.451,5.973,0.085,8.533
	c3.499,6.059,4.267,13.312,2.133,20.395c0,0.171-0.085,0.341-0.171,0.512c0,0.171,0,0.256-0.085,0.427
	c-2.56,7.936-8.448,14.933-15.019,17.749c-3.669,1.621-5.717,5.547-4.949,9.387c0.939,5.291,1.28,10.24,1.024,14.848
	c-0.683,7.851-3.243,14.592-7.851,20.053C181.931,122.453,168.533,128,153.6,128c-4.693,0-8.533,3.84-8.533,8.533v238.933
	c0,4.693,3.84,8.533,8.533,8.533h68.267v103.595c0,13.483,11.52,24.405,25.6,24.405h17.067c14.08,0,25.6-10.923,25.6-24.405V384
	H358.4c4.693,0,8.533-3.84,8.533-8.533V8.533C366.933,3.84,363.093,0,358.4,0z M273.067,487.595c0,4.011-3.925,7.339-8.533,7.339
	h-17.067c-4.608,0-8.533-3.328-8.533-7.339V384h34.133V487.595z M349.867,366.933H162.133V196.267h187.733V366.933z M349.867,179.2
	H162.133v-34.56c16.64-1.877,31.147-9.131,40.619-20.48c5.376-6.4,10.923-16.64,11.605-31.403c0.171-2.56,0.171-5.205,0.085-8.107
	c-0.171-1.024-0.256-2.133-0.341-3.243c0.171-0.085,0.256-0.171,0.427-0.341c4.693-3.157,8.875-7.509,12.203-12.544
	c2.475-3.669,4.523-7.765,5.888-12.032c0.768-2.389,1.365-4.693,1.707-7.083c0.597-3.499,0.768-7.083,0.427-10.496
	c0-0.085,0-0.085,0-0.171c-0.171-1.963-0.427-3.84-0.853-5.717c0.256-0.085,0.597-0.171,0.853-0.256
	c2.645-0.597,4.949-1.621,6.997-2.901c4.352-2.645,7.765-6.741,11.008-12.8h97.109V179.2z"/>
<path style="fill:#8D6E63;" d="M273.067,384v103.595c0,4.011-3.925,7.339-8.533,7.339V384H273.067z"/>
<path style="fill:#C1AD9D;" d="M264.533,384v110.933h-17.067c-4.608,0-8.533-3.328-8.533-7.339V384H264.533z"/>
<rect x="324.267" y="196.267" style="fill:#AD1457;" width="25.6" height="170.667"/>
<rect x="162.133" y="196.267" style="fill:#D81B60;" width="162.133" height="170.667"/>
<path d="M238.933,136.533v8.533c0,4.693-3.84,8.533-8.533,8.533c-4.693,0-8.533-3.84-8.533-8.533v-8.533
	c0-4.693,3.84-8.533,8.533-8.533C235.093,128,238.933,131.84,238.933,136.533z"/>
<path d="M273.067,68.267c0,4.693-3.84,8.533-8.533,8.533H256c-4.693,0-8.533-3.84-8.533-8.533s3.84-8.533,8.533-8.533h8.533
	C269.227,59.733,273.067,63.573,273.067,68.267z"/>
<path d="M279.125,116.992c-1.707,1.621-3.84,2.475-6.059,2.475s-4.352-0.853-6.059-2.475l-8.533-8.533
	c-3.328-3.328-3.328-8.789,0-12.117c3.328-3.328,8.789-3.328,12.117,0l8.533,8.533C282.453,108.203,282.453,113.664,279.125,116.992
	z"/>
<path d="M321.792,151.125c-1.707,1.621-3.84,2.475-6.059,2.475c-2.219,0-4.352-0.853-6.059-2.475l-8.533-8.533
	c-3.328-3.328-3.328-8.789,0-12.117c3.328-3.328,8.789-3.328,12.117,0l8.533,8.533C325.12,142.336,325.12,147.797,321.792,151.125z"
	/>
<path d="M321.792,48.725l-8.533,8.533c-1.707,1.621-3.84,2.475-6.059,2.475s-4.352-0.853-6.059-2.475
	c-3.328-3.328-3.328-8.789,0-12.117l8.533-8.533c3.328-3.328,8.789-3.328,12.117,0S325.12,45.397,321.792,48.725z"/>
<path d="M324.267,85.333c0,4.693-3.84,8.533-8.533,8.533H307.2c-4.693,0-8.533-3.84-8.533-8.533s3.84-8.533,8.533-8.533h8.533
	C320.427,76.8,324.267,80.64,324.267,85.333z"/>
<g>
	<path style="fill:#BDBDBD;" d="M230.4,89.6c0,35.072-29.355,64.341-68.267,71.083V153.6c37.717-6.571,66.389-34.219,68.181-67.84
		C230.315,87.04,230.4,88.32,230.4,89.6z"/>
	<path style="fill:#BDBDBD;" d="M247.467,51.2c0,13.995-6.741,26.368-17.152,34.219c0.085-0.939,0.085-1.963,0.085-2.901
		c0-1.365-0.085-2.816-0.085-4.181c9.643-7.253,16.128-18.432,16.981-31.147C247.381,48.469,247.467,49.835,247.467,51.2z"/>
	<path style="fill:#BDBDBD;" d="M263.68,17.067c-2.048,10.496-8.021,19.456-16.299,25.6c0-2.219-0.256-4.352-0.683-6.485
		c6.656-4.779,11.861-11.435,14.933-19.115H263.68z"/>
</g>
<path style="fill:#F4F4F4;" d="M246.699,36.181c0.427,2.133,0.683,4.267,0.683,6.485c-0.256,0.256-0.427,0.427-0.683,0.597
	c0.256,1.195,0.427,2.475,0.597,3.755c0.085,0.085,0.085,0.085,0,0.171c-0.853,12.715-7.339,23.893-16.981,31.147
	c0,1.365,0.085,2.816,0.085,4.181c0,0.939,0,1.963-0.085,2.901v0.341c-1.792,33.621-30.464,61.269-68.181,67.84v-8.96
	c16.64-1.877,31.147-9.131,40.619-20.48c5.376-6.4,10.923-16.64,11.605-31.403c0.171-2.56,0.171-5.205,0.085-8.107
	c-0.171-1.024-0.256-2.133-0.341-3.243c0.171-0.085,0.256-0.171,0.427-0.341c4.693-3.157,8.875-7.509,12.203-12.544
	c2.475-3.669,4.523-7.765,5.888-12.032c0.768-2.389,1.365-4.693,1.707-7.083c0.597-3.499,0.768-7.083,0.427-10.496
	c0-0.085,0-0.085,0-0.171c-0.171-1.963-0.427-3.84-0.853-5.717c0.256-0.085,0.597-0.171,0.853-0.256
	c2.645-0.597,4.949-1.621,6.997-2.901c4.352-2.645,7.765-6.741,11.008-12.8h8.875C258.56,24.747,253.355,31.403,246.699,36.181z"/>
<g>
</g>
<g>
</g>
<g>
</g>
<g>
</g>
<g>
</g>
<g>
</g>
<g>
</g>
<g>
</g>
<g>
</g>
<g>
</g>
<g>
</g>
<g>
</g>
<g>
</g>
<g>
</g>
<g>
</g>
</svg>
