<?xml version="1.0" encoding="iso-8859-1"?>
<!-- Generator: Adobe Illustrator 19.0.0, SVG Export Plug-In . SVG Version: 6.00 Build 0)  -->
<svg version="1.1" id="Layer_1" xmlns="http://www.w3.org/2000/svg" xmlns:xlink="http://www.w3.org/1999/xlink" x="0px" y="0px"
	 viewBox="0 0 512.003 512.003" style="enable-background:new 0 0 512.003 512.003;" xml:space="preserve">
<path d="M186.979,76.749c0.596-1.276,1.191-2.553,1.617-3.829c0.511-0.936,0.851-1.957,1.106-2.893
	c0.596-1.447,1.021-2.978,1.361-4.425c0.34-1.276,0.596-2.553,0.851-3.829C189.532,66.538,187.83,71.558,186.979,76.749z
	 M443.281,206.262c-4.68-10.637-20.422-32.591-69.607-21.954c2.042-4.51,4.255-9.105,6.637-13.615
	c5.361-5.276,8.424-11.062,8.424-17.529c0-13.104-11.743-24.167-34.803-32.931l33.016-48.248l34.378-50.205
	c1.532-2.298,1.872-5.191,0.851-7.744c-0.936-2.638-3.148-4.595-5.871-5.276L382.269,0.25c-3.404-0.851-7.063,0.511-9.105,3.489
	l-8.339,12.253l-6.722,9.871l-32.846,47.993c-1.872-5.276-4.34-10.637-7.233-15.913c-2.723-5.021-5.786-9.956-9.105-14.721
	c-1.106-1.532-2.127-3.063-3.234-4.51c2.468-0.766,5.106-1.447,7.658-1.957c6.637-1.532,13.615-2.468,20.933-2.553
	c1.106-0.17,2.212-0.17,3.404-0.17c4.68,0,8.509-3.829,8.509-8.509s-3.829-8.509-8.509-8.509c-12.339,0-23.996,1.702-34.803,4.85
	c-2.893,0.851-5.701,1.872-8.509,2.893c-11.828-13.19-23.911-22.805-31.4-24.507c-2.468-0.596-5.106,0-7.148,1.617
	s-3.234,4.084-3.234,6.637c0,5.531-6.893,11.488-17.529,14.721c-4.85,1.447-10.467,2.298-16.508,2.298
	c-1.617,0-3.234,0.085-4.765,0.085c-3.489,0.255-6.893,0.766-10.041,1.447c-10.722,2.212-19.231,6.893-23.826,13.019
	c-2.553,3.234-3.914,6.978-3.914,10.977c0,8.594-3.148,18.806-9.701,27.06c-5.021,6.467-12.168,11.658-21.529,14.04
	c-2.893,0.766-5.957,1.191-9.275,1.361l-8.935-11.913l-8.509-11.317l-2.893-3.914l-8.935-11.913
	c-2.723-3.574-7.744-4.51-11.488-1.957L69.21,69.516c-1.957,1.276-3.319,3.319-3.659,5.531c-0.17,0.681-0.17,1.362-0.17,2.127
	c0.085,1.617,0.681,3.148,1.617,4.425l29.187,40.164c-5.106,2.127-9.616,4.425-13.53,6.807c-4.765,2.978-8.594,6.127-11.403,9.53
	c-3.914,4.68-5.871,9.701-5.871,15.062c0,2.808,0.596,5.531,1.702,8.084c1.276,2.978,3.319,5.786,5.871,8.509
	c0,0.085,0.085,0.085,0.085,0.17c1.447,2.808,2.893,5.616,4.17,8.339c3.148,6.382,5.871,12.764,8.339,19.061
	c4.084,10.381,7.318,20.678,9.871,30.804c1.532,5.531,2.808,11.062,3.914,16.508c4.34,21.444,6.042,41.441,7.063,58.8
	c0.085,2.042,0.255,3.999,0.34,5.957c0.17,3.744,0.425,7.403,0.596,10.977c2.127,33.612,5.957,61.353,31.314,78.286
	c13.104,8.85,32.08,14.806,59.566,17.104l3.319,0.255c-0.085,3.148-0.34,6.212-0.681,9.105c-0.34,0-0.766,0.085-1.106,0.085
	c-7.148,0.596-14.381,1.361-21.529,2.468c-6.297,0.936-12.509,2.127-18.465,3.489c-13.7,3.148-26.039,7.488-35.229,13.104
	c-10.211,6.297-16.593,14.126-16.593,23.741c0,9.53,6.552,17.614,17.444,24.081c0.085,0,0.085,0,0.17,0
	c16.678,9.956,43.483,16.253,72.585,18.721c9.445,0.766,19.231,1.191,28.932,1.191c59.225,0,119.131-15.147,119.131-43.993
	c0-26.039-48.588-39.569-92.922-43.228c-0.34-2.808-0.511-5.701-0.511-8.765c53.694-3.914,75.904-21.018,85.774-46.546
	c1.276,2.893,4.255,4.935,7.658,4.935h0.085c4.765-0.085,8.509-3.914,8.424-8.594c-0.425-31.74,23.06-66.373,63.905-94.709
	C441.409,257.743,452.727,228.046,443.281,206.262z M371.718,153.163c0,4.68-8.509,11.147-24.677,17.189
	c-0.34,0-0.596-0.17-0.851-0.17l-10.211,0.085h-16.253l24.677-36.08c0.681,0.596,1.361,1.106,2.298,1.447
	C366.442,142.952,371.718,150.1,371.718,153.163z M372.228,35.308l11.658-17.104l16.423,4.084l-19.231,28.166l-81.435,118.961
	c-1.617-0.085-3.234-0.255-4.765-0.425c-2.638-0.255-5.106-0.596-7.488-1.021c-0.936-0.17-1.872-0.34-2.723-0.511
	s-1.702-0.34-2.553-0.511L372.228,35.308z M211.827,161.758h0.085c0.34-0.17,0.681-0.34,1.021-0.596
	c1.191-0.681,2.383-1.361,3.489-2.127c1.106-0.681,2.212-1.447,3.234-2.298c0.851-0.681,1.702-1.361,2.553-2.042
	c0.851-0.681,1.702-1.447,2.383-2.212c0.936-0.936,1.787-1.872,2.638-2.893c0.425-0.425,0.851-0.936,1.106-1.447
	c0.425-0.425,0.766-0.936,1.021-1.361c2.127-2.978,3.744-6.212,4.765-9.531c2.723,0.851,5.191,2.212,7.403,3.914
	c2.298,1.702,4.255,3.744,5.871,5.957c0.511,0.681,1.021,1.447,1.447,2.212c0.511,0.766,0.936,1.532,1.276,2.383
	c0.766,1.447,1.276,2.893,1.702,4.34c0.255,0.851,0.425,1.787,0.511,2.638c0.17,1.021,0.255,1.957,0.255,2.978
	c0,0.936,0.17,1.787,0.425,2.638c3.659,11.232,14.806,17.019,29.272,19.997c-2.042,0.255-4.085,0.425-6.212,0.596
	c-2.127,0.255-4.255,0.425-6.467,0.596c-2.808,0.255-5.701,0.425-8.594,0.596c-3.148,0.255-6.467,0.425-9.786,0.596
	c-0.085,0-0.085,0-0.17,0c-2.212,0.085-4.425,0.17-6.722,0.255c-1.617,0.085-3.319,0.085-5.021,0.085
	c-3.999,0.085-8.084,0.17-12.253,0.17c-2.127,0-4.34,0-6.382-0.085c-2.127,0-4.17-0.085-6.212-0.085
	c-5.616-0.085-11.062-0.34-16.338-0.596c-2.127-0.085-4.255-0.255-6.382-0.425c-4.17-0.255-8.339-0.511-12.253-0.936
	c-3.914-0.34-7.744-0.766-11.488-1.191c-5.616-0.681-10.892-1.361-15.998-2.212c3.574-6.637,13.104-11.488,23.996-11.488
	c1.532,0,3.148,0,4.68-0.17c1.617,0,3.148-0.17,4.595-0.34c0.851-0.085,1.702-0.17,2.468-0.34c2.212-0.255,4.425-0.681,6.552-1.191
	c0.936-0.17,1.872-0.425,2.808-0.681c1.787-0.425,3.489-0.936,5.106-1.532c1.021-0.34,1.957-0.681,2.893-1.021
	s1.872-0.766,2.808-1.191C209.274,163.034,210.635,162.438,211.827,161.758z M210.04,119.126c0-1.617,0.17-3.234,0.425-4.765
	c0.17-0.936,0.425-1.872,0.766-2.808c0.17-0.766,0.511-1.532,0.851-2.298c0.17-0.511,0.425-1.021,0.681-1.447
	c0.17-0.425,0.34-0.766,0.511-1.021c0.17-0.34,0.34-0.681,0.596-1.021c0.34-0.681,0.851-1.276,1.276-1.872
	c0.425-0.596,0.936-1.276,1.617-1.872c0.255-0.34,0.511-0.681,0.851-0.936c1.191-1.191,2.468-2.298,3.744-3.148
	c1.021-0.681,2.127-1.276,3.234-1.787c0.511-0.255,1.021-0.511,1.617-0.681c0.511-0.255,1.021-0.425,1.617-0.596
	c0.681-0.255,1.361-0.425,2.042-0.596c0.596-0.17,1.191-0.255,1.872-0.34c1.191-0.255,2.553-0.34,3.829-0.34
	c0.34,0,0.681,0,0.936,0.085c1.191,0,2.383,0.085,3.489,0.34c0.681,0.085,1.276,0.255,1.872,0.425
	c0.425,0.085,0.851,0.17,1.276,0.34c0.851,0.255,1.617,0.511,2.298,0.851c0.596,0.17,1.191,0.511,1.702,0.766
	c1.191,0.596,2.298,1.276,3.319,2.042c0.766,0.596,1.532,1.106,2.212,1.787c0.681,0.596,1.362,1.361,1.957,2.042
	c0.34,0.34,0.681,0.766,1.021,1.191c0.766,0.936,1.362,1.872,1.957,2.808c0.425,0.681,0.766,1.447,1.106,2.212
	c0.17,0.255,0.255,0.511,0.425,0.851c0.596,1.447,1.106,2.978,1.447,4.595c0.34,1.702,0.511,3.404,0.511,5.191
	c0,4.85-1.362,9.445-3.914,13.53c-3.829-4.084-8.509-7.488-13.7-9.956c-5.021-2.212-10.552-3.574-16.423-3.574
	c-0.766,0-1.447,0.085-2.127,0.34c-0.425,0-0.766,0.17-1.191,0.34c-0.425,0.17-0.936,0.425-1.361,0.766
	c-0.34,0.17-0.596,0.425-0.936,0.681c-0.255,0.255-0.511,0.511-0.766,0.766c-0.511,0.596-0.936,1.191-1.191,1.872
	c-0.17,0.34-0.34,0.681-0.425,1.106c-0.34,0.851-0.511,1.702-0.511,2.638c0,2.723-0.936,5.361-2.383,7.914
	C212.337,130.954,210.04,125.167,210.04,119.126z M283.391,49.179c0.255-0.17,0.511-0.34,0.851-0.511
	c1.702-1.191,3.489-2.212,5.361-3.234c5.531,6.978,10.722,14.721,14.721,22.465c0.596,1.106,1.106,2.212,1.617,3.234
	c0.936,1.957,1.787,3.829,2.553,5.701c0.596,1.617,1.106,3.148,1.617,4.68c0.17,0.511,0.255,1.106,0.425,1.617
	c0.34,1.106,0.596,2.127,0.766,3.234c0.17,0.681,0.255,1.361,0.34,2.042c0.085,0.596,0.17,1.276,0.255,1.872
	c0.085,0.936,0.17,1.787,0.17,2.723l-17.274,25.273l-25.698,37.611c-0.425-2.723-1.191-5.446-2.298-8.169
	c0.255-0.17,0.511-0.255,0.681-0.425c6.893-7.829,10.637-17.785,10.637-28.166c0-0.851,0-1.702-0.17-2.553
	c-0.085-1.106-0.255-2.298-0.34-3.319c0.085-0.17,0.085-0.34,0-0.425c-0.085-0.681-0.17-1.361-0.425-2.042
	c0.085-0.085,0-0.17,0-0.17c-0.085-0.596-0.17-1.191-0.34-1.702c-0.255-1.021-0.511-2.042-0.936-2.978
	c-0.17-0.681-0.425-1.361-0.681-2.042c-0.34-0.936-0.766-1.872-1.276-2.808c-0.17-0.511-0.425-1.021-0.766-1.532
	c-0.255-0.766-0.681-1.447-1.276-2.212c-0.511-0.936-1.106-1.872-1.787-2.723c-1.532-2.212-3.319-4.34-5.361-6.212
	c-1.106-1.106-2.383-2.127-3.659-3.148c0-0.085,0-0.085,0-0.17c0-1.021,0.085-2.042,0.17-3.063c0-0.851,0.17-1.617,0.255-2.383
	c0.34-1.872,0.766-3.659,1.447-5.446c0.34-1.191,0.766-2.298,1.276-3.489c0.255-0.681,0.511-1.276,0.851-1.872
	c0.425-0.766,0.851-1.617,1.276-2.298c0.34-0.511,0.681-1.106,1.021-1.617c1.447-2.383,3.234-4.595,5.276-6.722h0.085
	c0.17-0.255,0.34-0.425,0.596-0.681c1.106-1.191,2.212-2.212,3.404-3.234c0.596-0.511,1.191-1.021,1.872-1.532
	C280.157,51.476,281.689,50.285,283.391,49.179z M151.495,107.893c1.361-0.425,2.723-0.851,3.999-1.447
	c0.085,0.085,0.085,0.085,0.085,0c0.085,0,0.085,0,0.085,0c0.936-0.34,1.787-0.681,2.553-1.106c1.021-0.425,1.957-0.936,2.893-1.447
	c0.851-0.34,1.617-0.851,2.383-1.276c1.191-0.766,2.383-1.447,3.489-2.212c1.021-0.766,2.042-1.447,2.978-2.212
	c1.106-0.936,2.127-1.787,3.148-2.723c0.596-0.511,1.276-1.106,1.787-1.702c1.276-1.276,2.468-2.553,3.574-3.914
	c1.106-1.361,2.212-2.723,3.234-4.17c1.021-1.361,1.957-2.808,2.808-4.34c0.936-1.532,1.702-3.063,2.468-4.595
	c0.596-1.276,1.191-2.553,1.617-3.829c0.511-0.936,0.851-1.957,1.106-2.893c0.596-1.447,1.021-2.978,1.362-4.425
	c0.34-1.276,0.596-2.553,0.851-3.829c0.255-0.851,0.34-1.702,0.511-2.553c0.085-0.936,0.255-1.872,0.34-2.808
	c0.17-1.787,0.255-3.574,0.255-5.361c0-0.17,0.085-0.34,0.085-0.511c0.085-0.17,0.255-0.255,0.34-0.425
	c0.085-0.255,0.255-0.425,0.511-0.596c0.511-0.596,1.276-1.106,2.127-1.702c0.511-0.34,1.106-0.596,1.702-0.936
	c1.276-0.681,2.808-1.361,4.51-1.872c0.851-0.34,1.787-0.596,2.808-0.851c0.085,0,0.17,0,0.17-0.085
	c1.191-0.255,2.468-0.596,3.829-0.766c2.808-0.511,5.957-0.766,9.445-0.766c2.298,0,4.595-0.085,6.807-0.34
	c1.872-0.085,3.744-0.34,5.531-0.681c1.191-0.17,2.298-0.34,3.319-0.596c1.957-0.34,3.829-0.851,5.616-1.447
	c1.957-0.511,3.829-1.191,5.616-1.957c4.765-1.872,8.935-4.255,12.424-7.148c0.851-0.681,1.702-1.361,2.468-2.127
	c2.383-2.212,4.34-4.68,5.871-7.318c3.489,2.808,7.744,6.807,12.254,11.488c-5.361,3.234-10.296,6.807-14.551,10.892
	c-1.021,0.936-2.042,1.957-3.063,3.063l-0.34,0.34c-1.447,1.532-2.808,3.148-4.085,4.765c-0.596,0.596-1.106,1.276-1.532,1.957
	c-0.596,0.681-1.021,1.447-1.447,2.127c-0.851,1.191-1.617,2.468-2.298,3.659c-1.702,3.063-3.148,6.212-4.255,9.445
	c-0.425,1.191-0.766,2.383-1.106,3.659c-0.511,1.702-0.851,3.489-1.106,5.276c-2.978-0.596-5.957-1.021-9.105-1.021
	c-2.808,0-5.531,0.255-8.254,0.766c-1.276,0.255-2.638,0.596-3.914,1.021c-0.936,0.255-1.957,0.596-2.893,0.936
	c-0.681,0.255-1.276,0.511-1.957,0.766c-0.851,0.425-1.702,0.851-2.468,1.276c-3.659,1.872-6.978,4.17-9.871,6.978
	c-0.34,0.34-0.681,0.681-0.936,0.936c-1.617,1.617-3.063,3.404-4.425,5.276c-0.851,1.191-1.617,2.383-2.298,3.659
	c-0.766,1.191-1.361,2.553-1.957,3.829c-0.596,1.362-1.106,2.723-1.532,4.084c-0.255,0.681-0.425,1.361-0.596,2.042
	c-0.936,3.489-1.447,7.148-1.447,10.977c0,1.447,0.085,2.978,0.255,4.425c0.17,1.447,0.425,2.893,0.681,4.255
	c0,0.17,0.085,0.425,0.17,0.596c0.255,1.191,0.596,2.383,0.936,3.574c0.596,1.872,1.276,3.659,2.127,5.446
	c0.681,1.361,1.361,2.638,2.212,3.914c1.106,1.957,2.468,3.829,3.999,5.531c-1.276,0.596-2.553,1.191-3.914,1.702
	c-1.021,0.511-2.127,0.851-3.234,1.191c-0.596,0.255-1.191,0.425-1.787,0.596c-1.021,0.34-2.042,0.596-3.063,0.851
	c-1.617,0.425-3.234,0.766-4.935,1.021c-2.042,0.34-4.17,0.596-6.382,0.681l-32.931-43.823
	C148.602,108.744,150.049,108.404,151.495,107.893z M85.973,78.706l11.488-7.573l9.956,13.275l53.354,71.138
	c-5.191,1.617-9.871,3.914-13.87,6.978l-44.759-61.608L85.973,78.706z M90.909,162.694c-0.425-0.255-0.851-0.511-1.191-0.766
	c-0.766-0.425-1.361-0.936-2.042-1.447c-0.681-0.511-1.362-1.021-1.872-1.532c-1.191-1.021-2.042-2.127-2.553-3.063
	c-0.596-0.936-0.851-1.872-0.851-2.723c0-3.148,5.361-10.041,24.167-17.189l29.357,40.334c-0.34,0.681-0.596,1.361-0.851,2.042
	c-5.021-1.106-9.701-2.298-13.955-3.489c-2.127-0.596-4.084-1.191-6.042-1.787c-1.872-0.596-3.744-1.191-5.446-1.872
	c-1.617-0.511-3.148-1.106-4.68-1.702c-1.447-0.511-2.808-1.106-4.17-1.702c-0.851-0.425-1.702-0.766-2.553-1.191
	C95.419,165.332,92.951,164.055,90.909,162.694z M264.84,475.923c1.532,0.425,3.148,0.596,4.765,0.596
	c4.68,0,8.509-3.829,8.509-8.509s-3.829-8.509-8.509-8.509c-3.999,0-8.935-6.552-12.509-16.934
	c5.021,0.425,9.701,1.021,14.126,1.617c40.249,5.701,57.949,17.955,57.949,23.826c0,6.893-20.252,18.635-58.289,24.081
	c-0.085,0-0.085,0.085-0.17,0c-12.679,1.787-27.23,2.893-43.653,2.893c-10.296,0-19.912-0.425-28.762-1.191h-0.34
	c-33.527-2.978-56.162-10.807-66.543-17.87c-4.255-2.893-6.467-5.616-6.467-7.914c0-4.765,10.126-12.253,30.378-18.04
	c7.318-2.212,15.998-4.084,26.039-5.531c4.85-0.766,10.041-1.361,15.572-1.872c-2.893,8.254-6.552,14.126-9.956,16.083
	c-0.851,0.596-1.702,0.851-2.468,0.851c-4.68,0-8.509,3.829-8.509,8.509s3.829,8.509,8.509,8.509c4.85,0,9.445-1.617,13.615-4.595
	c4.255-3.063,7.999-7.573,11.147-13.275c2.298-4.17,4.17-8.935,5.616-14.211c1.532-5.191,2.553-10.807,3.148-16.849
	c0.34-3.404,0.511-6.978,0.511-10.637v-0.085c2.723,0,5.616,0.085,8.509,0.085c2.893,0,5.701-0.085,8.509-0.085v0.085
	c0,4.935,0.34,9.701,0.936,14.211c0.851,6.893,2.383,13.19,4.425,18.806C246.119,464.095,254.629,473.711,264.84,475.923z
	 M327.299,344.284c-0.085,0.851-0.255,1.702-0.425,2.638c-0.255,1.702-0.596,3.404-1.021,5.021c-0.425,2.212-1.021,4.34-1.617,6.382
	c-0.596,1.872-1.191,3.659-1.957,5.446c-0.425,1.106-0.936,2.212-1.447,3.319c-0.425,0.936-0.936,1.787-1.447,2.638
	c-0.34,0.766-0.766,1.447-1.276,2.127c-0.17,0.425-0.425,0.766-0.681,1.021c-0.936,1.447-1.957,2.808-3.063,4.085
	c-1.106,1.276-2.298,2.553-3.659,3.744c-0.596,0.596-1.276,1.106-1.957,1.702c-0.34,0.34-0.766,0.681-1.276,1.021
	c-0.766,0.681-1.702,1.276-2.638,1.872c-2.553,1.787-5.446,3.319-8.68,4.68c-0.936,0.425-1.872,0.766-2.893,1.191
	c-1.021,0.425-2.042,0.766-3.148,1.191c-0.596,0.17-1.191,0.34-1.787,0.511c-0.936,0.255-1.872,0.596-2.893,0.936
	c-1.021,0.34-2.042,0.596-3.148,0.851c-2.127,0.596-4.34,1.106-6.722,1.532c-2.127,0.425-4.255,0.766-6.552,1.106
	c-2.127,0.255-4.34,0.596-6.552,0.851c-2.808,0.34-5.701,0.681-8.68,0.851c-3.999,0.255-8.254,0.511-12.679,0.681
	c-4.425,0.17-9.105,0.255-14.04,0.255c-12.934,0-24.167-0.511-34.037-1.617c-1.617-0.17-3.234-0.34-4.85-0.596
	c-3.319-0.425-6.382-0.851-9.36-1.532c-1.872-0.34-3.574-0.681-5.276-1.106c-1.021-0.17-2.042-0.425-2.978-0.766
	c-2.468-0.596-4.765-1.276-6.978-2.042c-1.617-0.596-3.234-1.191-4.765-1.872c-1.106-0.425-2.212-0.936-3.234-1.532
	c-0.766-0.34-1.532-0.766-2.298-1.191c-2.553-1.276-4.765-2.723-6.807-4.34c-0.936-0.681-1.787-1.447-2.638-2.212
	c-0.681-0.681-1.361-1.276-2.042-1.957c-1.021-1.021-1.957-2.127-2.808-3.234c-0.17-0.085-0.255-0.17-0.17-0.255
	c-0.425-0.34-0.681-0.766-0.936-1.106c-1.957-2.468-3.489-5.191-4.85-8.169c-1.021-1.957-1.787-3.914-2.468-6.042
	c-0.766-2.127-1.361-4.34-1.957-6.637c-0.425-1.702-0.766-3.489-1.106-5.276c-0.34-2.127-0.681-4.255-1.021-6.467
	c-0.34-2.298-0.596-4.51-0.851-6.893c6.127-5.021,14.381-9.445,24.081-12.168c0.851-0.255,1.787-0.425,2.638-0.681
	c0.851-0.255,1.787-0.425,2.723-0.596c0.596-0.17,1.191-0.255,1.872-0.34c1.447-0.255,2.893-0.511,4.425-0.596
	c0.766-0.085,1.617-0.17,2.468-0.255c1.106-0.17,2.298-0.255,3.574-0.17c2.978-0.085,5.957-0.085,9.105,0.17
	c1.787,0.17,3.574,0.34,5.446,0.681c1.787,0.255,3.574,0.596,5.446,1.021c1.872,0.425,3.744,0.936,5.616,1.532
	c1.872,0.596,3.744,1.191,5.701,1.957c1.957,0.766,3.914,1.617,5.786,2.468c4.17,1.957,8.339,4.34,12.594,7.148
	c1.702,1.106,3.404,2.298,5.106,3.574c2.468,1.702,4.935,3.319,7.403,4.765c1.957,1.106,3.829,2.127,5.701,3.063
	c0.34,0.255,0.681,0.425,0.936,0.511c1.702,0.851,3.489,1.617,5.191,2.383c1.787,0.681,3.489,1.362,5.191,2.042
	c0.255,0.085,0.596,0.255,0.851,0.255c1.361,0.511,2.808,0.936,4.17,1.361c1.787,0.596,3.659,1.021,5.531,1.447
	c1.447,0.255,2.808,0.596,4.255,0.766c2.723,0.511,5.531,0.851,8.254,1.021c2.127,0.17,4.17,0.255,6.212,0.255
	c2.893,0,5.786-0.17,8.594-0.425c1.361-0.17,2.723-0.34,4.084-0.511c1.362-0.17,2.638-0.425,3.999-0.681
	c1.532-0.255,2.978-0.596,4.51-0.936c1.787-0.425,3.489-0.851,5.106-1.362c1.447-0.425,2.808-0.851,4.255-1.361
	c1.361-0.425,2.723-0.936,3.999-1.447c1.361-0.511,2.638-1.021,3.914-1.617c1.191-0.511,2.468-1.021,3.659-1.617
	c3.574-1.702,6.807-3.489,9.701-5.191C327.639,342.497,327.469,343.433,327.299,344.284z M333.085,270.933
	c-0.425,4.34-0.851,8.594-1.106,12.764c-0.34,4.17-0.596,8.169-0.851,12.168c-0.34,4.34-0.511,8.509-0.766,12.594
	c-0.255,3.914-0.425,7.658-0.681,11.232c-2.383,1.957-6.722,5.361-12.594,8.68c-1.021,0.596-2.042,1.191-3.148,1.702
	c-4.68,2.553-10.296,4.935-16.508,6.722c-0.936,0.255-1.872,0.511-2.893,0.766c-0.085,0.085-0.255,0.085-0.34,0.085
	c-6.637,1.702-13.87,2.553-21.614,2.042c-0.766,0-1.617-0.085-2.468-0.17c-11.828-1.021-24.677-5.191-37.952-14.466
	c-30.549-22.805-61.182-25.188-85.264-18.806c-1.787,0.425-3.489,0.936-5.191,1.532c-1.191,0.34-2.383,0.766-3.489,1.191
	c-3.404,1.276-6.722,2.723-9.701,4.255c-1.532,0.766-2.978,1.532-4.34,2.383c-0.17-2.383-0.255-4.68-0.425-7.148
	c-0.085-2.383-0.255-4.765-0.425-7.233c-0.085-2.468-0.255-4.935-0.425-7.573c-0.085-1.702-0.17-3.404-0.34-5.191
	c-0.085-1.787-0.255-3.574-0.425-5.361c-0.255-3.574-0.596-7.233-1.021-10.977c0-0.255,0-0.596-0.085-0.936
	c-0.34-3.404-0.766-6.893-1.276-10.381c1.021-0.936,2.127-1.787,3.319-2.638c1.106-0.851,2.383-1.702,3.659-2.553
	c1.276-0.851,2.723-1.617,4.084-2.383c0.17-0.17,0.425-0.255,0.596-0.34c1.276-0.596,2.553-1.276,3.914-1.872
	c1.617-0.766,3.234-1.447,4.935-2.127c1.957-0.681,3.999-1.361,6.127-1.957c2.212-0.596,4.425-1.191,6.722-1.617
	c2.127-0.425,4.34-0.766,6.637-1.021c0.511-0.085,0.936-0.085,1.447-0.17c1.872-0.17,3.744-0.255,5.701-0.255
	c2.808-0.085,5.531,0,8.339,0.17c5.786,0.425,11.658,1.532,17.614,3.234c1.447,0.511,2.978,1.021,4.51,1.532
	c1.106,0.425,2.212,0.851,3.319,1.276c2.212,0.851,4.425,1.872,6.637,2.978c2.212,1.106,4.425,2.383,6.637,3.659
	c1.106,0.681,2.212,1.447,3.319,2.127c1.191,0.681,2.298,1.447,3.404,2.298c0.511,0.34,1.021,0.766,1.532,1.106
	c4.17,2.978,8.424,5.446,12.679,7.488c1.191,0.596,2.383,1.191,3.659,1.702c1.787,0.851,3.574,1.532,5.361,2.127
	c3.234,1.191,6.552,2.127,9.786,2.808c1.447,0.34,2.978,0.681,4.425,0.851c2.383,0.425,4.765,0.766,7.148,0.936
	c2.298,0.17,4.51,0.255,6.722,0.255c2.383,0,4.765-0.085,7.063-0.34c1.362-0.085,2.808-0.17,4.17-0.425
	c2.978-0.34,5.957-0.851,8.85-1.447c0.17-0.085,0.34-0.085,0.511-0.17c1.702-0.34,3.404-0.766,5.021-1.276
	c1.361-0.34,2.723-0.681,3.999-1.191c1.361-0.425,2.808-0.936,4.084-1.361c2.723-0.936,5.361-2.042,7.914-3.148
	c2.468-1.106,4.935-2.212,7.233-3.404c1.191-0.596,2.298-1.191,3.404-1.787c1.106-0.596,2.212-1.191,3.319-1.872
	c1.106-0.596,2.127-1.191,3.063-1.787c1.447-0.851,2.808-1.787,4.17-2.638C334.106,262.083,333.596,266.593,333.085,270.933z
	 M344.062,215.026c-0.255,1.021-0.596,2.042-0.851,3.063c-0.681,2.212-1.276,4.51-1.872,6.722c-0.766,2.723-1.447,5.446-2.042,8.169
	c-0.511,0.425-1.191,1.106-2.127,1.872c-0.851,0.681-1.957,1.532-3.148,2.553c-6.297,4.935-17.104,12.253-30.378,17.529
	c-0.255,0.17-0.596,0.255-0.936,0.425c-2.638,0.936-5.446,1.872-8.254,2.723c-1.447,0.511-2.893,0.851-4.34,1.191
	c-1.702,0.425-3.404,0.766-5.191,1.021c-1.276,0.255-2.553,0.425-3.829,0.511c-1.532,0.17-3.063,0.34-4.595,0.425
	c-1.872,0.17-3.829,0.17-5.701,0.085c-2.127,0-4.255-0.085-6.382-0.425c-1.106-0.085-2.127-0.255-3.234-0.425
	c-2.212-0.34-4.425-0.766-6.637-1.447c-3.319-0.851-6.722-2.042-10.041-3.574c-1.021-0.425-2.042-0.936-3.063-1.447
	c-0.255-0.085-0.511-0.255-0.766-0.425c-1.106-0.511-2.298-1.191-3.404-1.872c-1.702-0.936-3.404-2.042-5.106-3.234
	c-21.444-15.998-42.887-21.954-62.033-21.954c-2.553,0-5.021,0.085-7.488,0.34h-0.34c-2.383,0.255-4.765,0.511-7.063,0.936
	c-0.255,0-0.425,0-0.596,0.085c-4.255,0.681-8.424,1.702-12.253,2.978c-0.766,0.255-1.447,0.511-2.042,0.681
	c-1.957,0.681-3.914,1.361-5.701,2.212c-4.595,1.872-8.765,4.085-12.509,6.467c-1.787,1.106-3.489,2.298-5.106,3.489
	c-1.106-5.531-2.298-11.232-3.744-17.019c-0.34-1.361-0.681-2.638-1.106-3.999c-0.511-1.957-1.021-3.829-1.617-5.786
	c-2.978-10.126-6.637-20.593-11.317-31.314c12.764,5.021,28.506,9.105,45.951,12.083c3.404,0.596,6.893,1.106,10.467,1.617
	c16.763,2.468,34.888,3.999,53.269,4.595c2.638,0.085,5.191,0.17,7.829,0.255c3.404,0.085,6.893,0.085,10.296,0.085
	c4.51,0,9.02-0.085,13.445-0.17c1.702,0,3.404-0.085,5.191-0.17c4.68-0.17,9.36-0.34,14.04-0.681
	c4.85-0.255,9.701-0.681,14.381-1.106c9.02-0.766,17.785-1.787,26.124-3.063c2.468-0.34,4.85-0.766,7.233-1.106l1.532-0.255
	c0.34-0.085,0.681-0.085,1.021-0.17l0.085-0.085c4.51-0.766,8.935-1.617,13.104-2.553c1.787-0.34,3.574-0.766,5.276-1.191
	c4.425-1.021,8.68-2.212,12.679-3.404c1.447-0.425,2.893-0.851,4.255-1.361c3.319-1.021,6.467-2.127,9.445-3.319
	c-2.212,5.021-4.17,9.956-5.871,14.891c-1.021,2.468-1.872,5.021-2.638,7.488C345.509,210.346,344.743,212.644,344.062,215.026z
	 M409.414,256.807c-30.378,21.018-51.992,45.525-63.139,70.458c0.425-5.786,0.766-11.743,1.106-17.87
	c0.511-9.275,1.106-19.316,2.212-30.038c0.766-7.488,1.702-15.232,3.063-23.231c2.553-15.827,6.297-32.591,12.253-49.78
	c0.34-0.851,0.596-1.702,0.936-2.553c5.616-1.617,11.062-2.893,16.083-3.744c23.656-4.085,40.249,0.425,45.695,13.019
	C433.751,227.11,425.497,247.362,409.414,256.807z M290.113,259.275c-1.702,0.425-3.404,0.766-5.191,1.021
	c-1.276,0.255-2.553,0.425-3.829,0.511c-1.532,0.17-3.063,0.34-4.595,0.425c-1.872,0.17-3.829,0.17-5.701,0.085
	c-7.573,4.51-16.678,9.02-26.89,12.253c3.234,1.191,6.552,2.127,9.786,2.808c1.447,0.34,2.978,0.681,4.425,0.851
	c2.383,0.425,4.765,0.766,7.148,0.936c2.298,0.17,4.51,0.255,6.722,0.255c2.383,0,4.765-0.085,7.063-0.34
	c1.362-0.085,2.808-0.17,4.17-0.425c2.978-0.34,5.957-0.851,8.85-1.447c0.596-5.871,1.361-11.913,2.383-18.125
	C293.006,258.594,291.559,258.935,290.113,259.275z M264.415,260.892c-1.106-0.085-2.127-0.255-3.234-0.425
	c-2.212-0.34-4.425-0.766-6.637-1.447c-3.319-0.851-6.722-2.042-10.041-3.574c-7.318,2.808-15.317,4.935-23.826,5.701
	c0.511,0.34,1.021,0.766,1.532,1.106c4.17,2.978,8.424,5.446,12.679,7.488c1.191,0.596,2.383,1.191,3.659,1.702
	c1.787,0.851,3.574,1.532,5.361,2.127c10.211-3.234,19.316-7.743,26.89-12.253C268.669,261.317,266.542,261.232,264.415,260.892z"/>
<path style="fill:#B71C1C;" d="M261.096,119.126c0,4.85-1.361,9.445-3.914,13.53c-3.829-4.085-8.509-7.488-13.7-9.956
	c-1.106-11.998-3.574-22.295-6.978-29.017c1.191,0,2.383,0.085,3.489,0.34c0.681,0.085,1.276,0.255,1.872,0.425
	c0.425,0.085,0.851,0.17,1.276,0.34c0.766,0.255,1.617,0.511,2.298,0.851c0.596,0.17,1.191,0.511,1.702,0.766
	c1.191,0.596,2.298,1.276,3.319,2.042c0.766,0.596,1.532,1.106,2.212,1.787c0.681,0.681,1.362,1.361,1.957,2.042
	c0.34,0.34,0.681,0.766,1.021,1.191c0.681,0.851,1.362,1.872,1.957,2.808c0.425,0.681,0.766,1.447,1.106,2.212
	c0.17,0.255,0.255,0.511,0.425,0.851c0.596,1.447,1.106,2.978,1.447,4.595C260.926,115.637,261.096,117.339,261.096,119.126z"/>
<path style="fill:#D50000;" d="M236.504,93.683c3.404,6.722,5.871,17.019,6.978,29.017c-5.021-2.212-10.552-3.574-16.423-3.574
	c-0.766,0-1.447,0.085-2.127,0.34c-0.425,0-0.766,0.17-1.191,0.34c-0.425,0.17-0.936,0.425-1.361,0.766
	c-0.34,0.17-0.596,0.425-0.936,0.681c-0.255,0.255-0.511,0.511-0.766,0.766c-0.511,0.596-0.936,1.191-1.191,1.872
	c-0.255,0.34-0.425,0.681-0.425,1.106c-0.34,0.851-0.511,1.702-0.511,2.638c0,2.723-0.936,5.361-2.383,7.914
	c-3.829-4.595-6.127-10.381-6.127-16.423c0-1.617,0.17-3.234,0.425-4.765c0.17-0.936,0.425-1.872,0.766-2.808
	c0.255-0.766,0.511-1.617,0.851-2.298c0.17-0.511,0.425-1.021,0.681-1.447c0.17-0.425,0.34-0.766,0.511-1.021
	c0.17-0.34,0.34-0.681,0.596-1.021c0.34-0.681,0.851-1.276,1.276-1.872s0.936-1.276,1.617-1.872c0.255-0.34,0.511-0.681,0.851-0.936
	c1.191-1.191,2.468-2.298,3.744-3.148c1.021-0.681,2.127-1.276,3.234-1.787c0.511-0.255,1.021-0.511,1.617-0.681
	c0.511-0.255,1.021-0.511,1.617-0.596c0.681-0.255,1.361-0.425,2.042-0.596c0.596-0.17,1.191-0.255,1.872-0.34
	c1.191-0.255,2.553-0.34,3.829-0.34C235.908,93.598,236.249,93.598,236.504,93.683z"/>
<path style="fill:#004D40;" d="M334.787,257.573c-0.681,4.51-1.191,9.02-1.702,13.36c-0.425,4.34-0.851,8.594-1.106,12.764
	c-0.34,4.17-0.681,8.254-0.851,12.168c-0.34,4.34-0.511,8.509-0.766,12.594c-0.255,3.914-0.425,7.658-0.681,11.232
	c-2.383,1.957-6.722,5.361-12.594,8.68c-1.021,0.596-2.042,1.191-3.148,1.702c-4.68,2.553-10.296,4.935-16.508,6.722
	c-0.936,0.255-1.872,0.511-2.893,0.766l7.063-63.99c1.447-0.34,2.808-0.851,4.084-1.361c2.723-0.936,5.361-1.957,7.914-3.148
	c2.553-1.021,4.935-2.212,7.233-3.404c1.191-0.596,2.298-1.191,3.404-1.787c1.106-0.596,2.212-1.191,3.319-1.872
	c1.106-0.596,2.127-1.191,3.063-1.787C332.064,259.36,333.426,258.424,334.787,257.573z"/>
<path style="fill:#00796B;" d="M297.601,274.762c1.362-0.34,2.723-0.681,3.999-1.191l-7.063,63.99l-0.085,0.085h-0.255
	c-6.637,1.702-13.87,2.553-21.614,2.042c-0.766,0-1.617-0.085-2.468-0.17c-11.828-1.021-24.677-5.191-37.952-14.466
	c-30.549-22.805-61.182-25.188-85.264-18.806c-1.787,0.425-3.489,0.936-5.191,1.532c-1.191,0.34-2.383,0.766-3.489,1.191
	c-3.404,1.276-6.722,2.723-9.701,4.255c-1.532,0.766-2.978,1.532-4.34,2.383c-0.17-2.383-0.255-4.68-0.425-7.148
	c-0.085-2.383-0.255-4.765-0.425-7.233c-0.085-2.468-0.255-4.935-0.425-7.573c-0.085-1.702-0.17-3.404-0.34-5.191
	c-0.085-1.787-0.255-3.574-0.425-5.361c-0.255-3.574-0.596-7.233-1.021-10.977c0-0.255,0-0.596-0.085-0.936
	c-0.34-3.404-0.766-6.893-1.276-10.381c1.021-0.936,2.127-1.787,3.319-2.638c1.106-0.851,2.383-1.702,3.659-2.553
	c1.276-0.851,2.723-1.617,4.084-2.383c0.17-0.17,0.425-0.255,0.596-0.34c1.276-0.596,2.553-1.276,3.914-1.872
	c1.617-0.766,3.234-1.447,4.935-2.127c1.957-0.681,3.999-1.361,6.127-1.957c2.212-0.596,4.425-1.191,6.722-1.617
	c2.127-0.425,4.34-0.766,6.637-1.021c0.511-0.085,0.936-0.085,1.447-0.17c1.872-0.17,3.744-0.255,5.701-0.255
	c2.808-0.085,5.531,0,8.339,0.17c5.786,0.425,11.658,1.532,17.614,3.234c1.447,0.511,2.978,1.021,4.51,1.532
	c1.106,0.425,2.212,0.851,3.319,1.276c2.212,0.851,4.425,1.872,6.637,2.978c2.212,1.106,4.425,2.383,6.637,3.659
	c1.106,0.681,2.212,1.447,3.319,2.127c1.191,0.681,2.298,1.447,3.404,2.298c0.511,0.34,1.021,0.766,1.532,1.106
	c4.17,2.978,8.424,5.446,12.679,7.488c1.191,0.681,2.468,1.191,3.659,1.702c1.787,0.851,3.574,1.532,5.361,2.127
	c3.234,1.191,6.552,2.127,9.786,2.808c1.447,0.34,2.978,0.681,4.425,0.851c2.383,0.425,4.765,0.766,7.148,0.936
	c2.298,0.17,4.51,0.255,6.722,0.255c2.383,0,4.765-0.085,7.063-0.34c1.362-0.085,2.808-0.17,4.17-0.425
	c2.978-0.34,5.957-0.851,8.85-1.447c0.17-0.085,0.34-0.085,0.511-0.17C294.282,275.698,295.984,275.273,297.601,274.762z"/>
<g>
	<path style="fill:#F9A825;" d="M371.718,153.163c0,4.68-8.509,11.147-24.677,17.189c-0.34,0-0.596-0.17-0.851-0.17l-10.211,0.085
		h-16.253l24.677-36.08c0.681,0.596,1.361,1.106,2.298,1.447C366.442,142.952,371.718,150.1,371.718,153.163z"/>
	<path style="fill:#F9A825;" d="M135.923,176.309c-0.34,0.681-0.596,1.362-0.851,2.042c-34.378-7.573-52.673-18.295-52.673-25.188
		c0-3.148,5.361-10.041,24.167-17.189L135.923,176.309z"/>
</g>
<path style="fill:#BDBDBD;" d="M278.455,32.415c-5.361,3.234-10.296,6.807-14.551,10.892c-1.021,0.936-2.042,1.957-3.063,3.063
	h-0.085c-4.765-3.829-9.871-6.807-15.317-8.85c4.765-1.872,8.935-4.255,12.424-7.148c0.851-0.681,1.702-1.361,2.468-2.127
	c2.383-2.212,4.34-4.68,5.871-7.318C269.69,23.736,273.945,27.735,278.455,32.415z"/>
<path style="fill:#F4F4F4;" d="M260.756,46.371c-0.085,0.085-0.17,0.17-0.255,0.34c-1.447,1.447-2.893,3.063-4.084,4.765
	c-0.596,0.596-1.106,1.276-1.532,1.957c-0.596,0.681-1.021,1.447-1.447,2.127c-0.851,1.191-1.617,2.468-2.298,3.659
	c-1.702,3.063-3.148,6.212-4.255,9.445c-0.425,1.191-0.766,2.383-1.106,3.659c-0.511,1.702-0.851,3.489-1.106,5.276
	c-2.978-0.596-5.957-1.021-9.105-1.021c-2.808,0-5.531,0.255-8.254,0.766c-1.276,0.255-2.638,0.596-3.914,1.021
	c-0.936,0.255-1.957,0.596-2.893,0.936c-0.681,0.255-1.276,0.511-1.957,0.766c-0.851,0.425-1.702,0.851-2.468,1.276
	c-3.659,1.872-6.978,4.17-9.871,6.978c-0.34,0.34-0.681,0.681-0.936,0.936c-1.617,1.617-3.063,3.404-4.425,5.276
	c-0.851,1.191-1.617,2.383-2.298,3.659c-0.766,1.191-1.361,2.553-1.957,3.829c-0.596,1.362-1.106,2.723-1.532,4.084
	c-0.255,0.681-0.425,1.361-0.596,2.042c-0.936,3.489-1.447,7.148-1.447,10.977c0,1.447,0.085,2.978,0.255,4.425
	c0.17,1.447,0.34,2.893,0.681,4.255c0,0.17,0.085,0.425,0.17,0.596c0.17,1.191,0.511,2.383,0.936,3.574
	c0.596,1.872,1.276,3.659,2.127,5.446c0.681,1.361,1.361,2.638,2.212,3.914c1.106,1.957,2.468,3.829,3.999,5.531
	c-1.276,0.596-2.553,1.191-3.914,1.702c-1.021,0.511-2.127,0.851-3.234,1.191c-0.596,0.255-1.191,0.425-1.787,0.596
	c-1.021,0.34-2.042,0.596-3.063,0.851c-1.617,0.425-3.234,0.766-4.935,1.021c-2.042,0.34-4.17,0.596-6.382,0.681l-32.931-43.823
	c1.447-0.34,2.893-0.681,4.34-1.191c1.361-0.425,2.723-0.851,3.999-1.447c0.085,0.085,0.085,0.085,0.085,0c0.085,0,0.085,0,0.085,0
	c0.936-0.34,1.787-0.681,2.553-1.106c1.021-0.425,1.957-0.936,2.893-1.447c0.851-0.34,1.617-0.851,2.383-1.276
	c1.191-0.766,2.383-1.447,3.489-2.212c1.021-0.766,2.042-1.447,2.978-2.212c1.106-0.936,2.127-1.787,3.148-2.723
	c0.596-0.511,1.276-1.106,1.787-1.702c1.276-1.276,2.468-2.553,3.574-3.914c1.191-1.362,2.298-2.723,3.234-4.17
	c1.021-1.361,1.957-2.808,2.808-4.34c0.936-1.532,1.787-3.063,2.468-4.595c0.681-1.276,1.191-2.553,1.617-3.829
	c0.511-0.936,0.851-1.957,1.106-2.893c0.596-1.447,1.021-2.978,1.362-4.425c0.425-1.276,0.681-2.553,0.851-3.829
	c0.255-0.851,0.34-1.702,0.511-2.553c0.085-0.936,0.255-1.872,0.34-2.808c0.17-1.787,0.255-3.574,0.255-5.361
	c0-0.17,0.085-0.34,0.085-0.511c0.085-0.17,0.255-0.255,0.34-0.425c0.085-0.255,0.255-0.425,0.511-0.596
	c0.511-0.596,1.276-1.106,2.127-1.702c0.511-0.34,1.106-0.596,1.702-0.936c1.276-0.681,2.808-1.361,4.51-1.872
	c0.851-0.34,1.787-0.596,2.808-0.851c0.085,0,0.17,0,0.17-0.085c1.191-0.255,2.468-0.596,3.829-0.766
	c2.808-0.511,5.957-0.766,9.445-0.766c2.298,0,4.595-0.085,6.807-0.34c1.872-0.085,3.744-0.34,5.531-0.681
	c1.191-0.17,2.298-0.34,3.319-0.596c1.957-0.34,3.829-0.851,5.616-1.447c1.957-0.511,3.829-1.191,5.616-1.957
	C250.885,39.563,255.99,42.541,260.756,46.371z"/>
<path style="fill:#BDBDBD;" d="M312.067,93.002l-17.274,25.273c-1.702-23.741-9.871-44.929-22.039-60.076
	c0.17-0.255,0.34-0.425,0.596-0.681c1.106-1.191,2.212-2.212,3.404-3.234c0.596-0.511,1.191-1.021,1.872-1.532
	c1.532-1.276,3.063-2.468,4.765-3.574c0.255-0.17,0.511-0.34,0.851-0.511c1.702-1.191,3.489-2.212,5.361-3.234
	c5.531,6.978,10.722,14.721,14.721,22.465c0.596,1.106,1.106,2.212,1.617,3.234c0.936,1.957,1.787,3.829,2.553,5.701
	c0.596,1.617,1.106,3.148,1.617,4.68c0.17,0.511,0.255,1.106,0.425,1.617c0.34,1.106,0.596,2.127,0.766,3.234
	c0.17,0.681,0.255,1.361,0.34,2.042c0.085,0.596,0.17,1.276,0.255,1.872C311.982,91.215,312.067,92.066,312.067,93.002z"/>
<path style="fill:#F4F4F4;" d="M272.754,58.199c12.168,15.147,20.337,36.335,22.039,60.076l-25.698,37.611
	c-0.425-2.723-1.191-5.446-2.298-8.169c0.255-0.17,0.511-0.255,0.681-0.425c6.893-7.829,10.637-17.785,10.637-28.166
	c0-0.851,0-1.702-0.17-2.553c0-1.106-0.085-2.212-0.34-3.319c0.085-0.17,0.085-0.34,0-0.425c-0.085-0.681-0.17-1.361-0.425-2.042
	c0.085-0.085,0-0.17,0-0.17c-0.085-0.596-0.17-1.191-0.34-1.702c-0.255-1.021-0.511-2.042-0.936-2.978
	c-0.17-0.681-0.425-1.361-0.681-2.042c-0.34-0.936-0.766-1.872-1.276-2.808c-0.17-0.511-0.425-1.021-0.766-1.532
	c-0.255-0.766-0.681-1.447-1.276-2.212c-0.425-0.936-1.021-1.872-1.787-2.723c-1.532-2.212-3.319-4.34-5.361-6.212
	c-1.106-1.106-2.383-2.127-3.659-3.148c0-0.085,0-0.085,0-0.17c0-1.021,0.085-2.042,0.17-3.063c0-0.851,0.17-1.617,0.255-2.383
	c0.34-1.872,0.766-3.659,1.447-5.446c0.34-1.191,0.766-2.298,1.276-3.489c0.255-0.681,0.511-1.276,0.851-1.872
	c0.425-0.766,0.851-1.617,1.276-2.298c0.34-0.511,0.681-1.106,1.021-1.617c1.447-2.383,3.234-4.595,5.276-6.722
	c0.17-0.255,0.425-0.511,0.681-0.681C273.094,57.773,272.924,57.943,272.754,58.199z"/>
<path style="fill:#8D6E63;" d="M400.309,22.289l-19.231,28.166c-2.468-6.042-5.446-11.147-8.85-15.147l11.658-17.104L400.309,22.289
	z"/>
<path style="fill:#C1AD9D;" d="M381.078,50.455l-81.435,118.961c-1.617-0.085-3.234-0.255-4.765-0.425
	c-2.638-0.255-5.106-0.596-7.488-1.021c-0.936-0.17-1.872-0.34-2.723-0.511s-1.702-0.34-2.553-0.511l90.114-131.64
	C375.632,39.308,378.61,44.413,381.078,50.455z"/>
<path style="fill:#8D6E63;" d="M107.417,84.407c-2.212,4.68-3.999,10.296-5.276,16.508L85.973,78.706l11.488-7.573L107.417,84.407z"
	/>
<path style="fill:#C1AD9D;" d="M160.771,155.546c-5.191,1.617-9.871,3.914-13.87,6.978l-44.759-61.608
	c1.276-6.212,3.063-11.828,5.276-16.508L160.771,155.546z"/>
<path style="fill:#BDBDBD;" d="M282.284,184.307c-2.042,0.255-4.085,0.425-6.212,0.596c-2.127,0.255-4.255,0.425-6.467,0.596
	c-2.808,0.255-5.701,0.425-8.594,0.596c-3.148,0.255-6.467,0.425-9.786,0.596c-0.085,0-0.085,0-0.17,0
	c-4.765-13.955-20.422-24.337-39.143-24.932c0.34-0.17,0.681-0.34,1.021-0.596c1.191-0.596,2.383-1.276,3.489-2.127
	c1.106-0.596,2.212-1.361,3.234-2.298c0.851-0.511,1.702-1.276,2.553-2.042c0.851-0.681,1.702-1.447,2.383-2.212
	c1.021-0.936,1.872-1.872,2.638-2.893c0.425-0.425,0.851-0.936,1.106-1.447c0.425-0.425,0.766-0.936,1.021-1.361
	c2.127-2.978,3.744-6.212,4.765-9.531c2.638,0.936,5.191,2.212,7.403,3.914c2.298,1.702,4.255,3.744,5.871,5.957
	c0.511,0.681,1.021,1.447,1.447,2.212c0.511,0.766,0.936,1.532,1.276,2.383c0.766,1.447,1.276,2.893,1.702,4.34
	c0.255,0.851,0.425,1.787,0.511,2.638c0.17,1.021,0.255,1.957,0.255,2.978c0,0.936,0.17,1.787,0.425,2.638
	C256.671,175.543,267.818,181.329,282.284,184.307z"/>
<path style="fill:#F4F4F4;" d="M251.055,186.69c-2.212,0.085-4.425,0.17-6.722,0.255c-1.617,0.085-3.319,0.085-5.021,0.085
	c-3.999,0.085-8.084,0.17-12.253,0.17c-2.127,0-4.34,0-6.382-0.085c-2.127,0-4.17-0.085-6.212-0.085
	c-5.616-0.085-11.062-0.34-16.338-0.596c-2.127-0.085-4.255-0.255-6.382-0.425c-4.17-0.255-8.339-0.511-12.253-0.936
	c-3.914-0.34-7.744-0.766-11.488-1.191c-5.616-0.681-10.892-1.361-15.998-2.212c3.574-6.637,13.104-11.488,23.996-11.488
	c1.532,0,3.148,0,4.68-0.17c1.532,0,3.063-0.17,4.595-0.34c0.851-0.085,1.702-0.17,2.468-0.34c2.212-0.255,4.425-0.681,6.552-1.191
	c0.936-0.17,1.872-0.425,2.808-0.681c1.787-0.425,3.489-0.936,5.106-1.532c1.021-0.34,1.957-0.681,2.893-1.021
	s1.872-0.766,2.808-1.191c1.361-0.596,2.638-1.191,3.914-1.957c0.085-0.085,0.085,0,0.085,0
	C230.632,162.353,246.29,172.735,251.055,186.69z"/>
<path style="fill:#F9A825;" d="M354.869,185.584c-2.212,5.021-4.17,9.956-5.871,14.891c-1.021,2.468-1.872,5.021-2.638,7.488
	c-0.851,2.383-1.617,4.68-2.298,7.063c-0.255,1.021-0.596,2.042-0.851,3.063c-0.681,2.298-1.361,4.51-1.872,6.722
	c-0.766,2.808-1.447,5.446-2.042,8.169c-0.511,0.425-1.191,1.106-2.127,1.872c-0.851,0.681-1.957,1.532-3.148,2.553
	c-6.297,4.935-17.104,12.253-30.378,17.529l6.382-57.438l0.085-0.085c4.51-0.766,8.935-1.617,13.104-2.553
	c1.787-0.34,3.574-0.766,5.276-1.191c4.425-1.021,8.68-2.212,12.679-3.404c1.447-0.425,2.893-0.851,4.255-1.362
	C348.742,187.881,351.891,186.775,354.869,185.584z"/>
<path style="fill:#FFC107;" d="M309.004,197.667c0.425-0.085,0.766-0.17,1.106-0.255l-0.085,0.085l-6.382,57.438
	c-0.255,0.17-0.596,0.255-0.936,0.425c-2.638,0.936-5.446,1.872-8.254,2.723c-1.447,0.511-2.893,0.851-4.34,1.191
	c-1.702,0.425-3.404,0.766-5.191,1.021c-1.276,0.255-2.553,0.425-3.829,0.511c-1.532,0.17-3.063,0.34-4.595,0.425
	c-1.872,0.17-3.829,0.17-5.701,0.085c-2.127,0-4.255-0.085-6.382-0.425c-1.106-0.085-2.127-0.255-3.234-0.425
	c-2.212-0.34-4.425-0.766-6.637-1.447c-3.319-0.851-6.722-2.042-10.041-3.574c-1.021-0.425-2.042-0.936-3.063-1.447
	c-0.255-0.085-0.511-0.255-0.766-0.425c-1.106-0.511-2.298-1.191-3.404-1.872c-1.702-0.936-3.404-2.042-5.106-3.234
	c-21.444-15.998-42.887-21.954-62.033-21.954c-2.553,0-5.021,0.085-7.488,0.34h-0.34c-2.383,0.255-4.765,0.511-7.063,0.936
	c-0.255,0-0.425,0-0.596,0.085c-4.255,0.681-8.424,1.702-12.253,2.978c-0.766,0.255-1.447,0.511-2.042,0.681
	c-1.957,0.681-3.914,1.447-5.701,2.212c-4.595,1.872-8.765,4.085-12.509,6.467c-1.787,1.106-3.489,2.298-5.106,3.489
	c-1.021-5.531-2.298-11.232-3.744-17.019c-0.34-1.362-0.681-2.638-1.106-3.999c-0.511-1.957-1.021-3.829-1.617-5.786
	c-2.978-10.126-6.637-20.593-11.317-31.314c12.764,5.021,28.506,9.105,45.951,12.083c3.404,0.596,6.893,1.106,10.467,1.617
	c16.763,2.468,34.888,3.999,53.269,4.595c2.638,0.085,5.191,0.17,7.829,0.255c3.404,0.085,6.893,0.085,10.296,0.085
	c4.51,0,9.02-0.085,13.445-0.17c1.702,0,3.404-0.085,5.191-0.17c4.68-0.17,9.36-0.34,14.04-0.681
	c4.85-0.255,9.701-0.596,14.381-1.106c9.02-0.766,17.785-1.787,26.124-3.063c2.468-0.34,4.85-0.766,7.233-1.106L309.004,197.667z"/>
<path style="fill:#F9A825;" d="M327.724,341.561c-0.085,0.936-0.255,1.872-0.425,2.723c-0.085,0.851-0.255,1.702-0.425,2.638
	c-0.255,1.702-0.596,3.404-1.021,5.021c-0.425,2.212-1.021,4.34-1.617,6.382c-0.596,1.872-1.191,3.659-1.957,5.446
	c-0.511,1.191-1.021,2.212-1.447,3.319c-0.425,0.936-0.936,1.787-1.447,2.638c-0.425,0.766-0.851,1.447-1.276,2.127
	c-0.17,0.425-0.425,0.766-0.681,1.021c-0.936,1.447-1.957,2.808-3.063,4.085c-1.106,1.276-2.298,2.553-3.659,3.744
	c-0.596,0.596-1.276,1.106-1.957,1.702c-0.34,0.34-0.766,0.681-1.276,1.021c-0.851,0.681-1.702,1.276-2.638,1.872
	c-2.553,1.787-5.446,3.319-8.68,4.68c-0.936,0.425-1.872,0.766-2.893,1.191c-1.021,0.425-2.042,0.766-3.148,1.191
	c-0.596,0.17-1.191,0.34-1.787,0.511l4.255-37.782c1.532-0.255,3.063-0.511,4.51-0.936c1.787-0.425,3.489-0.851,5.106-1.362
	c1.447-0.425,2.893-0.851,4.255-1.361c1.361-0.425,2.723-0.936,3.999-1.447c1.361-0.511,2.638-1.021,3.914-1.617
	c1.276-0.511,2.468-1.021,3.659-1.617C321.598,345.049,324.831,343.262,327.724,341.561z"/>
<path style="fill:#FFC107;" d="M288.326,392.872c0.596-0.17,1.191-0.34,1.787-0.511c-0.596,0.255-1.191,0.425-1.787,0.681
	c-0.936,0.255-1.872,0.511-2.893,0.766c-1.021,0.34-2.042,0.596-3.148,0.851c-2.127,0.596-4.34,1.106-6.722,1.532
	c-2.127,0.425-4.255,0.766-6.552,1.106c-2.127,0.255-4.34,0.596-6.552,0.851c-2.808,0.34-5.701,0.681-8.68,0.851
	c-3.999,0.255-8.254,0.511-12.679,0.681c-4.425,0.17-9.105,0.255-14.04,0.255c-12.934,0-24.167-0.511-34.037-1.617
	c-1.617-0.17-3.234-0.34-4.85-0.596c-3.319-0.425-6.382-0.851-9.36-1.532c-1.872-0.34-3.574-0.681-5.276-1.106
	c-1.021-0.17-2.042-0.425-2.978-0.766c-2.468-0.596-4.765-1.276-6.978-2.042c-1.617-0.596-3.234-1.191-4.765-1.872
	c-1.106-0.425-2.212-0.936-3.234-1.532c-0.766-0.34-1.532-0.681-2.298-1.191c-2.553-1.276-4.765-2.723-6.807-4.34
	c-0.936-0.681-1.787-1.447-2.638-2.212c-0.681-0.681-1.361-1.276-2.042-1.957c-1.021-1.021-1.957-2.127-2.808-3.234
	c-0.17-0.085-0.255-0.17-0.17-0.255c-0.425-0.34-0.681-0.681-0.936-1.106c-1.957-2.468-3.489-5.191-4.85-8.169
	c-0.936-1.957-1.787-3.914-2.468-6.042c-0.766-2.127-1.361-4.34-1.957-6.637c-0.425-1.702-0.766-3.489-1.106-5.276
	c-0.34-2.127-0.681-4.255-1.021-6.467c-0.34-2.298-0.596-4.51-0.851-6.893c6.127-5.021,14.381-9.445,24.081-12.168
	c0.851-0.255,1.787-0.425,2.638-0.681c0.851-0.255,1.787-0.425,2.723-0.596c0.596-0.17,1.191-0.255,1.872-0.34
	c1.447-0.255,2.893-0.511,4.425-0.596c0.766-0.085,1.617-0.17,2.468-0.255c1.106-0.17,2.298-0.255,3.574-0.17
	c2.978-0.085,5.957-0.085,9.105,0.17c1.787,0.17,3.574,0.34,5.446,0.681c1.787,0.255,3.574,0.596,5.446,1.021
	c1.872,0.425,3.744,0.936,5.616,1.532c1.872,0.596,3.744,1.191,5.701,1.957c1.957,0.766,3.914,1.617,5.786,2.468
	c4.17,1.957,8.339,4.34,12.594,7.148c1.702,1.106,3.404,2.298,5.106,3.574c2.468,1.702,4.935,3.319,7.403,4.765
	c1.957,1.106,3.829,2.212,5.701,3.063c0.34,0.255,0.681,0.425,0.936,0.511c1.787,0.936,3.489,1.702,5.191,2.383
	c1.787,0.766,3.489,1.447,5.191,2.042c0.255,0.085,0.596,0.255,0.851,0.255c1.361,0.511,2.808,1.021,4.17,1.361
	c1.787,0.596,3.659,1.021,5.531,1.447c1.447,0.255,2.808,0.596,4.255,0.766c2.723,0.511,5.531,0.851,8.254,1.021
	c2.127,0.17,4.17,0.255,6.212,0.255c2.893,0,5.786-0.17,8.594-0.425c1.361-0.085,2.723-0.255,4.084-0.511
	c1.362-0.17,2.638-0.34,3.999-0.681L288.326,392.872z"/>
<path style="fill:#004D40;" d="M329.171,468.01c0,6.893-20.252,18.635-58.289,24.082c10.892-6.467,17.444-14.551,17.444-24.082
	c0-9.616-6.552-17.444-17.104-23.826C311.471,449.885,329.171,462.138,329.171,468.01z"/>
<path style="fill:#00796B;" d="M288.326,468.01c0,9.53-6.552,17.614-17.444,24.082c-0.085,0-0.085,0.085-0.17,0
	c-12.679,1.787-27.23,2.893-43.653,2.893c-10.296,0-19.912-0.425-28.762-1.191h-0.34c-33.527-2.978-56.162-10.807-66.543-17.87
	c-4.255-2.893-6.467-5.616-6.467-7.914c0-4.765,10.126-12.253,30.378-18.04c7.318-2.212,15.998-4.084,26.039-5.531
	c4.85-0.766,10.041-1.361,15.572-1.872c-2.893,8.254-6.552,14.126-9.956,16.083c-0.851,0.596-1.702,0.851-2.468,0.851
	c-4.68,0-8.509,3.829-8.509,8.509s3.829,8.509,8.509,8.509c4.85,0,9.445-1.617,13.615-4.595c4.255-3.063,7.999-7.573,11.147-13.275
	c2.298-4.17,4.17-8.935,5.616-14.211c1.532-5.191,2.553-10.807,3.148-16.849c0.34-3.404,0.511-6.978,0.511-10.637v-0.085
	c2.723,0,5.616,0.085,8.509,0.085c2.893,0,5.701-0.085,8.509-0.085v0.085c0,4.935,0.34,9.701,0.936,14.211
	c0.851,6.893,2.383,13.19,4.425,18.806c5.191,14.126,13.7,23.741,23.911,25.954c1.532,0.425,3.148,0.596,4.765,0.596
	c4.68,0,8.509-3.829,8.509-8.509s-3.829-8.509-8.509-8.509c-3.999,0-8.935-6.552-12.509-16.934
	c5.021,0.425,9.701,1.021,14.126,1.617C281.774,450.565,288.326,458.394,288.326,468.01z"/>
<g>
</g>
<g>
</g>
<g>
</g>
<g>
</g>
<g>
</g>
<g>
</g>
<g>
</g>
<g>
</g>
<g>
</g>
<g>
</g>
<g>
</g>
<g>
</g>
<g>
</g>
<g>
</g>
<g>
</g>
</svg>
