<?xml version="1.0" encoding="iso-8859-1"?>
<!-- Generator: Adobe Illustrator 19.0.0, SVG Export Plug-In . SVG Version: 6.00 Build 0)  -->
<svg version="1.1" id="Layer_1" xmlns="http://www.w3.org/2000/svg" xmlns:xlink="http://www.w3.org/1999/xlink" x="0px" y="0px"
	 viewBox="0 0 512 512" style="enable-background:new 0 0 512 512;" xml:space="preserve">
<path d="M334.763,42.667c4.096-4.523,6.571-10.496,6.571-17.067c0-14.08-11.52-25.6-25.6-25.6H196.267
	c-11.093,0-20.565,7.168-24.064,17.067c-1.024,2.645-1.536,5.547-1.536,8.533s0.512,5.888,1.451,8.533
	c1.109,3.157,2.901,6.059,5.12,8.533c-2.219,2.475-4.011,5.376-5.12,8.533c-0.939,2.645-1.451,5.547-1.451,8.533
	c0,2.987,0.512,5.888,1.451,8.533c1.109,3.157,2.901,6.059,5.12,8.533c-2.219,2.475-4.011,5.376-5.12,8.533
	c-0.939,2.645-1.451,5.547-1.451,8.533c0,2.987,0.512,5.888,1.451,8.533c1.109,3.157,2.901,6.059,5.12,8.533
	c-2.219,2.475-4.011,5.376-5.12,8.533c-0.939,2.645-1.451,5.547-1.451,8.533c0,2.987,0.512,5.888,1.451,8.533
	c1.109,3.157,2.901,6.059,5.12,8.533c-2.219,2.475-4.011,5.376-5.12,8.533c-0.939,2.645-1.451,5.547-1.451,8.533
	c0,2.987,0.512,5.888,1.451,8.533c1.109,3.157,2.901,6.059,5.12,8.533c-2.219,2.475-4.011,5.376-5.12,8.533
	c-0.939,2.645-1.451,5.547-1.451,8.533s0.512,5.888,1.451,8.533c1.109,3.157,2.901,6.059,5.12,8.533
	c-2.219,2.475-4.011,5.376-5.12,8.533c-0.939,2.645-1.451,5.547-1.451,8.533c0,2.987,0.512,5.888,1.451,8.533
	c1.109,3.157,2.901,6.059,5.12,8.533c-2.219,2.475-4.011,5.376-5.12,8.533c-0.939,2.645-1.451,5.547-1.451,8.533
	s0.512,5.888,1.451,8.533c1.109,3.157,2.901,6.059,5.12,8.533c-2.219,2.475-4.011,5.376-5.12,8.533
	c-0.939,2.645-1.451,5.547-1.451,8.533s0.512,5.888,1.451,8.533c1.109,3.157,2.901,6.059,5.12,8.533
	c-2.219,2.475-4.011,5.376-5.12,8.533c-0.939,2.645-1.451,5.547-1.451,8.533s0.512,5.888,1.536,8.533
	c3.499,9.899,12.971,17.067,24.064,17.067h25.6v129.195c0,2.56,0.427,5.035,1.195,7.339c2.389,7.339,8.363,13.141,15.872,15.616
	c2.645,0.939,5.547,1.451,8.533,1.451h17.067c14.08,0,25.6-10.923,25.6-24.405V358.4h25.6c14.08,0,25.6-11.52,25.6-25.6
	c0-6.571-2.475-12.544-6.571-17.067c4.096-4.523,6.571-10.496,6.571-17.067s-2.475-12.544-6.571-17.067
	c4.096-4.523,6.571-10.496,6.571-17.067c0-6.571-2.475-12.544-6.571-17.067c4.096-4.523,6.571-10.496,6.571-17.067
	c0-6.571-2.475-12.544-6.571-17.067c4.096-4.523,6.571-10.496,6.571-17.067c0-6.571-2.475-12.544-6.571-17.067
	c4.096-4.523,6.571-10.496,6.571-17.067c0-6.571-2.475-12.544-6.571-17.067c4.096-4.523,6.571-10.496,6.571-17.067
	c0-6.571-2.475-12.544-6.571-17.067c4.096-4.523,6.571-10.496,6.571-17.067s-2.475-12.544-6.571-17.067
	c4.096-4.523,6.571-10.496,6.571-17.067S338.859,47.189,334.763,42.667z M273.067,487.595c0,4.011-3.925,7.339-8.533,7.339h-17.067
	c-4.608,0-8.533-3.328-8.533-7.339V358.4h34.133V487.595z M315.733,341.333H196.267c-4.693,0-8.533-3.84-8.533-8.533
	s3.84-8.533,8.533-8.533h119.467c4.693,0,8.533,3.84,8.533,8.533S320.427,341.333,315.733,341.333z M315.733,307.2H196.267
	c-4.693,0-8.533-3.84-8.533-8.533s3.84-8.533,8.533-8.533h119.467c4.693,0,8.533,3.84,8.533,8.533S320.427,307.2,315.733,307.2z
	 M315.733,273.067H196.267c-4.693,0-8.533-3.84-8.533-8.533s3.84-8.533,8.533-8.533h119.467c4.693,0,8.533,3.84,8.533,8.533
	S320.427,273.067,315.733,273.067z M315.733,238.933H196.267c-4.693,0-8.533-3.84-8.533-8.533s3.84-8.533,8.533-8.533h119.467
	c4.693,0,8.533,3.84,8.533,8.533S320.427,238.933,315.733,238.933z M315.733,204.8H196.267c-4.693,0-8.533-3.84-8.533-8.533
	s3.84-8.533,8.533-8.533h119.467c4.693,0,8.533,3.84,8.533,8.533S320.427,204.8,315.733,204.8z M315.733,170.667H196.267
	c-4.693,0-8.533-3.84-8.533-8.533s3.84-8.533,8.533-8.533h119.467c4.693,0,8.533,3.84,8.533,8.533S320.427,170.667,315.733,170.667z
	 M315.733,136.533H196.267c-4.693,0-8.533-3.84-8.533-8.533c0-4.693,3.84-8.533,8.533-8.533h119.467c4.693,0,8.533,3.84,8.533,8.533
	C324.267,132.693,320.427,136.533,315.733,136.533z M315.733,102.4H196.267c-4.693,0-8.533-3.84-8.533-8.533
	c0-4.693,3.84-8.533,8.533-8.533h119.467c4.693,0,8.533,3.84,8.533,8.533C324.267,98.56,320.427,102.4,315.733,102.4z
	 M315.733,68.267H196.267c-4.693,0-8.533-3.84-8.533-8.533s3.84-8.533,8.533-8.533h119.467c4.693,0,8.533,3.84,8.533,8.533
	S320.427,68.267,315.733,68.267z M315.733,34.133H196.267c-4.693,0-8.533-3.84-8.533-8.533s3.84-8.533,8.533-8.533h119.467
	c4.693,0,8.533,3.84,8.533,8.533S320.427,34.133,315.733,34.133z"/>
<path style="fill:#8D6E63;" d="M273.067,358.4v129.195c0,4.011-3.925,7.339-8.533,7.339V358.4H273.067z"/>
<path style="fill:#C1AD9D;" d="M264.533,358.4v136.533h-17.067c-4.608,0-8.533-3.328-8.533-7.339V358.4H264.533z"/>
<path style="fill:#BDBDBD;" d="M324.267,332.8c0,4.693-3.84,8.533-8.533,8.533h-10.069c1.024-2.645,1.536-5.547,1.536-8.533
	s-0.512-5.888-1.451-8.533h9.984C320.427,324.267,324.267,328.107,324.267,332.8z"/>
<path style="fill:#F4F4F4;" d="M307.2,332.8c0,2.987-0.512,5.888-1.536,8.533H196.267c-4.693,0-8.533-3.84-8.533-8.533
	s3.84-8.533,8.533-8.533h109.483C306.688,326.912,307.2,329.813,307.2,332.8z"/>
<path style="fill:#388E3C;" d="M324.267,298.667c0,4.693-3.84,8.533-8.533,8.533h-9.984c0.939-2.645,1.451-5.547,1.451-8.533
	s-0.512-5.888-1.451-8.533h9.984C320.427,290.133,324.267,293.973,324.267,298.667z"/>
<path style="fill:#4CAF50;" d="M307.2,298.667c0,2.987-0.512,5.888-1.451,8.533H196.267c-4.693,0-8.533-3.84-8.533-8.533
	s3.84-8.533,8.533-8.533h109.483C306.688,292.779,307.2,295.68,307.2,298.667z"/>
<path style="fill:#BDBDBD;" d="M324.267,264.533c0,4.693-3.84,8.533-8.533,8.533h-9.984c0.939-2.645,1.451-5.547,1.451-8.533
	s-0.512-5.888-1.451-8.533h9.984C320.427,256,324.267,259.84,324.267,264.533z"/>
<path style="fill:#F4F4F4;" d="M307.2,264.533c0,2.987-0.512,5.888-1.451,8.533H196.267c-4.693,0-8.533-3.84-8.533-8.533
	s3.84-8.533,8.533-8.533h109.483C306.688,258.645,307.2,261.547,307.2,264.533z"/>
<path style="fill:#388E3C;" d="M324.267,230.4c0,4.693-3.84,8.533-8.533,8.533h-9.984c0.939-2.645,1.451-5.547,1.451-8.533
	c0-2.987-0.512-5.888-1.451-8.533h9.984C320.427,221.867,324.267,225.707,324.267,230.4z"/>
<path style="fill:#4CAF50;" d="M307.2,230.4c0,2.987-0.512,5.888-1.451,8.533H196.267c-4.693,0-8.533-3.84-8.533-8.533
	s3.84-8.533,8.533-8.533h109.483C306.688,224.512,307.2,227.413,307.2,230.4z"/>
<path style="fill:#BDBDBD;" d="M324.267,196.267c0,4.693-3.84,8.533-8.533,8.533h-9.984c0.939-2.645,1.451-5.547,1.451-8.533
	s-0.512-5.888-1.451-8.533h9.984C320.427,187.733,324.267,191.573,324.267,196.267z"/>
<path style="fill:#F4F4F4;" d="M307.2,196.267c0,2.987-0.512,5.888-1.451,8.533H196.267c-4.693,0-8.533-3.84-8.533-8.533
	s3.84-8.533,8.533-8.533h109.483C306.688,190.379,307.2,193.28,307.2,196.267z"/>
<path style="fill:#388E3C;" d="M324.267,162.133c0,4.693-3.84,8.533-8.533,8.533h-9.984c0.939-2.645,1.451-5.547,1.451-8.533
	c0-2.987-0.512-5.888-1.451-8.533h9.984C320.427,153.6,324.267,157.44,324.267,162.133z"/>
<path style="fill:#4CAF50;" d="M307.2,162.133c0,2.987-0.512,5.888-1.451,8.533H196.267c-4.693,0-8.533-3.84-8.533-8.533
	s3.84-8.533,8.533-8.533h109.483C306.688,156.245,307.2,159.147,307.2,162.133z"/>
<path style="fill:#BDBDBD;" d="M324.267,128c0,4.693-3.84,8.533-8.533,8.533h-9.984c0.939-2.645,1.451-5.547,1.451-8.533
	c0-2.987-0.512-5.888-1.451-8.533h9.984C320.427,119.467,324.267,123.307,324.267,128z"/>
<path style="fill:#F4F4F4;" d="M307.2,128c0,2.987-0.512,5.888-1.451,8.533H196.267c-4.693,0-8.533-3.84-8.533-8.533
	c0-4.693,3.84-8.533,8.533-8.533h109.483C306.688,122.112,307.2,125.013,307.2,128z"/>
<path style="fill:#388E3C;" d="M324.267,93.867c0,4.693-3.84,8.533-8.533,8.533h-9.984c0.939-2.645,1.451-5.547,1.451-8.533
	c0-2.987-0.512-5.888-1.451-8.533h9.984C320.427,85.333,324.267,89.173,324.267,93.867z"/>
<path style="fill:#4CAF50;" d="M307.2,93.867c0,2.987-0.512,5.888-1.451,8.533H196.267c-4.693,0-8.533-3.84-8.533-8.533
	c0-4.693,3.84-8.533,8.533-8.533h109.483C306.688,87.979,307.2,90.88,307.2,93.867z"/>
<path style="fill:#BDBDBD;" d="M324.267,59.733c0,4.693-3.84,8.533-8.533,8.533h-9.984c0.939-2.645,1.451-5.547,1.451-8.533
	c0-2.987-0.512-5.888-1.451-8.533h9.984C320.427,51.2,324.267,55.04,324.267,59.733z"/>
<path style="fill:#F4F4F4;" d="M307.2,59.733c0,2.987-0.512,5.888-1.451,8.533H196.267c-4.693,0-8.533-3.84-8.533-8.533
	s3.84-8.533,8.533-8.533h109.483C306.688,53.845,307.2,56.747,307.2,59.733z"/>
<path style="fill:#388E3C;" d="M324.267,25.6c0,4.693-3.84,8.533-8.533,8.533h-9.984c0.939-2.645,1.451-5.547,1.451-8.533
	s-0.512-5.888-1.536-8.533h10.069C320.427,17.067,324.267,20.907,324.267,25.6z"/>
<path style="fill:#4CAF50;" d="M307.2,25.6c0,2.987-0.512,5.888-1.451,8.533H196.267c-4.693,0-8.533-3.84-8.533-8.533
	s3.84-8.533,8.533-8.533h109.397C306.688,19.712,307.2,22.613,307.2,25.6z"/>
<g>
</g>
<g>
</g>
<g>
</g>
<g>
</g>
<g>
</g>
<g>
</g>
<g>
</g>
<g>
</g>
<g>
</g>
<g>
</g>
<g>
</g>
<g>
</g>
<g>
</g>
<g>
</g>
<g>
</g>
</svg>
