<?xml version="1.0" encoding="iso-8859-1"?>
<!-- Generator: Adobe Illustrator 19.0.0, SVG Export Plug-In . SVG Version: 6.00 Build 0)  -->
<svg version="1.1" id="Layer_1" xmlns="http://www.w3.org/2000/svg" xmlns:xlink="http://www.w3.org/1999/xlink" x="0px" y="0px"
	 viewBox="0 0 512 512" style="enable-background:new 0 0 512 512;" xml:space="preserve">
<path d="M351.596,145.579c-2.816-14.165-11.264-33.109-35.157-46.677c9.216-18.005,9.387-36.949,0.512-54.187
	c-8.107-15.531-22.016-27.392-37.035-34.901C267.542,3.499,254.401,0.171,243.308,0c-3.157,0.085-6.4,1.792-7.851,4.779
	s-1.024,6.571,1.109,9.131c4.693,5.803,8.192,11.179,10.411,16.128c0.171,0.341,0.256,0.683,0.427,0.939
	c2.56,5.973,3.243,11.264,2.133,15.787c-0.171,0.768-0.427,1.451-0.768,2.219c-1.792,4.779-5.547,9.045-10.667,12.885
	c-4.608,3.584-10.155,6.912-16.213,9.984c-7.851,4.011-16.555,7.68-24.747,11.179l-6.912,2.987
	c-16.043,6.485-20.651,16.213-21.333,24.064c-0.171,2.56,0,5.035,0.341,6.997c0.256,1.28,0.512,2.56,1.024,3.84
	c1.451,4.949,4.267,10.069,8.107,15.189c0.341,0.427,0.683,0.939,1.024,1.365c18.688,24.064,59.563,48.469,97.024,62.805
	c4.096,1.536,8.107,2.987,12.032,4.267c15.445,5.205,29.867,8.363,41.301,8.789h0.341c2.304,0,4.523-0.939,6.144-2.645
	c1.109-1.109,2.133-2.475,3.243-4.096c1.28-1.792,2.475-3.84,3.669-6.059C350.316,186.965,355.606,165.632,351.596,145.579z
	 M327.105,194.304c-0.341,0.597-0.683,1.195-1.024,1.707c-6.229-0.597-12.971-1.877-20.139-3.755
	c-5.547-1.451-11.264-3.328-17.067-5.376c-37.973-13.653-80.469-39.595-96.341-60.245c-3.584-4.523-5.803-8.704-6.485-12.459
	c-0.171-0.853-0.427-2.219,0.085-3.755c0.768-2.475,3.243-5.632,10.581-8.619c0.085-0.085,0.171-0.085,0.171-0.085l3.328-1.451
	l3.669-1.536c11.264-4.779,22.699-9.643,32.683-15.275c12.117-6.997,22.187-15.189,27.221-25.941
	c1.024-2.133,1.792-4.352,2.389-6.656c0.939-3.84,1.28-7.765,0.853-11.861c-0.427-5.888-2.304-12.032-5.632-18.432
	c2.816,0.939,5.547,2.048,8.277,3.413c12.288,5.632,23.979,14.763,30.72,26.283c0.512,0.768,0.939,1.536,1.365,2.304
	c6.827,13.227,6.229,26.965-1.877,41.045c-0.512,0.939-1.024,1.877-1.621,2.731c-0.256,0.427-0.597,0.853-0.853,1.28
	c-1.451,2.048-1.877,4.693-1.109,7.083c0.341,1.195,0.853,2.219,1.536,3.072c0.853,1.024,1.963,1.877,3.157,2.389
	c4.693,2.133,8.875,4.437,12.629,7.083c3.584,2.475,6.656,5.205,9.387,8.192c6.144,6.656,10.069,14.507,11.861,23.467
	C338.54,167.253,332.31,185.259,327.105,194.304z"/>
<g>
	<path style="fill:#BDBDBD;" d="M299.884,93.611c0.427-13.141-3.669-25.6-11.947-36.437c-5.717-7.424-12.971-13.483-20.907-18.176
		c-0.427-5.888-2.304-12.032-5.632-18.432c15.957,5.376,32.427,16.725,40.363,32C308.588,65.792,307.99,79.531,299.884,93.611z"/>
	<path style="fill:#BDBDBD;" d="M327.105,194.304c-0.341,0.597-0.683,1.195-1.024,1.707c-6.229-0.597-12.971-1.877-20.139-3.755
		c8.277-12.8,15.36-32.512,13.739-52.139c-0.597-6.741-2.133-14.677-6.059-22.869c3.584,2.475,6.656,5.205,9.387,8.192
		c6.144,6.656,10.069,14.507,11.861,23.467C338.54,167.253,332.31,185.259,327.105,194.304z"/>
</g>
<path style="fill:#F4F4F4;" d="M305.942,192.256c-5.547-1.451-11.264-3.328-17.067-5.376
	c-37.973-13.653-80.469-39.595-96.341-60.245c-3.584-4.523-5.803-8.704-6.485-12.459c-0.171-0.853-0.427-2.219,0.085-3.755
	c0.768-2.475,3.243-5.632,10.581-8.619c0.085-0.085,0.171-0.085,0.171-0.085l3.328-1.451l3.669-1.536
	c11.264-4.779,22.699-9.643,32.683-15.275c12.117-6.997,22.187-15.189,27.221-25.941c1.024-2.133,1.792-4.352,2.389-6.656
	c0.939-3.84,1.28-7.765,0.853-11.861c5.973,3.584,11.605,7.936,16.555,13.056c1.536,1.621,2.987,3.328,4.352,5.12
	c4.352,5.717,7.509,11.861,9.472,18.347c1.877,5.803,2.645,11.861,2.475,18.091c-0.512,0.939-1.024,1.877-1.621,2.731
	c-0.256,0.427-0.597,0.853-0.853,1.28c-1.451,2.048-1.877,4.693-1.109,7.083c0.341,1.195,0.853,2.219,1.536,3.072
	c0.853,1.024,1.963,1.877,3.157,2.389c4.693,2.133,8.875,4.437,12.629,7.083c3.925,8.192,5.461,16.128,6.059,22.869
	C321.302,159.744,314.22,179.456,305.942,192.256z"/>
<path d="M351.681,248.32c-0.171-0.427-0.427-0.853-0.683-1.195c-1.451-2.645-3.328-4.949-5.632-6.997
	c-7.424-6.656-18.091-9.728-24.832-9.728c-19.541-1.365-47.189-10.411-72.277-21.675c-4.523-2.048-8.96-4.181-13.312-6.4
	c-3.072-1.536-6.144-3.157-9.045-4.693c-2.048-1.195-4.011-2.304-5.973-3.413c-2.048-1.109-4.096-2.304-5.973-3.499
	c-1.28-0.768-2.475-1.451-3.584-2.304c-3.584-2.304-6.912-4.523-9.728-6.656c-1.195-0.939-2.304-1.792-3.243-2.645
	c-1.195-0.939-2.304-1.963-3.328-2.901c-1.024-0.939-1.877-1.877-2.731-2.731c-1.792-1.963-4.181-2.901-6.827-2.816
	c-2.56,0.171-4.949,1.451-6.485,3.584c-2.219,3.157-4.267,6.229-6.059,9.216c-30.379,50.773-2.219,86.016,5.547,94.208
	l65.024,195.072l11.179,33.451c1.109,3.413,4.437,5.803,8.107,5.803c3.669,0,6.912-2.389,8.107-5.803l9.045-27.307l9.045-26.965
	L344.769,281.6l1.451-4.437c3.499-4.608,5.547-8.789,6.656-12.629C354.753,257.792,353.558,252.331,351.681,248.32z
	 M261.825,476.501l-10.155-30.293L196.801,281.6h129.963L261.825,476.501z M334.273,264.533H188.524
	c-6.656-7.253-25.429-32.853-1.963-72.192c3.328,2.731,7.168,5.547,11.435,8.277c4.523,3.072,9.557,6.144,14.848,9.216
	c32,18.176,76.459,35.499,107.093,37.632c4.864,0,14.08,3.499,16.299,8.192C337.516,258.219,336.15,261.547,334.273,264.533z"/>
<path style="fill:#BDBDBD;" d="M202.262,264.533h-13.739c-6.656-7.253-25.429-32.853-1.963-72.192
	c3.328,2.731,7.168,5.547,11.435,8.277C187.329,228.864,194.412,251.051,202.262,264.533z"/>
<path style="fill:#F4F4F4;" d="M334.273,264.533H202.262c-7.851-13.483-14.933-35.669-4.267-63.915
	c4.523,3.072,9.557,6.144,14.848,9.216c32,18.176,76.459,35.499,107.093,37.632c4.864,0,14.08,3.499,16.299,8.192
	C337.516,258.219,336.15,261.547,334.273,264.533z"/>
<polygon style="fill:#F9A825;" points="326.764,281.6 261.825,476.501 251.67,446.208 308.502,281.6 "/>
<polygon style="fill:#FFC107;" points="308.502,281.6 251.67,446.208 196.801,281.6 "/>
<path style="fill:#F4F4F4;" d="M345.366,240.128c-7.424-6.656-18.091-9.728-24.832-9.728c-19.541-1.365-47.189-10.411-72.277-21.675
	c-25.003-11.349-47.531-24.917-56.917-35.243c-1.792-1.963-4.181-2.901-6.827-2.816c-2.56,0.171-4.949,1.451-6.485,3.584
	c-2.219,3.157-4.267,6.229-6.059,9.216c-3.413-3.157-5.632-7.765-5.632-12.8c0-16.128,5.547-29.611,13.056-33.195
	c28.672,36.864,109.056,74.411,150.357,75.861h0.341c2.304,0,4.523-0.939,6.144-2.645c1.109-1.109,2.133-2.475,3.243-4.096
	C342.55,211.2,344.854,224.171,345.366,240.128z"/>
<g>
	<path style="fill:#F9A825;" d="M262.542,367.71c-3.038,0-5.982-1.63-7.526-4.497l-27.93-51.977
		c-2.227-4.147-0.674-9.327,3.482-11.554c4.147-2.244,9.318-0.674,11.554,3.482l27.93,51.977c2.227,4.147,0.674,9.327-3.482,11.554
		C265.29,367.386,263.907,367.71,262.542,367.71z"/>
	<path style="fill:#F9A825;" d="M236.942,350.643c-2.782,0-5.513-1.357-7.151-3.866c-2.577-3.942-1.468-9.233,2.475-11.81
		l40.337-26.377c3.942-2.577,9.233-1.476,11.81,2.475c2.577,3.942,1.468,9.233-2.475,11.81l-40.337,26.377
		C240.159,350.191,238.538,350.643,236.942,350.643z"/>
</g>
<g>
</g>
<g>
</g>
<g>
</g>
<g>
</g>
<g>
</g>
<g>
</g>
<g>
</g>
<g>
</g>
<g>
</g>
<g>
</g>
<g>
</g>
<g>
</g>
<g>
</g>
<g>
</g>
<g>
</g>
</svg>
