<?xml version="1.0" encoding="iso-8859-1"?>
<!-- Generator: Adobe Illustrator 19.0.0, SVG Export Plug-In . SVG Version: 6.00 Build 0)  -->
<svg version="1.1" id="Layer_1" xmlns="http://www.w3.org/2000/svg" xmlns:xlink="http://www.w3.org/1999/xlink" x="0px" y="0px"
	 viewBox="0 0 511.996 511.996" style="enable-background:new 0 0 511.996 511.996;" xml:space="preserve">
<path d="M452.821,101.529c-4.864-48.642-32.001-86.104-70.829-97.881c-6.486-1.963-13.056-3.072-19.798-3.413
	c-0.939-0.085-1.963-0.171-2.901-0.171c-13.995-0.427-28.332,2.475-42.583,8.619c-0.171,0.085-0.427,0.171-0.597,0.341
	c-20.566,8.96-40.961,24.406-60.162,45.996c-2.816-3.243-5.718-6.315-8.704-9.216c-0.341-0.427-0.768-0.853-1.195-1.28
	c-3.755-3.669-7.424-7.168-11.179-10.326c-0.427-0.427-0.939-0.853-1.365-1.195c-23.126-19.542-47.276-30.636-70.744-32.598
	c-1.024-0.171-2.133-0.171-3.157-0.256c-10.155-0.597-20.054,0.597-29.782,3.499c-4.352,1.365-8.534,2.987-12.63,4.949
	c-0.085,0-0.085,0.085-0.171,0.085c-0.085,0-0.085,0-0.085,0C96.97,18.412,80.926,35.65,70.771,57.752c0,0,0,0.085-0.085,0.085
	c-6.059,12.971-10.07,27.734-11.606,43.607c-0.171,1.621-0.256,3.499-0.341,5.547c-1.621,26.796,2.56,86.958,58.455,148.741
	c3.669,3.925,7.424,7.936,11.52,11.947c19.542,19.201,44.375,38.401,75.864,56.578c2.816,1.707,5.718,3.328,8.704,4.95
	c-0.085,7.339-0.427,14.251-0.939,20.651c-0.427,6.059-1.024,11.776-1.792,17.067c-2.133,16.385-5.291,29.526-8.107,40.961
	c-0.171,0.597-0.256,1.195-0.427,1.792c-2.731,10.838-5.12,20.566-5.718,29.782v0.256c-0.085,1.365-0.085,2.645-0.085,4.011
	c0,14.507,3.925,27.82,10.752,38.913c0,0,0,0,0.085,0c0.256,0.512,0.512,0.939,0.853,1.451c4.95,7.766,11.35,14.251,18.689,19.03
	c0.085,0.085,0.256,0.171,0.341,0.171c8.534,5.547,18.518,8.704,29.014,8.704c2.645,0,5.291-0.171,7.851-0.597
	c8.619-1.28,16.641-4.693,23.723-9.728c16.897-12.118,28.161-33.537,28.161-57.943c0-11.008-2.731-22.017-5.888-34.817
	c-3.84-15.617-8.534-34.22-10.326-60.333c-0.512-5.974-0.768-12.374-0.853-19.286c46.508-25.601,79.277-53.335,102.318-80.643
	C454.87,184.817,455.126,123.973,452.821,101.529z M293.243,413.092c2.987,12.118,5.376,21.761,5.376,30.636
	c0,10.752-2.731,20.737-7.424,29.014c-4.608,7.851-10.923,14.166-18.347,18.006c-5.206,2.731-10.923,4.181-16.897,4.181
	c-1.28,0-2.475-0.085-3.669-0.256c-0.768,0-1.451-0.171-2.133-0.256c-6.998-1.024-13.398-4.181-18.774-8.96
	c-0.256-0.171-0.427-0.427-0.683-0.597c-10.582-9.216-17.409-24.235-17.409-41.132c0-8.534,2.304-18.006,5.291-29.953
	c3.072-12.288,6.742-27.393,9.131-46.85c0.683-5.291,1.195-11.008,1.621-17.067c0.427-5.376,0.683-11.094,0.853-17.067h51.543
	c0.085,2.219,0.085,4.352,0.256,6.486c0.256,6.827,0.683,13.142,1.28,19.03C285.563,381.688,289.829,399.182,293.243,413.092z
	 M428.415,165.958c-6.998,21.931-19.542,47.106-41.644,72.962c-22.102,25.857-53.762,52.311-98.905,76.803h-63.661
	c-5.206-2.816-10.155-5.632-15.019-8.534c-2.901-1.707-5.718-3.413-8.534-5.12c-3.072-1.963-6.144-3.925-9.046-5.888
	c-15.105-9.899-28.246-20.054-39.681-30.209c-4.864-4.267-9.302-8.534-13.568-12.8c-0.427-0.427-0.768-0.768-1.109-1.195
	c-4.096-4.181-7.936-8.278-11.52-12.459c-6.486-7.51-12.118-15.019-17.153-22.358c-1.451-2.219-2.816-4.352-4.181-6.571
	c-1.451-2.219-2.816-4.523-4.096-6.742c-1.365-2.304-2.56-4.523-3.669-6.742c-1.195-2.219-2.304-4.437-3.328-6.571
	c-1.024-2.048-1.963-4.096-2.816-6.144c-7.595-17.323-11.52-33.11-13.398-46.594c-0.256-1.621-0.427-3.243-0.683-4.779
	c-0.256-2.219-0.427-4.267-0.512-6.315c-0.171-2.389-0.341-4.693-0.341-6.912c-0.256-6.827,0.085-12.459,0.512-16.641
	c1.28-12.459,4.267-24.235,8.79-34.732c5.035-11.947,11.947-22.358,20.395-30.55c8.534-8.363,18.518-14.592,29.526-17.835
	c6.571-2.048,13.227-2.987,20.139-2.987c1.195,0,2.304,0,3.499,0.171c1.024,0,2.048,0,3.072,0.171
	c1.024,0.085,2.133,0.171,3.243,0.341c1.365,0.171,2.816,0.427,4.267,0.683c0.427,0.085,0.939,0.171,1.451,0.256
	c2.133,0.427,4.181,0.939,6.315,1.621c2.987,0.768,5.974,1.792,8.96,3.072c1.963,0.683,3.925,1.621,5.974,2.56
	c2.048,0.939,4.011,1.963,6.059,3.072c2.133,1.024,4.181,2.304,6.315,3.669c1.195,0.597,2.304,1.365,3.413,2.133
	c5.206,3.413,10.411,7.339,15.617,11.691c1.621,1.365,3.243,2.816,4.864,4.352c2.133,1.877,4.181,3.925,6.23,5.974
	c0.427,0.427,0.853,0.853,1.28,1.28c0,0.085,0,0.085,0,0.085c4.352,4.267,8.619,9.046,12.8,14.08
	c0.427,0.427,0.768,0.853,1.109,1.28c3.243,4.011,9.899,4.011,13.142,0c3.669-4.523,7.424-8.704,11.179-12.715
	c1.877-1.963,3.755-3.84,5.717-5.718c1.365-1.365,2.645-2.645,4.011-3.755c3.243-3.072,6.486-5.888,9.728-8.448
	c0.341-0.341,0.768-0.597,1.109-0.853c1.109-0.939,2.133-1.707,3.243-2.475c1.963-1.536,4.011-2.901,5.974-4.267
	c3.584-2.389,7.254-4.608,10.838-6.486c1.365-0.768,2.816-1.536,4.267-2.133c2.475-1.28,5.035-2.389,7.51-3.328
	c1.28-0.597,2.645-1.024,3.925-1.451c0.768-0.341,1.621-0.597,2.475-0.853c1.707-0.597,3.499-1.024,5.206-1.451
	c1.792-0.512,3.584-0.853,5.376-1.195c0.171-0.085,0.427-0.171,0.683-0.171c1.28-0.171,2.475-0.341,3.669-0.512
	c0.939-0.171,1.877-0.256,2.816-0.341c1.451-0.085,2.901-0.171,4.352-0.256h0.427c0.853,0,1.621-0.085,2.475,0
	c1.28,0,2.56,0,3.925,0.085c1.365,0.085,2.816,0.171,4.181,0.427c3.925,0.427,7.766,1.28,11.52,2.389
	c1.792,0.512,3.499,1.109,5.206,1.792c3.413,1.365,6.742,2.987,9.899,4.864c1.365,0.853,2.731,1.707,4.011,2.645
	c0.256,0.085,0.512,0.256,0.768,0.512l0.085,0.085c1.109,0.768,2.133,1.536,3.157,2.304c2.816,2.219,5.462,4.608,8.022,7.339
	c1.28,1.28,2.475,2.645,3.669,4.011c0.939,1.109,1.877,2.219,2.731,3.413c0.341,0.427,0.683,0.853,1.024,1.365
	c0.939,1.365,1.963,2.645,2.816,4.096c0.939,1.451,1.877,2.901,2.731,4.437c2.475,4.096,4.608,8.448,6.486,13.056
	c0.512,1.451,1.109,2.901,1.621,4.352c0.853,2.219,1.536,4.523,2.219,6.827c0.683,2.133,1.195,4.267,1.707,6.486
	c0.085,0.427,0.171,0.853,0.256,1.365c0.512,2.219,0.939,4.437,1.28,6.656c0.427,2.475,0.768,5.035,1.024,7.595
	C437.034,114.842,437.376,137.626,428.415,165.958z"/>
<path style="fill:#8D6E63;" d="M298.619,443.727c0,28.246-19.115,51.202-42.668,51.202c-1.963,0-3.925-0.171-5.803-0.512
	c18.006-11.776,30.124-33.878,30.124-59.223c0-11.008-2.731-22.017-5.888-34.817c-4.267-16.982-9.302-37.548-10.838-67.586h18.177
	c0.853,36.78,6.912,61.783,11.52,80.301C296.23,425.209,298.619,434.852,298.619,443.727z"/>
<path style="fill:#C1AD9D;" d="M280.272,435.194c0,25.345-12.118,47.447-30.124,59.223c-7.254-1.109-13.91-4.438-19.457-9.558
	c-10.582-9.216-17.409-24.235-17.409-41.132c0-8.534,2.304-18.006,5.291-29.953c4.608-18.689,10.752-43.863,11.606-80.984h33.366
	c1.536,30.038,6.571,50.604,10.838,67.586C277.541,413.177,280.272,424.185,280.272,435.194z"/>
<g>
	<path style="fill:#B71C1C;" d="M428.415,165.958c-6.998,21.931-19.542,47.106-41.644,72.962
		c-22.102,25.857-53.762,52.311-98.905,76.803H274.64c86.275-49.836,122.372-107.182,136.879-152.325
		c8.448-26.284,9.558-48.386,8.96-62.637c-0.085-2.901-0.341-5.547-0.512-7.766c-2.475-24.406-10.496-46.082-22.87-63.063
		c1.109,0.768,2.133,1.536,3.157,2.304c2.816,2.219,5.462,4.608,8.022,7.339c1.28,1.28,2.475,2.645,3.669,4.011
		c0.939,1.109,1.877,2.219,2.731,3.413c0.341,0.427,0.683,0.853,1.024,1.365c0.939,1.365,1.963,2.645,2.816,4.096
		c0.939,1.451,1.877,2.901,2.731,4.437c2.475,4.096,4.608,8.448,6.486,13.056c0.512,1.451,1.109,2.901,1.621,4.352
		c0.853,2.219,1.536,4.523,2.219,6.827c0.597,2.133,1.195,4.267,1.707,6.486c0.085,0.427,0.171,0.853,0.256,1.365
		c0.512,2.219,0.939,4.437,1.28,6.656c0.427,2.475,0.768,5.035,1.024,7.595C437.034,114.842,437.376,137.626,428.415,165.958z"/>
	<path style="fill:#B71C1C;" d="M420.479,100.761c-11.52-31.233-33.964-54.188-62.807-62.978
		c-6.486-1.963-13.056-3.072-19.798-3.413c-0.939-0.085-1.963-0.171-2.901-0.171c-13.398-0.427-27.052,2.219-40.705,7.851
		c1.109-0.939,2.133-1.707,3.243-2.475c1.963-1.536,4.011-2.901,5.974-4.267c3.584-2.389,7.254-4.608,10.838-6.486
		c1.365-0.768,2.816-1.536,4.267-2.133c2.475-1.28,5.035-2.389,7.51-3.328c1.28-0.597,2.645-1.024,3.925-1.451
		c0.768-0.341,1.621-0.597,2.475-0.853c1.707-0.597,3.499-1.024,5.206-1.451c1.792-0.512,3.584-0.853,5.376-1.195
		c0.171-0.085,0.427-0.171,0.683-0.171c1.28-0.171,2.475-0.341,3.669-0.512c0.939-0.171,1.877-0.256,2.816-0.341
		c1.451-0.085,2.901-0.171,4.352-0.256h0.427c0.853,0,1.621-0.085,2.475,0c1.28,0,2.56,0,3.925,0.085
		c1.365,0.085,2.816,0.171,4.181,0.427c3.925,0.427,7.766,1.28,11.52,2.389c1.792,0.512,3.499,1.109,5.206,1.792
		c3.413,1.365,6.742,2.987,9.899,4.864c1.365,0.853,2.731,1.707,4.011,2.645c0.256,0.085,0.512,0.256,0.768,0.512l0.085,0.085
		c12.374,16.982,20.395,38.657,22.87,63.063C420.138,95.214,420.394,97.86,420.479,100.761z"/>
</g>
<g>
	<path style="fill:#D50000;" d="M357.501,17.132c-0.853-0.085-1.621,0-2.475,0c0.768-0.085,1.536-0.085,2.304-0.085
		c1.365,0,2.731,0,4.096,0.171C360.061,17.132,358.781,17.132,357.501,17.132z"/>
	<path style="fill:#D50000;" d="M411.519,163.398c-14.507,45.143-50.604,102.489-136.879,152.325h-50.434
		c-5.206-2.816-10.155-5.632-15.019-8.534c-2.901-1.707-5.718-3.413-8.534-5.12c-3.072-1.963-6.144-3.925-9.046-5.888
		c-15.105-9.899-28.246-20.054-39.681-30.209c-4.864-4.267-9.302-8.534-13.568-12.8c-0.427-0.427-0.768-0.768-1.109-1.195
		c-4.096-4.181-7.936-8.278-11.52-12.459c-6.486-7.51-12.118-15.019-17.153-22.358c-1.451-2.219-2.816-4.352-4.181-6.571
		c-1.451-2.219-2.816-4.523-4.096-6.742c-1.28-2.304-2.56-4.523-3.669-6.742c-1.195-2.219-2.304-4.437-3.328-6.571
		c-1.024-2.048-1.963-4.096-2.816-6.144c-7.595-17.323-11.52-33.11-13.398-46.594c-0.256-1.621-0.427-3.243-0.683-4.779
		c-0.256-2.219-0.427-4.267-0.512-6.315c-0.171-2.389-0.341-4.693-0.341-6.912c-0.256-6.827,0.085-12.459,0.512-16.641
		c1.28-12.459,4.267-24.235,8.79-34.732c5.035-11.947,11.947-22.358,20.395-30.55c8.534-8.363,18.518-14.592,29.526-17.835
		c6.571-2.048,13.227-2.987,20.139-2.987c1.195,0,2.304,0,3.499,0.171c1.024,0,2.048,0,3.072,0.171
		c1.024,0.085,2.133,0.171,3.243,0.341c1.365,0.171,2.816,0.427,4.267,0.683c0.427,0.085,0.939,0.171,1.451,0.256
		c2.133,0.427,4.181,0.939,6.315,1.621c2.987,0.768,5.974,1.792,8.96,3.072c1.963,0.683,3.925,1.621,5.974,2.56
		c2.048,0.939,4.011,1.963,6.059,3.072c2.133,1.024,4.181,2.304,6.315,3.669c1.195,0.597,2.304,1.365,3.413,2.133
		c5.206,3.413,10.411,7.339,15.617,11.691c1.621,1.365,3.243,2.816,4.864,4.352c2.133,1.877,4.181,3.925,6.23,5.974
		c0.427,0.427,0.853,0.853,1.28,1.28c0,0.085,0,0.085,0,0.085c4.352,4.267,8.619,9.046,12.8,14.08
		c0.427,0.427,0.768,0.853,1.109,1.28c3.243,4.011,9.899,4.011,13.142,0c3.669-4.523,7.424-8.704,11.179-12.715
		c1.877-1.963,3.755-3.84,5.717-5.718c1.365-1.365,2.645-2.645,4.011-3.755c3.243-3.072,6.486-5.888,9.728-8.448
		c0.341-0.341,0.768-0.597,1.109-0.853c13.654-5.632,27.308-8.278,40.705-7.851c0.939,0,1.963,0.085,2.901,0.171
		c6.742,0.341,13.312,1.451,19.798,3.413c28.844,8.79,51.287,31.745,62.807,62.978C421.076,115.012,419.967,137.114,411.519,163.398
		z"/>
</g>
<path style="fill:#B71C1C;" d="M213.291,255.988c-0.435,0-0.87-0.034-1.314-0.102c-2.714-0.418-66.801-11.281-100.535-99.246
	c-1.69-4.403,0.512-9.336,4.915-11.025c4.378-1.69,9.327,0.503,11.025,4.915c30.004,78.253,84.927,88.118,87.248,88.502
	c4.634,0.759,7.808,5.129,7.066,9.771C221.023,252.984,217.413,255.988,213.291,255.988z"/>
<g>
</g>
<g>
</g>
<g>
</g>
<g>
</g>
<g>
</g>
<g>
</g>
<g>
</g>
<g>
</g>
<g>
</g>
<g>
</g>
<g>
</g>
<g>
</g>
<g>
</g>
<g>
</g>
<g>
</g>
</svg>
