<?xml version="1.0" encoding="iso-8859-1"?>
<!-- Generator: Adobe Illustrator 19.0.0, SVG Export Plug-In . SVG Version: 6.00 Build 0)  -->
<svg version="1.1" id="Layer_1" xmlns="http://www.w3.org/2000/svg" xmlns:xlink="http://www.w3.org/1999/xlink" x="0px" y="0px"
	 viewBox="0 0 512 512" style="enable-background:new 0 0 512 512;" xml:space="preserve">
<path d="M315.743,59.658c-4.097,0-7.511,2.902-8.364,6.742c-0.085,0.597-0.171,1.195-0.171,1.792c0,2.56-1.195,4.95-3.243,6.657
	c-1.024,0.853-2.816,1.878-5.292,1.878c-2.816,0-5.462-1.451-7.084-3.755l-0.512-0.939c-0.256-0.427-0.597-0.853-0.939-1.195
	c-0.171-0.171-0.341-0.341-0.512-0.512c-2.39-2.219-6.145-2.902-9.132-1.707c-1.536,0.512-2.987,1.536-3.841,3.073
	c-2.816,2.816-6.572,4.609-10.583,4.95c-0.512,0.085-1.024,0.085-1.536,0.085c-4.694,0-8.791-2.56-13.314-6.316
	c-0.853-0.768-1.622-1.792-2.219-3.073c-1.024-2.048-1.536-4.779-1.536-7.681c0-3.158,0.853-6.145,2.475-8.705
	c0.853-1.451,1.963-2.816,3.329-4.011c2.134-1.792,3.243-4.523,2.987-7.255c-0.256-2.816-1.878-5.292-4.267-6.657
	c-2.475-1.366-4.011-3.67-4.353-6.316c-0.085-0.256-0.171-0.512-0.085-0.853c-0.085-0.085-0.085-0.256-0.085-0.341
	c0-3.243,1.878-6.23,5.292-7.852c3.755-2.134,5.633-6.486,4.609-10.668C256.256,2.902,252.501,0,248.063,0
	c-0.939,0-1.878,0-2.731,0.085c-0.171-0.085-0.341-0.085-0.512,0c-10.668,0.171-19.289,0.768-26.372,1.536
	c-30.725,3.414-30.725,10.924-30.725,15.363v358.46c0,11.607,14.509,15.107,25.604,16.387v26.287c0,7.511,3.329,14.253,8.535,18.947
	v50.526c0,13.485,11.522,24.409,25.604,24.409h17.07c14.082,0,25.604-10.924,25.604-24.409v-18.264c9.388,0,17.07-7.681,17.07-17.07
	v-63.669c9.132-1.878,17.07-5.206,17.07-13.144V68.193C324.278,63.499,320.437,59.658,315.743,59.658z M204.791,21.337
	c1.963-0.597,4.865-1.195,8.876-1.792c2.646-0.427,5.718-0.768,9.218-1.11c2.646-0.256,5.548-0.512,8.705-0.683
	c-0.768,2.475-1.195,5.121-1.195,7.767c0,2.902,0.512,5.889,1.536,8.62c0.256,0.597,0.512,1.195,0.768,1.792
	c0.768,1.878,1.878,3.67,3.158,5.292c-1.11,1.707-2.048,3.585-2.816,5.462c-1.707,4.011-2.646,8.449-2.646,12.973
	c0,1.536,0.085,3.073,0.256,4.523c0.597,4.694,2.048,8.876,4.182,12.546h-30.042V21.337z M273.069,487.591
	c0,4.011-3.926,7.34-8.535,7.34h-17.07c-4.609,0-8.535-3.329-8.535-7.34v-43.869H256v8.535c0,9.388,7.681,17.07,17.07,17.07V487.591
	z M307.209,371.006c-1.878,0.597-4.95,1.28-9.815,1.963c-4.182,0.597-7.255,4.267-7.255,8.449v62.304
	c0,4.694-3.841,8.535-8.535,8.535s-8.535-3.841-8.535-8.535c0-4.694-1.878-8.961-5.035-12.034c-3.073-3.158-7.34-5.035-12.034-5.035
	h-17.07c-4.694,0-8.535-3.841-8.535-8.535v-34.139c0-4.523-3.585-8.193-8.023-8.535c-10.583-0.683-15.448-2.048-17.582-2.816
	v-48.392h102.417V371.006z M307.209,307.166H204.791v-59.743h102.417V307.166z M307.209,230.353H204.791V170.61h102.417V230.353z
	 M307.209,153.54H204.791V93.797h102.417V153.54z"/>
<path style="fill:#C1AD9D;" d="M273.069,469.326v18.264c0,4.011-3.926,7.34-8.535,7.34h-17.07c-4.609,0-8.535-3.329-8.535-7.34
	v-43.869H256v8.535C256,461.645,263.681,469.326,273.069,469.326z"/>
<path style="fill:#311B92;" d="M307.209,324.235v46.77c-1.878,0.597-4.95,1.28-9.815,1.963c-4.182,0.597-7.255,4.267-7.255,8.449
	v-57.183L307.209,324.235L307.209,324.235z"/>
<path style="fill:#5E35B1;" d="M290.139,324.235v119.487c0,4.694-3.841,8.535-8.535,8.535s-8.535-3.841-8.535-8.535
	c0-4.694-1.878-8.961-5.035-12.034c-3.073-3.158-7.34-5.035-12.034-5.035h-17.07c-4.694,0-8.535-3.841-8.535-8.535v-34.139
	c0-4.523-3.585-8.193-8.023-8.535c-10.583-0.683-15.448-2.048-17.582-2.816v-48.392L290.139,324.235L290.139,324.235z"/>
<rect x="290.139" y="247.423" style="fill:#388E3C;" width="17.07" height="59.743"/>
<rect x="204.791" y="247.423" style="fill:#4CAF50;" width="85.348" height="59.743"/>
<rect x="290.139" y="170.61" style="fill:#F9A825;" width="17.07" height="59.743"/>
<rect x="204.791" y="170.61" style="fill:#FFC107;" width="85.348" height="59.743"/>
<rect x="290.139" y="93.797" style="fill:#BDBDBD;" width="17.07" height="59.743"/>
<rect x="204.791" y="93.797" style="fill:#F4F4F4;" width="85.348" height="59.743"/>
<path style="fill:#D50000;" d="M221.861,59.658c0,6.23,1.451,12.034,4.011,17.07h-21.081V21.337
	c1.963-0.597,4.865-1.195,8.876-1.792c2.646-0.427,5.718-0.768,9.218-1.11c-0.683,2.219-1.024,4.609-1.024,7.084
	c0,5.718,1.878,10.924,5.036,15.192C223.739,46.088,221.861,52.659,221.861,59.658z"/>
<path style="fill:#F4F4F4;" d="M230.652,64.181c0.597,4.694,2.048,8.876,4.182,12.546h-8.962c-2.56-5.036-4.011-10.839-4.011-17.07
	c0-6.998,1.878-13.57,5.036-18.947c-3.158-4.267-5.036-9.474-5.036-15.192c0-2.475,0.341-4.865,1.024-7.084
	c2.646-0.256,5.548-0.512,8.705-0.683c-0.768,2.475-1.195,5.121-1.195,7.767c0,2.902,0.512,5.889,1.536,8.62
	c0.256,0.597,0.512,1.195,0.768,1.792c0.768,1.878,1.878,3.67,3.158,5.292c-1.11,1.707-2.048,3.585-2.816,5.462
	c-1.707,4.011-2.646,8.449-2.646,12.973C230.396,61.194,230.481,62.73,230.652,64.181z"/>
<path style="fill:#311B92;" d="M247.465,418.118c-4.72,0-8.535-3.824-8.535-8.535v-42.674c0-4.711,3.815-8.535,8.535-8.535
	c4.72,0,8.535,3.824,8.535,8.535v42.674C256,414.294,252.185,418.118,247.465,418.118z"/>
<g>
</g>
<g>
</g>
<g>
</g>
<g>
</g>
<g>
</g>
<g>
</g>
<g>
</g>
<g>
</g>
<g>
</g>
<g>
</g>
<g>
</g>
<g>
</g>
<g>
</g>
<g>
</g>
<g>
</g>
</svg>
