<?xml version="1.0" encoding="iso-8859-1"?>
<!-- Generator: Adobe Illustrator 19.0.0, SVG Export Plug-In . SVG Version: 6.00 Build 0)  -->
<svg version="1.1" id="Layer_1" xmlns="http://www.w3.org/2000/svg" xmlns:xlink="http://www.w3.org/1999/xlink" x="0px" y="0px"
	 viewBox="0 0 512 512" style="enable-background:new 0 0 512 512;" xml:space="preserve">
<path style="fill:#B71C1C;" d="M367.019,274.859c-0.683,0.341-1.365,0.683-1.963,1.109c-1.195,0.768-2.304,1.621-3.072,2.389
	c-2.304,2.304-3.84,5.12-4.779,8.363c-0.256,0.597-0.427,1.195-0.597,1.792c-0.171,0.683-0.341,1.451-0.512,2.133
	c-0.171,0.939-0.341,1.877-0.427,2.901c-0.171,1.024-0.341,2.133-0.341,3.243c-0.256,2.389-0.341,4.864-0.256,7.339l-8.875-26.453
	l-28.075-84.224l-2.389-7.168V179.2c0-3.413-2.048-6.4-4.949-7.68l-30.891-92.757l-7.168-21.504
	c-4.181-14.763-15.701-29.525-31.829-36.352c1.963-1.109,4.096-1.963,6.315-2.56c0.597-0.256,1.195-0.341,1.792-0.427
	c0.512-0.171,1.024-0.341,1.536-0.341c0.597-0.171,1.195-0.256,1.877-0.256c1.109-0.171,2.389-0.256,3.584-0.256
	c0.939,0,1.877,0,2.816,0.171c0.427,0,0.853,0.085,1.28,0.171c0.171-0.085,0.427,0,0.597,0.085c1.536,0.171,3.072,0.512,4.608,1.024
	c0.939,0.256,1.963,0.597,2.816,1.024c0.939,0.341,1.877,0.768,2.816,1.28c1.365,0.768,2.731,1.536,4.011,2.56
	c0.512,0.341,0.939,0.683,1.365,1.024c0.512,0.256,0.939,0.597,1.365,1.109c0.427,0.256,0.853,0.597,1.195,1.024
	c0.085,0,0.171,0.085,0.171,0.085l1.365,1.365c0.939,0.939,1.792,1.877,2.56,2.901c1.365,1.621,2.56,3.328,3.584,5.12
	c0.768,1.28,1.451,2.645,2.048,3.925c0.768,1.621,1.365,3.328,1.877,5.035c0,0.171,0.085,0.256,0.085,0.427L367.019,274.859z"/>
<path style="fill:#D50000;" d="M318.123,193.451l-2.389-7.168V204.8c0,4.693-3.84,8.533-8.533,8.533c-0.171,0-0.341,0-0.512-0.085
	c-4.437-0.171-8.021-3.925-8.021-8.448v-25.6c0-4.693,3.84-8.533,8.533-8.533c1.28,0,2.475,0.256,3.584,0.853l-30.891-92.757
	l-7.168-21.504c-4.181-14.763-15.701-29.525-31.829-36.352c0,0,0,0-0.085,0c-5.205,2.731-9.557,6.912-12.971,11.605
	c-0.512,0.683-0.939,1.365-1.28,2.048c0,0,0,0-0.085,0c-1.109,1.707-2.133,3.584-3.072,5.547c-0.341,0.853-0.683,1.621-1.024,2.475
	c-0.341,0.939-0.683,1.792-0.939,2.645l-73.813,221.611c3.584,1.621,6.229,3.84,7.851,5.888c8.875,10.923,5.035,28.672,3.328,36.181
	l-0.341,1.536c-0.256,1.28-0.341,2.475-0.171,3.499c0,0.683,0.085,1.28,0.256,1.792c0.085,0.427,0.171,0.768,0.341,1.195
	c0.341,0.939,0.768,1.792,1.451,2.56c0.512,0.683,1.195,1.28,1.877,1.792c0.427,0.256,0.768,0.597,1.28,0.853
	c1.451,0.853,2.987,1.451,4.437,1.792c0.341,0.085,0.683,0.171,0.939,0.171c0.597,0.085,1.28,0.171,1.792,0.171
	c0.256,0,0.512,0,0.768-0.085c0.171,0.085,0.427,0,0.597,0c0.512,0,1.024-0.085,1.451-0.256c0.597-0.085,1.024-0.256,1.536-0.427
	c1.28-0.597,2.389-1.365,3.413-2.56c1.024-1.109,2.048-2.56,3.072-4.352h0.085c0.085-0.085,0.085-0.171,0.171-0.341
	c1.109-1.877,2.304-4.181,3.584-6.827c0.683-1.451,1.451-2.987,2.304-4.608c0.427-0.768,0.853-1.536,1.28-2.304
	c0.597-1.195,1.365-2.475,2.133-3.669h0.085c0.171-0.341,0.427-0.683,0.683-1.109c2.731-4.096,6.144-7.936,10.667-10.837
	c1.536-1.024,3.157-1.877,4.864-2.56c1.877-0.768,3.84-1.451,6.059-1.877c0.512-0.085,1.024-0.256,1.536-0.341
	c0.768-0.085,1.621-0.171,2.475-0.256c1.451-0.171,2.901-0.256,4.437-0.256c17.408,0,25.6,15.957,32.768,29.952
	c1.024,1.963,1.963,3.84,2.901,5.547c1.365,2.56,2.645,4.864,3.925,6.827c1.365,2.048,2.731,3.84,4.096,5.205
	c1.195,1.28,2.475,2.219,3.755,2.816c0.597,0.256,1.195,0.512,1.792,0.597c0.597,0.171,1.28,0.256,1.963,0.256
	c3.584,0,6.144-0.597,8.277-1.621c0.597-0.341,1.195-0.683,1.707-1.024c1.877-1.28,3.413-3.072,5.035-5.291
	c0.512-0.683,1.024-1.451,1.621-2.219c4.779-6.485,11.264-15.445,26.027-15.445c2.219,0,4.352,0.171,6.229,0.512
	c0.939,0.171,1.792,0.341,2.645,0.512c0.853,0.171,1.707,0.427,2.475,0.683c0.683,0.256,1.365,0.427,1.963,0.768
	c3.84,1.536,6.741,3.669,9.131,6.059c0.085,0.085,0.085,0.171,0.171,0.171c0.939,1.024,1.792,2.048,2.475,3.072
	c0.853,1.109,1.536,2.133,2.219,3.243c1.109,1.792,2.048,3.499,2.816,5.035c0.939,1.792,2.731,5.12,3.584,5.461
	c2.389,0.085,2.816-0.427,2.987-0.597c2.816-2.816,2.645-14.08,2.56-21.589c0-2.133,0-4.181,0.085-6.315v-0.085l-8.875-26.453
	L318.123,193.451z M204.8,247.467c0,4.693-3.84,8.533-8.533,8.533s-8.533-3.84-8.533-8.533v-25.6c0-4.693,3.84-8.533,8.533-8.533
	s8.533,3.84,8.533,8.533V247.467z M230.4,162.133c0,4.693-3.84,8.533-8.533,8.533c-4.693,0-8.533-3.84-8.533-8.533v-25.6
	c0-4.693,3.84-8.533,8.533-8.533c4.693,0,8.533,3.84,8.533,8.533V162.133z M256,230.4c0,4.693-3.84,8.533-8.533,8.533
	s-8.533-3.84-8.533-8.533v-25.6c0-4.693,3.84-8.533,8.533-8.533S256,200.107,256,204.8V230.4z M256,85.333
	c0,4.693-3.84,8.533-8.533,8.533s-8.533-3.84-8.533-8.533v-25.6c0-4.693,3.84-8.533,8.533-8.533c1.707,0,3.243,0.512,4.608,1.365
	c2.389,1.536,3.925,4.181,3.925,7.168V85.333z M264.533,145.067v-25.6c0-4.523,3.584-8.277,8.021-8.448
	c0.171-0.085,0.341-0.085,0.512-0.085c4.693,0,8.533,3.84,8.533,8.533v25.6c0,4.693-3.84,8.533-8.533,8.533
	S264.533,149.76,264.533,145.067z M307.2,273.067c0,4.693-3.84,8.533-8.533,8.533s-8.533-3.84-8.533-8.533v-25.6
	c0-4.693,3.84-8.533,8.533-8.533s8.533,3.84,8.533,8.533V273.067z"/>
<g>
	<path style="fill:#555656;" d="M238.933,145.067v25.6c0,4.693-3.84,8.533-8.533,8.533s-8.533-3.84-8.533-8.533v-25.6
		c0-4.693,3.84-8.533,8.533-8.533S238.933,140.373,238.933,145.067z"/>
	<path style="fill:#555656;" d="M290.133,128v25.6c0,4.693-3.84,8.533-8.533,8.533s-8.533-3.84-8.533-8.533V128
		c0-4.693,3.84-8.533,8.533-8.533S290.133,123.307,290.133,128z"/>
	<path style="fill:#555656;" d="M213.333,230.4V256c0,4.693-3.84,8.533-8.533,8.533c-4.693,0-8.533-3.84-8.533-8.533v-25.6
		c0-4.693,3.84-8.533,8.533-8.533C209.493,221.867,213.333,225.707,213.333,230.4z"/>
	<path style="fill:#555656;" d="M264.533,213.333v25.6c0,4.693-3.84,8.533-8.533,8.533c-4.693,0-8.533-3.84-8.533-8.533v-25.6
		c0-4.693,3.84-8.533,8.533-8.533C260.693,204.8,264.533,208.64,264.533,213.333z"/>
	<path style="fill:#555656;" d="M315.733,256v25.6c0,4.693-3.84,8.533-8.533,8.533s-8.533-3.84-8.533-8.533V256
		c0-4.693,3.84-8.533,8.533-8.533S315.733,251.307,315.733,256z"/>
	<path style="fill:#555656;" d="M324.267,187.733v25.6c0,4.693-3.84,8.533-8.533,8.533s-8.533-3.84-8.533-8.533v-25.6
		c0-4.693,3.84-8.533,8.533-8.533S324.267,183.04,324.267,187.733z"/>
	<path style="fill:#555656;" d="M264.533,68.267v25.6c0,4.693-3.84,8.533-8.533,8.533c-4.693,0-8.533-3.84-8.533-8.533v-25.6
		c0-4.693,3.84-8.533,8.533-8.533C260.693,59.733,264.533,63.573,264.533,68.267z"/>
</g>
<path d="M281.6,341.333c-5.803,0-7.851,2.389-12.032,8.277c1.109,0.171,2.304,0.256,3.499,0.256c3.669,0,6.827-0.427,9.643-1.109
	c3.584-0.939,6.571-2.304,9.131-3.925C289.621,342.528,286.72,341.333,281.6,341.333z M181.504,316.587h0.085
	c0.085-0.085,0.085-0.171,0.171-0.341C181.589,316.416,181.589,316.501,181.504,316.587z M417.707,372.736l-37.376-112.128
	l-28.075-84.224L314.027,61.696l-7.168-21.504C301.141,20.139,281.941,0,256,0c-14.507,0-27.904,6.485-37.632,17.237
	c-5.12,5.461-9.131,11.947-11.947,19.285c-0.256,0.597-0.512,1.28-0.683,1.963c-0.171,0.427-0.341,0.939-0.512,1.451l-7.339,21.931
	l-38.059,114.347l-4.693,14.08l-33.365,100.011l-1.621,4.779l-11.435,34.304l-1.536,4.608l-12.885,38.741
	c-0.341,0.939-0.427,1.963-0.427,2.987c0.085,1.621,0.597,3.328,1.621,4.693c1.024,1.451,2.389,2.475,3.925,2.987
	c0.939,0.427,1.963,0.597,2.987,0.597h119.467v102.4c0,2.56,0.341,5.035,1.109,7.424c1.536,4.949,4.523,9.387,8.533,12.544
	c1.536,1.28,3.157,2.304,4.949,3.072c1.109,0.597,2.304,1.109,3.584,1.451c2.389,0.683,4.864,1.109,7.424,1.109h17.067
	c2.56,0,5.035-0.427,7.424-1.195c3.157-0.853,6.059-2.475,8.533-4.437c1.109-0.939,2.219-1.877,3.157-2.987
	c4.011-4.523,6.485-10.411,6.485-16.981V384H409.6c1.024,0,2.133-0.171,3.072-0.683c1.536-0.512,2.816-1.536,3.84-2.901
	c1.024-1.365,1.536-3.072,1.621-4.693C418.133,374.699,418.048,373.675,417.707,372.736z M221.44,45.227
	c0.256-0.853,0.597-1.707,0.939-2.645c0.256-0.683,0.512-1.365,0.853-2.133c0.085-0.085,0.085-0.171,0.171-0.341
	c0.939-1.963,1.963-3.84,3.072-5.547c0.427-0.683,0.853-1.365,1.365-2.048c3.413-4.693,7.765-8.875,12.971-11.605
	c0.085,0,0.085,0,0.085,0c1.963-1.109,4.096-1.963,6.315-2.56c0.512-0.256,1.109-0.341,1.792-0.427
	c0.512-0.171,1.024-0.341,1.536-0.341c0.597-0.171,1.28-0.256,1.877-0.256c1.109-0.171,2.389-0.256,3.584-0.256
	c0.939,0,1.877,0,2.816,0.171c0.427,0,0.853,0.085,1.28,0.171c0.171-0.085,0.427,0,0.597,0.085c1.536,0.171,3.157,0.512,4.608,1.024
	c0.939,0.256,1.877,0.597,2.816,1.024c1.024,0.341,1.877,0.768,2.816,1.28c1.365,0.768,2.731,1.536,4.011,2.56
	c0.512,0.341,0.939,0.683,1.365,1.024c0.512,0.256,0.939,0.597,1.365,1.109c0.427,0.256,0.853,0.597,1.195,1.024
	c0.085,0,0.171,0.085,0.171,0.085c0.512,0.341,1.024,0.939,1.365,1.365c0.939,0.939,1.792,1.877,2.56,2.901
	c1.365,1.621,2.56,3.328,3.584,5.12c0.768,1.28,1.451,2.645,2.048,3.925c0.768,1.621,1.365,3.328,1.877,5.035
	c0,0.171,0.085,0.256,0.085,0.427l76.459,229.461c-0.683,0.341-1.365,0.683-1.963,1.109c-1.195,0.768-2.304,1.621-3.072,2.389
	c-2.304,2.304-3.84,5.12-4.779,8.363c-0.256,0.597-0.427,1.195-0.597,1.792c-0.171,0.683-0.341,1.365-0.512,2.133
	c-0.171,0.939-0.341,1.877-0.427,2.901c-0.171,1.109-0.256,2.133-0.341,3.243c-0.171,2.389-0.256,4.864-0.256,7.339v0.085
	c-0.085,2.133-0.085,4.181-0.085,6.315c0.085,7.509,0.256,18.773-2.56,21.589c-0.171,0.171-0.597,0.683-2.987,0.597
	c-0.853-0.341-2.645-3.669-3.584-5.461c-0.768-1.536-1.707-3.243-2.816-5.035c-0.683-1.024-1.365-2.133-2.219-3.243
	c-0.683-1.024-1.536-2.048-2.475-3.072c-0.085,0-0.085-0.085-0.171-0.171c-2.389-2.389-5.291-4.523-9.131-6.059
	c-0.597-0.256-1.28-0.512-1.963-0.768c-0.768-0.256-1.621-0.512-2.475-0.683c-0.853-0.171-1.707-0.341-2.645-0.512
	c-1.877-0.341-4.011-0.512-6.229-0.512c-14.763,0-21.248,8.96-26.027,15.445c-0.597,0.768-1.109,1.536-1.621,2.219
	c-1.621,2.219-3.157,4.011-5.035,5.291c-0.512,0.341-1.109,0.683-1.707,1.024c-2.133,1.024-4.693,1.621-8.277,1.621
	c-0.683,0-1.365-0.085-1.963-0.256c-0.597-0.085-1.195-0.341-1.792-0.597c-1.28-0.597-2.56-1.536-3.755-2.816
	c-1.365-1.365-2.731-3.157-4.096-5.205c-1.195-2.048-2.56-4.352-3.925-6.827c-0.939-1.707-1.877-3.584-2.901-5.547
	c-7.168-13.995-15.36-29.952-32.768-29.952c-1.536,0-2.987,0.085-4.437,0.256c-0.853,0.085-1.707,0.171-2.475,0.256
	c-0.512,0.085-1.024,0.171-1.536,0.341c-2.219,0.427-4.181,1.109-6.059,1.877c-1.707,0.683-3.328,1.536-4.864,2.56
	c-4.523,2.901-7.936,6.741-10.667,10.837c-0.256,0.341-0.512,0.768-0.768,1.109c-0.768,1.195-1.536,2.475-2.133,3.669
	c-0.427,0.768-0.853,1.536-1.28,2.304c-0.853,1.621-1.621,3.157-2.304,4.608c-1.28,2.645-2.475,4.949-3.584,6.827
	c-0.171,0.171-0.171,0.256-0.256,0.341c-1.024,1.792-2.048,3.243-3.072,4.352c-1.109,1.195-2.133,1.963-3.413,2.56
	c-0.512,0.171-0.939,0.341-1.536,0.427c-0.427,0.085-0.853,0.171-1.365,0.171c-0.256,0.085-0.427,0.171-0.683,0.085
	c-0.256,0.085-0.512,0.085-0.768,0.085c-0.512,0-1.195-0.085-1.792-0.171c-0.256,0-0.597-0.085-0.939-0.171
	c-1.451-0.341-2.987-0.939-4.437-1.792c-0.512-0.256-0.853-0.597-1.28-0.853c-0.683-0.512-1.365-1.109-1.877-1.792
	c-0.683-0.768-1.109-1.621-1.451-2.56c-0.171-0.427-0.256-0.768-0.341-1.195c-0.171-0.512-0.256-1.109-0.256-1.792
	c-0.171-1.024-0.085-2.219,0.171-3.499l0.341-1.536c1.707-7.509,5.547-25.259-3.328-36.181c-1.621-2.048-4.267-4.267-7.851-5.888
	L221.44,45.227z M273.067,486.4c0,0.853-0.171,1.792-0.427,2.56c-0.171,0.597-0.341,1.109-0.683,1.536
	c-0.341,0.683-0.768,1.28-1.28,1.792c-0.427,0.427-0.853,0.853-1.365,1.195c-0.512,0.341-1.024,0.597-1.536,0.768
	c-0.427,0.256-0.939,0.427-1.536,0.512c-0.512,0.085-1.109,0.171-1.707,0.171h-17.067c-0.597,0-1.195-0.085-1.707-0.171
	c-0.597-0.085-1.109-0.256-1.536-0.512c-0.512-0.171-1.024-0.427-1.536-0.768s-0.939-0.768-1.365-1.195
	c-0.512-0.512-0.939-1.109-1.28-1.792c-0.768-1.195-1.109-2.645-1.109-4.096V384h34.133V486.4z M114.261,366.933l2.816-8.448
	l0.512-1.621l1.365-4.011l6.059-18.261l2.56-7.595l3.243-9.813l2.987-9.045l1.792-5.461l6.485-19.371
	c0.085,0,0.085,0.085,0.171,0.085c2.389,3.072,2.389,10.411-0.085,21.931l-0.427,1.792c0,0.085,0,0.171-0.085,0.256
	c-2.048,10.923,1.792,18.517,5.461,22.955c0.171,0.171,0.256,0.341,0.512,0.512v0.085c0.256,0.341,0.597,0.597,0.853,0.939
	c2.56,2.731,5.717,4.949,9.131,6.571c1.792,0.853,3.755,1.536,5.632,1.963c2.048,0.512,4.181,0.768,6.229,0.853
	c0.427,0.085,0.768,0.085,1.195,0.085c2.901,0,5.547-0.341,7.851-1.024c0.171-0.085,0.427-0.085,0.597-0.256
	c8.448-2.475,13.653-8.789,17.408-15.189c0.427-0.683,0.768-1.28,1.109-1.963c0.597-1.024,1.109-2.048,1.621-3.072
	c0.427-0.939,0.939-1.877,1.365-2.816c0.085-0.085,0.085-0.256,0.171-0.341c0.683-1.365,1.28-2.645,1.963-3.84
	c0.171-0.427,0.427-0.768,0.683-1.195c0.768-1.536,1.621-2.987,2.56-4.267c0.085-0.171,0.171-0.427,0.427-0.597
	c0.341-0.512,0.683-0.939,1.024-1.365c0.341-0.597,0.853-1.195,1.451-1.707c0.427-0.512,0.939-0.939,1.365-1.365
	c1.28-1.024,2.56-1.792,4.096-2.389c0.683-0.256,1.451-0.512,2.219-0.683c1.536-0.427,3.328-0.597,5.291-0.597
	c6.485,0,11.179,8.192,17.579,20.651c0.683,1.365,1.451,2.816,2.219,4.267c3.413,6.485,7.253,13.227,12.459,18.091
	c1.365,1.451,2.816,2.645,4.352,3.669c1.877,1.28,3.84,2.304,6.059,3.072c1.536,0.597,3.243,0.939,5.035,1.195
	c1.109,0.171,2.304,0.256,3.499,0.256c3.669,0,6.827-0.427,9.643-1.109c3.584-0.939,6.571-2.304,9.131-3.925
	c4.693-2.987,7.851-6.912,10.496-10.411c0.341-0.597,0.768-1.109,1.195-1.707c0.085-0.085,0.171-0.171,0.171-0.256
	c1.109-1.451,2.048-2.731,2.901-3.755c0.427-0.512,0.853-0.939,1.28-1.365c0.853-0.939,1.707-1.536,2.645-2.048
	c0.939-0.427,1.963-0.768,3.157-0.939c0.597-0.085,1.28-0.085,2.048-0.085c1.024,0,1.963,0.085,2.816,0.171
	c0.683,0.085,1.28,0.171,1.877,0.341c0.171,0,0.341,0,0.427,0.085c0.085,0,0.171,0.085,0.171,0.085
	c0.512,0.085,0.939,0.256,1.365,0.427c0.171,0,0.256,0.085,0.427,0.171c0.427,0.171,0.853,0.427,1.195,0.597
	c0.512,0.341,0.939,0.683,1.365,1.024c0.256,0.171,0.512,0.427,0.768,0.768c0.171,0.171,0.341,0.341,0.512,0.597
	c0.341,0.341,0.597,0.683,0.853,1.109c1.109,1.536,2.133,3.413,3.243,5.547c0.085,0.171,0.171,0.341,0.341,0.597
	c0.939,1.707,2.048,3.755,3.413,5.717c0.341,0.512,0.683,0.939,1.109,1.451c0.512,0.683,1.109,1.28,1.792,1.877
	c1.28,1.28,2.731,2.304,4.352,3.157c1.707,0.853,3.669,1.451,5.888,1.707c0.341,0.085,0.683,0.171,1.109,0.085
	c0.341,0.085,0.768,0.085,1.109,0.085c0.853,0,1.621,0,2.304-0.171c1.536-0.085,2.901-0.341,4.181-0.683
	c1.536-0.427,2.816-1.024,3.925-1.707c1.877-0.939,3.243-2.133,4.352-3.157c1.024-1.024,1.877-2.048,2.645-3.243
	c0.683-1.109,1.28-2.219,1.792-3.499c2.219-5.12,2.901-11.349,2.987-17.749c0.085-3.072,0-6.229,0-9.301c0-2.56,0-5.632,0.085-8.704
	c0.085-2.304,0.256-4.608,0.512-6.485c0.085-0.853,0.256-1.621,0.427-2.304l6.059,18.176l1.451,4.352l0.853,2.475l0.341,1.024
	l7.424,22.443l7.424,22.357l1.109,3.243H114.261z M181.504,316.587h0.085c0.085-0.085,0.085-0.171,0.171-0.341
	C181.589,316.416,181.589,316.501,181.504,316.587z M261.461,323.925c-1.195-2.048-2.56-4.352-3.925-6.827
	c-0.939-1.707-1.877-3.584-2.901-5.547c-7.168-13.995-15.36-29.952-32.768-29.952c-1.536,0-2.987,0.085-4.437,0.256
	c-0.853,0.085-1.707,0.171-2.475,0.256c-0.512,0.085-1.024,0.171-1.536,0.341c-2.219,0.427-4.181,1.109-6.059,1.877
	c-1.707,0.683-3.328,1.536-4.864,2.56c-4.523,2.901-7.936,6.741-10.667,10.837c-0.256,0.341-0.512,0.768-0.768,1.109h0.085
	c6.229,0.853,11.093,3.755,15.275,7.936c0.341-0.512,0.683-0.939,1.024-1.365c0.341-0.597,0.853-1.195,1.451-1.707
	c0.427-0.512,0.939-0.939,1.365-1.365c1.28-1.024,2.56-1.792,4.096-2.389c0.683-0.256,1.451-0.512,2.219-0.683
	c1.536-0.427,3.328-0.597,5.291-0.597c6.485,0,11.179,8.192,17.579,20.651c0.683,1.365,1.451,2.816,2.219,4.267
	c3.413,6.485,7.253,13.227,12.459,18.091c0.427-0.597,0.939-1.28,1.451-1.963c2.56-3.413,5.547-7.509,9.984-10.581
	C264.192,327.765,262.827,325.973,261.461,323.925z M191.147,298.837h-0.085c-0.768,1.195-1.536,2.475-2.133,3.669
	c-0.427,0.768-0.853,1.536-1.28,2.304c-0.853,1.621-1.621,3.157-2.304,4.608c-1.28,2.645-2.475,4.949-3.584,6.827
	c-0.085,0.171-0.085,0.256-0.171,0.341h-0.085c-1.024,1.792-2.048,3.243-3.072,4.352c-1.109,1.195-2.133,1.963-3.413,2.56
	c-0.512,0.171-0.939,0.341-1.536,0.427c-0.427,0.085-0.853,0.171-1.365,0.171c0,0-0.085,0-0.085,0.085
	c-0.085,0.085-0.085,0.171-0.171,0.256c-1.792,2.56-3.413,5.717-5.205,9.301c-0.085,0.085-0.085,0.256-0.171,0.341
	c-0.427,0.939-0.939,1.877-1.365,2.816c-0.597,1.109-1.195,2.304-1.877,3.499c2.048,0.512,4.181,0.768,6.229,0.853
	c0.427,0.085,0.768,0.085,1.195,0.085c2.901,0,5.547-0.341,7.851-1.024c0.171-0.085,0.427-0.085,0.597-0.256
	c8.448-2.475,13.653-8.789,17.408-15.189c0.427-0.683,0.768-1.28,1.109-1.963c0.597-1.024,1.109-2.048,1.621-3.072
	c0.427-0.939,0.939-1.877,1.365-2.816c0.085-0.085,0.085-0.256,0.171-0.341c0.683-1.365,1.28-2.645,1.963-3.84
	c0.171-0.427,0.427-0.768,0.683-1.195c0.768-1.536,1.621-2.987,2.56-4.267c0.085-0.171,0.171-0.427,0.427-0.597
	C202.24,302.592,197.376,299.691,191.147,298.837z M288.085,324.864c-1.621,2.219-3.157,4.011-5.035,5.291
	c-0.512,0.341-1.109,0.683-1.707,1.024c-2.133,1.024-4.693,1.621-8.277,1.621c-0.683,0-1.365-0.085-1.963-0.256
	c-0.597-0.085-1.195-0.341-1.792-0.597c-1.28-0.597-2.56-1.536-3.755-2.816c-1.365-1.365-2.731-3.157-4.096-5.205
	c-1.195-2.048-2.56-4.352-3.925-6.827c-0.939-1.707-1.877-3.584-2.901-5.547c-7.168-13.995-15.36-29.952-32.768-29.952
	c-1.536,0-2.987,0.085-4.437,0.256c-0.853,0.085-1.707,0.171-2.475,0.256c-0.512,0.085-1.024,0.171-1.536,0.341
	c-2.219,0.427-4.181,1.109-6.059,1.877c-1.707,0.683-3.328,1.536-4.864,2.56c-4.523,2.901-7.936,6.741-10.667,10.837
	c-0.256,0.341-0.512,0.768-0.768,1.109h0.085c6.229,0.853,11.093,3.755,15.275,7.936c0.341-0.512,0.683-0.939,1.024-1.365
	c0.341-0.597,0.853-1.195,1.451-1.707c0.427-0.512,0.939-0.939,1.365-1.365c1.28-1.024,2.56-1.792,4.096-2.389
	c0.683-0.256,1.451-0.512,2.219-0.683c1.536-0.427,3.328-0.597,5.291-0.597c6.485,0,11.179,8.192,17.579,20.651
	c0.683,1.365,1.451,2.816,2.219,4.267c3.413,6.485,7.253,13.227,12.459,18.091c1.365,1.451,2.816,2.645,4.352,3.669
	c1.877,1.28,3.84,2.304,6.059,3.072c1.536,0.597,3.243,0.939,5.035,1.195c1.109,0.171,2.304,0.256,3.499,0.256
	c3.669,0,6.827-0.427,9.643-1.109c3.584-0.939,6.571-2.304,9.131-3.925c4.693-2.987,7.851-6.912,10.496-10.411
	c0.341-0.597,0.768-1.109,1.195-1.707c0.085-0.085,0.171-0.171,0.171-0.256C300.117,328.96,295.168,325.973,288.085,324.864z"/>
<path style="fill:#8D6E63;" d="M273.067,384v102.4c0,0.853-0.171,1.792-0.427,2.56c-0.171,0.597-0.341,1.109-0.683,1.536
	c-0.341,0.683-0.768,1.28-1.28,1.792c-0.427,0.427-0.853,0.853-1.365,1.195c-0.512,0.341-1.024,0.597-1.536,0.768
	c-0.512,0.256-1.024,0.427-1.536,0.512c-0.512,0.085-1.109,0.171-1.707,0.171V384H273.067z"/>
<path style="fill:#C1AD9D;" d="M238.933,384h25.6v110.933h-17.067c-0.597,0-1.195-0.085-1.707-0.171
	c-0.512-0.085-1.024-0.256-1.536-0.512c-0.512-0.171-1.024-0.427-1.536-0.768s-0.939-0.768-1.365-1.195
	c-0.512-0.512-0.939-1.109-1.28-1.792c-0.768-1.195-1.109-2.645-1.109-4.096V384z"/>
<path style="fill:#388E3C;" d="M397.739,366.933h-21.76l-8.704-26.027c0.683-1.109,1.28-2.219,1.792-3.499
	c2.219-5.12,2.901-11.349,2.987-17.749c1.109-2.731,2.816-5.12,5.205-7.168c0.512-0.427,1.109-0.939,1.877-1.451l1.451,4.352
	l0.853,2.475l0.341,1.024l7.424,22.443l7.424,22.357L397.739,366.933z"/>
<path style="fill:#4CAF50;" d="M375.979,366.933H114.261l2.816-8.448l0.512-1.621l1.365-4.011l6.059-18.261l2.56-7.595l3.243-9.813
	l2.987-9.045l1.792-5.461c2.389,1.28,4.267,2.816,5.632,4.181c0.171,0.171,0.341,0.341,0.427,0.512
	c-2.048,10.923,1.792,18.517,5.461,22.955c0.171,0.171,0.256,0.341,0.512,0.512v0.085c0.256,0.341,0.597,0.597,0.853,0.939
	c2.56,2.731,5.717,4.949,9.131,6.571c1.792,0.853,3.755,1.536,5.632,1.963c2.048,0.512,4.181,0.768,6.229,0.853
	c0.427,0.085,0.768,0.085,1.195,0.085c2.901,0,5.547-0.341,7.851-1.024c0.171-0.085,0.427-0.085,0.597-0.256
	c8.448-2.475,13.653-8.789,17.408-15.189c0.427-0.683,0.768-1.28,1.109-1.963c0.597-1.024,1.109-2.048,1.621-3.072
	c1.28-0.597,2.56-1.109,4.011-1.536c0.427-0.171,0.853-0.341,1.28-0.427c0.939-0.341,1.792-0.597,2.816-0.768
	c0.683-0.171,1.365-0.341,2.048-0.427c1.28-0.256,2.645-0.512,4.096-0.597c0.341,0,0.683-0.085,1.024-0.085c0-0.085,0.085,0,0.085,0
	c0.085-0.085,0.085-0.085,0.171,0c1.621-0.171,3.243-0.256,5.035-0.256c2.219,0,4.267,0.171,6.229,0.597
	c1.109,0.171,2.133,0.427,3.157,0.683c0.597,0.171,1.195,0.341,1.707,0.512c1.195,0.427,2.304,0.853,3.413,1.365
	c0.085,0,0.171,0.085,0.341,0.171c1.28,0.597,2.475,1.28,3.584,2.048c1.195,0.768,2.304,1.621,3.413,2.475
	c3.413,6.485,7.253,13.227,12.459,18.091c1.365,1.451,2.816,2.645,4.352,3.669c3.243,2.219,6.827,3.755,11.093,4.267
	c1.109,0.171,2.304,0.256,3.499,0.256c3.669,0,6.827-0.427,9.643-1.109c3.584-0.939,6.571-2.304,9.131-3.925
	c4.693-2.987,7.851-6.912,10.496-10.411c0.853-0.256,1.707-0.512,2.56-0.683c2.731-0.597,5.717-0.939,9.045-0.939
	c2.475,0,4.779,0.171,6.912,0.427c3.925,0.427,7.339,1.365,10.24,2.56c0.939,1.707,2.048,3.755,3.413,5.717
	c0.341,0.512,0.683,0.939,1.109,1.451c0.512,0.683,1.109,1.28,1.792,1.877c1.28,1.28,2.731,2.304,4.352,3.157
	c1.707,0.853,3.669,1.451,5.888,1.707c0.341,0.085,0.683,0.171,1.109,0.085c0.341,0.085,0.768,0.085,1.109,0.085
	c0.853,0,1.621,0,2.304-0.171c1.536-0.085,2.901-0.341,4.181-0.683c1.536-0.427,2.816-1.024,3.925-1.707
	c1.877-0.939,3.243-2.133,4.352-3.157c1.024-1.024,1.877-2.048,2.645-3.243L375.979,366.933z"/>
<path d="M256,59.733v25.6c0,4.693-3.84,8.533-8.533,8.533s-8.533-3.84-8.533-8.533v-25.6c0-4.693,3.84-8.533,8.533-8.533
	S256,55.04,256,59.733z"/>
<path d="M230.4,136.533v25.6c0,4.693-3.84,8.533-8.533,8.533c-4.693,0-8.533-3.84-8.533-8.533v-25.6c0-4.693,3.84-8.533,8.533-8.533
	C226.56,128,230.4,131.84,230.4,136.533z"/>
<path d="M281.6,119.467v25.6c0,4.693-3.84,8.533-8.533,8.533s-8.533-3.84-8.533-8.533v-25.6c0-4.693,3.84-8.533,8.533-8.533
	S281.6,114.773,281.6,119.467z"/>
<path d="M256,204.8v25.6c0,4.693-3.84,8.533-8.533,8.533s-8.533-3.84-8.533-8.533v-25.6c0-4.693,3.84-8.533,8.533-8.533
	S256,200.107,256,204.8z"/>
<path d="M204.8,221.867v25.6c0,4.693-3.84,8.533-8.533,8.533s-8.533-3.84-8.533-8.533v-25.6c0-4.693,3.84-8.533,8.533-8.533
	S204.8,217.173,204.8,221.867z"/>
<path d="M307.2,247.467v25.6c0,4.693-3.84,8.533-8.533,8.533s-8.533-3.84-8.533-8.533v-25.6c0-4.693,3.84-8.533,8.533-8.533
	S307.2,242.773,307.2,247.467z"/>
<path d="M315.733,179.2v25.6c0,4.693-3.84,8.533-8.533,8.533c-0.171,0-0.341,0-0.512-0.085c-4.437-0.171-8.021-3.925-8.021-8.448
	v-25.6c0-4.693,3.84-8.533,8.533-8.533c1.28,0,2.475,0.256,3.584,0.853C313.685,172.8,315.733,175.787,315.733,179.2z"/>
<g>
	<path style="fill:#F4F4F4;" d="M241.664,323.584c-5.717-4.693-12.715-7.851-21.845-7.851c-8.448,0-15.104,1.536-20.565,4.096
		c0.427-0.939,0.939-1.877,1.365-2.816c5.803-11.691,9.643-18.347,21.248-18.347c6.485,0,11.179,8.192,17.579,20.651
		C240.128,320.683,240.896,322.133,241.664,323.584z"/>
	<path style="fill:#F4F4F4;" d="M142.165,305.323l-0.427,1.792c0,0.085,0,0.171-0.085,0.256c-0.085-0.171-0.256-0.341-0.427-0.512
		c-1.365-1.365-3.243-2.901-5.632-4.181l6.485-19.371c0.085,0,0.085,0.085,0.171,0.085
		C144.64,286.464,144.64,293.803,142.165,305.323z"/>
</g>
<path style="fill:#BDBDBD;" d="M379.136,311.04c-0.768,0.512-1.365,1.024-1.877,1.451c-2.389,2.048-4.096,4.437-5.205,7.168
	c0.085-3.072,0-6.229,0-9.301c0-2.56,0-5.632,0.085-8.704c0.085-2.304,0.256-4.608,0.512-6.485c0.085-0.853,0.256-1.621,0.427-2.304
	L379.136,311.04z"/>
<path style="fill:#F4F4F4;" d="M331.093,335.787c-4.523-1.877-10.155-2.987-17.152-2.987c-4.437,0-8.277,0.597-11.605,1.621
	c0.341-0.597,0.768-1.109,1.195-1.707c4.352-5.973,6.315-8.448,12.203-8.448c9.301,0,11.435,4.096,15.019,10.923
	C330.837,335.36,330.923,335.531,331.093,335.787z"/>
<g>
</g>
<g>
</g>
<g>
</g>
<g>
</g>
<g>
</g>
<g>
</g>
<g>
</g>
<g>
</g>
<g>
</g>
<g>
</g>
<g>
</g>
<g>
</g>
<g>
</g>
<g>
</g>
<g>
</g>
</svg>
