<?xml version="1.0" encoding="iso-8859-1"?>
<!-- Generator: Adobe Illustrator 19.0.0, SVG Export Plug-In . SVG Version: 6.00 Build 0)  -->
<svg version="1.1" id="Layer_1" xmlns="http://www.w3.org/2000/svg" xmlns:xlink="http://www.w3.org/1999/xlink" x="0px" y="0px"
	 viewBox="0 0 512 512" style="enable-background:new 0 0 512 512;" xml:space="preserve">
<path d="M244.992,170.325c-0.085-0.171-0.341-0.341-0.512-0.512c-0.683-0.853-1.451-1.621-2.219-2.389
	c-1.792-1.877-3.755-3.669-5.717-5.291h-47.019c1.365,0,2.731,0.085,4.011,0.256c1.024,0,2.133,0.085,3.157,0.256
	c0.853,0.085,1.707,0.171,2.475,0.341c0.256,0,0.512,0.085,0.768,0.171c0.512,0,1.024,0.171,1.451,0.256
	c0.427,0.085,0.939,0.171,1.451,0.341c2.475,0.597,4.779,1.365,7.168,2.304c1.109,0.427,2.133,0.853,3.243,1.365
	c0.427,0.171,0.939,0.427,1.365,0.683c0.853,0.427,1.792,0.853,2.645,1.365c1.195,0.683,2.389,1.365,3.584,2.219
	c1.024,0.683,2.048,1.451,3.072,2.219c1.109,0.768,2.133,1.621,3.157,2.56c1.024,0.768,1.963,1.707,2.901,2.731
	c1.195,1.109,2.304,2.304,3.243,3.584c0.939-1.195,1.963-2.389,2.987-3.584c2.645-3.157,5.632-6.059,8.875-8.704
	C245.077,170.411,244.992,170.411,244.992,170.325z M267.605,188.075c-2.475-2.816-5.035-5.461-7.936-7.851
	c-0.341,0.341-0.512,0.683-0.768,1.109c-1.024,1.707-2.048,3.413-2.901,5.12c-0.341-0.683-0.683-1.365-1.109-1.963
	c-0.597-1.195-1.28-2.389-2.048-3.584c-0.427-0.597-0.768-1.195-1.109-1.707c-1.024-1.621-2.133-3.243-3.328-4.779
	c-1.024-1.28-2.133-2.645-3.328-3.925c-3.243,2.645-6.229,5.547-8.875,8.704c-1.024,1.195-2.048,2.389-2.987,3.584
	c0.256,0.341,0.597,0.768,0.939,1.195c4.779,2.048,9.301,4.864,13.312,8.192c4.352,3.584,8.192,7.765,11.435,12.544
	c0.256,0.256,0.512,0.597,0.683,0.939c2.048,3.072,3.84,6.485,5.291,9.984c0-0.341,0.085-0.768,0.085-1.109
	c0.171-1.195,0.341-2.389,0.597-3.584c0.171-1.195,0.512-2.389,0.768-3.499c0.256-1.024,0.512-2.133,0.768-3.157
	c0.341-1.109,0.683-2.304,1.195-3.413c0.768-2.133,1.621-4.096,2.56-6.144c0.256-0.512,0.512-1.024,0.768-1.536
	C270.336,191.403,269.056,189.696,267.605,188.075z M269.483,238.933V256h17.067v-17.067H269.483z M247.467,256v17.067h17.067V256
	H247.467z M397.056,214.016c-1.621-16.64-8.533-31.744-18.944-43.52c-6.485-7.339-14.421-13.483-23.296-17.749
	c-3.328-1.707-6.827-3.072-10.496-4.181c-2.304-0.768-4.693-1.365-7.083-1.877c-1.451-0.341-2.901-0.597-4.437-0.768v-9.387
	c0-2.56-0.085-5.12-0.427-7.595c-2.133-22.101-13.739-41.387-30.549-53.931c-1.024-0.853-2.133-1.621-3.243-2.389
	c-0.171-5.035-0.683-10.069-1.451-15.104c-0.256-1.707-0.597-3.499-0.939-5.291l4.949,5.035c1.707,1.621,3.84,2.475,6.059,2.475
	s4.352-0.853,6.059-2.475c3.328-3.328,3.328-8.789,0-12.117l-3.157-3.072c3.328-1.195,5.632-4.267,5.632-7.936
	c0-1.963-0.683-3.755-1.792-5.205c-1.536-2.048-4.011-3.328-6.741-3.328h-3.243l2.304-4.693c2.133-4.267,0.427-9.387-3.755-11.435
	c-4.267-2.133-9.387-0.427-11.435,3.755L288,19.285l-1.877,3.84c-0.256-0.512-0.512-1.024-0.939-1.536
	c-0.768-1.365-1.536-2.645-2.389-3.925c-2.219-3.499-4.779-6.571-7.509-9.131c-0.085-0.171-0.256-0.256-0.341-0.256
	c-4.523-4.352-9.557-7.083-15.104-7.936C258.56,0.085,257.28,0,256,0c-0.853,0-1.707,0.085-2.475,0.341
	c-2.219,0.683-4.096,2.219-5.12,4.352l-5.376,10.837l-0.171,0.341l-7.851,15.616l-2.987,5.973l-2.645,5.291l-8.704,17.323
	l-2.389,4.693l-2.048,4.096l-1.451,2.987c-9.984,6.315-18.347,14.933-24.491,25.003c-0.171,0.256-0.256,0.427-0.341,0.683
	c0,0-0.085,0-0.085,0.085c-5.803,9.899-9.472,21.077-10.411,33.024c-0.085,1.28-0.171,2.645-0.171,4.011
	c-0.085,0.597-0.085,1.28-0.085,1.877v9.301c-1.707,0.256-3.413,0.597-5.12,0.939c-0.085,0-0.085,0-0.171,0.085
	c-2.304,0.427-4.608,1.024-6.827,1.877c-0.512,0.085-0.939,0.256-1.365,0.427c-0.939,0.341-1.877,0.683-2.816,1.024
	c-1.963,0.768-3.925,1.621-5.803,2.475c-2.475,1.28-4.779,2.645-7.083,4.096c-2.56,1.536-5.035,3.328-7.424,5.376
	c-2.048,1.621-4.011,3.413-5.888,5.291c-3.584,3.584-6.741,7.509-9.472,11.776c-0.597,0.768-1.024,1.536-1.536,2.304
	c-4.267,7.083-7.509,14.933-9.301,23.381c-1.28,5.461-1.877,11.093-1.877,16.981c0,1.365,0.085,2.645,0.085,3.925
	c0.085,1.195,0.256,2.389,0.341,3.584c0.256,3.243,0.853,6.4,1.536,9.557c0.341,1.792,0.853,3.499,1.451,5.291
	c0.085,0.683,0.341,1.451,0.597,2.133c0.085,0.341,0.171,0.768,0.341,1.109c0.171,0.597,0.427,1.195,0.597,1.792V281.6
	c0,0.427,0,0.853,0.171,1.28l0.853,2.645l0.085,0.171c0.683,1.28,1.621,2.389,2.901,3.157l18.176,11.349l28.928,18.091l0.427,0.256
	l3.328,2.048l7.851,4.949l0.939,0.597l3.499,2.133l2.56,1.621l0.427,1.195l1.024,2.987l3.84,11.776l35.072,105.301l3.584,10.752
	l5.461,16.299l3.584,10.752l5.717,17.237c1.195,3.413,4.437,5.803,8.107,5.803c3.669,0,6.912-2.389,8.107-5.803l0.085-0.171
	l8.96-27.051l46.677-140.032l2.987-9.045l7.253-4.523l58.453-36.523c2.475-1.536,4.011-4.352,4.011-7.253v-32.341
	c3.243-8.789,4.949-17.92,4.949-27.392C397.483,219.221,397.312,216.576,397.056,214.016z M332.885,163.157h0.085
	c0.683,0.085,1.365,0.256,2.048,0.427c0.256,0,0.597,0.085,0.853,0.171c2.56,0.597,5.12,1.451,7.509,2.475
	c0.853,0.256,1.707,0.597,2.475,1.024c1.195,0.512,2.389,1.109,3.584,1.792c1.195,0.597,2.304,1.195,3.328,1.963
	c1.963,1.195,3.755,2.475,5.461,3.925c0.939,0.768,1.877,1.536,2.731,2.389c0.341,0.256,0.683,0.512,0.939,0.853
	c0.853,0.853,1.707,1.707,2.56,2.645c0.939,1.024,1.877,2.048,2.731,3.157c0.256,0.341,0.512,0.683,0.768,1.024
	c1.109,1.451,2.219,2.987,3.157,4.523c1.195,1.792,2.219,3.669,3.072,5.632c0.768,1.365,1.365,2.816,1.963,4.267
	c1.365,3.413,2.475,7.083,3.157,10.837c0.768,3.755,1.109,7.595,1.109,11.605c0,5.803-0.768,11.52-2.389,17.067H264.533v-17.067
	c0-2.133,0.085-4.181,0.341-6.229c0-0.341,0.085-0.768,0.085-1.109c0.171-1.195,0.341-2.389,0.597-3.584
	c0.171-1.195,0.512-2.389,0.768-3.499c0.256-1.024,0.512-2.133,0.768-3.157c0.341-1.109,0.683-2.304,1.195-3.413
	c0.768-2.133,1.621-4.096,2.56-6.144c0.256-0.512,0.512-1.024,0.768-1.536c0.341-0.683,0.768-1.365,1.109-1.963
	c0.939-1.621,1.963-3.157,3.072-4.608c2.304-3.328,5.035-6.485,8.107-9.216c0.597-0.597,1.195-1.109,1.792-1.621
	c0.853-0.768,1.792-1.451,2.731-2.219c1.365-1.024,2.816-1.963,4.267-2.901c5.547-3.499,11.605-5.973,18.176-7.339
	c1.195-0.256,2.389-0.427,3.584-0.597c1.28-0.256,2.645-0.341,4.011-0.427c1.28-0.085,2.645-0.171,4.011-0.171
	c1.195,0,2.475,0,3.669,0.085c0.768,0.085,1.536,0.171,2.304,0.256c1.28,0.085,2.475,0.256,3.669,0.512
	C332.373,162.987,332.629,163.072,332.885,163.157z M260.608,18.432c0.512,0.341,1.109,0.683,1.621,1.109
	c0.597,0.512,1.195,1.109,1.792,1.707c0.597,0.597,1.28,1.28,1.877,2.048c0.768,0.939,1.536,1.963,2.219,3.072
	c0.512,0.683,0.939,1.365,1.365,2.048c0.171,0.256,0.341,0.597,0.512,0.853c1.536,2.731,2.987,5.803,4.352,9.216
	c0.512,1.195,1.024,2.475,1.451,3.84c0.427,1.365,0.939,2.731,1.28,4.181c0.597,1.707,1.024,3.499,1.536,5.291
	c0.939,3.84,1.621,7.936,2.133,12.117c-3.499-1.195-7.168-2.133-10.923-2.816h-0.085c-0.597-0.171-1.195-0.256-1.792-0.341
	c-3.925-0.683-7.936-1.024-11.947-1.024c-1.451,0-2.901,0-4.352,0.085c-0.085,0.085-0.171,0.085-0.256,0.085
	c-0.683,0-1.365,0.085-1.963,0.171c-3.584,0.256-7.083,0.853-10.496,1.621L260.608,18.432z M196.267,136.533
	c0-2.048,0.085-4.011,0.341-5.973c0-0.085,0-0.171,0-0.171c0.171-1.707,0.427-3.413,0.768-5.035
	c0.085-0.683,0.256-1.365,0.427-2.048c0.256-1.195,0.512-2.389,0.853-3.584c0.256-0.768,0.512-1.536,0.768-2.304
	c0.853-2.56,1.877-5.035,3.157-7.424c0.427-1.024,1.024-2.048,1.536-3.072c0.853-1.365,1.707-2.816,2.56-4.096
	c0.939-1.365,1.877-2.645,2.987-3.84c1.109-1.451,2.389-2.901,3.755-4.267c0.512-0.597,1.109-1.195,1.707-1.707
	c1.024-0.939,2.048-1.877,3.157-2.731c0.939-0.768,1.877-1.536,2.816-2.133c0.341-0.341,0.683-0.597,1.024-0.768
	c0.853-0.597,1.707-1.195,2.645-1.707c0.171-0.171,0.341-0.256,0.512-0.341c0.939-0.597,1.792-1.109,2.731-1.536
	c1.536-0.853,3.157-1.621,4.779-2.304c1.536-0.683,3.072-1.28,4.693-1.707c1.451-0.512,2.987-0.939,4.523-1.28
	c1.195-0.341,2.304-0.512,3.499-0.768s2.475-0.427,3.755-0.512c0.427-0.085,0.768-0.171,1.195-0.085
	c1.792-0.256,3.669-0.341,5.547-0.341c1.109,0,2.219,0,3.328,0.171c0.853,0,1.707,0.085,2.475,0.171h0.256
	c1.451,0.171,2.901,0.341,4.352,0.683c0.512,0.085,0.939,0.171,1.451,0.256c0.768,0.085,1.621,0.341,2.389,0.512
	c1.451,0.341,2.901,0.768,4.352,1.195c2.816,0.939,5.547,2.048,8.192,3.413c1.28,0.597,2.56,1.365,3.84,2.133
	c1.28,0.683,2.475,1.536,3.669,2.389c2.475,1.707,4.864,3.584,6.997,5.717c1.024,0.939,1.963,1.877,2.731,2.901
	c0.853,0.939,1.707,1.877,2.389,2.816c0.256,0.256,0.512,0.512,0.683,0.768c0.171,0.085,0.171,0.171,0.256,0.256
	c0.939,1.195,1.792,2.475,2.645,3.755c1.451,2.133,2.731,4.352,3.755,6.656c0.512,0.853,0.939,1.792,1.28,2.731
	c0,0,0.085,0.085,0.085,0.171c0.597,1.365,1.109,2.816,1.621,4.352c0.341,1.024,0.597,1.963,0.853,2.987
	c0.171,0.512,0.341,1.024,0.427,1.621c0.256,1.195,0.512,2.304,0.683,3.413c0.256,0.853,0.341,1.792,0.427,2.731
	c0.427,2.56,0.597,5.205,0.597,7.936v8.875c-4.608,0.427-9.131,1.28-13.483,2.56c-0.853,0.256-1.621,0.512-2.389,0.853
	c-0.341,0.085-0.683,0.171-1.024,0.341c-1.109,0.256-2.219,0.683-3.243,1.109c-1.707,0.597-3.328,1.365-4.949,2.219
	c-0.768,0.256-1.451,0.597-2.219,1.024c-1.792,0.939-3.499,1.877-5.12,2.987c-0.512,0.256-1.024,0.597-1.536,1.024
	c0,0.085,0,0.085,0,0.085c-0.683,0.427-1.365,0.768-1.963,1.195c-0.683,0.427-1.28,0.939-1.963,1.451
	c-0.427,0.256-0.768,0.597-1.195,0.939c-0.341,0.256-0.768,0.597-1.109,0.939c-4.864,3.925-9.216,8.533-12.885,13.568
	c-0.853,1.109-1.621,2.304-2.304,3.499c-0.256,0.341-0.512,0.683-0.683,1.024c-0.341,0.341-0.512,0.683-0.768,1.109
	c-1.024,1.707-2.048,3.413-2.901,5.12c-0.341-0.683-0.683-1.365-1.109-1.963c-0.597-1.195-1.28-2.389-2.048-3.584
	c-0.427-0.597-0.768-1.195-1.109-1.707c-1.024-1.621-2.133-3.243-3.328-4.779c-1.024-1.28-2.133-2.645-3.328-3.925
	c0-0.085-0.085-0.085-0.085-0.171c-0.085-0.171-0.341-0.341-0.512-0.512c-0.683-0.853-1.451-1.621-2.219-2.389
	c-1.792-1.877-3.755-3.669-5.717-5.291h-0.085c-0.341-0.341-0.768-0.683-1.109-0.939c-0.768-0.683-1.536-1.28-2.389-1.792
	c-1.621-1.28-3.413-2.389-5.12-3.413c-1.28-0.853-2.731-1.621-4.096-2.389c-0.085-0.085-0.085-0.085-0.171-0.085
	c-1.195-0.683-2.389-1.28-3.669-1.707c-0.512-0.256-1.024-0.512-1.536-0.683c-3.925-1.792-8.192-3.157-12.544-4.181
	c-1.451-0.341-2.731-0.597-4.181-0.853c-0.085-0.085-0.256-0.085-0.341-0.085h-0.341c-1.536-0.256-3.157-0.427-4.693-0.597
	C196.267,145.408,196.267,136.533,196.267,136.533z M132.779,233.643c-0.341-1.707-0.597-3.328-0.768-5.035
	c-0.171-0.853-0.256-1.707-0.256-2.56c-0.171-1.365-0.171-2.731-0.171-4.181c0-2.048,0.085-4.096,0.341-6.059
	c0-0.853,0.085-1.792,0.256-2.645c0.085-0.853,0.256-1.621,0.512-2.389c0.085-0.853,0.256-1.707,0.427-2.475
	c0.597-2.901,1.451-5.717,2.56-8.363c0.085-0.341,0.171-0.683,0.341-0.939c0.256-0.768,0.597-1.536,1.024-2.304
	c0.427-1.024,0.853-2.048,1.451-3.072c0.085-0.171,0.171-0.427,0.341-0.597c0.683-1.451,1.536-2.816,2.389-4.096
	c0.171-0.341,0.341-0.597,0.597-0.853c0.683-1.109,1.365-2.133,2.219-3.157c0.683-0.939,1.536-1.963,2.475-2.901v-0.085
	c0.768-0.939,1.621-1.792,2.475-2.731c1.109-1.109,2.219-2.133,3.413-3.243c5.461-4.608,11.776-8.363,18.688-10.752
	c0.768-0.256,1.536-0.512,2.304-0.768c1.195-0.341,2.475-0.683,3.755-0.939h0.085c0.171-0.085,0.341-0.085,0.427-0.085
	c0.597-0.171,1.28-0.256,1.963-0.341c1.109-0.256,2.219-0.427,3.328-0.512c0.427-0.085,0.853-0.171,1.28-0.085
	c1.707-0.256,3.499-0.341,5.291-0.341c1.365,0,2.731,0.085,4.011,0.256c1.024,0,2.133,0.085,3.157,0.256
	c0.853,0.085,1.707,0.171,2.475,0.341c0.256,0,0.512,0.085,0.768,0.171c0.512,0,1.024,0.171,1.451,0.256
	c0.427,0.085,0.939,0.171,1.451,0.341c2.475,0.597,4.779,1.365,7.168,2.304c1.109,0.427,2.133,0.853,3.243,1.365
	c0.427,0.171,0.939,0.427,1.365,0.683c0.853,0.427,1.792,0.853,2.645,1.365c1.195,0.683,2.389,1.365,3.584,2.219
	c1.024,0.683,2.048,1.451,3.072,2.219c1.109,0.768,2.133,1.621,3.157,2.56c1.024,0.768,1.963,1.707,2.901,2.731
	c1.195,1.109,2.304,2.304,3.243,3.584c0.256,0.341,0.597,0.768,0.939,1.195c0.341,0.341,0.683,0.768,0.939,1.195
	c2.133,2.645,3.84,5.376,5.376,8.363c0.853,1.707,1.707,3.413,2.389,5.205c0.597,1.536,1.195,3.072,1.707,4.608
	c0.683,1.877,1.195,3.84,1.536,5.803c0.256,1.365,0.512,2.731,0.683,4.096c0.085,0.256,0.171,0.597,0.085,0.853
	c0.256,1.707,0.427,3.413,0.427,5.205c0.171,0.853,0.171,1.707,0.171,2.56v17.067H133.973
	C133.461,237.227,133.035,235.435,132.779,233.643z M141.483,279.979l-4.949-3.072V256h110.933v21.248l-12.715,9.045l-0.768,0.512
	l-26.027,18.688l-12.032,8.533l-5.547-3.499l-1.707-1.024l-2.645-1.621l-0.512-0.341l-2.304-1.451l-13.483-8.363v-0.085
	l-11.179-6.997L141.483,279.979z M304.555,330.752l-40.363,121.259L256,476.501l-4.864-14.592l-3.584-10.752l-5.376-16.213
	l-3.584-10.752l-32.256-96.683l2.731-1.963l25.685-18.261l14.677-10.496l3.925-2.816l2.645-1.877l8.277,5.888l27.733,19.797
	l0.512,0.427l13.141,9.301l-0.341,1.109L304.555,330.752z M375.467,276.907l-13.483,8.448l-45.909,28.672l-7.851-5.632l-3.499-2.475
	l-15.019-10.752l-3.157-2.219l-17.067-12.203l-4.949-3.499V256h110.933V276.907L375.467,276.907z M252.843,180.907
	c-0.427-0.597-0.768-1.195-1.109-1.707c-1.024-1.621-2.133-3.243-3.328-4.779c-1.024-1.28-2.133-2.645-3.328-3.925
	c-3.243,2.645-6.229,5.547-8.875,8.704c-1.024,1.195-2.048,2.389-2.987,3.584c0.256,0.341,0.597,0.768,0.939,1.195
	c0.341,0.341,0.683,0.768,0.939,1.195c2.133,2.645,3.84,5.376,5.376,8.363c0.853,1.707,1.707,3.413,2.389,5.205
	c0,0,0-0.085,0.085-0.085c1.365-2.304,2.901-4.437,4.523-6.485c2.219-2.816,4.693-5.376,7.424-7.68
	C254.293,183.296,253.611,182.101,252.843,180.907z"/>
<path style="fill:#B71C1C;" d="M268.117,26.368l-3.243,6.571l-13.483,26.88c-0.683,0.085-1.28,0.171-1.963,0.256
	c-3.584,0.256-7.083,0.853-10.496,1.621l21.675-43.264c0.512,0.341,1.109,0.683,1.621,1.109c0.597,0.512,1.195,1.109,1.792,1.707
	c0.597,0.597,1.28,1.28,1.877,2.048C266.667,24.235,267.435,25.259,268.117,26.368z"/>
<path style="fill:#D50000;" d="M280.747,63.915c-3.499-1.195-7.168-2.133-10.923-2.816h-0.085c-0.597-0.171-1.195-0.256-1.792-0.341
	c-3.925-0.683-7.936-1.024-11.947-1.024c-1.451,0-2.901,0-4.352,0.085c-0.085,0.085-0.171,0.085-0.256,0l13.483-26.88l3.243-6.571
	c-0.683-1.109-1.451-2.133-2.219-3.072c0.768,0.939,1.536,1.877,2.304,2.987c0.427,0.683,0.853,1.365,1.28,2.133
	c0.171,0.256,0.341,0.597,0.512,0.853c1.621,2.731,3.072,5.803,4.352,9.216c0.512,1.195,1.024,2.475,1.451,3.84
	c0.512,1.28,0.939,2.731,1.365,4.096c0.512,1.792,0.939,3.584,1.451,5.376C279.552,55.637,280.235,59.733,280.747,63.915z"/>
<path style="fill:#BDBDBD;" d="M315.733,136.533v8.875c-4.608,0.427-9.131,1.28-13.483,2.56c-0.853,0.171-1.621,0.427-2.389,0.768
	c0.171-1.195,0.171-2.389,0.171-3.669c0-29.611-16.469-55.381-40.619-68.011c0-0.085,0-0.085-0.085-0.085
	c0.939,0,1.877,0.085,2.731,0.171c1.963,0.171,3.84,0.512,5.803,0.939c0.768,0.085,1.621,0.341,2.389,0.512
	c1.451,0.341,2.901,0.768,4.352,1.195c2.816,0.939,5.547,2.048,8.192,3.413c1.28,0.597,2.56,1.365,3.84,2.133
	c1.28,0.683,2.475,1.536,3.669,2.389c2.475,1.707,4.864,3.584,6.997,5.717c0.939,0.939,1.877,1.877,2.731,2.901
	c1.109,1.195,2.133,2.389,3.072,3.584c0.171,0.085,0.171,0.171,0.256,0.256c0.939,1.195,1.792,2.475,2.645,3.755
	c1.365,2.133,2.645,4.352,3.755,6.656c0.512,0.853,0.939,1.792,1.28,2.731c0,0,0.085,0.085,0.085,0.171
	c0.597,1.365,1.109,2.816,1.621,4.352c0.341,1.024,0.597,1.963,0.853,2.987c0.171,0.512,0.341,1.024,0.427,1.621
	c0.256,1.195,0.512,2.304,0.683,3.413c0.256,0.853,0.341,1.792,0.427,2.731C315.563,131.157,315.733,133.803,315.733,136.533z"/>
<g>
	<path style="fill:#F4F4F4;" d="M267.861,78.08c-1.963-0.427-3.84-0.768-5.803-0.939c2.816,0.256,5.547,0.683,8.192,1.451
		C269.483,78.421,268.629,78.165,267.861,78.08z"/>
	<path style="fill:#F4F4F4;" d="M300.032,145.067c0,1.28,0,2.475-0.171,3.669c-1.451,0.427-2.901,0.939-4.267,1.536
		c-1.707,0.597-3.328,1.365-4.949,2.219c-0.768,0.256-1.451,0.597-2.219,1.024c-1.792,0.939-3.499,1.877-5.12,2.987
		c-0.512,0.256-1.024,0.597-1.536,1.024c-1.365,0.768-2.645,1.707-3.925,2.731c-0.427,0.256-0.768,0.597-1.195,0.939
		c-0.341,0.256-0.768,0.597-1.109,0.939c-4.864,3.925-9.216,8.533-12.885,13.568c-0.853,1.109-1.707,2.304-2.475,3.499
		c-0.427,0.683-0.853,1.365-1.28,2.133c-1.024,1.707-2.048,3.413-2.901,5.12c-0.341-0.683-0.683-1.365-1.109-1.963
		c-0.597-1.195-1.28-2.389-2.048-3.584c-0.341-0.597-0.683-1.109-1.024-1.707h-0.085c-1.024-1.621-2.133-3.243-3.328-4.779
		c-1.024-1.28-2.133-2.645-3.328-3.925c-0.085-0.256-0.341-0.427-0.597-0.683c-0.683-0.853-1.451-1.621-2.219-2.389
		c-1.792-1.877-3.755-3.669-5.717-5.291h-0.085c-0.341-0.341-0.768-0.683-1.109-0.939c-0.768-0.683-1.536-1.28-2.389-1.792
		c-1.621-1.28-3.413-2.389-5.12-3.413c-1.365-0.853-2.731-1.707-4.096-2.389c-0.085-0.085-0.085-0.085-0.171-0.085
		c-1.195-0.683-2.389-1.28-3.669-1.707c-4.437-2.133-9.131-3.755-14.08-4.864c-1.536-0.341-2.987-0.683-4.523-0.939h-0.341
		c-1.536-0.256-3.157-0.427-4.693-0.597v-8.875c0-2.048,0.085-4.011,0.341-5.973c0-0.085,0-0.171,0-0.171
		c0.171-1.707,0.427-3.413,0.768-5.035c0.085-0.683,0.256-1.365,0.427-2.048c0.171-1.195,0.512-2.389,0.853-3.584
		c0.256-0.768,0.512-1.536,0.768-2.304c0.853-2.56,1.877-5.035,3.157-7.424c0.427-1.024,1.024-2.048,1.536-3.072
		c0.853-1.365,1.707-2.816,2.56-4.096c0.939-1.365,1.877-2.645,2.987-3.84c1.109-1.451,2.389-2.901,3.755-4.267
		c0.512-0.597,1.109-1.195,1.707-1.707c1.024-0.939,2.048-1.877,3.157-2.731c0.939-0.768,1.877-1.536,2.816-2.133
		c0.341-0.341,0.683-0.597,1.024-0.768c0.853-0.597,1.707-1.195,2.645-1.707c0.171-0.171,0.341-0.256,0.512-0.341
		c0.939-0.597,1.792-1.109,2.731-1.536c1.536-0.853,3.157-1.621,4.779-2.304c1.536-0.683,3.072-1.28,4.693-1.707
		c2.56-0.853,5.291-1.536,8.021-2.048c1.195-0.256,2.475-0.427,3.755-0.512c0.427-0.085,0.768-0.171,1.195-0.085
		c1.792-0.256,3.669-0.341,5.547-0.341c1.109,0,2.219,0,3.328,0.171c0.085,0,0.085,0,0.085,0.085
		C283.563,89.685,300.032,115.456,300.032,145.067z"/>
</g>
<path style="fill:#388E3C;" d="M380.416,221.867c0,5.803-0.768,11.52-2.389,17.067h-11.605c0.341-2.816,0.512-5.632,0.512-8.533
	c0-29.611-16.469-55.381-40.619-68.011c1.963,0,3.925,0.256,5.803,0.597c0.256,0,0.597,0.085,0.853,0.171
	c0.683,0.085,1.365,0.256,2.048,0.427c0.256,0,0.597,0.085,0.853,0.171c2.56,0.597,5.12,1.451,7.509,2.475
	c0.853,0.256,1.707,0.597,2.475,1.024c1.195,0.512,2.389,1.109,3.584,1.792c1.195,0.597,2.304,1.195,3.328,1.963
	c1.963,1.195,3.755,2.475,5.461,3.925c0.939,0.768,1.877,1.536,2.731,2.389c0.341,0.256,0.683,0.512,0.939,0.853
	c0.853,0.853,1.707,1.707,2.56,2.645c1.28,1.365,2.389,2.731,3.499,4.181c1.109,1.451,2.219,2.987,3.157,4.523
	c1.195,1.792,2.219,3.669,3.072,5.632c0.768,1.365,1.365,2.816,1.963,4.267c1.365,3.413,2.475,7.083,3.157,10.837
	C380.075,214.016,380.416,217.856,380.416,221.867z"/>
<path style="fill:#4CAF50;" d="M366.933,230.4c0,2.901-0.171,5.717-0.512,8.533H264.533v-17.067c0-21.76,11.349-40.789,28.16-51.2
	c8.704-5.461,18.944-8.533,29.781-8.533c1.28,0,2.56,0.085,3.84,0.256C350.464,175.019,366.933,200.789,366.933,230.4z"/>
<path style="fill:#6D4C41;" d="M247.467,221.867v17.067h-8.533c0-29.611-16.469-55.381-40.619-68.011c0-0.085,0-0.085-0.085-0.085
	l-0.085-0.085c-3.925-2.048-8.021-3.84-12.373-5.12c-2.816-0.853-5.632-1.621-8.533-2.133c0.171-0.085,0.341-0.085,0.427-0.085
	c0.597-0.171,1.28-0.256,1.963-0.341c1.109-0.256,2.219-0.427,3.328-0.512c0.427-0.085,0.853-0.171,1.28-0.085
	c1.707-0.256,3.499-0.341,5.291-0.341c1.365,0,2.731,0.085,4.011,0.256c1.024,0,2.133,0.085,3.157,0.256
	c0.853,0.085,1.707,0.171,2.475,0.341c0.768,0.085,1.536,0.256,2.219,0.427c0.427,0.085,0.939,0.171,1.451,0.341
	c2.475,0.597,4.779,1.365,7.168,2.304c1.109,0.427,2.133,0.853,3.243,1.365c0.427,0.171,0.939,0.427,1.365,0.683
	c0.853,0.427,1.792,0.853,2.645,1.365c1.195,0.683,2.389,1.365,3.584,2.219c1.024,0.683,2.048,1.451,3.072,2.219
	c1.109,0.768,2.133,1.621,3.157,2.56c1.024,0.768,1.963,1.707,2.901,2.731c1.109,1.109,2.219,2.304,3.243,3.584
	c0.597,0.768,1.28,1.536,1.877,2.389c2.133,2.645,3.84,5.376,5.376,8.363c0.853,1.707,1.707,3.413,2.389,5.205
	c0.597,1.536,1.195,3.072,1.707,4.608c0.683,1.877,1.195,3.84,1.536,5.803c0.256,1.365,0.512,2.731,0.683,4.096
	c0.085,0.256,0.171,0.597,0.085,0.853c0.256,1.707,0.427,3.413,0.427,5.205C247.467,220.16,247.467,221.013,247.467,221.867z"/>
<g>
	<path style="fill:#8D6E63;" d="M210.005,166.059c-2.389-0.939-4.693-1.707-7.168-2.304
		C205.312,164.352,207.701,165.035,210.005,166.059z"/>
	<path style="fill:#8D6E63;" d="M238.933,238.933h-104.96c-0.512-1.707-0.939-3.499-1.195-5.291
		c-0.341-1.707-0.597-3.328-0.768-5.035c-0.171-0.853-0.256-1.707-0.256-2.56c-0.085-1.365-0.171-2.816-0.171-4.181
		c0-2.048,0.085-4.096,0.341-6.059c0.085-1.707,0.341-3.413,0.768-5.035c0.085-0.853,0.256-1.707,0.427-2.475
		c0.597-2.901,1.451-5.717,2.56-8.363c0.085-0.341,0.171-0.683,0.341-0.939c0.256-0.768,0.597-1.536,1.024-2.304
		c0.427-1.024,0.939-2.048,1.451-3.072c0.085-0.171,0.171-0.427,0.341-0.597c0.683-1.451,1.536-2.816,2.389-4.096
		c0.171-0.341,0.341-0.597,0.597-0.853c0.683-1.109,1.451-2.133,2.219-3.157c0.683-0.939,1.536-1.963,2.475-2.901v-0.085
		c0.768-0.939,1.621-1.792,2.475-2.731c1.109-1.109,2.219-2.219,3.413-3.243c5.461-4.608,11.776-8.363,18.688-10.752
		c0.768-0.256,1.536-0.512,2.304-0.768c1.195-0.341,2.475-0.683,3.755-0.939c0.085-0.085,0.085,0,0.085,0
		c2.901,0.512,5.717,1.28,8.533,2.133c4.352,1.28,8.448,3.072,12.373,5.12l0.085,0.085c0.085,0,0.085,0,0.085,0.085
		C222.464,183.552,238.933,209.323,238.933,238.933z"/>
</g>
<path style="fill:#F9A825;" d="M375.467,256v20.907l-59.392,37.12l-11.349-8.107l54.613-34.133c2.475-1.536,4.011-4.352,4.011-7.253
	V256H375.467L375.467,256z"/>
<path style="fill:#FFC107;" d="M363.349,256v8.533c0,2.901-1.536,5.717-4.011,7.253l-54.613,34.133l-15.019-10.752l-25.173-17.92
	V256H363.349z"/>
<polygon style="fill:#F9A825;" points="305.664,327.509 256,476.501 247.552,451.157 292.011,317.781 "/>
<polygon style="fill:#FFC107;" points="292.011,317.781 247.552,451.157 238.592,424.192 206.336,327.509 253.355,293.973 
	256,292.096 "/>
<path style="fill:#F9A825;" d="M247.467,256v21.248l-51.541,36.779l-10.411-6.485l48.811-33.963c2.389-1.621,3.84-4.523,3.669-7.424
	L237.483,256H247.467z"/>
<path style="fill:#FFC107;" d="M237.995,266.155c0.171,2.901-1.28,5.803-3.669,7.424l-48.811,33.963l-2.304-1.451l-13.483-8.448
	l-33.195-20.736V256h100.949L237.995,266.155z"/>
<g>
	<path style="fill:#F9A825;" d="M264.542,392.533c-3.038,0-5.982-1.63-7.526-4.497l-27.93-51.977
		c-2.227-4.147-0.674-9.327,3.482-11.554c4.147-2.253,9.318-0.674,11.554,3.482l27.93,51.977c2.227,4.147,0.674,9.327-3.482,11.554
		C267.29,392.209,265.907,392.533,264.542,392.533z"/>
	<path style="fill:#F9A825;" d="M238.942,375.467c-2.756,0-5.461-1.331-7.108-3.797c-2.611-3.917-1.553-9.225,2.364-11.836
		l25.6-17.067c3.917-2.62,9.216-1.553,11.836,2.364c2.611,3.917,1.553,9.225-2.364,11.836l-25.6,17.067
		C242.21,375.006,240.563,375.467,238.942,375.467z"/>
</g>
<g>
</g>
<g>
</g>
<g>
</g>
<g>
</g>
<g>
</g>
<g>
</g>
<g>
</g>
<g>
</g>
<g>
</g>
<g>
</g>
<g>
</g>
<g>
</g>
<g>
</g>
<g>
</g>
<g>
</g>
</svg>
