<?xml version="1.0" encoding="iso-8859-1"?>
<!-- Generator: Adobe Illustrator 19.0.0, SVG Export Plug-In . SVG Version: 6.00 Build 0)  -->
<svg version="1.1" id="Layer_1" xmlns="http://www.w3.org/2000/svg" xmlns:xlink="http://www.w3.org/1999/xlink" x="0px" y="0px"
	 viewBox="0 0 512 512" style="enable-background:new 0 0 512 512;" xml:space="preserve">
<path d="M315.733,178.517c-0.085-2.56-0.768-6.741-8.789-10.24l-8.277-49.749c-0.427-4.864-3.84-8.277-8.789-10.667L281.6,17.067
	C281.6,7.168,270.848,0,256,0c-6.827,0-12.715,1.536-17.152,4.011c-5.291,2.987-8.448,7.339-8.448,12.288l-0.256,2.389
	l-7.509,83.712l-0.512,5.461c-4.949,2.389-8.363,5.803-8.789,10.667l-0.171,1.28l-7.168,42.667l-0.939,5.803
	c-8.021,3.499-8.704,7.68-8.789,10.24l-0.256,1.877L171.861,332.8l-1.109,7.168c-0.341,2.475,0.341,5.035,1.963,6.912
	c1.621,1.877,4.011,2.987,6.485,2.987h51.2V486.4c0,7.509,3.328,14.336,8.533,19.029C243.456,509.525,249.515,512,256,512
	c6.997,0,13.483-2.901,18.091-7.509c4.608-4.608,7.509-11.093,7.509-18.091V349.867h51.2c2.475,0,4.864-1.109,6.485-2.987
	c1.621-1.877,2.304-4.437,1.963-6.912L315.733,178.517z M256,17.067c4.352,0,7.339,1.024,8.704,1.792l7.595,84.395
	c-5.717-0.683-11.52-0.853-16.299-0.853h-0.768c-4.608,0-10.069,0.171-15.531,0.853l7.595-84.395
	c0.085-0.085,0.256-0.085,0.341-0.171C249.088,17.92,251.904,17.067,256,17.067z M238.933,120.747
	c1.109-0.171,2.304-0.341,3.584-0.512c1.024-0.171,2.133-0.256,3.243-0.341c3.072-0.256,6.485-0.427,10.24-0.427
	c3.157,0,6.059,0.085,8.704,0.341c1.024,0,2.048,0.171,3.072,0.256c1.024,0.085,1.963,0.256,2.901,0.341
	c0.939,0.085,1.792,0.256,2.56,0.341c0.939,0.171,1.707,0.341,2.56,0.512c2.816,0.512,4.949,1.195,6.229,1.707l6.827,40.96
	c-2.048-0.256-4.267-0.512-6.656-0.768c-1.109-0.085-2.389-0.171-3.669-0.256c-1.195-0.085-2.56-0.171-3.925-0.256
	c-0.853-0.085-1.792-0.171-2.731-0.171c-4.779-0.256-9.984-0.341-15.872-0.341h-1.536c-4.267,0-8.277,0.085-11.947,0.256
	c-1.195,0-2.389,0.085-3.584,0.171h-0.085c-3.072,0.171-5.803,0.341-8.448,0.597c-1.28,0.085-2.56,0.171-3.755,0.341
	c-1.195,0.171-2.389,0.256-3.499,0.427l0.256-1.792l6.571-39.168c0.597-0.256,1.28-0.512,2.133-0.768
	c0.853-0.256,1.877-0.512,3.072-0.768c1.109-0.256,2.304-0.427,3.669-0.683H238.933z M264.533,486.4c0,4.693-3.84,8.533-8.533,8.533
	c-4.693,0-8.533-3.84-8.533-8.533V349.867h17.067V486.4z M189.184,332.8l23.552-149.333c3.157-1.024,9.984-2.475,20.395-3.328
	c1.024-0.085,2.133-0.171,3.243-0.256c0.683-0.085,1.28-0.085,1.963-0.171h0.597c1.621-0.171,3.413-0.256,5.205-0.256
	c2.304-0.085,4.693-0.171,7.168-0.171c1.536-0.085,3.072-0.085,4.693-0.085c1.877,0,3.669,0,5.461,0.085
	c1.707,0,3.413,0,5.035,0.085c1.621,0.085,3.243,0.171,4.779,0.256c1.451,0.085,2.987,0.171,4.352,0.256
	c2.219,0.085,4.267,0.341,6.229,0.512c8.789,0.853,14.507,2.133,17.408,3.072L322.816,332.8H189.184z"/>
<path style="fill:#B71C1C;" d="M272.299,103.253c-5.717-0.683-11.52-0.853-16.299-0.853h-0.768l-7.595-83.712
	c1.451-0.768,4.267-1.621,8.363-1.621c4.352,0,7.339,1.024,8.704,1.792L272.299,103.253z"/>
<path style="fill:#D50000;" d="M255.232,102.4c-4.608,0-10.069,0.171-15.531,0.853l7.595-84.395
	c0.085-0.085,0.256-0.085,0.341-0.171L255.232,102.4z"/>
<path style="fill:#BDBDBD;" d="M288.853,163.925c-2.048-0.256-4.267-0.512-6.656-0.768c-1.109-0.085-2.389-0.171-3.669-0.256
	c-1.195-0.085-2.56-0.171-3.925-0.256c-0.853-0.085-1.792-0.171-2.731-0.171l-7.168-42.667c1.024,0,2.048,0.171,3.072,0.256
	c1.024,0.085,1.963,0.256,2.901,0.341c0.939,0.085,1.792,0.256,2.56,0.341c0.939,0.171,1.707,0.341,2.56,0.512
	c2.816,0.512,4.949,1.195,6.229,1.707L288.853,163.925z"/>
<path style="fill:#F4F4F4;" d="M264.704,119.808l7.168,42.667c-4.779-0.256-9.984-0.341-15.872-0.341h-1.536
	c-4.267,0-8.277,0.085-11.947,0.256c-1.195,0-2.389,0.085-3.584,0.171h-0.085c-3.072,0.171-5.803,0.341-8.448,0.597
	c-1.28,0.085-2.56,0.171-3.755,0.341c-1.195,0.171-2.389,0.256-3.499,0.427l0.256-1.792l6.571-39.168
	c1.109-0.512,2.901-1.024,5.205-1.536c1.109-0.256,2.304-0.427,3.669-0.683h0.085c1.109-0.171,2.304-0.341,3.584-0.512
	c1.024-0.171,2.133-0.256,3.243-0.341c3.072-0.256,6.485-0.427,10.24-0.427C259.157,119.467,262.059,119.552,264.704,119.808z"/>
<path style="fill:#2979FF;" d="M322.816,332.8h-16.811l-24.149-152.405c8.789,0.853,14.507,2.133,17.408,3.072L322.816,332.8z"/>
<path style="fill:#0091EA;" d="M306.005,332.8H189.184l23.552-149.333c3.157-1.024,9.984-2.475,20.395-3.328
	c1.024-0.085,2.133-0.171,3.243-0.256c0.683-0.085,1.28-0.085,1.963-0.171h0.597c1.621-0.171,3.413-0.256,5.205-0.256
	c2.304-0.085,4.693-0.171,7.168-0.171c1.536-0.085,3.072-0.085,4.693-0.085c1.877,0,3.669,0,5.461,0.085
	c1.707,0,3.413,0,5.035,0.085c1.621,0.085,3.243,0.171,4.779,0.256c1.451,0.085,2.987,0.171,4.352,0.256
	c2.219,0.085,4.267,0.341,6.229,0.512L306.005,332.8z"/>
<path style="fill:#8D6E63;" d="M264.533,349.867V486.4c0,4.693-3.84,8.533-8.533,8.533V349.867H264.533z"/>
<path style="fill:#C1AD9D;" d="M256,349.867v145.067c-4.693,0-8.533-3.84-8.533-8.533V349.867H256z"/>
<g>
</g>
<g>
</g>
<g>
</g>
<g>
</g>
<g>
</g>
<g>
</g>
<g>
</g>
<g>
</g>
<g>
</g>
<g>
</g>
<g>
</g>
<g>
</g>
<g>
</g>
<g>
</g>
<g>
</g>
</svg>
